<svg width="18" height="18" viewBox="0 0 18 18" fill="none" xmlns="http://www.w3.org/2000/svg">
<path d="M10.6976 6.70747V9.16968H12.9051C13.0749 9.16968 13.1598 9.33949 13.1598 9.5093L12.8202 11.1225C12.8202 11.2074 12.6504 11.2923 12.5655 11.2923H10.6976V17.4903H8.15046V11.3772H6.70709C6.53728 11.3772 6.45238 11.2923 6.45238 11.1225V9.5093C6.45238 9.33949 6.53728 9.25459 6.70709 9.25459H8.15046V6.45275C8.15046 5.00938 9.25421 3.90563 10.6976 3.90563H12.99C13.1598 3.90563 13.2447 3.99053 13.2447 4.16034V6.19804C13.2447 6.36785 13.1598 6.45275 12.99 6.45275H10.9523C10.7825 6.45275 10.6976 6.53766 10.6976 6.70747Z" stroke="#F7BF23" stroke-miterlimit="10" stroke-linecap="round"/>
<path d="M11.547 17.4902H6.45271C2.20751 17.4902 0.509425 15.7922 0.509425 11.547V6.45271C0.509425 2.20751 2.20751 0.509425 6.45271 0.509425H11.547C15.7922 0.509425 17.4902 2.20751 17.4902 6.45271V11.547C17.4902 15.7922 15.7922 17.4902 11.547 17.4902Z" stroke="#F7BF23" stroke-linecap="round" stroke-linejoin="round"/>
</svg>
