<svg width="12" height="12" viewBox="0 0 12 12" fill="none" xmlns="http://www.w3.org/2000/svg">
<g clip-path="url(#clip0_1566_3150)">
<path d="M5.60246 9.02273C5.6547 9.07497 5.71671 9.11641 5.78495 9.14468C5.8532 9.17295 5.92635 9.1875 6.00022 9.1875C6.07409 9.1875 6.14724 9.17295 6.21549 9.14468C6.28373 9.11641 6.34574 9.07497 6.39798 9.02273L8.51928 6.90143C8.62477 6.79594 8.68403 6.65287 8.68403 6.50368C8.68403 6.3545 8.62477 6.21143 8.51928 6.10594C8.41379 6.00045 8.27072 5.94119 8.12154 5.94119C7.97235 5.94119 7.82928 6.00045 7.72379 6.10594L6.56272 7.26701V1.125C6.56272 0.975816 6.50346 0.832742 6.39797 0.727252C6.29248 0.621763 6.1494 0.5625 6.00022 0.5625C5.85104 0.5625 5.70796 0.621763 5.60247 0.727252C5.49698 0.832742 5.43772 0.975816 5.43772 1.125V7.26701L4.27665 6.10594C4.17116 6.00045 4.02809 5.94119 3.8789 5.94119C3.72972 5.94119 3.58665 6.00045 3.48116 6.10594C3.37567 6.21143 3.31641 6.3545 3.31641 6.50368C3.31641 6.65287 3.37567 6.79594 3.48116 6.90143L5.60246 9.02273Z" fill="#F7BF23"/>
<path d="M10.875 5.4375C10.7258 5.4375 10.5827 5.49676 10.4773 5.60225C10.3718 5.70774 10.3125 5.85082 10.3125 6V10.3125H1.6875V6C1.6875 5.85082 1.62824 5.70774 1.52275 5.60225C1.41726 5.49676 1.27418 5.4375 1.125 5.4375C0.975816 5.4375 0.832742 5.49676 0.727252 5.60225C0.621763 5.70774 0.5625 5.85082 0.5625 6V10.5C0.5625 10.7486 0.661272 10.9871 0.837087 11.1629C1.0129 11.3387 1.25136 11.4375 1.5 11.4375H10.5C10.7486 11.4375 10.9871 11.3387 11.1629 11.1629C11.3387 10.9871 11.4375 10.7486 11.4375 10.5V6C11.4375 5.85082 11.3782 5.70774 11.2727 5.60225C11.1673 5.49676 11.0242 5.4375 10.875 5.4375Z" fill="#F7BF23"/>
</g>
<defs>
<clipPath id="clip0_1566_3150">
<rect width="12" height="12" fill="white"/>
</clipPath>
</defs>
</svg>
