<svg width="18" height="18" viewBox="0 0 18 18" fill="none" xmlns="http://www.w3.org/2000/svg">
<path d="M4.5 14.25C4.5 15.075 5.175 15.75 6 15.75H12C12.825 15.75 13.5 15.075 13.5 14.25V6.75C13.5 5.925 12.825 5.25 12 5.25H6C5.175 5.25 4.5 5.925 4.5 6.75V14.25ZM6.8775 8.3775C7.17 8.085 7.6425 8.085 7.935 8.3775L9 9.4425L10.065 8.3775C10.3575 8.085 10.83 8.085 11.1225 8.3775C11.415 8.67 11.415 9.1425 11.1225 9.435L10.0575 10.5L11.1225 11.565C11.415 11.8575 11.415 12.33 11.1225 12.6225C10.83 12.915 10.3575 12.915 10.065 12.6225L9 11.5575L7.935 12.6225C7.6425 12.915 7.17 12.915 6.8775 12.6225C6.585 12.33 6.585 11.8575 6.8775 11.565L7.9425 10.5L6.8775 9.435C6.585 9.15 6.585 8.67 6.8775 8.3775ZM11.625 3L11.0925 2.4675C10.9575 2.3325 10.7625 2.25 10.5675 2.25H7.4325C7.2375 2.25 7.0425 2.3325 6.9075 2.4675L6.375 3H4.5C4.0875 3 3.75 3.3375 3.75 3.75C3.75 4.1625 4.0875 4.5 4.5 4.5H13.5C13.9125 4.5 14.25 4.1625 14.25 3.75C14.25 3.3375 13.9125 3 13.5 3H11.625Z" fill="#DA0000"/>
</svg>
