<svg width="56" height="56" viewBox="0 0 56 56" fill="none" xmlns="http://www.w3.org/2000/svg">
<path d="M26.3405 18.635L17.025 34.7688C16.8567 35.0601 16.7681 35.3906 16.7681 35.7271C16.768 36.0636 16.8566 36.3941 17.0248 36.6855C17.193 36.9769 17.435 37.2188 17.7264 37.387C18.0177 37.5553 18.3483 37.6438 18.6847 37.6438H37.3142C37.6507 37.6438 37.9812 37.5553 38.2726 37.387C38.564 37.2188 38.8059 36.9769 38.9742 36.6855C39.1424 36.3941 39.2309 36.0636 39.2309 35.7271C39.2309 35.3906 39.1422 35.0601 38.974 34.7688L29.6595 18.635C29.4913 18.3437 29.2494 18.1018 28.9581 17.9337C28.6668 17.7655 28.3363 17.6769 28 17.6769C27.6636 17.6769 27.3332 17.7655 27.0419 17.9337C26.7506 18.1018 26.5087 18.3437 26.3405 18.635Z" fill="#F7BF23"/>
<path d="M28.1217 23.611H27.8787C27.2804 23.611 26.7954 24.096 26.7954 24.6943V29.872C26.7954 30.4703 27.2804 30.9553 27.8787 30.9553H28.1217C28.7199 30.9553 29.2049 30.4703 29.2049 29.872V24.6943C29.2049 24.096 28.7199 23.611 28.1217 23.611Z" fill="white"/>
<path d="M28.0002 35.0618C28.6655 35.0618 29.2049 34.5224 29.2049 33.857C29.2049 33.1917 28.6655 32.6523 28.0002 32.6523C27.3348 32.6523 26.7954 33.1917 26.7954 33.857C26.7954 34.5224 27.3348 35.0618 28.0002 35.0618Z" fill="white"/>
<rect opacity="0.4" x="-1" y="1" width="54" height="54" rx="15" transform="matrix(-1 0 0 1 54 0)" stroke="white" stroke-width="2"/>
</svg>
