<svg width="47" height="34" viewBox="0 0 47 34" fill="none" xmlns="http://www.w3.org/2000/svg">
<mask id="mask0_907_2503" style="mask-type:alpha" maskUnits="userSpaceOnUse" x="-3" y="-9" width="52" height="52">
<rect x="-2.00878" y="-8.70484" width="50.8903" height="50.8903" fill="#D9D9D9"/>
</mask>
<g mask="url(#mask0_907_2503)">
<path d="M32.3266 7.73568V8.79771C32.3266 9.20981 32.2985 9.61496 32.2434 10.012C32.1123 10.965 31.8282 11.8697 31.4173 12.6997C30.9863 13.5697 30.4165 14.3581 29.7361 15.0361C29.2014 15.5693 28.5981 16.0338 27.9413 16.4158C27.0103 16.9578 25.9702 17.3333 24.8627 17.5025C24.4248 17.5696 23.9765 17.6043 23.5197 17.6043C20.0572 17.6043 17.0615 15.6059 15.6225 12.6993H18.9385C20.0421 13.9938 21.6847 14.8149 23.5193 14.8149C23.9811 14.8149 24.4306 14.7628 24.8623 14.6641C26.0658 14.3901 27.1317 13.7552 27.9409 12.8793C27.9952 12.8207 28.0488 12.7606 28.1005 12.6993C28.7458 11.9422 29.2072 11.0232 29.4142 10.0116H14.7967C14.742 9.61457 14.7135 9.20942 14.7135 8.79733C14.7135 8.43805 14.7351 8.0834 14.7771 7.7353C14.9228 6.52177 15.3152 5.38456 15.9031 4.37457C16.2381 3.79826 16.6367 3.26358 17.09 2.77979C18.6116 1.15417 20.743 0.10601 23.1191 0H24.8627V2.77979H23.5197C21.9453 2.77979 20.512 3.38463 19.4396 4.37457C18.4951 5.24578 17.8306 6.41614 17.5958 7.7353L32.3266 7.73568Z" fill="white"/>
<path d="M32.3263 0.000683342V4.37487H29.7358V2.78047H27.941V0.000683342H32.3263Z" fill="#44C1EF"/>
<path d="M2.30671 28.1425C2.07965 28.1425 1.85684 28.1213 1.63826 28.0785C1.41969 28.0361 1.21384 27.9795 1.0207 27.9082C0.827572 27.8372 0.650245 27.7536 0.488338 27.6568C0.326431 27.5604 0.18881 27.4583 0.0750898 27.3503C0.0296017 27.3049 0.0269032 27.2567 0.0666089 27.2054L0.713851 26.4645C0.747775 26.419 0.790564 26.4163 0.841449 26.456C1.03458 26.6094 1.25855 26.7471 1.51413 26.8693C1.76972 26.9915 2.05074 27.0524 2.35721 27.0524C2.66367 27.0524 2.89805 26.9884 3.05996 26.8608C3.22187 26.7332 3.30282 26.567 3.30282 26.3627C3.30282 26.1923 3.24037 26.0532 3.11547 25.9456C2.99057 25.8377 2.75504 25.7613 2.40848 25.7155L2.10201 25.6731C1.51144 25.5937 1.05887 25.4132 0.743534 25.1322C0.428586 24.8512 0.27092 24.4522 0.27092 23.9357C0.27092 23.6689 0.319107 23.426 0.415865 23.2075C0.512238 22.9889 0.650245 22.8031 0.829113 22.6496C1.00798 22.4962 1.22347 22.3771 1.47636 22.2919C1.72885 22.2067 2.01142 22.1643 2.32367 22.1643C2.70955 22.1643 3.07307 22.2183 3.41384 22.3262C3.75462 22.4342 4.04682 22.5818 4.29122 22.7692C4.34249 22.8031 4.34789 22.8459 4.30819 22.8968L3.78854 23.6716C3.75462 23.7171 3.71453 23.7256 3.66942 23.697C3.44815 23.5494 3.22803 23.4388 3.00946 23.3647C2.79089 23.2911 2.56229 23.2541 2.32367 23.2541C2.06809 23.2541 1.87496 23.3139 1.74466 23.433C1.61398 23.5521 1.54883 23.7028 1.54883 23.8844C1.54883 24.049 1.61552 24.1855 1.7489 24.2934C1.88228 24.4013 2.11627 24.478 2.45165 24.5231L2.75812 24.5659C3.35987 24.6453 3.81398 24.8258 4.12084 25.1068C4.4273 25.3878 4.58073 25.7922 4.58073 26.3203C4.58073 26.5817 4.53254 26.8241 4.43578 27.0485C4.33902 27.2729 4.19601 27.466 4.00557 27.6275C3.81514 27.7894 3.57806 27.9159 3.29434 28.0065C3.01062 28.097 2.68141 28.1425 2.30671 28.1425Z" fill="white"/>
<path d="M5.83251 22.2068C5.83251 22.1501 5.86103 22.1216 5.9177 22.1216H6.93116C6.99939 22.1216 7.0445 22.1501 7.06763 22.2068L8.5325 25.741H8.56642L10.0059 22.2068C10.0286 22.1501 10.0741 22.1216 10.1419 22.1216H11.1384C11.1951 22.1216 11.2236 22.1501 11.2236 22.2068V28.0574C11.2236 28.1144 11.1951 28.1426 11.1384 28.1426H10.1762C10.1196 28.1426 10.091 28.1144 10.091 28.0574V24.7957H10.0571L8.98391 27.2398C8.94999 27.3138 8.89602 27.3504 8.822 27.3504H8.23451C8.1605 27.3504 8.10691 27.3134 8.07261 27.2398L6.99939 24.7957H6.96547V28.0574C6.96547 28.1144 6.93694 28.1426 6.88028 28.1426H5.91809C5.86142 28.1426 5.83289 28.1144 5.83289 28.0574V22.2068H5.83251Z" fill="white"/>
<path d="M14.4744 22.2068C14.4913 22.1501 14.5283 22.1216 14.585 22.1216H15.6582C15.7149 22.1216 15.7519 22.1501 15.7688 22.2068L17.7275 28.0574C17.7445 28.1144 17.7244 28.1426 17.6678 28.1426H16.5606C16.504 28.1426 16.467 28.1144 16.45 28.0574L16.1177 27.0439H14.0908L13.767 28.0574C13.75 28.1144 13.713 28.1426 13.6563 28.1426H12.5407C12.4837 28.1426 12.464 28.1144 12.481 28.0574L14.4744 22.2068ZM15.7773 25.9792L15.1216 23.9523H15.0962L14.4404 25.9792H15.7773Z" fill="white"/>
<path d="M22.1868 28.1425C22.1243 28.1425 22.0815 28.1144 22.0592 28.0573L21.0627 25.7197H20.2878C20.2539 25.7197 20.2366 25.7367 20.2366 25.771V28.0577C20.2366 28.1148 20.208 28.1429 20.1514 28.1429H19.0697C19.013 28.1429 18.9845 28.1148 18.9845 28.0577V22.2194C18.9845 22.1628 19.0126 22.1342 19.0697 22.1342H21.3776C21.6729 22.1342 21.9412 22.1782 22.1825 22.2661C22.4238 22.354 22.6309 22.4777 22.8043 22.6365C22.9774 22.7954 23.1108 22.9858 23.2045 23.2071C23.2981 23.4283 23.3452 23.6701 23.3452 23.931C23.3452 24.3057 23.2542 24.6322 23.0726 24.9106C22.8907 25.1889 22.6382 25.399 22.3147 25.5408L23.4558 28.0404C23.467 28.0689 23.467 28.0928 23.4558 28.1129C23.4442 28.1329 23.4246 28.1425 23.3961 28.1425H22.1868ZM21.3098 24.655C21.5484 24.655 21.7384 24.5898 21.8803 24.4592C22.0222 24.3285 22.0931 24.1527 22.0931 23.931C22.0931 23.7152 22.0222 23.5421 21.8803 23.4114C21.7384 23.2807 21.548 23.2156 21.3098 23.2156H20.2878C20.2539 23.2156 20.2366 23.2325 20.2366 23.2668V24.6037C20.2366 24.6376 20.2535 24.655 20.2878 24.655H21.3098Z" fill="white"/>
<path d="M26.4031 28.1426C26.3465 28.1426 26.3179 28.1144 26.3179 28.0574V23.2923C26.3179 23.2584 26.301 23.241 26.2667 23.241H24.8018C24.7451 23.241 24.7166 23.2129 24.7166 23.1566V22.2183C24.7166 22.162 24.7451 22.1339 24.8018 22.1339H29.0854C29.1421 22.1339 29.1706 22.162 29.1706 22.2183V23.1566C29.1706 23.2129 29.1421 23.241 29.0854 23.241H27.6205C27.5866 23.241 27.5692 23.258 27.5692 23.2923V28.0574C27.5692 28.1144 27.5407 28.1426 27.484 28.1426H26.4031Z" fill="white"/>
<path d="M33.8678 28.1426C33.3624 28.1426 32.921 28.0261 32.5436 27.7933C32.1658 27.5605 31.9033 27.2085 31.7557 26.7374C31.7217 26.6353 31.6947 26.5358 31.6747 26.4395C31.6547 26.3431 31.6392 26.2351 31.6277 26.1156C31.6161 25.9965 31.6076 25.8601 31.6022 25.707C31.5964 25.5536 31.5937 25.325 31.5937 25.1095C31.5937 24.8936 31.5964 24.7094 31.6022 24.5559C31.608 24.4025 31.6165 24.2664 31.6277 24.1473C31.6388 24.0282 31.6547 23.9203 31.6747 23.8235C31.6944 23.7271 31.7213 23.6277 31.7557 23.5255C31.9033 23.0602 32.1658 22.7094 32.5436 22.4739C32.921 22.2384 33.3624 22.1204 33.8678 22.1204C34.3732 22.1204 34.8145 22.2384 35.1919 22.4739C35.5693 22.7094 35.8319 23.0602 35.9799 23.5255C36.0138 23.6277 36.0408 23.7271 36.0608 23.8235C36.0805 23.9203 36.0963 24.0278 36.1079 24.1473C36.119 24.2664 36.1275 24.4029 36.1333 24.5559C36.1387 24.7094 36.1418 24.8936 36.1418 25.1095C36.1418 25.3254 36.1387 25.554 36.1333 25.707C36.1275 25.8604 36.119 25.9965 36.1079 26.1156C36.0963 26.2348 36.0809 26.3427 36.0608 26.4395C36.0408 26.5362 36.0142 26.6353 35.9799 26.7374C35.8322 27.2089 35.5697 27.5609 35.1919 27.7933C34.8145 28.0261 34.3732 28.1426 33.8678 28.1426ZM33.8678 27.0354C34.1064 27.0354 34.3022 26.9788 34.4553 26.865C34.6087 26.7517 34.7162 26.5956 34.7791 26.3967C34.796 26.3454 34.8103 26.2876 34.8215 26.222C34.8327 26.1569 34.8427 26.0771 34.8512 25.9834C34.8596 25.8897 34.8654 25.7749 34.8681 25.6384C34.8708 25.5023 34.8724 25.2961 34.8724 25.1087C34.8724 24.9214 34.8708 24.7595 34.8681 24.6234C34.865 24.4869 34.8596 24.3721 34.8512 24.2784C34.8427 24.1847 34.8327 24.1053 34.8215 24.0398C34.8099 23.9746 34.796 23.9164 34.7791 23.8651C34.7166 23.6666 34.6087 23.5105 34.4553 23.3968C34.3018 23.2834 34.106 23.2264 33.8678 23.2264C33.6295 23.2264 33.4333 23.283 33.2803 23.3968C33.1269 23.5105 33.0189 23.6666 32.9565 23.8651C32.9395 23.9164 32.9252 23.9746 32.9141 24.0398C32.9025 24.1053 32.8929 24.1847 32.8844 24.2784C32.8759 24.3721 32.8701 24.4869 32.8674 24.6234C32.8647 24.7595 32.8632 24.9214 32.8632 25.1087C32.8632 25.2961 32.8643 25.5019 32.8674 25.6384C32.8701 25.7749 32.8759 25.8897 32.8844 25.9834C32.8929 26.0771 32.9029 26.1565 32.9141 26.222C32.9252 26.2876 32.9395 26.3454 32.9565 26.3967C33.0189 26.5956 33.1269 26.7517 33.2803 26.865C33.4337 26.9788 33.6295 27.0354 33.8678 27.0354Z" fill="white"/>
<path d="M37.3935 22.2052C37.3935 22.1485 37.4216 22.12 37.4786 22.12H38.5006C38.563 22.12 38.6112 22.1485 38.6455 22.2052L40.6894 26.0817H40.7318V22.2052C40.7318 22.1485 40.76 22.12 40.817 22.12H41.7796C41.8363 22.12 41.8648 22.1485 41.8648 22.2052V28.0574C41.8648 28.1144 41.8363 28.1426 41.7796 28.1426H40.7661C40.7037 28.1426 40.6555 28.1144 40.6212 28.0574L38.5688 24.1893H38.5264V28.0574C38.5264 28.1144 38.4979 28.1426 38.4412 28.1426H37.479C37.4224 28.1426 37.3938 28.1144 37.3938 28.0574V22.2052H37.3935Z" fill="white"/>
<path d="M43.1166 22.2052C43.1166 22.1485 43.1448 22.12 43.2018 22.12H46.9149C46.9716 22.12 47.0001 22.1485 47.0001 22.2052V23.1165C47.0001 23.1732 46.9716 23.2017 46.9149 23.2017H44.4196C44.3857 23.2017 44.3683 23.2187 44.3683 23.253V24.6342C44.3683 24.6681 44.3853 24.6855 44.4196 24.6855H46.4978C46.5545 24.6855 46.583 24.714 46.583 24.7707V25.6735C46.583 25.7302 46.5545 25.7587 46.4978 25.7587H44.4196C44.3857 25.7587 44.3683 25.7756 44.3683 25.81V27.0108C44.3683 27.0447 44.3853 27.062 44.4196 27.062H46.9149C46.9716 27.062 47.0001 27.0906 47.0001 27.1472V28.0585C47.0001 28.1156 46.9716 28.1437 46.9149 28.1437H43.2018C43.1452 28.1437 43.1166 28.1156 43.1166 28.0585V22.2052Z" fill="white"/>
<path d="M0.0720872 32.257C0.058595 32.2138 0.0474157 32.1718 0.0377784 32.1301C0.0285266 32.0885 0.0208167 32.0403 0.0158053 31.9852C0.0104084 31.9301 0.00616782 31.8657 0.00385487 31.7917C0.00115642 31.7177 0 31.6255 0 31.5153C0 31.4077 0.00115642 31.3164 0.00385487 31.2412C0.00655332 31.166 0.0104084 31.1009 0.0158053 31.0457C0.0212022 30.9906 0.0285266 30.9424 0.0377784 30.9008C0.0470302 30.8592 0.058595 30.8168 0.0720872 30.7736C0.141861 30.5481 0.259437 30.3792 0.424428 30.2678C0.589418 30.1564 0.788718 30.1005 1.02233 30.1005C1.24244 30.1005 1.43211 30.1533 1.59208 30.259C1.75168 30.3646 1.87041 30.5091 1.94828 30.6923C1.95638 30.7165 1.94944 30.7323 1.92823 30.7404L1.58592 30.9054C1.56163 30.9189 1.54428 30.912 1.53349 30.8854C1.488 30.7886 1.42555 30.7057 1.34614 30.6356C1.26711 30.5658 1.15879 30.5311 1.02194 30.5311C0.890488 30.5311 0.784863 30.5631 0.705837 30.6275C0.626811 30.6919 0.568216 30.7801 0.530824 30.8927C0.522728 30.9224 0.515404 30.9517 0.508851 30.981C0.502297 31.0103 0.4969 31.0484 0.49266 31.0955C0.488805 31.1421 0.486106 31.1992 0.484564 31.2663C0.483022 31.3333 0.482637 31.4162 0.482637 31.5153C0.482637 31.617 0.483408 31.7007 0.484564 31.7662C0.485721 31.8318 0.488419 31.8881 0.49266 31.9351C0.496515 31.9821 0.501912 32.0207 0.508851 32.0515C0.515404 32.0823 0.523114 32.1109 0.530824 32.1379C0.568216 32.2504 0.626811 32.3387 0.705837 32.4031C0.784863 32.4674 0.890488 32.4994 1.02194 32.4994C1.15879 32.4994 1.26673 32.4647 1.34614 32.395C1.42517 32.3252 1.48762 32.2419 1.53349 32.1456C1.54428 32.1186 1.56163 32.112 1.58592 32.1255L1.92823 32.2905C1.94982 32.2986 1.95638 32.3148 1.94828 32.3387C1.87041 32.5218 1.75168 32.6664 1.59208 32.772C1.43249 32.8776 1.24244 32.9304 1.02233 32.9304C0.788718 32.9304 0.589418 32.8745 0.424428 32.7631C0.259437 32.6513 0.141861 32.4829 0.0720872 32.257Z" fill="white"/>
<path d="M3.14754 32.9304C2.94902 32.9304 2.77901 32.8833 2.63831 32.7897C2.49722 32.6956 2.40007 32.5641 2.34649 32.3953C2.3249 32.3255 2.30871 32.255 2.2983 32.184C2.28751 32.1131 2.28211 32.0237 2.28211 31.9161C2.28211 31.809 2.28751 31.7195 2.2983 31.6486C2.3091 31.5777 2.3249 31.5071 2.34649 31.4373C2.40007 31.2681 2.4976 31.1367 2.63831 31.043C2.77901 30.9489 2.94902 30.9019 3.14754 30.9019C3.34337 30.9019 3.51183 30.9489 3.65293 31.043C3.79363 31.137 3.89116 31.2685 3.94474 31.4373C3.96633 31.5071 3.98214 31.5777 3.99293 31.6486C4.00372 31.7199 4.00912 31.809 4.00912 31.9161C4.00912 32.0237 4.00372 32.1127 3.99293 32.184C3.98214 32.255 3.96594 32.3255 3.94474 32.3953C3.89116 32.5645 3.79363 32.696 3.65293 32.7897C3.51183 32.8833 3.34337 32.9304 3.14754 32.9304ZM3.14754 32.5279C3.23891 32.5279 3.31446 32.5055 3.37498 32.4616C3.43551 32.4173 3.48022 32.3548 3.50991 32.2742C3.5261 32.2234 3.53689 32.1717 3.54229 32.1193C3.54769 32.0669 3.55038 31.999 3.55038 31.9161C3.55038 31.8329 3.54769 31.7658 3.54229 31.7149C3.53689 31.664 3.5261 31.6116 3.50991 31.558C3.48022 31.4774 3.43551 31.415 3.37498 31.3707C3.31446 31.3263 3.23891 31.3044 3.14754 31.3044C3.05618 31.3044 2.97985 31.3263 2.91818 31.3707C2.8565 31.415 2.81062 31.4774 2.78133 31.558C2.76514 31.6116 2.75434 31.664 2.74894 31.7149C2.74355 31.7658 2.74085 31.8329 2.74085 31.9161C2.74085 31.9994 2.74355 32.0672 2.74894 32.1193C2.75434 32.1717 2.76514 32.2234 2.78133 32.2742C2.81101 32.3548 2.8565 32.4173 2.91818 32.4616C2.97985 32.5055 3.05618 32.5279 3.14754 32.5279Z" fill="white"/>
<path d="M5.72007 32.886C5.69309 32.886 5.67998 32.8725 5.67998 32.8459V31.7269C5.67998 31.6008 5.64914 31.4986 5.58746 31.4208C5.52578 31.3429 5.43442 31.304 5.31376 31.304C5.1958 31.304 5.10444 31.3429 5.04006 31.4208C4.97568 31.4986 4.9433 31.6008 4.9433 31.7269V32.8459C4.9433 32.8729 4.92981 32.886 4.90321 32.886H4.53275C4.50577 32.886 4.49266 32.8725 4.49266 32.8459V30.9859C4.49266 30.9589 4.50615 30.9458 4.53275 30.9458H4.90321C4.92981 30.9458 4.9433 30.9593 4.9433 30.9859V31.127H4.94716C4.98995 31.0653 5.05394 31.0121 5.13836 30.9682C5.22278 30.9239 5.32957 30.9019 5.45832 30.9019C5.56318 30.9019 5.65608 30.92 5.73819 30.9562C5.81991 30.9925 5.89046 31.043 5.94944 31.1074C6.00842 31.1717 6.05352 31.2477 6.08436 31.3348C6.1152 31.4219 6.13062 31.5179 6.13062 31.6228V32.8467C6.13062 32.8737 6.11713 32.8868 6.09053 32.8868H5.72007V32.886Z" fill="white"/>
<path d="M7.92664 32.886C7.89966 32.886 7.88655 32.8725 7.88655 32.8459V31.7269C7.88655 31.6008 7.85571 31.4986 7.79403 31.4208C7.73235 31.3429 7.64099 31.304 7.52033 31.304C7.40237 31.304 7.31101 31.3429 7.24663 31.4208C7.18226 31.4986 7.14988 31.6008 7.14988 31.7269V32.8459C7.14988 32.8729 7.13638 32.886 7.10978 32.886H6.73933C6.71234 32.886 6.69923 32.8725 6.69923 32.8459V30.9859C6.69923 30.9589 6.71273 30.9458 6.73933 30.9458H7.10978C7.13638 30.9458 7.14988 30.9593 7.14988 30.9859V31.127H7.15373C7.19652 31.0653 7.26051 31.0121 7.34493 30.9682C7.42936 30.9239 7.53614 30.9019 7.66489 30.9019C7.76975 30.9019 7.86265 30.92 7.94476 30.9562C8.02649 30.9925 8.09703 31.043 8.15601 31.1074C8.21499 31.1717 8.26009 31.2477 8.29093 31.3348C8.32177 31.4219 8.33719 31.5179 8.33719 31.6228V32.8467C8.33719 32.8737 8.3237 32.8868 8.2971 32.8868H7.92664V32.886Z" fill="white"/>
<path d="M9.67397 32.9304C9.46735 32.9304 9.29465 32.8826 9.15587 32.7874C9.0171 32.6922 8.92149 32.5599 8.86791 32.3907C8.84671 32.329 8.83013 32.26 8.81818 32.1833C8.80623 32.107 8.80045 32.0175 8.80045 31.9154C8.80045 31.8136 8.80585 31.7234 8.81625 31.6455C8.82705 31.5677 8.84285 31.4979 8.86405 31.4362C8.91725 31.267 9.01401 31.1355 9.15395 31.0419C9.29388 30.9478 9.46041 30.9008 9.65393 30.9008C9.85516 30.9008 10.0248 30.9486 10.1632 31.0438C10.3012 31.139 10.3972 31.2701 10.4511 31.4362C10.4619 31.4713 10.4712 31.506 10.4793 31.5407C10.4874 31.5758 10.4939 31.6159 10.4993 31.6614C10.5047 31.7068 10.5086 31.7585 10.5113 31.8163C10.514 31.8741 10.5151 31.942 10.5151 32.0195C10.5151 32.0465 10.5005 32.0596 10.4708 32.0596H9.27499C9.2588 32.0596 9.2507 32.0677 9.2507 32.0839C9.2507 32.1135 9.2534 32.1401 9.2588 32.1644C9.2642 32.1887 9.27075 32.2115 9.27884 32.233C9.34592 32.4289 9.49087 32.5268 9.71368 32.5268C9.82355 32.5268 9.91491 32.5094 9.98738 32.4744C10.0599 32.4397 10.1204 32.3953 10.1686 32.3414C10.1901 32.3198 10.2102 32.3171 10.2291 32.3333L10.4665 32.5426C10.4854 32.5588 10.4866 32.5777 10.4704 32.5989C10.3871 32.6956 10.2784 32.7747 10.1443 32.8363C10.0109 32.8996 9.85361 32.9304 9.67397 32.9304ZM10.0606 31.7022C10.0606 31.6398 10.0525 31.5846 10.0363 31.5357C10.0094 31.457 9.96232 31.3958 9.89563 31.351C9.82856 31.3063 9.74915 31.284 9.65817 31.284C9.56411 31.284 9.48354 31.3063 9.41647 31.351C9.34939 31.3958 9.30236 31.4574 9.27538 31.5357C9.25918 31.5846 9.25109 31.6402 9.25109 31.7022C9.25109 31.7184 9.25918 31.7265 9.27538 31.7265H10.0363C10.0525 31.7265 10.0606 31.7184 10.0606 31.7022Z" fill="white"/>
<path d="M11.7587 32.9305C11.5628 32.9305 11.3944 32.885 11.2533 32.7937C11.1122 32.7023 11.0139 32.5697 10.9572 32.3951C10.9171 32.2744 10.8967 32.1148 10.8967 31.9159C10.8967 31.7174 10.9167 31.5578 10.9572 31.4367C11.0135 31.2621 11.1122 31.1295 11.2533 31.0381C11.394 30.9468 11.5624 30.9013 11.7587 30.9013C11.9036 30.9013 12.0324 30.9283 12.1453 30.9818C12.2579 31.0354 12.3531 31.1094 12.431 31.2031C12.4471 31.2247 12.4456 31.2432 12.4271 31.2594L12.1734 31.4807C12.1519 31.4969 12.1334 31.4942 12.1172 31.4726C12.069 31.419 12.0173 31.3774 11.9622 31.3477C11.9071 31.3184 11.8392 31.3033 11.759 31.3033C11.6731 31.3033 11.5987 31.3242 11.5355 31.3658C11.4722 31.4074 11.426 31.471 11.3967 31.557C11.3805 31.6052 11.3697 31.6584 11.3643 31.7158C11.3589 31.7736 11.3562 31.84 11.3562 31.9151C11.3562 31.9903 11.3589 32.0574 11.3643 32.1163C11.3697 32.1753 11.3805 32.2289 11.3967 32.2775C11.4264 32.3608 11.4726 32.4232 11.5355 32.4648C11.5983 32.5065 11.6731 32.5273 11.759 32.5273C11.8396 32.5273 11.9075 32.5126 11.9622 32.483C12.0173 32.4537 12.069 32.412 12.1172 32.3581C12.1334 32.3392 12.1519 32.338 12.1734 32.3542L12.4271 32.5755C12.4433 32.589 12.4444 32.6075 12.431 32.6318C12.3531 32.7231 12.2579 32.7956 12.1453 32.8492C12.0327 32.9035 11.9036 32.9305 11.7587 32.9305Z" fill="white"/>
<path d="M13.4822 32.9103C13.2864 32.9103 13.1472 32.8633 13.0655 32.7692C12.9838 32.6752 12.9426 32.5329 12.9426 32.3425V31.3198C12.9426 31.3036 12.9345 31.2955 12.9183 31.2955H12.7895C12.7625 31.2955 12.7494 31.282 12.7494 31.2554V30.9856C12.7494 30.9586 12.7629 30.9455 12.7895 30.9455H12.9183C12.9345 30.9455 12.9426 30.9374 12.9426 30.9212V30.3896C12.9426 30.363 12.956 30.3495 12.9826 30.3495H13.3531C13.3797 30.3495 13.3932 30.363 13.3932 30.3896V30.9212C13.3932 30.9374 13.4013 30.9455 13.4175 30.9455H13.675C13.7016 30.9455 13.7151 30.959 13.7151 30.9856V31.2554C13.7151 31.2824 13.7016 31.2955 13.675 31.2955H13.4175C13.4013 31.2955 13.3932 31.3036 13.3932 31.3198V32.3263C13.3932 32.3961 13.4078 32.4439 13.4375 32.4693C13.4672 32.4948 13.5127 32.5075 13.5744 32.5075H13.675C13.7016 32.5075 13.7151 32.521 13.7151 32.5476V32.8695C13.7151 32.8965 13.7016 32.9096 13.675 32.9096H13.4822V32.9103Z" fill="white"/>
<path d="M15.2048 32.8861C15.1778 32.8861 15.1647 32.8726 15.1647 32.8457V30.1846C15.1647 30.1576 15.1782 30.1441 15.2048 30.1441H16.2314C16.3628 30.1441 16.4843 30.1649 16.5957 30.2066C16.7071 30.2482 16.8023 30.306 16.8813 30.3801C16.9603 30.4541 17.0224 30.5435 17.0664 30.6484C17.1107 30.7532 17.1327 30.8689 17.1327 30.9953C17.1327 31.1244 17.1107 31.2412 17.0664 31.3465C17.022 31.4513 16.9603 31.5408 16.8813 31.6148C16.8023 31.6888 16.7067 31.7466 16.5957 31.7883C16.4843 31.8299 16.3628 31.8507 16.2314 31.8507H15.6639C15.6477 31.8507 15.6396 31.8588 15.6396 31.875V32.8453C15.6396 32.8723 15.6262 32.8854 15.5996 32.8854H15.2048V32.8861ZM16.2029 31.4209C16.3451 31.4209 16.4565 31.3827 16.5371 31.306C16.6176 31.2297 16.6577 31.1268 16.6577 30.998C16.6577 30.8719 16.6176 30.7698 16.5371 30.6919C16.4565 30.614 16.3451 30.5751 16.2029 30.5751H15.6635C15.6474 30.5751 15.6393 30.5832 15.6393 30.5994V31.3966C15.6393 31.4128 15.6474 31.4209 15.6635 31.4209H16.2029Z" fill="white"/>
<path d="M18.3333 32.9304C18.1267 32.9304 17.954 32.8826 17.8152 32.7874C17.6764 32.6922 17.5808 32.5599 17.5272 32.3907C17.506 32.329 17.4894 32.26 17.4775 32.1833C17.4655 32.107 17.4598 32.0175 17.4598 31.9154C17.4598 31.8136 17.4652 31.7234 17.4756 31.6455C17.4864 31.5677 17.5022 31.4979 17.5234 31.4362C17.5766 31.267 17.6733 31.1355 17.8133 31.0419C17.9532 30.9478 18.1197 30.9008 18.3132 30.9008C18.5145 30.9008 18.6841 30.9486 18.8225 31.0438C18.9605 31.139 19.0565 31.2701 19.1104 31.4362C19.1212 31.4713 19.1305 31.506 19.1386 31.5407C19.1467 31.5758 19.1532 31.6159 19.1586 31.6614C19.164 31.7068 19.1679 31.7585 19.1706 31.8163C19.1733 31.8741 19.1744 31.942 19.1744 32.0195C19.1744 32.0465 19.1598 32.0596 19.1301 32.0596H17.9343C17.9181 32.0596 17.91 32.0677 17.91 32.0839C17.91 32.1135 17.9127 32.1401 17.9181 32.1644C17.9235 32.1887 17.9301 32.2115 17.9382 32.233C18.0052 32.4289 18.1502 32.5268 18.373 32.5268C18.4829 32.5268 18.5742 32.5094 18.6467 32.4744C18.7192 32.4397 18.7797 32.3953 18.8279 32.3414C18.8495 32.3198 18.8695 32.3171 18.8884 32.3333L19.1259 32.5426C19.1447 32.5588 19.1459 32.5777 19.1297 32.5989C19.0464 32.6956 18.9377 32.7747 18.8036 32.8363C18.6698 32.8996 18.5129 32.9304 18.3333 32.9304ZM18.7195 31.7022C18.7195 31.6398 18.7114 31.5846 18.6953 31.5357C18.6683 31.457 18.6212 31.3958 18.5546 31.351C18.4875 31.3063 18.4081 31.284 18.3171 31.284C18.223 31.284 18.1425 31.3063 18.0754 31.351C18.0083 31.3958 17.9613 31.4574 17.9343 31.5357C17.9181 31.5846 17.91 31.6402 17.91 31.7022C17.91 31.7184 17.9181 31.7265 17.9343 31.7265H18.6956C18.7118 31.7265 18.7195 31.7184 18.7195 31.7022Z" fill="white"/>
<path d="M20.4224 32.9304C20.2239 32.9304 20.0539 32.8833 19.9132 32.7897C19.7721 32.6956 19.675 32.5641 19.6214 32.3953C19.5998 32.3255 19.5836 32.255 19.5732 32.184C19.5624 32.1131 19.557 32.0237 19.557 31.9161C19.557 31.809 19.5624 31.7195 19.5732 31.6486C19.584 31.5777 19.5998 31.5071 19.6214 31.4373C19.675 31.2681 19.7725 31.1367 19.9132 31.043C20.0539 30.9489 20.2239 30.9019 20.4224 30.9019C20.6183 30.9019 20.7867 30.9489 20.9278 31.043C21.0685 31.137 21.166 31.2685 21.2196 31.4373C21.2412 31.5071 21.257 31.5777 21.2678 31.6486C21.2786 31.7199 21.284 31.809 21.284 31.9161C21.284 32.0237 21.2786 32.1127 21.2678 32.184C21.257 32.255 21.2408 32.3255 21.2196 32.3953C21.166 32.5645 21.0685 32.696 20.9278 32.7897C20.7867 32.8833 20.6183 32.9304 20.4224 32.9304ZM20.4224 32.5279C20.5138 32.5279 20.5893 32.5055 20.6499 32.4616C20.7104 32.4173 20.7551 32.3548 20.7848 32.2742C20.801 32.2234 20.8118 32.1717 20.8172 32.1193C20.8226 32.0669 20.8253 31.999 20.8253 31.9161C20.8253 31.8329 20.8226 31.7658 20.8172 31.7149C20.8118 31.664 20.801 31.6116 20.7848 31.558C20.7551 31.4774 20.7104 31.415 20.6499 31.3707C20.5893 31.3263 20.5138 31.3044 20.4224 31.3044C20.3311 31.3044 20.2547 31.3263 20.1931 31.3707C20.1314 31.415 20.0855 31.4774 20.0562 31.558C20.04 31.6116 20.0292 31.664 20.0238 31.7149C20.0184 31.7658 20.0157 31.8329 20.0157 31.9161C20.0157 31.9994 20.0184 32.0672 20.0238 32.1193C20.0292 32.1717 20.04 32.2234 20.0562 32.2742C20.0859 32.3548 20.1314 32.4173 20.1931 32.4616C20.2547 32.5055 20.3311 32.5279 20.4224 32.5279Z" fill="white"/>
<path d="M21.8066 33.611C21.7797 33.611 21.7665 33.5975 21.7665 33.5709V30.9865C21.7665 30.9595 21.78 30.9464 21.8066 30.9464H22.1771C22.2037 30.9464 22.2172 30.9599 22.2172 30.9865V31.1311H22.221C22.2665 31.064 22.3309 31.0089 22.4142 30.9661C22.4974 30.9233 22.6046 30.9017 22.7361 30.9017C22.9026 30.9017 23.0433 30.9406 23.1589 31.0185C23.2742 31.0964 23.3575 31.2132 23.4084 31.3689C23.4326 31.4441 23.45 31.5212 23.4608 31.6002C23.4716 31.6792 23.477 31.7849 23.477 31.9163C23.477 32.0478 23.4716 32.1534 23.4608 32.2324C23.45 32.3115 23.4326 32.3889 23.4084 32.4637C23.3575 32.6195 23.2742 32.7363 23.1589 32.8138C23.0437 32.8916 22.9026 32.9306 22.7361 32.9306C22.6046 32.9306 22.4971 32.909 22.4142 32.8662C22.3309 32.8234 22.2665 32.7683 22.221 32.7012H22.2172V33.5709C22.2172 33.5978 22.2037 33.611 22.1771 33.611H21.8066ZM22.62 32.5281C22.8051 32.5281 22.9246 32.4448 22.9782 32.2787C22.9916 32.2332 23.0017 32.1835 23.0082 32.1299C23.0148 32.0763 23.0182 32.005 23.0182 31.9163C23.0182 31.8277 23.0148 31.7567 23.0082 31.7032C23.0017 31.6496 22.9913 31.5998 22.9782 31.5543C22.9246 31.3878 22.8051 31.3049 22.62 31.3049C22.4323 31.3049 22.3112 31.3882 22.2577 31.5543C22.2442 31.5998 22.2342 31.6496 22.2276 31.7032C22.221 31.7567 22.2176 31.828 22.2176 31.9163C22.2176 32.005 22.221 32.0759 22.2276 32.1299C22.2342 32.1835 22.2442 32.2332 22.2577 32.2787C22.3112 32.4448 22.4319 32.5281 22.62 32.5281Z" fill="white"/>
<path d="M24.4838 32.9104C24.2934 32.9104 24.1569 32.865 24.0752 32.7736C23.9935 32.6822 23.9522 32.5427 23.9522 32.355V30.1893C23.9522 30.1623 23.9657 30.1492 23.9923 30.1492H24.3628C24.3898 30.1492 24.4029 30.1627 24.4029 30.1893V32.3311C24.4029 32.3981 24.4164 32.4444 24.443 32.4698C24.47 32.4953 24.5128 32.508 24.5717 32.508H24.6604C24.6874 32.508 24.7005 32.5215 24.7005 32.5481V32.87C24.7005 32.897 24.687 32.9101 24.6604 32.9101H24.4838V32.9104Z" fill="white"/>
<path d="M25.9012 32.9304C25.6946 32.9304 25.5219 32.8826 25.3831 32.7874C25.2443 32.6922 25.1487 32.5599 25.0952 32.3907C25.074 32.329 25.0574 32.26 25.0454 32.1833C25.0335 32.107 25.0277 32.0175 25.0277 31.9154C25.0277 31.8136 25.0331 31.7234 25.0435 31.6455C25.0543 31.5677 25.0701 31.4979 25.0913 31.4362C25.1445 31.267 25.2409 31.1355 25.3812 31.0419C25.5211 30.9478 25.6877 30.9008 25.8812 30.9008C26.0824 30.9008 26.252 30.9486 26.3904 31.0438C26.5284 31.139 26.6244 31.2701 26.6784 31.4362C26.6892 31.4713 26.6984 31.506 26.7065 31.5407C26.7146 31.5758 26.7212 31.6159 26.7266 31.6614C26.732 31.7068 26.7358 31.7585 26.7385 31.8163C26.7412 31.8741 26.7424 31.942 26.7424 32.0195C26.7424 32.0465 26.7277 32.0596 26.698 32.0596H25.5022C25.4861 32.0596 25.478 32.0677 25.478 32.0839C25.478 32.1135 25.4807 32.1401 25.4861 32.1644C25.4914 32.1887 25.498 32.2115 25.5061 32.233C25.5732 32.4289 25.7181 32.5268 25.9409 32.5268C26.0508 32.5268 26.1422 32.5094 26.2146 32.4744C26.2871 32.4397 26.3476 32.3953 26.3958 32.3414C26.4174 32.3198 26.4375 32.3171 26.4563 32.3333L26.6938 32.5426C26.7127 32.5588 26.7138 32.5777 26.6977 32.5989C26.6144 32.6956 26.5057 32.7747 26.3715 32.8363C26.2378 32.8996 26.0809 32.9304 25.9012 32.9304ZM26.2875 31.7022C26.2875 31.6398 26.2794 31.5846 26.2632 31.5357C26.2362 31.457 26.1892 31.3958 26.1221 31.351C26.055 31.3063 25.9756 31.284 25.8847 31.284C25.7906 31.284 25.71 31.3063 25.6429 31.351C25.5759 31.3958 25.5288 31.4574 25.5022 31.5357C25.4861 31.5846 25.478 31.6402 25.478 31.7022C25.478 31.7184 25.4861 31.7265 25.5022 31.7265H26.2632C26.2794 31.7265 26.2875 31.7184 26.2875 31.7022Z" fill="white"/>
<path d="M29.3354 32.8862C29.3084 32.8862 29.2953 32.8727 29.2953 32.8461V32.705H29.2915C29.246 32.7721 29.1774 32.8264 29.086 32.8681C28.9947 32.9097 28.8806 32.9305 28.7437 32.9305C28.655 32.9305 28.5714 32.9186 28.492 32.8943C28.413 32.8704 28.3436 32.8341 28.2846 32.7859C28.2256 32.7378 28.1786 32.6769 28.1435 32.6032C28.1084 32.5296 28.0911 32.4421 28.0911 32.3403C28.0911 32.1291 28.1601 31.9741 28.2985 31.875C28.4365 31.776 28.6265 31.7266 28.8682 31.7266H29.2626C29.2788 31.7266 29.2869 31.7185 29.2869 31.7023V31.609C29.2869 31.4953 29.256 31.4128 29.1943 31.3612C29.1327 31.3099 29.0197 31.2841 28.8563 31.2841C28.746 31.2841 28.6562 31.2968 28.5864 31.3222C28.5166 31.3477 28.4588 31.3793 28.4133 31.4167C28.3891 31.4356 28.3702 31.4329 28.3571 31.4086L28.2083 31.143C28.1948 31.1214 28.1975 31.104 28.2163 31.0906C28.2942 31.0343 28.3879 30.9888 28.4981 30.9537C28.608 30.919 28.7437 30.9013 28.9048 30.9013C29.2001 30.9013 29.4087 30.9549 29.5309 31.0624C29.6531 31.17 29.714 31.3415 29.714 31.5778V32.8461C29.714 32.8731 29.7005 32.8862 29.6739 32.8862H29.3354ZM28.8567 32.5643C28.9962 32.5643 29.103 32.5373 29.1766 32.4837C29.2502 32.4301 29.2872 32.3469 29.2872 32.2343V32.0855C29.2872 32.0693 29.2792 32.0612 29.263 32.0612H28.9411C28.7961 32.0612 28.6901 32.082 28.623 32.1237C28.556 32.1653 28.5224 32.2316 28.5224 32.323C28.5224 32.4837 28.6338 32.5643 28.8567 32.5643Z" fill="white"/>
<path d="M31.5131 32.886C31.4861 32.886 31.473 32.8725 31.473 32.8459V31.7269C31.473 31.6008 31.4422 31.4986 31.3805 31.4208C31.3188 31.3429 31.2275 31.304 31.1068 31.304C30.9888 31.304 30.8975 31.3429 30.8331 31.4208C30.7687 31.4986 30.7363 31.6008 30.7363 31.7269V32.8459C30.7363 32.8729 30.7229 32.886 30.6963 32.886H30.3258C30.2988 32.886 30.2857 32.8725 30.2857 32.8459V30.9859C30.2857 30.9589 30.2992 30.9458 30.3258 30.9458H30.6963C30.7232 30.9458 30.7363 30.9593 30.7363 30.9859V31.127H30.7402C30.783 31.0653 30.847 31.0121 30.9314 30.9682C31.0158 30.9239 31.1226 30.9019 31.2514 30.9019C31.3558 30.9019 31.4491 30.92 31.5312 30.9562C31.613 30.9925 31.6835 31.043 31.7425 31.1074C31.8015 31.1717 31.8466 31.2477 31.8774 31.3348C31.9082 31.4219 31.9237 31.5179 31.9237 31.6228V32.8467C31.9237 32.8737 31.9102 32.8868 31.8836 32.8868H31.5131V32.886Z" fill="white"/>
<path d="M33.6864 32.8861C33.6594 32.8861 33.6463 32.8726 33.6463 32.846V32.7011H33.6425C33.597 32.7682 33.5322 32.8233 33.4493 32.8661C33.3661 32.9089 33.2589 32.9304 33.1275 32.9304C32.9609 32.9304 32.8202 32.8915 32.705 32.8136C32.5897 32.7358 32.5064 32.619 32.4555 32.4636C32.4313 32.3884 32.4139 32.3113 32.4031 32.2323C32.3923 32.1533 32.3869 32.0477 32.3869 31.9162C32.3869 31.7848 32.3923 31.6795 32.4031 31.6001C32.4139 31.5211 32.4313 31.444 32.4555 31.3688C32.5064 31.2131 32.5897 31.0963 32.705 31.0184C32.8202 30.9405 32.9613 30.9016 33.1275 30.9016C33.2589 30.9016 33.3665 30.9232 33.4493 30.966C33.5326 31.0088 33.597 31.0639 33.6425 31.131H33.6463V30.1888C33.6463 30.1618 33.6598 30.1487 33.6864 30.1487H34.0569C34.0835 30.1487 34.097 30.1622 34.097 30.1888V32.8456C34.097 32.8726 34.0835 32.8857 34.0569 32.8857H33.6864V32.8861ZM33.2439 32.528C33.4316 32.528 33.5523 32.4447 33.6062 32.2786C33.6197 32.2331 33.6298 32.1834 33.6363 32.1298C33.6429 32.0762 33.6463 32.0049 33.6463 31.9162C33.6463 31.8275 33.6429 31.7566 33.6363 31.703C33.6298 31.6495 33.6193 31.5997 33.6062 31.5542C33.5527 31.3877 33.4316 31.3048 33.2439 31.3048C33.0588 31.3048 32.9393 31.3881 32.8857 31.5542C32.8723 31.5997 32.8622 31.6495 32.8557 31.703C32.8491 31.7566 32.8457 31.8279 32.8457 31.9162C32.8457 32.0049 32.8491 32.0758 32.8557 32.1298C32.8622 32.1834 32.8723 32.2331 32.8857 32.2786C32.9389 32.4447 33.0584 32.528 33.2439 32.528Z" fill="white"/>
<path d="M35.6842 32.8861C35.6572 32.8861 35.6441 32.8726 35.6441 32.8457V30.1846C35.6441 30.1576 35.6576 30.1441 35.6842 30.1441H36.7108C36.8422 30.1441 36.9636 30.1649 37.0751 30.2066C37.1865 30.2482 37.2817 30.306 37.3611 30.3801C37.4401 30.4541 37.5018 30.5435 37.5461 30.6484C37.5905 30.7532 37.6124 30.8689 37.6124 30.9953C37.6124 31.1244 37.5905 31.2412 37.5461 31.3465C37.5018 31.4513 37.4401 31.5408 37.3611 31.6148C37.2821 31.6888 37.1865 31.7466 37.0751 31.7883C36.9636 31.8299 36.8422 31.8507 36.7108 31.8507H36.1433C36.1271 31.8507 36.119 31.8588 36.119 31.875V32.8453C36.119 32.8723 36.1055 32.8854 36.0789 32.8854H35.6842V32.8861ZM36.6826 31.4209C36.8249 31.4209 36.9363 31.3827 37.0168 31.306C37.0974 31.2297 37.1375 31.1268 37.1375 30.998C37.1375 30.8719 37.0974 30.7698 37.0168 30.6919C36.9363 30.614 36.8249 30.5751 36.6826 30.5751H36.1433C36.1271 30.5751 36.119 30.5832 36.119 30.5994V31.3966C36.119 31.4128 36.1271 31.4209 36.1433 31.4209H36.6826Z" fill="white"/>
<path d="M38.5661 32.9104C38.3757 32.9104 38.2393 32.865 38.1575 32.7736C38.0758 32.6822 38.0346 32.5427 38.0346 32.355V30.1893C38.0346 30.1623 38.048 30.1492 38.0746 30.1492H38.4451C38.4721 30.1492 38.4852 30.1627 38.4852 30.1893V32.3311C38.4852 32.3981 38.4987 32.4444 38.5253 32.4698C38.5523 32.4953 38.5951 32.508 38.654 32.508H38.7427C38.7697 32.508 38.7828 32.5215 38.7828 32.5481V32.87C38.7828 32.897 38.7693 32.9101 38.7427 32.9101H38.5661V32.9104Z" fill="white"/>
<path d="M40.3693 32.8862C40.3423 32.8862 40.3292 32.8727 40.3292 32.8461V32.705H40.3253C40.2799 32.7721 40.2112 32.8264 40.1199 32.8681C40.0285 32.9097 39.9144 32.9305 39.7776 32.9305C39.6889 32.9305 39.6052 32.9186 39.5258 32.8943C39.4468 32.8704 39.3774 32.8341 39.3184 32.7859C39.2595 32.7378 39.2124 32.6769 39.1773 32.6032C39.1423 32.5296 39.1249 32.4421 39.1249 32.3403C39.1249 32.1291 39.1939 31.9741 39.3323 31.875C39.4703 31.776 39.6604 31.7266 39.9021 31.7266H40.2964C40.3126 31.7266 40.3207 31.7185 40.3207 31.7023V31.609C40.3207 31.4953 40.2899 31.4128 40.2282 31.3612C40.1665 31.3099 40.0536 31.2841 39.8901 31.2841C39.7799 31.2841 39.6901 31.2968 39.6203 31.3222C39.5505 31.3477 39.4927 31.3793 39.4472 31.4167C39.4229 31.4356 39.404 31.4329 39.3909 31.4086L39.2421 31.143C39.2286 31.1214 39.2313 31.104 39.2502 31.0906C39.3281 31.0343 39.4218 30.9888 39.532 30.9537C39.6419 30.919 39.7776 30.9013 39.9387 30.9013C40.234 30.9013 40.4425 30.9549 40.5647 31.0624C40.6869 31.17 40.7478 31.3415 40.7478 31.5778V32.8461C40.7478 32.8731 40.7344 32.8862 40.7078 32.8862H40.3693ZM39.8901 32.5643C40.0297 32.5643 40.1365 32.5373 40.2101 32.4837C40.2837 32.4301 40.3207 32.3469 40.3207 32.2343V32.0855C40.3207 32.0693 40.3126 32.0612 40.2964 32.0612H39.9745C39.8296 32.0612 39.7236 32.082 39.6565 32.1237C39.5894 32.1653 39.5559 32.2316 39.5559 32.323C39.5559 32.4837 39.6673 32.5643 39.8901 32.5643Z" fill="white"/>
<path d="M42.0772 32.9305C41.8813 32.9305 41.7129 32.885 41.5718 32.7937C41.4307 32.7023 41.3324 32.5697 41.2757 32.3951C41.2356 32.2744 41.2152 32.1148 41.2152 31.9159C41.2152 31.7174 41.2352 31.5578 41.2757 31.4367C41.332 31.2621 41.4307 31.1295 41.5718 31.0381C41.7129 30.9468 41.8809 30.9013 42.0772 30.9013C42.2221 30.9013 42.3509 30.9283 42.4638 30.9818C42.5764 31.0354 42.6716 31.1094 42.7498 31.2031C42.766 31.2247 42.7645 31.2432 42.746 31.2594L42.4923 31.4807C42.4708 31.4969 42.4522 31.4942 42.4361 31.4726C42.3879 31.419 42.3362 31.3774 42.2811 31.3477C42.226 31.3184 42.1581 31.3033 42.0779 31.3033C41.992 31.3033 41.9176 31.3242 41.8543 31.3658C41.7911 31.4074 41.7449 31.471 41.7156 31.557C41.6994 31.6052 41.6886 31.6584 41.6836 31.7158C41.6782 31.7736 41.6755 31.84 41.6755 31.9151C41.6755 31.9903 41.6782 32.0574 41.6836 32.1163C41.689 32.1753 41.6998 32.2289 41.7156 32.2775C41.7453 32.3608 41.7915 32.4232 41.8543 32.4648C41.9176 32.5065 41.992 32.5273 42.0779 32.5273C42.1585 32.5273 42.2263 32.5126 42.2811 32.483C42.3362 32.4537 42.3879 32.412 42.4361 32.3581C42.4522 32.3392 42.4708 32.338 42.4923 32.3542L42.746 32.5755C42.7622 32.589 42.7633 32.6075 42.7498 32.6318C42.672 32.7231 42.5768 32.7956 42.4638 32.8492C42.3509 32.9035 42.2221 32.9305 42.0772 32.9305Z" fill="white"/>
<path d="M44.0011 32.9304C43.7945 32.9304 43.6218 32.8826 43.483 32.7874C43.3442 32.6922 43.2486 32.5599 43.195 32.3907C43.1738 32.329 43.1572 32.26 43.1453 32.1833C43.1333 32.107 43.1276 32.0175 43.1276 31.9154C43.1276 31.8136 43.133 31.7234 43.1434 31.6455C43.1542 31.5677 43.17 31.4979 43.1912 31.4362C43.2444 31.267 43.3407 31.1355 43.4811 31.0419C43.621 30.9478 43.7875 30.9008 43.981 30.9008C44.1823 30.9008 44.3519 30.9486 44.4903 31.0438C44.6283 31.139 44.7243 31.2701 44.7782 31.4362C44.789 31.4713 44.7983 31.506 44.8064 31.5407C44.8145 31.5758 44.821 31.6159 44.8264 31.6614C44.8318 31.7068 44.8357 31.7585 44.8384 31.8163C44.8411 31.8741 44.8422 31.942 44.8422 32.0195C44.8422 32.0465 44.8276 32.0596 44.7979 32.0596H43.6021C43.5859 32.0596 43.5778 32.0677 43.5778 32.0839C43.5778 32.1135 43.5805 32.1401 43.5859 32.1644C43.5913 32.1887 43.5979 32.2115 43.606 32.233C43.673 32.4289 43.818 32.5268 44.0408 32.5268C44.1507 32.5268 44.242 32.5094 44.3145 32.4744C44.387 32.4397 44.4475 32.3953 44.4957 32.3414C44.5173 32.3198 44.5373 32.3171 44.5562 32.3333L44.7937 32.5426C44.8126 32.5588 44.8137 32.5777 44.7975 32.5989C44.7143 32.6956 44.6055 32.7747 44.4714 32.8363C44.338 32.8996 44.1811 32.9304 44.0011 32.9304ZM44.3877 31.7022C44.3877 31.6398 44.3796 31.5846 44.3635 31.5357C44.3365 31.457 44.2894 31.3958 44.2224 31.351C44.1553 31.3063 44.0759 31.284 43.9849 31.284C43.8908 31.284 43.8103 31.3063 43.7432 31.351C43.6761 31.3958 43.6291 31.4574 43.6025 31.5357C43.5863 31.5846 43.5782 31.6402 43.5782 31.7022C43.5782 31.7184 43.5863 31.7265 43.6025 31.7265H44.3635C44.3796 31.7265 44.3877 31.7184 44.3877 31.7022Z" fill="white"/>
<path d="M46.0456 32.9305C45.847 32.9305 45.6786 32.8985 45.5402 32.8338C45.4018 32.7694 45.2927 32.6996 45.2121 32.6244C45.1932 32.6055 45.1932 32.587 45.2121 32.5681L45.4415 32.3264C45.4604 32.3076 45.4789 32.3076 45.4978 32.3264C45.5676 32.3908 45.6539 32.444 45.7576 32.4853C45.8609 32.5269 45.9635 32.5477 46.0656 32.5477C46.1863 32.5477 46.2761 32.5261 46.3355 32.4833C46.3944 32.4405 46.4241 32.3854 46.4241 32.3183C46.4241 32.2594 46.4021 32.2123 46.3578 32.1773C46.3135 32.1426 46.2283 32.1183 46.1022 32.1048L45.8929 32.0847C45.6944 32.0632 45.5452 32.0042 45.4461 31.9074C45.3467 31.8107 45.2973 31.6792 45.2973 31.5131C45.2973 31.3253 45.3617 31.1761 45.4905 31.0663C45.6192 30.9564 45.8058 30.9013 46.0502 30.9013C46.2032 30.9013 46.3412 30.9232 46.465 30.9676C46.5883 31.0119 46.6932 31.069 46.7792 31.1387C46.8007 31.1549 46.8034 31.1738 46.7873 31.195L46.5899 31.4325C46.5737 31.4514 46.5548 31.4541 46.5336 31.4406C46.4719 31.3978 46.396 31.36 46.3062 31.328C46.2163 31.2956 46.1231 31.2798 46.0263 31.2798C45.9295 31.2798 45.8567 31.2987 45.8069 31.3361C45.7572 31.3739 45.7325 31.4221 45.7325 31.4811C45.7325 31.5373 45.7541 31.5824 45.7969 31.616C45.8397 31.6495 45.9245 31.673 46.0506 31.6865L46.2599 31.7066C46.4638 31.7282 46.6149 31.7879 46.7129 31.8858C46.8108 31.9837 46.8597 32.1133 46.8597 32.2744C46.8597 32.4675 46.7911 32.6252 46.6543 32.7474C46.5166 32.8696 46.3143 32.9305 46.0456 32.9305Z" fill="white"/>
</g>
</svg>
