<svg width="24" height="24" viewBox="0 0 24 24" fill="none" xmlns="http://www.w3.org/2000/svg">
<path d="M12.72 2.02412C6.62999 1.59536 1.6 6.61077 2.03 12.6831C2.39 17.9578 7.00999 21.9362 12.31 21.9362H16C16.55 21.9362 17 21.4875 17 20.9391C17 20.3907 16.55 19.942 16 19.942H12.33C8.59999 19.942 5.17999 17.529 4.24999 13.9295C2.76 8.14631 8.15999 2.752 13.96 4.24765C17.58 5.16498 20 8.57506 20 12.2942V13.3911C20 14.1788 19.29 14.9565 18.5 14.9565C17.71 14.9565 17 14.1788 17 13.3911V12.1447C17 9.64196 15.22 7.38851 12.74 7.03953C9.33999 6.55095 6.46999 9.48242 7.07999 12.8925C7.41999 14.797 8.90999 16.3724 10.8 16.8211C12.64 17.2498 14.39 16.6615 15.54 15.4949C16.43 16.7114 18.21 17.3495 19.84 16.7014C21.18 16.173 22 14.8069 22 13.3711V12.2843C22 6.98967 18.01 2.38307 12.72 2.02412ZM12 14.9565C10.34 14.9565 8.99999 13.6204 8.99999 11.9652C8.99999 10.31 10.34 8.9739 12 8.9739C13.66 8.9739 15 10.31 15 11.9652C15 13.6204 13.66 14.9565 12 14.9565Z" fill="white"/>
</svg>
