<svg width="18" height="18" viewBox="0 0 18 18" fill="none" xmlns="http://www.w3.org/2000/svg">
<path d="M4.66973 16.3016C5.94329 17.0657 7.47156 17.4902 8.99983 17.4902C13.6696 17.4902 17.4902 13.6696 17.4902 8.99983C17.4902 4.33011 13.6696 0.509425 8.99983 0.509425C4.33011 0.509425 0.509425 4.33011 0.509425 8.99983C0.509425 10.5281 0.933945 11.9715 1.61318 13.245L0.958169 15.7643C0.759776 16.5274 1.46605 17.2169 2.22413 17.0003L4.66973 16.3016Z" stroke="#F7BF23" stroke-miterlimit="10" stroke-linecap="round" stroke-linejoin="round"/>
<path d="M12.8202 11.4184C12.8202 11.5559 12.7896 11.6973 12.7245 11.8348C12.6595 11.9724 12.5753 12.1023 12.4643 12.2245C12.2768 12.4309 12.0702 12.5799 11.8368 12.6754C11.6072 12.7709 11.3585 12.8206 11.0906 12.8206C10.7003 12.8206 10.2833 12.7289 9.84323 12.5417C9.40319 12.3544 8.96315 12.1023 8.52694 11.7852C8.0869 11.4642 7.66982 11.1089 7.27187 10.7154C6.87775 10.318 6.52189 9.90156 6.2043 9.466C5.89053 9.03044 5.63799 8.59488 5.45432 8.16315C5.27065 7.72759 5.17882 7.31113 5.17882 6.91378C5.17882 6.65398 5.22474 6.40563 5.31657 6.17639C5.4084 5.94333 5.55381 5.72937 5.75661 5.53834C6.0015 5.29763 6.26935 5.17919 6.5525 5.17919C6.65964 5.17919 6.76678 5.20212 6.86244 5.24796C6.96193 5.29381 7.04994 5.36258 7.11882 5.46192L8.00655 6.71129C8.07542 6.8068 8.12516 6.89468 8.1596 6.97873C8.19404 7.05897 8.21317 7.1392 8.21317 7.2118C8.21317 7.30349 8.18639 7.39519 8.13282 7.48306C8.08307 7.57094 8.01037 7.66264 7.91854 7.75433L7.62773 8.05617C7.58564 8.09819 7.56651 8.14786 7.56651 8.20899C7.56651 8.23956 7.57033 8.2663 7.57799 8.29687C7.58947 8.32744 7.60094 8.35036 7.6086 8.37328C7.67747 8.49937 7.79609 8.66366 7.96445 8.86233C8.13664 9.06101 8.32031 9.2635 8.51929 9.466C8.72591 9.6685 8.92489 9.85571 9.12769 10.0276C9.32666 10.1957 9.4912 10.3104 9.6213 10.3791C9.64043 10.3868 9.66339 10.3982 9.69017 10.4097C9.72078 10.4212 9.75139 10.425 9.78583 10.425C9.85088 10.425 9.90063 10.4021 9.94272 10.36L10.2335 10.0735C10.3292 9.97797 10.421 9.90538 10.509 9.85953C10.597 9.80604 10.685 9.7793 10.7807 9.7793C10.8534 9.7793 10.9299 9.79458 11.0141 9.82896C11.0983 9.86335 11.1863 9.91302 11.282 9.97797L12.5485 10.8758C12.648 10.9446 12.7169 11.0248 12.759 11.1204C12.7972 11.2159 12.8202 11.3114 12.8202 11.4184Z" stroke="#F7BF23" stroke-miterlimit="10"/>
</svg>
