<svg width="24" height="24" viewBox="0 0 24 24" fill="none" xmlns="http://www.w3.org/2000/svg">
<path d="M21 2.20343C20.87 2.20343 20.74 2.25328 20.65 2.35298L19.86 3.14062C19.66 3.34003 19.35 3.34003 19.15 3.14062L18.36 2.35298C18.16 2.15358 17.85 2.15358 17.65 2.35298L16.86 3.14062C16.66 3.34003 16.35 3.34003 16.15 3.14062L15.36 2.35298C15.16 2.15358 14.85 2.15358 14.65 2.35298L13.86 3.14062C13.66 3.34003 13.35 3.34003 13.15 3.14062L12.36 2.35298C12.16 2.15358 11.85 2.15358 11.65 2.35298L10.86 3.14062C10.66 3.34003 10.35 3.34003 10.15 3.14062L9.34997 2.34301C9.14997 2.14361 8.83997 2.14361 8.63997 2.34301L7.84997 3.14062C7.64997 3.34003 7.33997 3.34003 7.13997 3.14062L6.34997 2.34301C6.14997 2.14361 5.83997 2.14361 5.63997 2.34301L4.84997 3.14062C4.64997 3.34003 4.33997 3.34003 4.13997 3.14062L3.34997 2.34301C3.25997 2.25328 3.12997 2.20343 2.99997 2.20343V21.735C3.12997 21.735 3.25997 21.6851 3.34997 21.5854L4.13997 20.7978C4.33997 20.5984 4.64997 20.5984 4.84997 20.7978L5.63997 21.5854C5.83997 21.7848 6.14997 21.7848 6.34997 21.5854L7.13997 20.7978C7.33997 20.5984 7.64997 20.5984 7.84997 20.7978L8.63997 21.5854C8.83997 21.7848 9.14997 21.7848 9.34997 21.5854L10.14 20.7978C10.34 20.5984 10.65 20.5984 10.85 20.7978L11.64 21.5854C11.84 21.7848 12.15 21.7848 12.35 21.5854L13.14 20.7978C13.34 20.5984 13.65 20.5984 13.85 20.7978L14.64 21.5854C14.84 21.7848 15.15 21.7848 15.35 21.5854L16.14 20.7978C16.34 20.5984 16.65 20.5984 16.85 20.7978L17.64 21.5854C17.84 21.7848 18.15 21.7848 18.35 21.5854L19.14 20.7978C19.34 20.5984 19.65 20.5984 19.85 20.7978L20.64 21.5854C20.74 21.6851 20.87 21.735 20.99 21.735V2.20343H21ZM17 16.9493H6.99997C6.44997 16.9493 5.99997 16.5006 5.99997 15.9523C5.99997 15.4039 6.44997 14.9553 6.99997 14.9553H17C17.55 14.9553 18 15.4039 18 15.9523C18 16.5006 17.55 16.9493 17 16.9493ZM17 12.9612H6.99997C6.44997 12.9612 5.99997 12.5126 5.99997 11.9642C5.99997 11.4159 6.44997 10.9672 6.99997 10.9672H17C17.55 10.9672 18 11.4159 18 11.9642C18 12.5126 17.55 12.9612 17 12.9612ZM17 8.97316H6.99997C6.44997 8.97316 5.99997 8.52451 5.99997 7.97615C5.99997 7.42779 6.44997 6.97913 6.99997 6.97913H17C17.55 6.97913 18 7.42779 18 7.97615C18 8.52451 17.55 8.97316 17 8.97316Z" fill="white"/>
</svg>
