<svg width="65" height="47" viewBox="0 0 65 47" fill="none" xmlns="http://www.w3.org/2000/svg">
<path d="M44.7064 10.6984V12.1671C44.7064 12.7371 44.6675 13.2974 44.5913 13.8465C44.41 15.1644 44.0171 16.4157 43.4488 17.5635C42.8527 18.7668 42.0648 19.857 41.1238 20.7948C40.3843 21.5321 39.55 22.1746 38.6415 22.7029C37.354 23.4525 35.9156 23.9718 34.3839 24.2058C33.7783 24.2986 33.1583 24.3465 32.5265 24.3465C27.7379 24.3465 23.5949 21.5828 21.6048 17.563H26.1908C27.7171 19.3532 29.9888 20.4888 32.526 20.4888C33.1647 20.4888 33.7863 20.4168 34.3834 20.2803C36.0478 19.9013 37.5219 19.0232 38.641 17.8119C38.7162 17.7309 38.7903 17.6477 38.8617 17.563C39.7542 16.5159 40.3923 15.2449 40.6786 13.846H20.4628C20.3871 13.2968 20.3476 12.7365 20.3476 12.1666C20.3476 11.6697 20.3775 11.1792 20.4356 10.6978C20.6371 9.01953 21.1798 7.44679 21.9929 6.04998C22.4562 5.25295 23.0074 4.5135 23.6344 3.84442C25.7387 1.5962 28.6863 0.146611 31.9726 0H34.3839V3.84442H32.5265C30.3492 3.84442 28.367 4.6809 26.8838 6.04998C25.5777 7.25486 24.6585 8.87345 24.3339 10.6978L44.7064 10.6984Z" fill="white"/>
<path d="M44.7064 0.000978545V6.05043H41.1238V3.84539H38.6415V0.000978545H44.7064Z" fill="#44C1EF"/>
<path d="M3.18975 38.9207C2.87573 38.9207 2.56758 38.8914 2.2653 38.8322C1.96301 38.7736 1.67832 38.6952 1.41122 38.5966C1.14412 38.4985 0.89888 38.3828 0.674964 38.249C0.451049 38.1157 0.26072 37.9744 0.103446 37.8252C0.0405368 37.7623 0.0368049 37.6956 0.0917175 37.6247L0.986846 36.6C1.03376 36.5371 1.09294 36.5334 1.16331 36.5883C1.43041 36.8005 1.74016 36.9908 2.09363 37.1598C2.4471 37.3288 2.83575 37.4131 3.25959 37.4131C3.68343 37.4131 4.00757 37.3245 4.23149 37.1481C4.4554 36.9716 4.56736 36.7418 4.56736 36.4593C4.56736 36.2236 4.48099 36.0312 4.30826 35.8824C4.13552 35.7331 3.80978 35.6276 3.3305 35.5641L2.90666 35.5055C2.0899 35.3957 1.464 35.1462 1.0279 34.7575C0.592328 34.3689 0.374278 33.8171 0.374278 33.1027C0.374278 32.7337 0.440919 32.3979 0.574735 32.0956C0.708018 31.7933 0.898879 31.5363 1.14625 31.3241C1.39363 31.112 1.69165 30.9472 2.04138 30.8294C2.39058 30.7116 2.78137 30.6529 3.21321 30.6529C3.74687 30.6529 4.24962 30.7276 4.7209 30.8768C5.19219 31.0261 5.59631 31.2303 5.93431 31.4894C6.00522 31.5363 6.01268 31.5955 5.95777 31.6659L5.23911 32.7375C5.19219 32.8004 5.13675 32.8121 5.07437 32.7727C4.76835 32.5685 4.46393 32.4155 4.16165 32.3131C3.85936 32.2113 3.54322 32.1601 3.21321 32.1601C2.85974 32.1601 2.59264 32.2427 2.41244 32.4075C2.23171 32.5722 2.14161 32.7807 2.14161 33.0318C2.14161 33.2594 2.23384 33.4481 2.41831 33.5974C2.60277 33.7467 2.92638 33.8528 3.39021 33.9152L3.81405 33.9743C4.64627 34.0842 5.2743 34.3337 5.69867 34.7223C6.12251 35.111 6.3347 35.6702 6.3347 36.4006C6.3347 36.7621 6.26805 37.0974 6.13424 37.4077C6.00042 37.718 5.80263 37.9851 5.53926 38.2085C5.27589 38.4324 4.94802 38.6073 4.55563 38.7326C4.16325 38.8578 3.70795 38.9207 3.18975 38.9207Z" fill="white"/>
<path d="M8.06591 30.7117C8.06591 30.6333 8.10536 30.5939 8.18373 30.5939H9.58533C9.6797 30.5939 9.74207 30.6333 9.77406 30.7117L11.8 35.5994H11.8469L13.8376 30.7117C13.869 30.6333 13.932 30.5939 14.0258 30.5939H15.4039C15.4823 30.5939 15.5218 30.6333 15.5218 30.7117V38.803C15.5218 38.8819 15.4823 38.9208 15.4039 38.9208H14.0732C13.9949 38.9208 13.9554 38.8819 13.9554 38.803V34.2922H13.9085L12.4243 37.6723C12.3773 37.7746 12.3027 37.8253 12.2003 37.8253H11.3879C11.2855 37.8253 11.2114 37.7741 11.1639 37.6723L9.6797 34.2922H9.63278V38.803C9.63278 38.8819 9.59333 38.9208 9.51496 38.9208H8.18426C8.10589 38.9208 8.06644 38.8819 8.06644 38.803V30.7117H8.06591Z" fill="white"/>
<path d="M20.0171 30.7117C20.0405 30.6333 20.0917 30.5939 20.1701 30.5939H21.6543C21.7327 30.5939 21.7839 30.6333 21.8073 30.7117L24.5162 38.803C24.5396 38.8819 24.5119 38.9208 24.4336 38.9208H22.9024C22.824 38.9208 22.7728 38.8819 22.7494 38.803L22.2898 37.4014H19.4866L19.0388 38.803C19.0153 38.8819 18.9641 38.9208 18.8858 38.9208H17.3429C17.264 38.9208 17.2368 38.8819 17.2603 38.803L20.0171 30.7117ZM21.8191 35.9289L20.9122 33.1257H20.877L19.9702 35.9289H21.8191Z" fill="white"/>
<path d="M30.684 38.9207C30.5976 38.9207 30.5384 38.8818 30.5075 38.8029L29.1293 35.57H28.0577C28.0108 35.57 27.9868 35.5935 27.9868 35.6409V38.8035C27.9868 38.8824 27.9474 38.9213 27.869 38.9213H26.3731C26.2947 38.9213 26.2552 38.8824 26.2552 38.8035V30.7292C26.2552 30.6508 26.2941 30.6113 26.3731 30.6113H29.5649C29.9733 30.6113 30.3444 30.6721 30.6781 30.7937C31.0118 30.9152 31.2981 31.0864 31.538 31.306C31.7774 31.5257 31.9619 31.789 32.0914 32.0951C32.221 32.4011 32.286 32.7353 32.286 33.0963C32.286 33.6145 32.1602 34.066 31.9091 34.451C31.6575 34.8359 31.3083 35.1264 30.861 35.3226L32.439 38.7795C32.4545 38.8189 32.4545 38.852 32.439 38.8797C32.423 38.9074 32.3958 38.9207 32.3564 38.9207H30.684ZM29.4711 34.0975C29.8011 34.0975 30.0639 34.0074 30.2601 33.8267C30.4563 33.6459 30.5544 33.4028 30.5544 33.0963C30.5544 32.7977 30.4563 32.5583 30.2601 32.3776C30.0639 32.1969 29.8006 32.1068 29.4711 32.1068H28.0577C28.0108 32.1068 27.9868 32.1302 27.9868 32.1777V34.0266C27.9868 34.0735 28.0103 34.0975 28.0577 34.0975H29.4711Z" fill="white"/>
<path d="M36.5144 38.9208C36.436 38.9208 36.3966 38.8819 36.3966 38.803V32.2129C36.3966 32.166 36.3731 32.142 36.3257 32.142H34.2998C34.2214 32.142 34.1819 32.1031 34.1819 32.0253V30.7276C34.1819 30.6498 34.2214 30.6109 34.2998 30.6109H40.2239C40.3023 30.6109 40.3417 30.6498 40.3417 30.7276V32.0253C40.3417 32.1031 40.3023 32.142 40.2239 32.142H38.198C38.1511 32.142 38.1271 32.1655 38.1271 32.2129V38.803C38.1271 38.8819 38.0877 38.9208 38.0093 38.9208H36.5144Z" fill="white"/>
<path d="M46.8385 38.9207C46.1395 38.9207 45.5291 38.7597 45.0072 38.4377C44.4847 38.1157 44.1216 37.629 43.9174 36.9775C43.8705 36.8362 43.8332 36.6986 43.8055 36.5654C43.7778 36.4321 43.7564 36.2828 43.7404 36.1175C43.7244 35.9528 43.7127 35.7641 43.7052 35.5524C43.6972 35.3402 43.6935 35.0241 43.6935 34.726C43.6935 34.4275 43.6972 34.1727 43.7052 33.9605C43.7132 33.7483 43.725 33.5601 43.7404 33.3954C43.7559 33.2306 43.7778 33.0813 43.8055 32.9475C43.8327 32.8142 43.87 32.6767 43.9174 32.5354C44.1216 31.8919 44.4847 31.4068 45.0072 31.081C45.5291 30.7553 46.1395 30.5921 46.8385 30.5921C47.5374 30.5921 48.1478 30.7553 48.6698 31.081C49.1917 31.4068 49.5548 31.8919 49.7595 32.5354C49.8064 32.6767 49.8437 32.8142 49.8715 32.9475C49.8986 33.0813 49.9205 33.2301 49.9365 33.3954C49.952 33.5601 49.9637 33.7488 49.9717 33.9605C49.9791 34.1727 49.9834 34.4275 49.9834 34.726C49.9834 35.0246 49.9791 35.3407 49.9717 35.5524C49.9637 35.7646 49.952 35.9528 49.9365 36.1175C49.9205 36.2823 49.8992 36.4315 49.8715 36.5654C49.8437 36.6992 49.8069 36.8362 49.7595 36.9775C49.5553 37.6295 49.1922 38.1162 48.6698 38.4377C48.1478 38.7597 47.5374 38.9207 46.8385 38.9207ZM46.8385 37.3896C47.1685 37.3896 47.4393 37.3112 47.651 37.1539C47.8631 36.9972 48.0119 36.7813 48.0988 36.5062C48.1222 36.4353 48.142 36.3553 48.1574 36.2647C48.1729 36.1746 48.1868 36.0642 48.1985 35.9347C48.2102 35.8051 48.2182 35.6462 48.2219 35.4575C48.2257 35.2693 48.2278 34.9841 48.2278 34.725C48.2278 34.4659 48.2257 34.242 48.2219 34.0538C48.2177 33.865 48.2102 33.7062 48.1985 33.5766C48.1868 33.4471 48.1729 33.3372 48.1574 33.2466C48.1414 33.1565 48.1222 33.076 48.0988 33.0051C48.0124 32.7305 47.8631 32.5146 47.651 32.3573C47.4388 32.2006 47.1679 32.1217 46.8385 32.1217C46.509 32.1217 46.2376 32.2001 46.026 32.3573C45.8138 32.5146 45.6645 32.7305 45.5781 33.0051C45.5547 33.076 45.535 33.1565 45.5195 33.2466C45.5035 33.3372 45.4902 33.4471 45.4784 33.5766C45.4667 33.7062 45.4587 33.865 45.455 34.0538C45.4513 34.242 45.4491 34.4659 45.4491 34.725C45.4491 34.9841 45.4507 35.2688 45.455 35.4575C45.4587 35.6462 45.4667 35.8051 45.4784 35.9347C45.4902 36.0642 45.504 36.174 45.5195 36.2647C45.535 36.3553 45.5547 36.4353 45.5781 36.5062C45.6645 36.7813 45.8138 36.9972 46.026 37.1539C46.2382 37.3112 46.509 37.3896 46.8385 37.3896Z" fill="white"/>
<path d="M51.715 30.7095C51.715 30.6311 51.7539 30.5917 51.8328 30.5917H53.2462C53.3325 30.5917 53.3992 30.6311 53.4466 30.7095L56.2733 36.0707H56.3319V30.7095C56.3319 30.6311 56.3709 30.5917 56.4498 30.5917H57.781C57.8594 30.5917 57.8988 30.6311 57.8988 30.7095V38.803C57.8988 38.8819 57.8594 38.9208 57.781 38.9208H56.3794C56.293 38.9208 56.2264 38.8819 56.1789 38.803L53.3405 33.4535H53.2819V38.803C53.2819 38.8819 53.2424 38.9208 53.1641 38.9208H51.8334C51.755 38.9208 51.7156 38.8819 51.7156 38.803V30.7095H51.715Z" fill="white"/>
<path d="M59.6293 30.7095C59.6293 30.6311 59.6682 30.5917 59.7471 30.5917H64.8822C64.9606 30.5917 65 30.6311 65 30.7095V31.9698C65 32.0482 64.9606 32.0876 64.8822 32.0876H61.4312C61.3843 32.0876 61.3603 32.1111 61.3603 32.1585V34.0687C61.3603 34.1157 61.3838 34.1396 61.4312 34.1396H64.3054C64.3837 34.1396 64.4232 34.1791 64.4232 34.2575V35.5061C64.4232 35.5844 64.3837 35.6239 64.3054 35.6239H61.4312C61.3843 35.6239 61.3603 35.6473 61.3603 35.6948V37.3555C61.3603 37.4024 61.3838 37.4264 61.4312 37.4264H64.8822C64.9606 37.4264 65 37.4659 65 37.5442V38.8046C65 38.8835 64.9606 38.9224 64.8822 38.9224H59.7471C59.6687 38.9224 59.6293 38.8835 59.6293 38.8046V30.7095Z" fill="white"/>
<path d="M0.0996959 44.6109C0.0810362 44.5512 0.0655754 44.4931 0.0522471 44.4355C0.039452 44.3779 0.0287893 44.3113 0.0218586 44.235C0.0143948 44.1588 0.00853003 44.0698 0.00533124 43.9674C0.00159932 43.865 0 43.7376 0 43.5851C0 43.4364 0.00159932 43.31 0.00533124 43.2061C0.00906317 43.1021 0.0143948 43.012 0.0218586 42.9358C0.0293225 42.8595 0.039452 42.7929 0.0522471 42.7353C0.0650423 42.6777 0.0810362 42.6191 0.0996959 42.5594C0.196193 42.2475 0.358798 42.014 0.586979 41.8599C0.815159 41.7058 1.09079 41.6285 1.41387 41.6285C1.71829 41.6285 1.98059 41.7016 2.20184 41.8477C2.42255 41.9937 2.58676 42.1937 2.69445 42.4469C2.70565 42.4805 2.69605 42.5023 2.66673 42.5135L2.19331 42.7417C2.15972 42.7604 2.13573 42.7508 2.1208 42.714C2.05789 42.5802 1.97152 42.4656 1.8617 42.3685C1.75241 42.272 1.6026 42.2241 1.41333 42.2241C1.23154 42.2241 1.08546 42.2683 0.976165 42.3573C0.866873 42.4464 0.785837 42.5685 0.734123 42.7241C0.722927 42.7652 0.712798 42.8057 0.703735 42.8462C0.694671 42.8867 0.687207 42.9395 0.681343 43.0046C0.676012 43.0691 0.67228 43.148 0.670147 43.2407C0.668015 43.3335 0.667482 43.4481 0.667482 43.5851C0.667482 43.7259 0.668548 43.8416 0.670147 43.9322C0.671747 44.0228 0.675478 44.1007 0.681343 44.1657C0.686674 44.2308 0.694138 44.2841 0.703735 44.3267C0.712798 44.3694 0.723461 44.4088 0.734123 44.4461C0.785837 44.6018 0.866873 44.7239 0.976165 44.8129C1.08546 44.902 1.23154 44.9462 1.41333 44.9462C1.6026 44.9462 1.75187 44.8982 1.8617 44.8017C1.97099 44.7052 2.05736 44.5901 2.1208 44.4568C2.13573 44.4195 2.15972 44.4104 2.19331 44.4291L2.66673 44.6573C2.69658 44.6685 2.70565 44.6909 2.69445 44.7239C2.58676 44.9771 2.42255 45.1771 2.20184 45.3231C1.98112 45.4692 1.71829 45.5423 1.41387 45.5423C1.09079 45.5423 0.815159 45.465 0.586979 45.3109C0.358798 45.1563 0.196193 44.9233 0.0996959 44.6109Z" fill="white"/>
<path d="M4.35355 45.5422C4.07898 45.5422 3.84387 45.4772 3.64928 45.3476C3.45415 45.2175 3.3198 45.0357 3.2457 44.8022C3.21584 44.7057 3.19345 44.6082 3.17906 44.5101C3.16413 44.412 3.15667 44.2883 3.15667 44.1395C3.15667 43.9913 3.16413 43.8676 3.17906 43.7695C3.19398 43.6714 3.21584 43.5739 3.2457 43.4774C3.3198 43.2433 3.45469 43.0615 3.64928 42.932C3.84387 42.8019 4.07898 42.7369 4.35355 42.7369C4.62438 42.7369 4.85736 42.8019 5.05248 42.932C5.24708 43.0621 5.38196 43.2439 5.45606 43.4774C5.48592 43.5739 5.50778 43.6714 5.52271 43.7695C5.53763 43.8682 5.5451 43.9913 5.5451 44.1395C5.5451 44.2883 5.53763 44.4114 5.52271 44.5101C5.50778 44.6082 5.48539 44.7057 5.45606 44.8022C5.38196 45.0363 5.24708 45.2181 5.05248 45.3476C4.85736 45.4772 4.62438 45.5422 4.35355 45.5422ZM4.35355 44.9856C4.4799 44.9856 4.58439 44.9547 4.66809 44.8939C4.7518 44.8326 4.81364 44.7462 4.85469 44.6348C4.87708 44.5644 4.89201 44.493 4.89947 44.4205C4.90694 44.348 4.91067 44.2542 4.91067 44.1395C4.91067 44.0244 4.90694 43.9316 4.89947 43.8612C4.89201 43.7909 4.87708 43.7184 4.85469 43.6443C4.81364 43.5328 4.7518 43.4465 4.66809 43.3852C4.58439 43.3238 4.4799 43.2935 4.35355 43.2935C4.22719 43.2935 4.12163 43.3238 4.03633 43.3852C3.95103 43.4465 3.88759 43.5328 3.84707 43.6443C3.82468 43.7184 3.80975 43.7909 3.80229 43.8612C3.79482 43.9316 3.79109 44.0244 3.79109 44.1395C3.79109 44.2547 3.79482 44.3485 3.80229 44.4205C3.80975 44.493 3.82468 44.5644 3.84707 44.6348C3.88812 44.7462 3.95103 44.8326 4.03633 44.8939C4.12163 44.9547 4.22719 44.9856 4.35355 44.9856Z" fill="white"/>
<path d="M7.91113 45.4809C7.87381 45.4809 7.85569 45.4622 7.85569 45.4255V43.8778C7.85569 43.7034 7.81304 43.5622 7.72774 43.4545C7.64243 43.3468 7.51608 43.2929 7.34921 43.2929C7.18607 43.2929 7.05972 43.3468 6.97069 43.4545C6.88166 43.5622 6.83687 43.7034 6.83687 43.8778V45.4255C6.83687 45.4628 6.81821 45.4809 6.78143 45.4809H6.26909C6.23177 45.4809 6.21364 45.4622 6.21364 45.4255V42.8531C6.21364 42.8158 6.2323 42.7976 6.26909 42.7976H6.78143C6.81821 42.7976 6.83687 42.8163 6.83687 42.8531V43.0482H6.8422C6.90138 42.9629 6.98988 42.8893 7.10664 42.8286C7.22339 42.7673 7.37107 42.7369 7.54914 42.7369C7.69415 42.7369 7.82263 42.7619 7.93619 42.812C8.04921 42.8622 8.14678 42.932 8.22835 43.021C8.30992 43.1101 8.37229 43.2151 8.41494 43.3356C8.45759 43.4561 8.47892 43.5888 8.47892 43.7338V45.4265C8.47892 45.4638 8.46026 45.482 8.42347 45.482H7.91113V45.4809Z" fill="white"/>
<path d="M10.9622 45.4809C10.9249 45.4809 10.9068 45.4622 10.9068 45.4255V43.8778C10.9068 43.7034 10.8641 43.5622 10.7788 43.4545C10.6935 43.3468 10.5672 43.2929 10.4003 43.2929C10.2372 43.2929 10.1108 43.3468 10.0218 43.4545C9.93276 43.5622 9.88798 43.7034 9.88798 43.8778V45.4255C9.88798 45.4628 9.86932 45.4809 9.83253 45.4809H9.32019C9.28287 45.4809 9.26475 45.4622 9.26475 45.4255V42.8531C9.26475 42.8158 9.28341 42.7976 9.32019 42.7976H9.83253C9.86932 42.7976 9.88798 42.8163 9.88798 42.8531V43.0482H9.89331C9.95249 42.9629 10.041 42.8893 10.1577 42.8286C10.2745 42.7673 10.4222 42.7369 10.6002 42.7369C10.7453 42.7369 10.8737 42.7619 10.9873 42.812C11.1003 42.8622 11.1979 42.932 11.2795 43.021C11.361 43.1101 11.4234 43.2151 11.466 43.3356C11.5087 43.4561 11.53 43.5888 11.53 43.7338V45.4265C11.53 45.4638 11.5114 45.482 11.4746 45.482H10.9622V45.4809Z" fill="white"/>
<path d="M13.3784 45.5422C13.0926 45.5422 12.8538 45.4761 12.6618 45.3444C12.4699 45.2127 12.3377 45.0299 12.2636 44.7958C12.2343 44.7105 12.2113 44.6151 12.1948 44.509C12.1783 44.4034 12.1703 44.2798 12.1703 44.1385C12.1703 43.9977 12.1778 43.873 12.1921 43.7653C12.2071 43.6576 12.2289 43.5611 12.2583 43.4758C12.3318 43.2418 12.4656 43.06 12.6592 42.9304C12.8527 42.8003 13.083 42.7353 13.3506 42.7353C13.6289 42.7353 13.8635 42.8014 14.0549 42.9331C14.2458 43.0648 14.3785 43.246 14.4532 43.4758C14.4681 43.5243 14.4809 43.5723 14.4921 43.6203C14.5033 43.6688 14.5123 43.7242 14.5198 43.7871C14.5273 43.8501 14.5326 43.9215 14.5363 44.0015C14.5401 44.0814 14.5417 44.1753 14.5417 44.2824C14.5417 44.3197 14.5214 44.3379 14.4804 44.3379H12.8266C12.8042 44.3379 12.793 44.3491 12.793 44.3715C12.793 44.4125 12.7967 44.4493 12.8042 44.4829C12.8117 44.5165 12.8207 44.5479 12.8319 44.5778C12.9247 44.8486 13.1251 44.984 13.4333 44.984C13.5852 44.984 13.7116 44.96 13.8118 44.9115C13.912 44.8635 13.9957 44.8022 14.0624 44.7276C14.0922 44.6977 14.12 44.694 14.1461 44.7164L14.4745 45.0059C14.5006 45.0283 14.5022 45.0544 14.4798 45.0837C14.3647 45.2175 14.2143 45.3268 14.0288 45.4121C13.8443 45.4996 13.6268 45.5422 13.3784 45.5422ZM13.9131 43.8437C13.9131 43.7573 13.9019 43.6811 13.8795 43.6133C13.8422 43.5046 13.7772 43.4198 13.6849 43.358C13.5922 43.2961 13.4823 43.2652 13.3565 43.2652C13.2264 43.2652 13.115 43.2961 13.0222 43.358C12.9295 43.4198 12.8644 43.5051 12.8271 43.6133C12.8047 43.6811 12.7935 43.7578 12.7935 43.8437C12.7935 43.8661 12.8047 43.8772 12.8271 43.8772H13.8795C13.9019 43.8772 13.9131 43.8661 13.9131 43.8437Z" fill="white"/>
<path d="M16.262 45.5424C15.9912 45.5424 15.7582 45.4795 15.5631 45.3532C15.368 45.2268 15.232 45.0434 15.1537 44.8019C15.0982 44.635 15.07 44.4143 15.07 44.1392C15.07 43.8647 15.0977 43.6439 15.1537 43.4765C15.2315 43.235 15.368 43.0516 15.5631 42.9253C15.7577 42.7989 15.9907 42.736 16.262 42.736C16.4625 42.736 16.6406 42.7733 16.7968 42.8474C16.9525 42.9215 17.0841 43.0239 17.1918 43.1535C17.2142 43.1833 17.2121 43.2089 17.1865 43.2313L16.8357 43.5373C16.8058 43.5597 16.7803 43.556 16.7579 43.5261C16.6912 43.452 16.6198 43.3944 16.5435 43.3534C16.4673 43.3129 16.3735 43.2921 16.2626 43.2921C16.1437 43.2921 16.0408 43.3209 15.9534 43.3784C15.8659 43.436 15.802 43.524 15.7614 43.6429C15.739 43.7095 15.7241 43.7831 15.7167 43.8625C15.7092 43.9425 15.7055 44.0342 15.7055 44.1382C15.7055 44.2421 15.7092 44.3349 15.7167 44.4164C15.7241 44.498 15.739 44.5721 15.7614 44.6393C15.8025 44.7545 15.8665 44.8408 15.9534 44.8984C16.0403 44.956 16.1437 44.9848 16.2626 44.9848C16.374 44.9848 16.4678 44.9645 16.5435 44.9235C16.6198 44.8829 16.6912 44.8254 16.7579 44.7507C16.7803 44.7246 16.8058 44.723 16.8357 44.7454L17.1865 45.0514C17.2089 45.0701 17.2105 45.0957 17.1918 45.1292C17.0841 45.2556 16.9525 45.3558 16.7968 45.4299C16.6411 45.5051 16.4625 45.5424 16.262 45.5424Z" fill="white"/>
<path d="M18.6453 45.5145C18.3745 45.5145 18.182 45.4494 18.069 45.3193C17.9559 45.1893 17.8989 44.9925 17.8989 44.7292V43.3148C17.8989 43.2924 17.8877 43.2812 17.8653 43.2812H17.6872C17.6499 43.2812 17.6318 43.2625 17.6318 43.2257V42.8525C17.6318 42.8152 17.6505 42.7971 17.6872 42.7971H17.8653C17.8877 42.7971 17.8989 42.7859 17.8989 42.7635V42.0283C17.8989 41.9915 17.9176 41.9729 17.9543 41.9729H18.4667C18.5035 41.9729 18.5221 41.9915 18.5221 42.0283V42.7635C18.5221 42.7859 18.5333 42.7971 18.5557 42.7971H18.9118C18.9486 42.7971 18.9673 42.8158 18.9673 42.8525V43.2257C18.9673 43.263 18.9486 43.2812 18.9118 43.2812H18.5557C18.5333 43.2812 18.5221 43.2924 18.5221 43.3148V44.7068C18.5221 44.8033 18.5424 44.8694 18.5834 44.9046C18.6245 44.9397 18.6874 44.9573 18.7727 44.9573H18.9118C18.9486 44.9573 18.9673 44.976 18.9673 45.0128V45.458C18.9673 45.4953 18.9486 45.5134 18.9118 45.5134H18.6453V45.5145Z" fill="white"/>
<path d="M21.0284 45.481C20.991 45.481 20.9729 45.4624 20.9729 45.425V41.7448C20.9729 41.7075 20.9916 41.6888 21.0284 41.6888H22.4481C22.6299 41.6888 22.7978 41.7176 22.9519 41.7752C23.106 41.8328 23.2377 41.9128 23.347 42.0151C23.4562 42.1175 23.5421 42.2412 23.6029 42.3862C23.6642 42.5312 23.6946 42.6911 23.6946 42.866C23.6946 43.0446 23.6642 43.2061 23.6029 43.3517C23.5415 43.4967 23.4562 43.6204 23.347 43.7227C23.2377 43.8251 23.1054 43.9051 22.9519 43.9627C22.7978 44.0202 22.6299 44.049 22.4481 44.049H21.6633C21.6409 44.049 21.6297 44.0602 21.6297 44.0826V45.4245C21.6297 45.4618 21.6111 45.4799 21.5743 45.4799H21.0284V45.481ZM22.4086 43.4546C22.6054 43.4546 22.7594 43.4018 22.8709 43.2957C22.9823 43.1901 23.0377 43.0478 23.0377 42.8697C23.0377 42.6954 22.9823 42.5541 22.8709 42.4464C22.7594 42.3387 22.6054 42.2849 22.4086 42.2849H21.6628C21.6404 42.2849 21.6292 42.2961 21.6292 42.3185V43.421C21.6292 43.4434 21.6404 43.4546 21.6628 43.4546H22.4086Z" fill="white"/>
<path d="M25.3542 45.5422C25.0684 45.5422 24.8296 45.4761 24.6376 45.3444C24.4457 45.2127 24.3135 45.0299 24.2394 44.7958C24.2101 44.7105 24.1871 44.6151 24.1706 44.509C24.1541 44.4034 24.1461 44.2798 24.1461 44.1385C24.1461 43.9977 24.1536 43.873 24.168 43.7653C24.1829 43.6576 24.2047 43.5611 24.2341 43.4758C24.3076 43.2418 24.4415 43.06 24.635 42.9304C24.8285 42.8003 25.0588 42.7353 25.3265 42.7353C25.6047 42.7353 25.8393 42.8014 26.0307 42.9331C26.2216 43.0648 26.3543 43.246 26.429 43.4758C26.4439 43.5243 26.4567 43.5723 26.4679 43.6203C26.4791 43.6688 26.4881 43.7242 26.4956 43.7871C26.5031 43.8501 26.5084 43.9215 26.5121 44.0015C26.5159 44.0814 26.5175 44.1753 26.5175 44.2824C26.5175 44.3197 26.4972 44.3379 26.4562 44.3379H24.8024C24.78 44.3379 24.7688 44.3491 24.7688 44.3715C24.7688 44.4125 24.7725 44.4493 24.78 44.4829C24.7875 44.5165 24.7965 44.5479 24.8077 44.5778C24.9005 44.8486 25.1009 44.984 25.4091 44.984C25.561 44.984 25.6874 44.96 25.7876 44.9115C25.8878 44.8635 25.9715 44.8022 26.0382 44.7276C26.068 44.6977 26.0958 44.694 26.1219 44.7164L26.4503 45.0059C26.4764 45.0283 26.478 45.0544 26.4556 45.0837C26.3405 45.2175 26.1901 45.3268 26.0046 45.4121C25.8196 45.4996 25.6026 45.5422 25.3542 45.5422ZM25.8884 43.8437C25.8884 43.7573 25.8772 43.6811 25.8548 43.6133C25.8175 43.5046 25.7524 43.4198 25.6602 43.358C25.5674 43.2961 25.4576 43.2652 25.3318 43.2652C25.2017 43.2652 25.0903 43.2961 24.9975 43.358C24.9047 43.4198 24.8397 43.5051 24.8024 43.6133C24.78 43.6811 24.7688 43.7578 24.7688 43.8437C24.7688 43.8661 24.78 43.8772 24.8024 43.8772H25.8553C25.8777 43.8772 25.8884 43.8661 25.8884 43.8437Z" fill="white"/>
<path d="M28.2438 45.5422C27.9692 45.5422 27.7341 45.4772 27.5395 45.3476C27.3444 45.2175 27.21 45.0357 27.1359 44.8022C27.1061 44.7057 27.0837 44.6082 27.0693 44.5101C27.0543 44.412 27.0469 44.2883 27.0469 44.1395C27.0469 43.9913 27.0543 43.8676 27.0693 43.7695C27.0842 43.6714 27.1061 43.5739 27.1359 43.4774C27.21 43.2433 27.3449 43.0615 27.5395 42.932C27.7341 42.8019 27.9692 42.7369 28.2438 42.7369C28.5146 42.7369 28.7476 42.8019 28.9427 42.932C29.1373 43.0621 29.2722 43.2439 29.3463 43.4774C29.3761 43.5739 29.398 43.6714 29.4129 43.7695C29.4278 43.8682 29.4353 43.9913 29.4353 44.1395C29.4353 44.2883 29.4278 44.4114 29.4129 44.5101C29.398 44.6082 29.3756 44.7057 29.3463 44.8022C29.2722 45.0363 29.1373 45.2181 28.9427 45.3476C28.7476 45.4772 28.5146 45.5422 28.2438 45.5422ZM28.2438 44.9856C28.3701 44.9856 28.4746 44.9547 28.5583 44.8939C28.642 44.8326 28.7038 44.7462 28.7449 44.6348C28.7673 44.5644 28.7822 44.493 28.7897 44.4205C28.7971 44.348 28.8009 44.2542 28.8009 44.1395C28.8009 44.0244 28.7971 43.9316 28.7897 43.8612C28.7822 43.7909 28.7673 43.7184 28.7449 43.6443C28.7038 43.5328 28.642 43.4465 28.5583 43.3852C28.4746 43.3238 28.3701 43.2935 28.2438 43.2935C28.1174 43.2935 28.0118 43.3238 27.9265 43.3852C27.8412 43.4465 27.7778 43.5328 27.7373 43.6443C27.7149 43.7184 27.7 43.7909 27.6925 43.8612C27.685 43.9316 27.6813 44.0244 27.6813 44.1395C27.6813 44.2547 27.685 44.3485 27.6925 44.4205C27.7 44.493 27.7149 44.5644 27.7373 44.6348C27.7783 44.7462 27.8412 44.8326 27.9265 44.8939C28.0118 44.9547 28.1174 44.9856 28.2438 44.9856Z" fill="white"/>
<path d="M30.1588 46.4834C30.1215 46.4834 30.1034 46.4647 30.1034 46.4279V42.8538C30.1034 42.8165 30.122 42.7983 30.1588 42.7983H30.6711C30.7079 42.7983 30.7266 42.817 30.7266 42.8538V43.0537H30.7319C30.7948 42.961 30.8839 42.8847 30.999 42.8255C31.1142 42.7664 31.2624 42.7365 31.4442 42.7365C31.6745 42.7365 31.8691 42.7904 32.029 42.898C32.1884 43.0057 32.3036 43.1673 32.374 43.3827C32.4076 43.4866 32.4315 43.5932 32.4465 43.7025C32.4614 43.8118 32.4689 43.9579 32.4689 44.1397C32.4689 44.3215 32.4614 44.4676 32.4465 44.5769C32.4315 44.6862 32.4076 44.7933 32.374 44.8968C32.3036 45.1121 32.1884 45.2737 32.029 45.3808C31.8696 45.4885 31.6745 45.5424 31.4442 45.5424C31.2624 45.5424 31.1136 45.5125 30.999 45.4533C30.8839 45.3942 30.7948 45.3179 30.7319 45.2252H30.7266V46.4279C30.7266 46.4652 30.7079 46.4834 30.6711 46.4834H30.1588ZM31.2837 44.9858C31.5396 44.9858 31.7049 44.8706 31.779 44.6409C31.7977 44.5779 31.8115 44.5092 31.8206 44.4351C31.8296 44.361 31.8344 44.2623 31.8344 44.1397C31.8344 44.0171 31.8296 43.919 31.8206 43.8449C31.8115 43.7708 31.7971 43.702 31.779 43.6391C31.7049 43.4088 31.5396 43.2942 31.2837 43.2942C31.0241 43.2942 30.8567 43.4093 30.7826 43.6391C30.7639 43.702 30.75 43.7708 30.741 43.8449C30.7319 43.919 30.7271 44.0176 30.7271 44.1397C30.7271 44.2623 30.7319 44.3604 30.741 44.4351C30.75 44.5092 30.7639 44.5779 30.7826 44.6409C30.8567 44.8706 31.0235 44.9858 31.2837 44.9858Z" fill="white"/>
<path d="M33.8614 45.5145C33.598 45.5145 33.4093 45.4516 33.2963 45.3253C33.1833 45.1989 33.1262 45.0059 33.1262 44.7463V41.7511C33.1262 41.7138 33.1449 41.6957 33.1817 41.6957H33.694C33.7313 41.6957 33.7494 41.7144 33.7494 41.7511V44.7132C33.7494 44.806 33.7681 44.87 33.8049 44.9051C33.8422 44.9403 33.9014 44.9579 33.983 44.9579H34.1056C34.1429 44.9579 34.161 44.9766 34.161 45.0134V45.4585C34.161 45.4959 34.1424 45.514 34.1056 45.514H33.8614V45.5145Z" fill="white"/>
<path d="M35.8212 45.5422C35.5354 45.5422 35.2966 45.4761 35.1047 45.3444C34.9127 45.2127 34.7805 45.0299 34.7064 44.7958C34.6771 44.7105 34.6542 44.6151 34.6376 44.509C34.6211 44.4034 34.6131 44.2798 34.6131 44.1385C34.6131 43.9977 34.6206 43.873 34.635 43.7653C34.6499 43.6576 34.6718 43.5611 34.7011 43.4758C34.7746 43.2418 34.9079 43.06 35.102 42.9304C35.2955 42.8003 35.5258 42.7353 35.7935 42.7353C36.0718 42.7353 36.3063 42.8014 36.4977 42.9331C36.6886 43.0648 36.8213 43.246 36.896 43.4758C36.9109 43.5243 36.9237 43.5723 36.9349 43.6203C36.9461 43.6688 36.9552 43.7242 36.9626 43.7871C36.9701 43.8501 36.9754 43.9215 36.9791 44.0015C36.9829 44.0814 36.9845 44.1753 36.9845 44.2824C36.9845 44.3197 36.9642 44.3379 36.9232 44.3379H35.2694C35.247 44.3379 35.2358 44.3491 35.2358 44.3715C35.2358 44.4125 35.2395 44.4493 35.247 44.4829C35.2545 44.5165 35.2635 44.5479 35.2747 44.5778C35.3675 44.8486 35.5679 44.984 35.8761 44.984C36.028 44.984 36.1544 44.96 36.2546 44.9115C36.3548 44.8635 36.4386 44.8022 36.5052 44.7276C36.535 44.6977 36.5628 44.694 36.5889 44.7164L36.9173 45.0059C36.9434 45.0283 36.945 45.0544 36.9226 45.0837C36.8075 45.2175 36.6571 45.3268 36.4716 45.4121C36.2866 45.4996 36.0696 45.5422 35.8212 45.5422ZM36.3554 43.8437C36.3554 43.7573 36.3442 43.6811 36.3218 43.6133C36.2845 43.5046 36.2194 43.4198 36.1267 43.358C36.0339 43.2961 35.9241 43.2652 35.7983 43.2652C35.6682 43.2652 35.5567 43.2961 35.464 43.358C35.3712 43.4198 35.3062 43.5051 35.2694 43.6133C35.247 43.6811 35.2358 43.7578 35.2358 43.8437C35.2358 43.8661 35.247 43.8772 35.2694 43.8772H36.3218C36.3442 43.8772 36.3554 43.8661 36.3554 43.8437Z" fill="white"/>
<path d="M40.5697 45.4811C40.5324 45.4811 40.5142 45.4625 40.5142 45.4257V45.2305H40.5089C40.446 45.3233 40.3511 45.3985 40.2248 45.4561C40.0984 45.5136 39.9406 45.5424 39.7513 45.5424C39.6287 45.5424 39.513 45.5259 39.4032 45.4923C39.2939 45.4593 39.1979 45.4091 39.1164 45.3425C39.0348 45.2759 38.9698 45.1916 38.9212 45.0898C38.8727 44.988 38.8487 44.8669 38.8487 44.7262C38.8487 44.434 38.9442 44.2197 39.1356 44.0827C39.3264 43.9457 39.5893 43.8775 39.9235 43.8775H40.4689C40.4913 43.8775 40.5025 43.8663 40.5025 43.8439V43.7148C40.5025 43.5576 40.4599 43.4435 40.3746 43.372C40.2893 43.3011 40.1331 43.2654 39.907 43.2654C39.7545 43.2654 39.6303 43.283 39.5338 43.3182C39.4373 43.3534 39.3574 43.3971 39.2944 43.4488C39.2609 43.4749 39.2347 43.4712 39.2166 43.4376L39.0108 43.0703C38.9922 43.0404 38.9959 43.0164 39.022 42.9978C39.1297 42.9199 39.2593 42.857 39.4117 42.8085C39.5637 42.7605 39.7513 42.736 39.9742 42.736C40.3826 42.736 40.671 42.8101 40.84 42.9589C41.009 43.1076 41.0932 43.3449 41.0932 43.6717V45.4257C41.0932 45.463 41.0746 45.4811 41.0378 45.4811H40.5697ZM39.9075 45.0359C40.1005 45.0359 40.2482 44.9986 40.35 44.9245C40.4519 44.8504 40.5031 44.7353 40.5031 44.5796V44.3738C40.5031 44.3514 40.4919 44.3402 40.4695 44.3402H40.0243C39.8238 44.3402 39.6772 44.369 39.5845 44.4266C39.4917 44.4842 39.4453 44.5759 39.4453 44.7022C39.4453 44.9245 39.5994 45.0359 39.9075 45.0359Z" fill="white"/>
<path d="M43.5819 45.4809C43.5446 45.4809 43.5265 45.4622 43.5265 45.4255V43.8778C43.5265 43.7034 43.4838 43.5622 43.3985 43.4545C43.3132 43.3468 43.1869 43.2929 43.02 43.2929C42.8569 43.2929 42.7305 43.3468 42.6415 43.4545C42.5524 43.5622 42.5077 43.7034 42.5077 43.8778V45.4255C42.5077 45.4628 42.489 45.4809 42.4522 45.4809H41.9399C41.9026 45.4809 41.8844 45.4622 41.8844 45.4255V42.8531C41.8844 42.8158 41.9031 42.7976 41.9399 42.7976H42.4522C42.4895 42.7976 42.5077 42.8163 42.5077 42.8531V43.0482H42.513C42.5722 42.9629 42.6607 42.8893 42.7774 42.8286C42.8942 42.7673 43.0419 42.7369 43.2199 42.7369C43.3644 42.7369 43.4934 42.7619 43.607 42.812C43.72 42.8622 43.8176 42.932 43.8991 43.021C43.9807 43.1101 44.0431 43.2151 44.0857 43.3356C44.1284 43.4561 44.1497 43.5888 44.1497 43.7338V45.4265C44.1497 45.4638 44.1311 45.482 44.0943 45.482H43.5819V45.4809Z" fill="white"/>
<path d="M46.5883 45.481C46.551 45.481 46.5328 45.4623 46.5328 45.4255V45.2251H46.5275C46.4646 45.3178 46.375 45.3941 46.2604 45.4533C46.1452 45.5124 45.997 45.5423 45.8152 45.5423C45.5849 45.5423 45.3903 45.4884 45.2309 45.3808C45.0715 45.2731 44.9564 45.1115 44.886 44.8967C44.8524 44.7927 44.8284 44.6861 44.8135 44.5768C44.7985 44.4675 44.7911 44.3214 44.7911 44.1396C44.7911 43.9578 44.7985 43.8123 44.8135 43.7024C44.8284 43.5932 44.8524 43.4865 44.886 43.3826C44.9564 43.1672 45.0715 43.0056 45.2309 42.898C45.3903 42.7903 45.5854 42.7364 45.8152 42.7364C45.997 42.7364 46.1458 42.7663 46.2604 42.8254C46.3755 42.8846 46.4646 42.9609 46.5275 43.0536H46.5328V41.7507C46.5328 41.7133 46.5515 41.6952 46.5883 41.6952H47.1006C47.1374 41.6952 47.1561 41.7139 47.1561 41.7507V45.425C47.1561 45.4623 47.1374 45.4804 47.1006 45.4804H46.5883V45.481ZM45.9762 44.9857C46.2359 44.9857 46.4027 44.8705 46.4774 44.6408C46.496 44.5779 46.5099 44.5091 46.519 44.435C46.528 44.3609 46.5328 44.2622 46.5328 44.1396C46.5328 44.017 46.528 43.9189 46.519 43.8448C46.5099 43.7707 46.4955 43.7019 46.4774 43.639C46.4033 43.4087 46.2359 43.2941 45.9762 43.2941C45.7203 43.2941 45.5551 43.4092 45.481 43.639C45.4623 43.7019 45.4484 43.7707 45.4394 43.8448C45.4303 43.9189 45.4255 44.0175 45.4255 44.1396C45.4255 44.2622 45.4303 44.3603 45.4394 44.435C45.4484 44.5091 45.4623 44.5779 45.481 44.6408C45.5545 44.8705 45.7198 44.9857 45.9762 44.9857Z" fill="white"/>
<path d="M49.35 45.481C49.3127 45.481 49.2946 45.4624 49.2946 45.425V41.7448C49.2946 41.7075 49.3132 41.6888 49.35 41.6888H50.7698C50.9516 41.6888 51.1195 41.7176 51.2736 41.7752C51.4277 41.8328 51.5593 41.9128 51.6692 42.0151C51.7784 42.1175 51.8638 42.2412 51.9251 42.3862C51.9864 42.5312 52.0168 42.6911 52.0168 42.866C52.0168 43.0446 51.9864 43.2061 51.9251 43.3517C51.8638 43.4967 51.7784 43.6204 51.6692 43.7227C51.5599 43.8251 51.4277 43.9051 51.2736 43.9627C51.1195 44.0202 50.9516 44.049 50.7698 44.049H49.985C49.9626 44.049 49.9514 44.0602 49.9514 44.0826V45.4245C49.9514 45.4618 49.9327 45.4799 49.896 45.4799H49.35V45.481ZM50.7308 43.4546C50.9276 43.4546 51.0816 43.4018 51.1931 43.2957C51.3045 43.1901 51.3599 43.0478 51.3599 42.8697C51.3599 42.6954 51.3045 42.5541 51.1931 42.4464C51.0816 42.3387 50.9276 42.2849 50.7308 42.2849H49.985C49.9626 42.2849 49.9514 42.2961 49.9514 42.3185V43.421C49.9514 43.4434 49.9626 43.4546 49.985 43.4546H50.7308Z" fill="white"/>
<path d="M53.3362 45.5145C53.0728 45.5145 52.8841 45.4516 52.771 45.3253C52.658 45.1989 52.601 45.0059 52.601 44.7463V41.7511C52.601 41.7138 52.6196 41.6957 52.6564 41.6957H53.1688C53.2061 41.6957 53.2242 41.7144 53.2242 41.7511V44.7132C53.2242 44.806 53.2429 44.87 53.2796 44.9051C53.317 44.9403 53.3761 44.9579 53.4577 44.9579H53.5803C53.6177 44.9579 53.6358 44.9766 53.6358 45.0134V45.4585C53.6358 45.4959 53.6171 45.514 53.5803 45.514H53.3362V45.5145Z" fill="white"/>
<path d="M55.8307 45.4811C55.7934 45.4811 55.7753 45.4625 55.7753 45.4257V45.2305H55.7699C55.707 45.3233 55.6121 45.3985 55.4858 45.4561C55.3594 45.5136 55.2016 45.5424 55.0124 45.5424C54.8897 45.5424 54.7741 45.5259 54.6642 45.4923C54.5549 45.4593 54.459 45.4091 54.3774 45.3425C54.2958 45.2759 54.2308 45.1916 54.1823 45.0898C54.1338 44.988 54.1098 44.8669 54.1098 44.7262C54.1098 44.434 54.2052 44.2197 54.3966 44.0827C54.5875 43.9457 54.8503 43.8775 55.1846 43.8775H55.73C55.7523 43.8775 55.7635 43.8663 55.7635 43.8439V43.7148C55.7635 43.5576 55.7209 43.4435 55.6356 43.372C55.5503 43.3011 55.3941 43.2654 55.168 43.2654C55.0156 43.2654 54.8913 43.283 54.7948 43.3182C54.6983 43.3534 54.6184 43.3971 54.5555 43.4488C54.5219 43.4749 54.4958 43.4712 54.4776 43.4376L54.2718 43.0703C54.2532 43.0404 54.2569 43.0164 54.283 42.9978C54.3907 42.9199 54.5203 42.857 54.6728 42.8085C54.8247 42.7605 55.0124 42.736 55.2352 42.736C55.6436 42.736 55.932 42.8101 56.101 42.9589C56.27 43.1076 56.3543 43.3449 56.3543 43.6717V45.4257C56.3543 45.463 56.3356 45.4811 56.2988 45.4811H55.8307ZM55.168 45.0359C55.361 45.0359 55.5087 44.9986 55.6105 44.9245C55.7124 44.8504 55.7635 44.7353 55.7635 44.5796V44.3738C55.7635 44.3514 55.7523 44.3402 55.73 44.3402H55.2848C55.0843 44.3402 54.9377 44.369 54.845 44.4266C54.7522 44.4842 54.7058 44.5759 54.7058 44.7022C54.7058 44.9245 54.8599 45.0359 55.168 45.0359Z" fill="white"/>
<path d="M58.1914 45.5424C57.9205 45.5424 57.6876 45.4795 57.4924 45.3532C57.2973 45.2268 57.1614 45.0434 57.083 44.8019C57.0275 44.635 56.9993 44.4143 56.9993 44.1392C56.9993 43.8647 57.027 43.6439 57.083 43.4765C57.1608 43.235 57.2973 43.0516 57.4924 42.9253C57.6876 42.7989 57.92 42.736 58.1914 42.736C58.3918 42.736 58.5699 42.7733 58.7261 42.8474C58.8818 42.9215 59.0135 43.0239 59.1217 43.1535C59.1441 43.1833 59.1419 43.2089 59.1164 43.2313L58.7656 43.5373C58.7357 43.5597 58.7101 43.556 58.6877 43.5261C58.6211 43.452 58.5496 43.3944 58.4734 43.3534C58.3972 43.3129 58.3033 43.2921 58.1924 43.2921C58.0736 43.2921 57.9707 43.3209 57.8832 43.3784C57.7958 43.436 57.7318 43.524 57.6913 43.6429C57.6689 43.7095 57.654 43.7831 57.647 43.8625C57.6396 43.9425 57.6358 44.0342 57.6358 44.1382C57.6358 44.2421 57.6396 44.3349 57.647 44.4164C57.6545 44.498 57.6694 44.5721 57.6913 44.6393C57.7323 44.7545 57.7963 44.8408 57.8832 44.8984C57.9707 44.956 58.0736 44.9848 58.1924 44.9848C58.3039 44.9848 58.3977 44.9645 58.4734 44.9235C58.5496 44.8829 58.6211 44.8254 58.6877 44.7507C58.7101 44.7246 58.7357 44.723 58.7656 44.7454L59.1164 45.0514C59.1387 45.0701 59.1403 45.0957 59.1217 45.1292C59.014 45.2556 58.8823 45.3558 58.7261 45.4299C58.5699 45.5051 58.3918 45.5424 58.1914 45.5424Z" fill="white"/>
<path d="M60.8522 45.5422C60.5665 45.5422 60.3277 45.4761 60.1357 45.3444C59.9438 45.2127 59.8116 45.0299 59.7375 44.7958C59.7082 44.7105 59.6852 44.6151 59.6687 44.509C59.6522 44.4034 59.6442 44.2798 59.6442 44.1385C59.6442 43.9977 59.6516 43.873 59.666 43.7653C59.681 43.6576 59.7028 43.5611 59.7321 43.4758C59.8057 43.2418 59.939 43.06 60.1331 42.9304C60.3266 42.8003 60.5569 42.7353 60.8245 42.7353C61.1028 42.7353 61.3374 42.8014 61.5288 42.9331C61.7197 43.0648 61.8524 43.246 61.927 43.4758C61.942 43.5243 61.9548 43.5723 61.966 43.6203C61.9772 43.6688 61.9862 43.7242 61.9937 43.7871C62.0012 43.8501 62.0065 43.9215 62.0102 44.0015C62.0139 44.0814 62.0155 44.1753 62.0155 44.2824C62.0155 44.3197 61.9953 44.3379 61.9542 44.3379H60.3005C60.2781 44.3379 60.2669 44.3491 60.2669 44.3715C60.2669 44.4125 60.2706 44.4493 60.2781 44.4829C60.2855 44.5165 60.2946 44.5479 60.3058 44.5778C60.3986 44.8486 60.599 44.984 60.9072 44.984C61.0591 44.984 61.1855 44.96 61.2857 44.9115C61.3859 44.8635 61.4696 44.8022 61.5363 44.7276C61.5661 44.6977 61.5938 44.694 61.62 44.7164L61.9484 45.0059C61.9745 45.0283 61.9761 45.0544 61.9537 45.0837C61.8385 45.2175 61.6882 45.3268 61.5027 45.4121C61.3182 45.4996 61.1012 45.5422 60.8522 45.5422ZM61.387 43.8437C61.387 43.7573 61.3758 43.6811 61.3534 43.6133C61.3161 43.5046 61.251 43.4198 61.1583 43.358C61.0655 43.2961 60.9557 43.2652 60.8299 43.2652C60.6998 43.2652 60.5884 43.2961 60.4956 43.358C60.4028 43.4198 60.3378 43.5051 60.301 43.6133C60.2786 43.6811 60.2674 43.7578 60.2674 43.8437C60.2674 43.8661 60.2786 43.8772 60.301 43.8772H61.3534C61.3758 43.8772 61.387 43.8661 61.387 43.8437Z" fill="white"/>
<path d="M63.6805 45.5424C63.4059 45.5424 63.1729 45.4982 62.9815 45.4086C62.7902 45.3196 62.6393 45.2231 62.5278 45.1191C62.5017 45.093 62.5017 45.0674 62.5278 45.0413L62.8451 44.707C62.8712 44.6809 62.8968 44.6809 62.9229 44.707C63.0194 44.796 63.1388 44.8696 63.2822 44.9267C63.4251 44.9842 63.5669 45.013 63.7082 45.013C63.8751 45.013 63.9993 44.9832 64.0814 44.924C64.163 44.8648 64.204 44.7886 64.204 44.6958C64.204 44.6142 64.1736 44.5492 64.1123 44.5007C64.051 44.4527 63.9332 44.4191 63.7588 44.4005L63.4694 44.3727C63.1948 44.3429 62.9885 44.2613 62.8515 44.1275C62.7139 43.9937 62.6457 43.8119 62.6457 43.5821C62.6457 43.3225 62.7347 43.1161 62.9128 42.9642C63.0908 42.8123 63.3489 42.736 63.6869 42.736C63.8985 42.736 64.0894 42.7664 64.2605 42.8277C64.4311 42.889 64.5761 42.9679 64.695 43.0644C64.7249 43.0868 64.7286 43.1129 64.7062 43.1423L64.4333 43.4707C64.4109 43.4968 64.3848 43.5005 64.3554 43.4819C64.2701 43.4227 64.1651 43.3704 64.0409 43.3262C63.9167 43.2814 63.7876 43.2595 63.6538 43.2595C63.52 43.2595 63.4192 43.2857 63.3505 43.3374C63.2817 43.3896 63.2476 43.4563 63.2476 43.5378C63.2476 43.6157 63.2774 43.6781 63.3366 43.7244C63.3958 43.7708 63.5131 43.8033 63.6874 43.822L63.9769 43.8497C64.2589 43.8796 64.4679 43.9622 64.6033 44.0976C64.7388 44.2331 64.8065 44.4122 64.8065 44.635C64.8065 44.9021 64.7116 45.1202 64.5223 45.2892C64.332 45.4582 64.0521 45.5424 63.6805 45.5424Z" fill="white"/>
</svg>
