<svg width="40" height="40" viewBox="0 0 40 40" fill="none" xmlns="http://www.w3.org/2000/svg">
<path d="M35.3494 26.4836C34.2891 28.9911 32.6307 31.2006 30.5192 32.9191C28.4077 34.6376 25.9073 35.8126 23.2368 36.3416C20.5662 36.8705 17.8067 36.7372 15.1996 35.9532C12.5925 35.1693 10.2171 33.7587 8.28107 31.8447C6.34506 29.9307 4.9074 27.5715 4.09376 24.9735C3.28013 22.3755 3.11531 19.6177 3.6137 16.9413C4.11209 14.2649 5.25853 11.7513 6.95278 9.6203C8.64703 7.48931 10.8375 5.80578 13.3327 4.71692" stroke="#F7BF23" stroke-width="2" stroke-linecap="round" stroke-linejoin="round"/>
<path d="M36.6667 20.0001C36.6667 17.8114 36.2356 15.6441 35.398 13.622C34.5604 11.5999 33.3328 9.76261 31.7851 8.21497C30.2375 6.66733 28.4002 5.43967 26.3781 4.60209C24.356 3.76451 22.1887 3.33342 20 3.33342V20.0001H36.6667Z" stroke="#F7BF23" stroke-width="2" stroke-linecap="round" stroke-linejoin="round"/>
</svg>
