<svg width="65" height="47" viewBox="0 0 65 47" fill="none" xmlns="http://www.w3.org/2000/svg">
<path d="M44.7061 10.6982V12.167C44.7061 12.7369 44.6672 13.2972 44.5909 13.8463C44.4097 15.1642 44.0168 16.4155 43.4485 17.5633C42.8524 18.7665 42.0645 19.8568 41.1235 20.7945C40.384 21.5319 39.5497 22.1743 38.6413 22.7026C37.3538 23.4522 35.9154 23.9714 34.3837 24.2055C33.7781 24.2982 33.1581 24.3462 32.5263 24.3462C27.7378 24.3462 23.5949 21.5825 21.6047 17.5627H26.1907C27.717 19.353 29.9886 20.4885 32.5258 20.4885C33.1645 20.4885 33.7861 20.4166 34.3832 20.2801C36.0476 19.901 37.5217 19.023 38.6407 17.8117C38.7159 17.7307 38.79 17.6475 38.8614 17.5627C39.7539 16.5157 40.392 15.2447 40.6783 13.8458H20.4628C20.3871 13.2967 20.3476 12.7364 20.3476 12.1664C20.3476 11.6696 20.3775 11.1791 20.4356 10.6977C20.6371 9.01941 21.1798 7.44669 21.9928 6.0499C22.4561 5.25288 23.0074 4.51344 23.6343 3.84437C25.7386 1.59618 28.6862 0.146609 31.9724 0H34.3837V3.84437H32.5263C30.349 3.84437 28.3669 4.68084 26.8837 6.0499C25.5776 7.25477 24.6585 8.87334 24.3338 10.6977L44.7061 10.6982Z" fill="white"/>
<path d="M44.7061 0.000978533V6.05035H41.1235V3.84534H38.6413V0.000978533H44.7061Z" fill="#44C1EF"/>
<path d="M3.18983 38.9202C2.87582 38.9202 2.56767 38.8909 2.26539 38.8317C1.96311 38.7731 1.67842 38.6947 1.41132 38.5961C1.14423 38.498 0.89899 38.3823 0.675078 38.2485C0.451165 38.1152 0.260839 37.9739 0.103567 37.8247C0.0406586 37.7618 0.0369267 37.6951 0.0918386 37.6242L0.986956 36.5995C1.03387 36.5366 1.09305 36.5329 1.16342 36.5878C1.43052 36.8 1.74026 36.9903 2.09372 37.1593C2.44719 37.3283 2.83583 37.4126 3.25967 37.4126C3.6835 37.4126 4.00764 37.3241 4.23156 37.1476C4.45547 36.9711 4.56742 36.7414 4.56742 36.4588C4.56742 36.2232 4.48106 36.0307 4.30833 35.882C4.13559 35.7327 3.80985 35.6271 3.33057 35.5637L2.90674 35.505C2.08999 35.3952 1.4641 35.1457 1.02801 34.7571C0.592443 34.3684 0.374395 33.8166 0.374395 33.1022C0.374395 32.7333 0.441035 32.3974 0.57485 32.0952C0.708131 31.7929 0.89899 31.5359 1.14636 31.3237C1.39373 31.1115 1.69175 30.9468 2.04148 30.829C2.39067 30.7112 2.78145 30.6525 3.21329 30.6525C3.74694 30.6525 4.24968 30.7272 4.72096 30.8764C5.19225 31.0257 5.59636 31.2299 5.93436 31.489C6.00526 31.5359 6.01273 31.5951 5.95781 31.6655L5.23916 32.737C5.19225 32.8 5.1368 32.8117 5.07443 32.7722C4.76841 32.568 4.464 32.415 4.16172 32.3127C3.85943 32.2109 3.54329 32.1597 3.21329 32.1597C2.85982 32.1597 2.59273 32.2423 2.41253 32.407C2.2318 32.5718 2.1417 32.7802 2.1417 33.0313C2.1417 33.259 2.23394 33.4477 2.4184 33.597C2.60286 33.7463 2.92646 33.8523 3.39028 33.9147L3.81412 33.9739C4.64633 34.0837 5.27435 34.3332 5.69872 34.7219C6.12255 35.1105 6.33473 35.6698 6.33473 36.4002C6.33473 36.7616 6.26809 37.0969 6.13428 37.4072C6.00046 37.7175 5.80267 37.9846 5.53931 38.208C5.27595 38.4319 4.94808 38.6068 4.5557 38.732C4.16332 38.8573 3.70803 38.9202 3.18983 38.9202Z" fill="white"/>
<path d="M8.06604 30.7113C8.06604 30.6329 8.10549 30.5935 8.18386 30.5935H9.58545C9.67981 30.5935 9.74219 30.6329 9.77418 30.7113L11.8001 35.599H11.847L13.8377 30.7113C13.8691 30.6329 13.932 30.5935 14.0258 30.5935H15.404C15.4823 30.5935 15.5218 30.6329 15.5218 30.7113V38.8025C15.5218 38.8814 15.4823 38.9203 15.404 38.9203H14.0733C13.9949 38.9203 13.9555 38.8814 13.9555 38.8025V34.2917H13.9086L12.4243 37.6718C12.3774 37.7741 12.3028 37.8248 12.2004 37.8248H11.3879C11.2856 37.8248 11.2115 37.7736 11.164 37.6718L9.67981 34.2917H9.6329V38.8025C9.6329 38.8814 9.59345 38.9203 9.51508 38.9203H8.1844C8.10603 38.9203 8.06658 38.8814 8.06658 38.8025V30.7113H8.06604Z" fill="white"/>
<path d="M20.0169 30.7113C20.0404 30.6329 20.0916 30.5935 20.1699 30.5935H21.6542C21.7325 30.5935 21.7837 30.6329 21.8072 30.7113L24.516 38.8025C24.5394 38.8814 24.5117 38.9203 24.4334 38.9203H22.9022C22.8238 38.9203 22.7727 38.8814 22.7492 38.8025L22.2897 37.4009H19.4865L19.0387 38.8025C19.0152 38.8814 18.964 38.9203 18.8857 38.9203H17.3428C17.2639 38.9203 17.2367 38.8814 17.2602 38.8025L20.0169 30.7113ZM21.8189 35.9284L20.9121 33.1253H20.8769L19.97 35.9284H21.8189Z" fill="white"/>
<path d="M30.6837 38.9202C30.5973 38.9202 30.5381 38.8813 30.5072 38.8024L29.1291 35.5695H28.0575C28.0106 35.5695 27.9866 35.593 27.9866 35.6404V38.8029C27.9866 38.8818 27.9471 38.9208 27.8688 38.9208H26.3728C26.2945 38.9208 26.255 38.8818 26.255 38.8029V30.7288C26.255 30.6504 26.2939 30.6109 26.3728 30.6109H29.5646C29.973 30.6109 30.3441 30.6717 30.6778 30.7933C31.0115 30.9148 31.2978 31.086 31.5377 31.3056C31.7771 31.5253 31.9616 31.7886 32.0911 32.0946C32.2207 32.4006 32.2857 32.7349 32.2857 33.0958C32.2857 33.614 32.1599 34.0656 31.9088 34.4505C31.6572 34.8354 31.308 35.126 30.8607 35.3222L32.4387 38.779C32.4542 38.8184 32.4542 38.8515 32.4387 38.8792C32.4227 38.9069 32.3955 38.9202 32.3561 38.9202H30.6837ZM29.4708 34.097C29.8008 34.097 30.0637 34.007 30.2598 33.8262C30.456 33.6455 30.5541 33.4024 30.5541 33.0958C30.5541 32.7973 30.456 32.5579 30.2598 32.3772C30.0637 32.1965 29.8003 32.1064 29.4708 32.1064H28.0575C28.0106 32.1064 27.9866 32.1298 27.9866 32.1773V34.0261C27.9866 34.0731 28.0101 34.097 28.0575 34.097H29.4708Z" fill="white"/>
<path d="M36.5135 38.9203C36.4352 38.9203 36.3957 38.8814 36.3957 38.8025V32.2125C36.3957 32.1656 36.3723 32.1416 36.3248 32.1416H34.2989C34.2206 32.1416 34.1811 32.1027 34.1811 32.0248V30.7272C34.1811 30.6494 34.2206 30.6105 34.2989 30.6105H40.223C40.3014 30.6105 40.3408 30.6494 40.3408 30.7272V32.0248C40.3408 32.1027 40.3014 32.1416 40.223 32.1416H38.1972C38.1502 32.1416 38.1262 32.165 38.1262 32.2125V38.8025C38.1262 38.8814 38.0868 38.9203 38.0084 38.9203H36.5135Z" fill="white"/>
<path d="M46.8383 38.9202C46.1394 38.9202 45.529 38.7592 45.0071 38.4372C44.4846 38.1152 44.1215 37.6285 43.9173 36.977C43.8704 36.8357 43.8331 36.6982 43.8054 36.5649C43.7777 36.4316 43.7563 36.2823 43.7403 36.117C43.7244 35.9523 43.7126 35.7636 43.7052 35.5519C43.6972 35.3398 43.6934 35.0236 43.6934 34.7256C43.6934 34.427 43.6972 34.1722 43.7052 33.96C43.7132 33.7478 43.7249 33.5596 43.7403 33.3949C43.7558 33.2302 43.7777 33.0809 43.8054 32.9471C43.8326 32.8138 43.8699 32.6763 43.9173 32.535C44.1215 31.8915 44.4846 31.4064 45.0071 31.0806C45.529 30.7549 46.1394 30.5917 46.8383 30.5917C47.5373 30.5917 48.1477 30.7549 48.6696 31.0806C49.1916 31.4064 49.5546 31.8915 49.7593 32.535C49.8062 32.6763 49.8436 32.8138 49.8713 32.9471C49.8985 33.0809 49.9203 33.2296 49.9363 33.3949C49.9518 33.5596 49.9635 33.7484 49.9715 33.96C49.979 34.1722 49.9832 34.427 49.9832 34.7256C49.9832 35.0241 49.979 35.3403 49.9715 35.5519C49.9635 35.7641 49.9518 35.9523 49.9363 36.117C49.9203 36.2818 49.899 36.4311 49.8713 36.5649C49.8436 36.6987 49.8068 36.8357 49.7593 36.977C49.5551 37.629 49.1921 38.1157 48.6696 38.4372C48.1477 38.7592 47.5373 38.9202 46.8383 38.9202ZM46.8383 37.3891C47.1683 37.3891 47.4392 37.3107 47.6508 37.1534C47.863 36.9967 48.0117 36.7808 48.0986 36.5057C48.1221 36.4348 48.1418 36.3548 48.1573 36.2642C48.1727 36.1741 48.1866 36.0637 48.1983 35.9342C48.2101 35.8046 48.2181 35.6458 48.2218 35.457C48.2255 35.2688 48.2277 34.9836 48.2277 34.7245C48.2277 34.4654 48.2255 34.2415 48.2218 34.0533C48.2175 33.8646 48.2101 33.7057 48.1983 33.5762C48.1866 33.4466 48.1727 33.3368 48.1573 33.2462C48.1413 33.1561 48.1221 33.0756 48.0986 33.0047C48.0123 32.7301 47.863 32.5142 47.6508 32.3569C47.4386 32.2002 47.1678 32.1213 46.8383 32.1213C46.5089 32.1213 46.2375 32.1996 46.0259 32.3569C45.8137 32.5142 45.6644 32.7301 45.578 33.0047C45.5546 33.0756 45.5348 33.1561 45.5194 33.2462C45.5034 33.3368 45.4901 33.4466 45.4783 33.5762C45.4666 33.7057 45.4586 33.8646 45.4549 34.0533C45.4511 34.2415 45.449 34.4654 45.449 34.7245C45.449 34.9836 45.4506 35.2683 45.4549 35.457C45.4586 35.6458 45.4666 35.8046 45.4783 35.9342C45.4901 36.0637 45.5039 36.1736 45.5194 36.2642C45.5348 36.3548 45.5546 36.4348 45.578 36.5057C45.6644 36.7808 45.8137 36.9967 46.0259 37.1534C46.238 37.3107 46.5089 37.3891 46.8383 37.3891Z" fill="white"/>
<path d="M51.7145 30.7091C51.7145 30.6307 51.7534 30.5913 51.8323 30.5913H53.2456C53.332 30.5913 53.3986 30.6307 53.4461 30.7091L56.2727 36.0702H56.3313V30.7091C56.3313 30.6307 56.3702 30.5913 56.4491 30.5913H57.7804C57.8587 30.5913 57.8982 30.6307 57.8982 30.7091V38.8024C57.8982 38.8813 57.8587 38.9203 57.7804 38.9203H56.3788C56.2924 38.9203 56.2258 38.8813 56.1783 38.8024L53.34 33.4531H53.2813V38.8024C53.2813 38.8813 53.2419 38.9203 53.1635 38.9203H51.8328C51.7544 38.9203 51.715 38.8813 51.715 38.8024V30.7091H51.7145Z" fill="white"/>
<path d="M59.6288 30.7091C59.6288 30.6307 59.6678 30.5913 59.7467 30.5913H64.8817C64.9601 30.5913 64.9995 30.6307 64.9995 30.7091V31.9694C64.9995 32.0477 64.9601 32.0872 64.8817 32.0872H61.4308C61.3839 32.0872 61.3599 32.1107 61.3599 32.1581V34.0683C61.3599 34.1152 61.3834 34.1392 61.4308 34.1392H64.3049C64.3832 34.1392 64.4227 34.1786 64.4227 34.257V35.5056C64.4227 35.584 64.3832 35.6234 64.3049 35.6234H61.4308C61.3839 35.6234 61.3599 35.6469 61.3599 35.6943V37.355C61.3599 37.4019 61.3834 37.4259 61.4308 37.4259H64.8817C64.9601 37.4259 64.9995 37.4654 64.9995 37.5437V38.804C64.9995 38.8829 64.9601 38.9219 64.8817 38.9219H59.7467C59.6683 38.9219 59.6288 38.8829 59.6288 38.804V30.7091Z" fill="white"/>
<path d="M0.0996945 44.6103C0.0810352 44.5506 0.0655746 44.4925 0.0522464 44.4349C0.0394514 44.3773 0.028789 44.3107 0.0218583 44.2344C0.0143946 44.1582 0.00852992 44.0692 0.00533117 43.9668C0.00159929 43.8645 0 43.737 0 43.5846C0 43.4358 0.00159929 43.3095 0.00533117 43.2055C0.00906305 43.1016 0.0143946 43.0115 0.0218583 42.9352C0.0293221 42.859 0.0394514 42.7923 0.0522464 42.7348C0.0650414 42.6772 0.0810352 42.6185 0.0996945 42.5588C0.19619 42.247 0.358793 42.0134 0.586971 41.8594C0.815148 41.7053 1.09077 41.628 1.41385 41.628C1.71826 41.628 1.98056 41.701 2.20181 41.8471C2.42252 41.9932 2.58672 42.1931 2.69441 42.4463C2.70561 42.4799 2.69601 42.5018 2.66669 42.513L2.19328 42.7412C2.15969 42.7598 2.1357 42.7502 2.12077 42.7134C2.05786 42.5796 1.9715 42.465 1.86167 42.368C1.75238 42.2715 1.60257 42.2235 1.41331 42.2235C1.23152 42.2235 1.08544 42.2677 0.976152 42.3568C0.866861 42.4458 0.785827 42.5679 0.734114 42.7236C0.722918 42.7646 0.712789 42.8051 0.703725 42.8457C0.694662 42.8862 0.687198 42.939 0.681334 43.004C0.676003 43.0685 0.672271 43.1474 0.670138 43.2402C0.668006 43.3329 0.667473 43.4475 0.667473 43.5846C0.667473 43.7253 0.668539 43.841 0.670138 43.9316C0.671738 44.0223 0.67547 44.1001 0.681334 44.1651C0.686665 44.2302 0.694129 44.2835 0.703725 44.3261C0.712789 44.3688 0.723451 44.4082 0.734114 44.4456C0.785827 44.6012 0.866861 44.7233 0.976152 44.8124C1.08544 44.9014 1.23152 44.9456 1.41331 44.9456C1.60257 44.9456 1.75185 44.8977 1.86167 44.8012C1.97096 44.7047 2.05733 44.5895 2.12077 44.4562C2.1357 44.4189 2.15969 44.4098 2.19328 44.4285L2.66669 44.6567C2.69655 44.6679 2.70561 44.6903 2.69441 44.7233C2.58672 44.9766 2.42252 45.1765 2.20181 45.3226C1.98109 45.4686 1.71826 45.5417 1.41385 45.5417C1.09077 45.5417 0.815148 45.4644 0.586971 45.3103C0.358793 45.1557 0.19619 44.9227 0.0996945 44.6103Z" fill="white"/>
<path d="M4.35361 45.5416C4.07905 45.5416 3.84394 45.4766 3.64935 45.347C3.45423 45.2169 3.31988 45.0351 3.24578 44.8016C3.21592 44.7051 3.19353 44.6076 3.17914 44.5095C3.16421 44.4114 3.15675 44.2877 3.15675 44.139C3.15675 43.9907 3.16421 43.8671 3.17914 43.769C3.19406 43.6709 3.21592 43.5733 3.24578 43.4768C3.31988 43.2428 3.45476 43.061 3.64935 42.9314C3.84394 42.8013 4.07905 42.7363 4.35361 42.7363C4.62444 42.7363 4.85741 42.8013 5.05254 42.9314C5.24713 43.0615 5.38201 43.2433 5.45611 43.4768C5.48597 43.5733 5.50783 43.6709 5.52275 43.769C5.53768 43.8676 5.54515 43.9907 5.54515 44.139C5.54515 44.2877 5.53768 44.4109 5.52275 44.5095C5.50783 44.6076 5.48544 44.7051 5.45611 44.8016C5.38201 45.0357 5.24713 45.2175 5.05254 45.347C4.85741 45.4766 4.62444 45.5416 4.35361 45.5416ZM4.35361 44.985C4.47996 44.985 4.58445 44.9541 4.66816 44.8933C4.75186 44.832 4.8137 44.7457 4.85475 44.6342C4.87714 44.5639 4.89207 44.4924 4.89953 44.4199C4.907 44.3474 4.91073 44.2536 4.91073 44.139C4.91073 44.0238 4.907 43.931 4.89953 43.8607C4.89207 43.7903 4.87714 43.7178 4.85475 43.6437C4.8137 43.5323 4.75186 43.4459 4.66816 43.3846C4.58445 43.3233 4.47996 43.2929 4.35361 43.2929C4.22726 43.2929 4.1217 43.3233 4.0364 43.3846C3.9511 43.4459 3.88766 43.5323 3.84714 43.6437C3.82475 43.7178 3.80982 43.7903 3.80236 43.8607C3.7949 43.931 3.79116 44.0238 3.79116 44.139C3.79116 44.2541 3.7949 44.3479 3.80236 44.4199C3.80982 44.4924 3.82475 44.5639 3.84714 44.6342C3.88819 44.7457 3.9511 44.832 4.0364 44.8933C4.1217 44.9541 4.22726 44.985 4.35361 44.985Z" fill="white"/>
<path d="M7.91115 45.4803C7.87383 45.4803 7.85571 45.4616 7.85571 45.4249V43.8772C7.85571 43.7029 7.81306 43.5616 7.72776 43.4539C7.64246 43.3462 7.51611 43.2924 7.34924 43.2924C7.1861 43.2924 7.05975 43.3462 6.97072 43.4539C6.88169 43.5616 6.8369 43.7029 6.8369 43.8772V45.4249C6.8369 45.4622 6.81825 45.4803 6.78146 45.4803H6.26913C6.23181 45.4803 6.21368 45.4616 6.21368 45.4249V42.8525C6.21368 42.8152 6.23234 42.7971 6.26913 42.7971H6.78146C6.81825 42.7971 6.8369 42.8157 6.8369 42.8525V43.0477H6.84224C6.90141 42.9624 6.98991 42.8888 7.10667 42.828C7.22342 42.7667 7.3711 42.7363 7.54916 42.7363C7.69417 42.7363 7.82265 42.7614 7.93621 42.8115C8.04923 42.8616 8.14679 42.9314 8.22836 43.0205C8.30993 43.1095 8.3723 43.2145 8.41495 43.335C8.45761 43.4555 8.47893 43.5882 8.47893 43.7333V45.4259C8.47893 45.4632 8.46027 45.4814 8.42349 45.4814H7.91115V45.4803Z" fill="white"/>
<path d="M10.9622 45.4803C10.9249 45.4803 10.9068 45.4616 10.9068 45.4249V43.8772C10.9068 43.7029 10.8641 43.5616 10.7788 43.4539C10.6935 43.3462 10.5672 43.2924 10.4003 43.2924C10.2372 43.2924 10.1108 43.3462 10.0218 43.4539C9.93275 43.5616 9.88797 43.7029 9.88797 43.8772V45.4249C9.88797 45.4622 9.86931 45.4803 9.83252 45.4803H9.32019C9.28287 45.4803 9.26475 45.4616 9.26475 45.4249V42.8525C9.26475 42.8152 9.28341 42.7971 9.32019 42.7971H9.83252C9.86931 42.7971 9.88797 42.8157 9.88797 42.8525V43.0477H9.8933C9.95248 42.9624 10.041 42.8888 10.1577 42.828C10.2745 42.7667 10.4222 42.7363 10.6002 42.7363C10.7452 42.7363 10.8737 42.7614 10.9873 42.8115C11.1003 42.8616 11.1979 42.9314 11.2794 43.0205C11.361 43.1095 11.4234 43.2145 11.466 43.335C11.5087 43.4555 11.53 43.5882 11.53 43.7333V45.4259C11.53 45.4632 11.5113 45.4814 11.4746 45.4814H10.9622V45.4803Z" fill="white"/>
<path d="M13.3781 45.5416C13.0923 45.5416 12.8535 45.4755 12.6616 45.3438C12.4696 45.2121 12.3374 45.0293 12.2633 44.7952C12.234 44.7099 12.2111 44.6145 12.1945 44.5084C12.178 44.4029 12.17 44.2792 12.17 44.1379C12.17 43.9972 12.1775 43.8724 12.1919 43.7647C12.2068 43.657 12.2287 43.5605 12.258 43.4752C12.3315 43.2412 12.4654 43.0594 12.6589 42.9298C12.8524 42.7998 13.0827 42.7347 13.3503 42.7347C13.6286 42.7347 13.8632 42.8008 14.0546 42.9325C14.2455 43.0642 14.3782 43.2454 14.4529 43.4752C14.4678 43.5237 14.4806 43.5717 14.4918 43.6197C14.503 43.6682 14.512 43.7237 14.5195 43.7866C14.527 43.8495 14.5323 43.9209 14.536 44.0009C14.5398 44.0809 14.5414 44.1747 14.5414 44.2818C14.5414 44.3192 14.5211 44.3373 14.48 44.3373H12.8263C12.8039 44.3373 12.7927 44.3485 12.7927 44.3709C12.7927 44.4119 12.7964 44.4487 12.8039 44.4823C12.8114 44.5159 12.8204 44.5473 12.8316 44.5772C12.9244 44.848 13.1248 44.9834 13.433 44.9834C13.5849 44.9834 13.7113 44.9594 13.8115 44.9109C13.9117 44.8629 13.9954 44.8016 14.0621 44.727C14.0919 44.6971 14.1196 44.6934 14.1458 44.7158L14.4742 45.0053C14.5003 45.0277 14.5019 45.0538 14.4795 45.0831C14.3644 45.2169 14.214 45.3262 14.0285 45.4115C13.844 45.499 13.6265 45.5416 13.3781 45.5416ZM13.9128 43.8431C13.9128 43.7567 13.9016 43.6805 13.8792 43.6128C13.8419 43.504 13.7768 43.4192 13.6846 43.3574C13.5919 43.2956 13.482 43.2646 13.3562 43.2646C13.2261 43.2646 13.1147 43.2956 13.0219 43.3574C12.9292 43.4192 12.8641 43.5045 12.8268 43.6128C12.8044 43.6805 12.7932 43.7572 12.7932 43.8431C12.7932 43.8655 12.8044 43.8767 12.8268 43.8767H13.8792C13.9016 43.8767 13.9128 43.8655 13.9128 43.8431Z" fill="white"/>
<path d="M16.262 45.5418C15.9911 45.5418 15.7582 45.4789 15.563 45.3526C15.3679 45.2262 15.232 45.0428 15.1536 44.8013C15.0981 44.6344 15.0699 44.4137 15.0699 44.1386C15.0699 43.8641 15.0976 43.6434 15.1536 43.476C15.2314 43.2345 15.3679 43.0511 15.563 42.9247C15.7576 42.7984 15.9906 42.7354 16.262 42.7354C16.4624 42.7354 16.6405 42.7728 16.7967 42.8469C16.9524 42.921 17.084 43.0233 17.1917 43.1529C17.2141 43.1827 17.212 43.2083 17.1864 43.2307L16.8356 43.5367C16.8057 43.5591 16.7802 43.5554 16.7578 43.5255C16.6911 43.4514 16.6197 43.3939 16.5434 43.3528C16.4672 43.3123 16.3734 43.2915 16.2625 43.2915C16.1436 43.2915 16.0407 43.3203 15.9533 43.3779C15.8658 43.4354 15.8019 43.5234 15.7614 43.6423C15.739 43.7089 15.724 43.7825 15.7166 43.8619C15.7091 43.9419 15.7054 44.0336 15.7054 44.1376C15.7054 44.2415 15.7091 44.3343 15.7166 44.4159C15.724 44.4974 15.739 44.5715 15.7614 44.6387C15.8024 44.7539 15.8664 44.8402 15.9533 44.8978C16.0402 44.9554 16.1436 44.9842 16.2625 44.9842C16.3739 44.9842 16.4677 44.9639 16.5434 44.9229C16.6197 44.8823 16.6911 44.8248 16.7578 44.7501C16.7802 44.724 16.8057 44.7224 16.8356 44.7448L17.1864 45.0508C17.2088 45.0695 17.2104 45.0951 17.1917 45.1286C17.084 45.255 16.9524 45.3552 16.7967 45.4293C16.641 45.5045 16.4624 45.5418 16.262 45.5418Z" fill="white"/>
<path d="M18.6452 45.5139C18.3743 45.5139 18.1819 45.4488 18.0689 45.3187C17.9558 45.1887 17.8988 44.9919 17.8988 44.7286V43.3142C17.8988 43.2918 17.8876 43.2806 17.8652 43.2806H17.6871C17.6498 43.2806 17.6317 43.2619 17.6317 43.2252V42.852C17.6317 42.8147 17.6503 42.7965 17.6871 42.7965H17.8652C17.8876 42.7965 17.8988 42.7853 17.8988 42.7629V42.0278C17.8988 41.991 17.9174 41.9723 17.9542 41.9723H18.4666C18.5033 41.9723 18.522 41.991 18.522 42.0278V42.7629C18.522 42.7853 18.5332 42.7965 18.5556 42.7965H18.9117C18.9485 42.7965 18.9672 42.8152 18.9672 42.852V43.2252C18.9672 43.2625 18.9485 43.2806 18.9117 43.2806H18.5556C18.5332 43.2806 18.522 43.2918 18.522 43.3142V44.7062C18.522 44.8027 18.5423 44.8688 18.5833 44.904C18.6244 44.9392 18.6873 44.9568 18.7726 44.9568H18.9117C18.9485 44.9568 18.9672 44.9754 18.9672 45.0122V45.4574C18.9672 45.4947 18.9485 45.5128 18.9117 45.5128H18.6452V45.5139Z" fill="white"/>
<path d="M21.0278 45.4804C20.9905 45.4804 20.9724 45.4618 20.9724 45.4244V41.7443C20.9724 41.707 20.9911 41.6883 21.0278 41.6883H22.4476C22.6293 41.6883 22.7973 41.7171 22.9514 41.7747C23.1054 41.8322 23.2371 41.9122 23.3464 42.0146C23.4557 42.1169 23.5415 42.2406 23.6023 42.3856C23.6636 42.5306 23.694 42.6906 23.694 42.8654C23.694 43.044 23.6636 43.2056 23.6023 43.3511C23.541 43.4961 23.4557 43.6198 23.3464 43.7222C23.2371 43.8245 23.1049 43.9045 22.9514 43.9621C22.7973 44.0197 22.6293 44.0484 22.4476 44.0484H21.6628C21.6404 44.0484 21.6292 44.0596 21.6292 44.082V45.4239C21.6292 45.4612 21.6105 45.4793 21.5738 45.4793H21.0278V45.4804ZM22.4081 43.454C22.6048 43.454 22.7589 43.4012 22.8703 43.2951C22.9817 43.1896 23.0372 43.0472 23.0372 42.8692C23.0372 42.6948 22.9817 42.5536 22.8703 42.4459C22.7589 42.3382 22.6048 42.2843 22.4081 42.2843H21.6623C21.6399 42.2843 21.6287 42.2955 21.6287 42.3179V43.4204C21.6287 43.4428 21.6399 43.454 21.6623 43.454H22.4081Z" fill="white"/>
<path d="M25.3538 45.5416C25.0681 45.5416 24.8292 45.4755 24.6373 45.3438C24.4454 45.2121 24.3132 45.0293 24.2391 44.7952C24.2098 44.7099 24.1868 44.6145 24.1703 44.5084C24.1538 44.4029 24.1458 44.2792 24.1458 44.1379C24.1458 43.9972 24.1532 43.8724 24.1676 43.7647C24.1826 43.657 24.2044 43.5605 24.2337 43.4752C24.3073 43.2412 24.4411 43.0594 24.6347 42.9298C24.8282 42.7998 25.0585 42.7347 25.3261 42.7347C25.6044 42.7347 25.839 42.8008 26.0304 42.9325C26.2212 43.0642 26.354 43.2454 26.4286 43.4752C26.4435 43.5237 26.4563 43.5717 26.4675 43.6197C26.4787 43.6682 26.4878 43.7237 26.4953 43.7866C26.5027 43.8495 26.5081 43.9209 26.5118 44.0009C26.5155 44.0809 26.5171 44.1747 26.5171 44.2818C26.5171 44.3192 26.4969 44.3373 26.4558 44.3373H24.8021C24.7797 44.3373 24.7685 44.3485 24.7685 44.3709C24.7685 44.4119 24.7722 44.4487 24.7797 44.4823C24.7871 44.5159 24.7962 44.5473 24.8074 44.5772C24.9001 44.848 25.1006 44.9834 25.4088 44.9834C25.5607 44.9834 25.687 44.9594 25.7873 44.9109C25.8875 44.8629 25.9712 44.8016 26.0378 44.727C26.0677 44.6971 26.0954 44.6934 26.1215 44.7158L26.4499 45.0053C26.4761 45.0277 26.4777 45.0538 26.4553 45.0831C26.3401 45.2169 26.1898 45.3262 26.0043 45.4115C25.8193 45.499 25.6023 45.5416 25.3538 45.5416ZM25.888 43.8431C25.888 43.7567 25.8768 43.6805 25.8544 43.6128C25.8171 43.504 25.7521 43.4192 25.6599 43.3574C25.5671 43.2956 25.4573 43.2646 25.3314 43.2646C25.2014 43.2646 25.0899 43.2956 24.9972 43.3574C24.9044 43.4192 24.8394 43.5045 24.8021 43.6128C24.7797 43.6805 24.7685 43.7572 24.7685 43.8431C24.7685 43.8655 24.7797 43.8767 24.8021 43.8767H25.855C25.8774 43.8767 25.888 43.8655 25.888 43.8431Z" fill="white"/>
<path d="M28.2435 45.5416C27.9689 45.5416 27.7338 45.4766 27.5392 45.347C27.3441 45.2169 27.2098 45.0351 27.1357 44.8016C27.1058 44.7051 27.0834 44.6076 27.069 44.5095C27.0541 44.4114 27.0466 44.2877 27.0466 44.139C27.0466 43.9907 27.0541 43.8671 27.069 43.769C27.084 43.6709 27.1058 43.5733 27.1357 43.4768C27.2098 43.2428 27.3447 43.061 27.5392 42.9314C27.7338 42.8013 27.9689 42.7363 28.2435 42.7363C28.5143 42.7363 28.7473 42.8013 28.9424 42.9314C29.137 43.0615 29.2719 43.2433 29.346 43.4768C29.3759 43.5733 29.3977 43.6709 29.4126 43.769C29.4276 43.8676 29.435 43.9907 29.435 44.139C29.435 44.2877 29.4276 44.4109 29.4126 44.5095C29.3977 44.6076 29.3753 44.7051 29.346 44.8016C29.2719 45.0357 29.137 45.2175 28.9424 45.347C28.7473 45.4766 28.5143 45.5416 28.2435 45.5416ZM28.2435 44.985C28.3699 44.985 28.4743 44.9541 28.5581 44.8933C28.6418 44.832 28.7036 44.7457 28.7446 44.6342C28.767 44.5639 28.782 44.4924 28.7894 44.4199C28.7969 44.3474 28.8006 44.2536 28.8006 44.139C28.8006 44.0238 28.7969 43.931 28.7894 43.8607C28.782 43.7903 28.767 43.7178 28.7446 43.6437C28.7036 43.5323 28.6418 43.4459 28.5581 43.3846C28.4743 43.3233 28.3699 43.2929 28.2435 43.2929C28.1172 43.2929 28.0116 43.3233 27.9263 43.3846C27.841 43.4459 27.7776 43.5323 27.737 43.6437C27.7146 43.7178 27.6997 43.7903 27.6923 43.8607C27.6848 43.931 27.6811 44.0238 27.6811 44.139C27.6811 44.2541 27.6848 44.3479 27.6923 44.4199C27.6997 44.4924 27.7146 44.5639 27.737 44.6342C27.7781 44.7457 27.841 44.832 27.9263 44.8933C28.0116 44.9541 28.1172 44.985 28.2435 44.985Z" fill="white"/>
<path d="M30.1585 46.4827C30.1212 46.4827 30.1031 46.4641 30.1031 46.4273V42.8532C30.1031 42.8159 30.1217 42.7978 30.1585 42.7978H30.6709C30.7076 42.7978 30.7263 42.8164 30.7263 42.8532V43.0531H30.7316C30.7945 42.9604 30.8836 42.8841 30.9987 42.825C31.1139 42.7658 31.2621 42.7359 31.4439 42.7359C31.6742 42.7359 31.8688 42.7898 32.0287 42.8975C32.1881 43.0052 32.3033 43.1667 32.3737 43.3821C32.4073 43.486 32.4312 43.5927 32.4462 43.702C32.4611 43.8113 32.4686 43.9573 32.4686 44.1391C32.4686 44.3209 32.4611 44.467 32.4462 44.5763C32.4312 44.6856 32.4073 44.7927 32.3737 44.8962C32.3033 45.1115 32.1881 45.2731 32.0287 45.3802C31.8693 45.4879 31.6742 45.5418 31.4439 45.5418C31.2621 45.5418 31.1134 45.5119 30.9987 45.4527C30.8836 45.3936 30.7945 45.3173 30.7316 45.2246H30.7263V46.4273C30.7263 46.4646 30.7076 46.4827 30.6709 46.4827H30.1585ZM31.2834 44.9852C31.5393 44.9852 31.7046 44.87 31.7787 44.6403C31.7974 44.5774 31.8112 44.5086 31.8203 44.4345C31.8293 44.3604 31.8341 44.2617 31.8341 44.1391C31.8341 44.0165 31.8293 43.9184 31.8203 43.8443C31.8112 43.7702 31.7968 43.7014 31.7787 43.6385C31.7046 43.4082 31.5393 43.2936 31.2834 43.2936C31.0238 43.2936 30.8564 43.4087 30.7823 43.6385C30.7636 43.7014 30.7498 43.7702 30.7407 43.8443C30.7316 43.9184 30.7268 44.017 30.7268 44.1391C30.7268 44.2617 30.7316 44.3598 30.7407 44.4345C30.7498 44.5086 30.7636 44.5774 30.7823 44.6403C30.8564 44.87 31.0233 44.9852 31.2834 44.9852Z" fill="white"/>
<path d="M33.8609 45.5139C33.5976 45.5139 33.4089 45.451 33.2958 45.3247C33.1828 45.1983 33.1258 45.0053 33.1258 44.7457V41.7506C33.1258 41.7133 33.1444 41.6951 33.1812 41.6951H33.6936C33.7309 41.6951 33.749 41.7138 33.749 41.7506V44.7126C33.749 44.8054 33.7677 44.8694 33.8044 44.9046C33.8418 44.9397 33.9009 44.9573 33.9825 44.9573H34.1051C34.1424 44.9573 34.1606 44.976 34.1606 45.0128V45.4579C34.1606 45.4953 34.1419 45.5134 34.1051 45.5134H33.8609V45.5139Z" fill="white"/>
<path d="M35.8207 45.5416C35.535 45.5416 35.2961 45.4755 35.1042 45.3438C34.9123 45.2121 34.7801 45.0293 34.7059 44.7952C34.6766 44.7099 34.6537 44.6145 34.6372 44.5084C34.6206 44.4029 34.6127 44.2792 34.6127 44.1379C34.6127 43.9972 34.6201 43.8724 34.6345 43.7647C34.6494 43.657 34.6713 43.5605 34.7006 43.4752C34.7742 43.2412 34.9075 43.0594 35.1015 42.9298C35.2951 42.7998 35.5254 42.7347 35.793 42.7347C36.0713 42.7347 36.3059 42.8008 36.4972 42.9325C36.6881 43.0642 36.8209 43.2454 36.8955 43.4752C36.9104 43.5237 36.9232 43.5717 36.9344 43.6197C36.9456 43.6682 36.9547 43.7237 36.9621 43.7866C36.9696 43.8495 36.9749 43.9209 36.9787 44.0009C36.9824 44.0809 36.984 44.1747 36.984 44.2818C36.984 44.3192 36.9637 44.3373 36.9227 44.3373H35.2689C35.2465 44.3373 35.2353 44.3485 35.2353 44.3709C35.2353 44.4119 35.2391 44.4487 35.2465 44.4823C35.254 44.5159 35.2631 44.5473 35.2743 44.5772C35.367 44.848 35.5675 44.9834 35.8756 44.9834C36.0276 44.9834 36.1539 44.9594 36.2541 44.9109C36.3544 44.8629 36.4381 44.8016 36.5047 44.727C36.5346 44.6971 36.5623 44.6934 36.5884 44.7158L36.9168 45.0053C36.9429 45.0277 36.9445 45.0538 36.9222 45.0831C36.807 45.2169 36.6567 45.3262 36.4711 45.4115C36.2861 45.499 36.0691 45.5416 35.8207 45.5416ZM36.3549 43.8431C36.3549 43.7567 36.3437 43.6805 36.3213 43.6128C36.284 43.504 36.219 43.4192 36.1262 43.3574C36.0334 43.2956 35.9236 43.2646 35.7978 43.2646C35.6677 43.2646 35.5563 43.2956 35.4635 43.3574C35.3708 43.4192 35.3057 43.5045 35.2689 43.6128C35.2465 43.6805 35.2353 43.7572 35.2353 43.8431C35.2353 43.8655 35.2465 43.8767 35.2689 43.8767H36.3213C36.3437 43.8767 36.3549 43.8655 36.3549 43.8431Z" fill="white"/>
<path d="M40.5696 45.4805C40.5323 45.4805 40.5142 45.4619 40.5142 45.4251V45.2299H40.5089C40.446 45.3227 40.3511 45.3979 40.2247 45.4555C40.0984 45.513 39.9406 45.5418 39.7513 45.5418C39.6287 45.5418 39.513 45.5253 39.4032 45.4917C39.2939 45.4587 39.1979 45.4085 39.1163 45.3419C39.0348 45.2753 38.9697 45.191 38.9212 45.0892C38.8727 44.9874 38.8487 44.8664 38.8487 44.7256C38.8487 44.4335 38.9441 44.2191 39.1355 44.0821C39.3264 43.9451 39.5892 43.8769 39.9235 43.8769H40.4689C40.4913 43.8769 40.5025 43.8657 40.5025 43.8433V43.7143C40.5025 43.557 40.4598 43.4429 40.3745 43.3715C40.2892 43.3006 40.133 43.2648 39.907 43.2648C39.7545 43.2648 39.6303 43.2824 39.5338 43.3176C39.4373 43.3528 39.3573 43.3965 39.2944 43.4482C39.2608 43.4744 39.2347 43.4706 39.2166 43.437L39.0108 43.0697C38.9921 43.0399 38.9959 43.0159 39.022 42.9972C39.1297 42.9194 39.2592 42.8565 39.4117 42.808C39.5636 42.76 39.7513 42.7354 39.9741 42.7354C40.3825 42.7354 40.6709 42.8096 40.8399 42.9583C41.0089 43.107 41.0932 43.3443 41.0932 43.6711V45.4251C41.0932 45.4624 41.0745 45.4805 41.0377 45.4805H40.5696ZM39.9075 45.0354C40.1005 45.0354 40.2482 44.998 40.35 44.9239C40.4518 44.8498 40.503 44.7347 40.503 44.579V44.3732C40.503 44.3508 40.4918 44.3396 40.4694 44.3396H40.0243C39.8238 44.3396 39.6772 44.3684 39.5844 44.426C39.4917 44.4836 39.4453 44.5753 39.4453 44.7016C39.4453 44.9239 39.5994 45.0354 39.9075 45.0354Z" fill="white"/>
<path d="M43.5816 45.4803C43.5443 45.4803 43.5262 45.4616 43.5262 45.4249V43.8772C43.5262 43.7029 43.4835 43.5616 43.3982 43.4539C43.3129 43.3462 43.1866 43.2924 43.0197 43.2924C42.8565 43.2924 42.7302 43.3462 42.6412 43.4539C42.5521 43.5616 42.5074 43.7029 42.5074 43.8772V45.4249C42.5074 45.4622 42.4887 45.4803 42.4519 45.4803H41.9396C41.9023 45.4803 41.8841 45.4616 41.8841 45.4249V42.8525C41.8841 42.8152 41.9028 42.7971 41.9396 42.7971H42.4519C42.4892 42.7971 42.5074 42.8157 42.5074 42.8525V43.0477H42.5127C42.5719 42.9624 42.6604 42.8888 42.7771 42.828C42.8939 42.7667 43.0415 42.7363 43.2196 42.7363C43.3641 42.7363 43.4931 42.7614 43.6067 42.8115C43.7197 42.8616 43.8172 42.9314 43.8988 43.0205C43.9804 43.1095 44.0428 43.2145 44.0854 43.335C44.1281 43.4555 44.1494 43.5882 44.1494 43.7333V45.4259C44.1494 45.4632 44.1307 45.4814 44.0939 45.4814H43.5816V45.4803Z" fill="white"/>
<path d="M46.5875 45.4804C46.5502 45.4804 46.5321 45.4617 46.5321 45.4249V45.2245H46.5268C46.4638 45.3172 46.3743 45.3935 46.2597 45.4527C46.1445 45.5118 45.9963 45.5417 45.8145 45.5417C45.5842 45.5417 45.3896 45.4878 45.2302 45.3802C45.0708 45.2725 44.9556 45.1109 44.8853 44.8961C44.8517 44.7921 44.8277 44.6855 44.8128 44.5762C44.7978 44.4669 44.7904 44.3208 44.7904 44.139C44.7904 43.9572 44.7978 43.8117 44.8128 43.7019C44.8277 43.5926 44.8517 43.486 44.8853 43.382C44.9556 43.1666 45.0708 43.0051 45.2302 42.8974C45.3896 42.7897 45.5847 42.7359 45.8145 42.7359C45.9963 42.7359 46.145 42.7657 46.2597 42.8249C46.3748 42.8841 46.4638 42.9603 46.5268 43.0531H46.5321V41.7501C46.5321 41.7128 46.5507 41.6947 46.5875 41.6947H47.0999C47.1367 41.6947 47.1553 41.7133 47.1553 41.7501V45.4244C47.1553 45.4617 47.1367 45.4798 47.0999 45.4798H46.5875V45.4804ZM45.9755 44.9851C46.2351 44.9851 46.402 44.87 46.4766 44.6402C46.4953 44.5773 46.5092 44.5085 46.5182 44.4344C46.5273 44.3603 46.5321 44.2617 46.5321 44.139C46.5321 44.0164 46.5273 43.9183 46.5182 43.8442C46.5092 43.7701 46.4948 43.7013 46.4766 43.6384C46.4025 43.4081 46.2351 43.2935 45.9755 43.2935C45.7196 43.2935 45.5543 43.4087 45.4802 43.6384C45.4616 43.7013 45.4477 43.7701 45.4387 43.8442C45.4296 43.9183 45.4248 44.017 45.4248 44.139C45.4248 44.2617 45.4296 44.3597 45.4387 44.4344C45.4477 44.5085 45.4616 44.5773 45.4802 44.6402C45.5538 44.87 45.7191 44.9851 45.9755 44.9851Z" fill="white"/>
<path d="M49.349 45.4804C49.3117 45.4804 49.2936 45.4618 49.2936 45.4244V41.7443C49.2936 41.707 49.3122 41.6883 49.349 41.6883H50.7687C50.9505 41.6883 51.1185 41.7171 51.2725 41.7747C51.4266 41.8322 51.5583 41.9122 51.6681 42.0146C51.7774 42.1169 51.8627 42.2406 51.924 42.3856C51.9853 42.5306 52.0157 42.6906 52.0157 42.8654C52.0157 43.044 51.9853 43.2056 51.924 43.3511C51.8627 43.4961 51.7774 43.6198 51.6681 43.7222C51.5588 43.8245 51.4266 43.9045 51.2725 43.9621C51.1185 44.0197 50.9505 44.0484 50.7687 44.0484H49.984C49.9616 44.0484 49.9504 44.0596 49.9504 44.082V45.4239C49.9504 45.4612 49.9317 45.4793 49.8949 45.4793H49.349V45.4804ZM50.7298 43.454C50.9265 43.454 51.0806 43.4012 51.192 43.2951C51.3035 43.1896 51.3589 43.0472 51.3589 42.8692C51.3589 42.6948 51.3035 42.5536 51.192 42.4459C51.0806 42.3382 50.9265 42.2843 50.7298 42.2843H49.984C49.9616 42.2843 49.9504 42.2955 49.9504 42.3179V43.4204C49.9504 43.4428 49.9616 43.454 49.984 43.454H50.7298Z" fill="white"/>
<path d="M53.3352 45.5139C53.0718 45.5139 52.8831 45.451 52.7701 45.3247C52.6571 45.1983 52.6 45.0053 52.6 44.7457V41.7506C52.6 41.7133 52.6187 41.6951 52.6555 41.6951H53.1678C53.2051 41.6951 53.2233 41.7138 53.2233 41.7506V44.7126C53.2233 44.8054 53.2419 44.8694 53.2787 44.9046C53.316 44.9397 53.3752 44.9573 53.4568 44.9573H53.5794C53.6167 44.9573 53.6348 44.976 53.6348 45.0128V45.4579C53.6348 45.4953 53.6162 45.5134 53.5794 45.5134H53.3352V45.5139Z" fill="white"/>
<path d="M55.8299 45.4805C55.7925 45.4805 55.7744 45.4619 55.7744 45.4251V45.2299H55.7691C55.7062 45.3227 55.6113 45.3979 55.4849 45.4555C55.3586 45.513 55.2008 45.5418 55.0115 45.5418C54.8889 45.5418 54.7732 45.5253 54.6634 45.4917C54.5541 45.4587 54.4581 45.4085 54.3766 45.3419C54.295 45.2753 54.23 45.191 54.1814 45.0892C54.1329 44.9874 54.1089 44.8664 54.1089 44.7256C54.1089 44.4335 54.2044 44.2191 54.3958 44.0821C54.5866 43.9451 54.8494 43.8769 55.1837 43.8769H55.7291C55.7515 43.8769 55.7627 43.8657 55.7627 43.8433V43.7143C55.7627 43.557 55.72 43.4429 55.6347 43.3715C55.5494 43.3006 55.3932 43.2648 55.1672 43.2648C55.0147 43.2648 54.8905 43.2824 54.794 43.3176C54.6975 43.3528 54.6175 43.3965 54.5546 43.4482C54.521 43.4744 54.4949 43.4706 54.4768 43.437L54.271 43.0697C54.2523 43.0399 54.2561 43.0159 54.2822 42.9972C54.3899 42.9194 54.5194 42.8565 54.6719 42.808C54.8239 42.76 55.0115 42.7354 55.2344 42.7354C55.6427 42.7354 55.9312 42.8096 56.1002 42.9583C56.2692 43.107 56.3534 43.3443 56.3534 43.6711V45.4251C56.3534 45.4624 56.3347 45.4805 56.2979 45.4805H55.8299ZM55.1672 45.0354C55.3602 45.0354 55.5079 44.998 55.6097 44.9239C55.7115 44.8498 55.7627 44.7347 55.7627 44.579V44.3732C55.7627 44.3508 55.7515 44.3396 55.7291 44.3396H55.2839C55.0835 44.3396 54.9369 44.3684 54.8441 44.426C54.7514 44.4836 54.705 44.5753 54.705 44.7016C54.705 44.9239 54.859 45.0354 55.1672 45.0354Z" fill="white"/>
<path d="M58.1906 45.5418C57.9198 45.5418 57.6868 45.4789 57.4917 45.3526C57.2966 45.2262 57.1606 45.0428 57.0822 44.8013C57.0268 44.6344 56.9985 44.4137 56.9985 44.1386C56.9985 43.8641 57.0263 43.6434 57.0822 43.476C57.1601 43.2345 57.2966 43.0511 57.4917 42.9247C57.6868 42.7984 57.9192 42.7354 58.1906 42.7354C58.3911 42.7354 58.5691 42.7728 58.7253 42.8469C58.881 42.921 59.0127 43.0233 59.1209 43.1529C59.1433 43.1827 59.1412 43.2083 59.1156 43.2307L58.7648 43.5367C58.7349 43.5591 58.7093 43.5554 58.6869 43.5255C58.6203 43.4514 58.5489 43.3939 58.4726 43.3528C58.3964 43.3123 58.3026 43.2915 58.1917 43.2915C58.0728 43.2915 57.9699 43.3203 57.8825 43.3779C57.795 43.4354 57.7311 43.5234 57.6905 43.6423C57.6681 43.7089 57.6532 43.7825 57.6463 43.8619C57.6388 43.9419 57.6351 44.0336 57.6351 44.1376C57.6351 44.2415 57.6388 44.3343 57.6463 44.4159C57.6537 44.4974 57.6687 44.5715 57.6905 44.6387C57.7316 44.7539 57.7956 44.8402 57.8825 44.8978C57.9699 44.9554 58.0728 44.9842 58.1917 44.9842C58.3031 44.9842 58.3969 44.9639 58.4726 44.9229C58.5489 44.8823 58.6203 44.8248 58.6869 44.7501C58.7093 44.724 58.7349 44.7224 58.7648 44.7448L59.1156 45.0508C59.138 45.0695 59.1396 45.0951 59.1209 45.1286C59.0132 45.255 58.8815 45.3552 58.7253 45.4293C58.5691 45.5045 58.3911 45.5418 58.1906 45.5418Z" fill="white"/>
<path d="M60.8516 45.5416C60.5658 45.5416 60.327 45.4755 60.1351 45.3438C59.9431 45.2121 59.8109 45.0293 59.7368 44.7952C59.7075 44.7099 59.6846 44.6145 59.668 44.5084C59.6515 44.4029 59.6435 44.2792 59.6435 44.1379C59.6435 43.9972 59.651 43.8724 59.6654 43.7647C59.6803 43.657 59.7022 43.5605 59.7315 43.4752C59.8051 43.2412 59.9383 43.0594 60.1324 42.9298C60.3259 42.7998 60.5562 42.7347 60.8239 42.7347C61.1021 42.7347 61.3367 42.8008 61.5281 42.9325C61.719 43.0642 61.8517 43.2454 61.9264 43.4752C61.9413 43.5237 61.9541 43.5717 61.9653 43.6197C61.9765 43.6682 61.9855 43.7237 61.993 43.7866C62.0005 43.8495 62.0058 43.9209 62.0095 44.0009C62.0133 44.0809 62.0149 44.1747 62.0149 44.2818C62.0149 44.3192 61.9946 44.3373 61.9535 44.3373H60.2998C60.2774 44.3373 60.2662 44.3485 60.2662 44.3709C60.2662 44.4119 60.2699 44.4487 60.2774 44.4823C60.2849 44.5159 60.2939 44.5473 60.3051 44.5772C60.3979 44.848 60.5983 44.9834 60.9065 44.9834C61.0584 44.9834 61.1848 44.9594 61.285 44.9109C61.3852 44.8629 61.4689 44.8016 61.5356 44.727C61.5654 44.6971 61.5931 44.6934 61.6193 44.7158L61.9477 45.0053C61.9738 45.0277 61.9754 45.0538 61.953 45.0831C61.8379 45.2169 61.6875 45.3262 61.502 45.4115C61.3175 45.499 61.1005 45.5416 60.8516 45.5416ZM61.3863 43.8431C61.3863 43.7567 61.3751 43.6805 61.3527 43.6128C61.3154 43.504 61.2504 43.4192 61.1576 43.3574C61.0648 43.2956 60.955 43.2646 60.8292 43.2646C60.6991 43.2646 60.5877 43.2956 60.4949 43.3574C60.4021 43.4192 60.3371 43.5045 60.3003 43.6128C60.2779 43.6805 60.2667 43.7572 60.2667 43.8431C60.2667 43.8655 60.2779 43.8767 60.3003 43.8767H61.3527C61.3751 43.8767 61.3863 43.8655 61.3863 43.8431Z" fill="white"/>
<path d="M63.6799 45.5418C63.4053 45.5418 63.1724 45.4976 62.981 45.408C62.7896 45.319 62.6387 45.2225 62.5273 45.1185C62.5011 45.0924 62.5011 45.0668 62.5273 45.0407L62.8445 44.7064C62.8706 44.6803 62.8962 44.6803 62.9223 44.7064C63.0188 44.7954 63.1382 44.869 63.2816 44.9261C63.4245 44.9836 63.5663 45.0124 63.7076 45.0124C63.8745 45.0124 63.9987 44.9826 64.0808 44.9234C64.1624 44.8642 64.2034 44.788 64.2034 44.6952C64.2034 44.6137 64.173 44.5486 64.1117 44.5001C64.0504 44.4521 63.9326 44.4185 63.7583 44.3999L63.4688 44.3721C63.1942 44.3423 62.9879 44.2607 62.8509 44.1269C62.7133 43.9931 62.6451 43.8113 62.6451 43.5815C62.6451 43.3219 62.7341 43.1156 62.9122 42.9636C63.0902 42.8117 63.3483 42.7354 63.6863 42.7354C63.8979 42.7354 64.0888 42.7658 64.2599 42.8271C64.4305 42.8885 64.5755 42.9674 64.6944 43.0639C64.7243 43.0862 64.728 43.1124 64.7056 43.1417L64.4327 43.4701C64.4103 43.4962 64.3841 43.5 64.3548 43.4813C64.2695 43.4221 64.1645 43.3699 64.0403 43.3256C63.9161 43.2808 63.787 43.259 63.6532 43.259C63.5194 43.259 63.4187 43.2851 63.3499 43.3368C63.2811 43.3891 63.247 43.4557 63.247 43.5373C63.247 43.6151 63.2768 43.6775 63.336 43.7239C63.3952 43.7702 63.5125 43.8028 63.6868 43.8214L63.9763 43.8491C64.2583 43.879 64.4673 43.9616 64.6027 44.0971C64.7381 44.2325 64.8058 44.4116 64.8058 44.6344C64.8058 44.9015 64.711 45.1196 64.5217 45.2886C64.3314 45.4576 64.0515 45.5418 63.6799 45.5418Z" fill="white"/>
</svg>
