<svg width="56" height="56" viewBox="0 0 56 56" fill="none" xmlns="http://www.w3.org/2000/svg">
<rect opacity="0.4" x="-1" y="1" width="54" height="54" rx="15" transform="matrix(-1 0 0 1 54 0)" stroke="white" stroke-width="2"/>
<g clip-path="url(#clip0_214_55839)">
<path d="M30.4651 44H25.8722C25.7035 44 25.5723 43.8313 25.5723 43.6251V41.5817C25.5723 41.3755 25.7035 41.2068 25.8722 41.2068H30.4651C30.6338 41.2068 30.7837 41.3755 30.7837 41.5817V43.6251C30.7837 43.8313 30.6338 44 30.4651 44Z" fill="white"/>
<path d="M25.5723 42.4628V41.5817C25.5723 41.3755 25.7035 41.2068 25.8722 41.2068H30.4651C30.6338 41.2068 30.7837 41.3755 30.7837 41.5817V42.4628H25.5723Z" fill="white"/>
<path d="M31.2339 41.9566H25.1038C24.9351 41.9566 24.7852 41.7879 24.7852 41.5817V39.5571C24.7852 39.3509 24.9351 39.1822 25.1038 39.1822H31.2339C31.4214 39.1822 31.5526 39.3509 31.5526 39.5571V41.5817C31.5526 41.7879 31.4214 41.9566 31.2339 41.9566Z" fill="white"/>
<path d="M24.7852 40.4194V39.5571C24.7852 39.3509 24.9351 39.1822 25.1038 39.1822H31.2339C31.4214 39.1822 31.5526 39.3509 31.5526 39.5571V40.4194C31.5338 40.4194 31.4963 40.4194 31.4589 40.4194H24.8976C24.8601 40.4194 24.8226 40.4194 24.7852 40.4194Z" fill="white"/>
<path d="M31.4588 39.9321H24.8976C24.1853 39.9321 23.6229 39.3509 23.6229 38.6573V34.6831C20.8859 33.0709 19.1987 30.1277 19.1987 26.9596C19.1987 22.0106 23.2292 17.9801 28.1782 17.9801C28.6844 17.9801 29.1905 18.0176 29.6967 18.1113C29.8841 18.1301 30.0154 18.2988 30.0154 18.4863V20.7733C30.0154 20.8858 29.9591 20.9795 29.8654 21.0545C29.7904 21.1295 29.6779 21.167 29.5655 21.1295C29.153 21.0545 28.8343 20.8858 28.5719 20.7546C28.4032 20.6608 28.2157 20.5671 28.1407 20.5671C27.7471 20.5671 27.4096 20.8858 27.4096 21.2795C27.4096 21.6731 27.7471 21.9918 28.1407 21.9918C28.2157 21.9918 28.4032 21.8981 28.5719 21.8044C28.8343 21.6731 29.153 21.5044 29.5655 21.4294C29.6779 21.4107 29.7904 21.4294 29.8654 21.5044C29.9591 21.5794 30.0154 21.6731 30.0154 21.7856V24.5038C30.0154 24.785 30.2403 25.0287 30.5403 25.0287H33.2397C33.3522 25.0287 33.4647 25.085 33.5397 25.16C33.5959 25.2537 33.6334 25.3662 33.6147 25.4786C33.5209 25.8723 33.3522 26.2097 33.221 26.4722C33.146 26.6222 33.0335 26.8284 33.0335 26.9034C33.0335 27.297 33.3522 27.6157 33.7646 27.6157C34.1583 27.6157 34.477 27.297 34.477 26.9034C34.477 26.8284 34.3833 26.6222 34.2895 26.4722C34.1583 26.2097 33.9896 25.8723 33.8959 25.4786C33.8771 25.3662 33.9146 25.2537 33.9708 25.16C34.0458 25.085 34.1583 25.0287 34.2708 25.0287H36.6328C36.8203 25.0287 36.9703 25.16 37.0078 25.3287C37.1015 25.8723 37.139 26.416 37.139 26.9596C37.139 30.1277 35.4518 33.0709 32.7336 34.6831V38.6573C32.7336 39.3509 32.1525 39.9321 31.4588 39.9321Z" fill="#F7BF23"/>
<path d="M27.9155 15.6555C27.7092 15.6555 27.5405 15.4868 27.5405 15.2806V12.3749C27.5405 12.1687 27.7092 12 27.9155 12C28.1217 12 28.2904 12.1687 28.2904 12.3749V15.2806C28.2904 15.4868 28.1217 15.6555 27.9155 15.6555Z" fill="#F7BF23"/>
<path d="M21.767 17.4552C21.6357 17.4552 21.5045 17.3802 21.4483 17.2677L19.9861 14.7369C19.8923 14.5682 19.9486 14.3245 20.1173 14.2308C20.3048 14.1183 20.5297 14.1933 20.6422 14.362L22.0857 16.8928C22.1981 17.0615 22.1419 17.2864 21.9544 17.3989C21.8982 17.4364 21.8232 17.4552 21.767 17.4552Z" fill="#F7BF23"/>
<path d="M17.3428 22.0668C17.2679 22.0668 17.2116 22.048 17.1554 22.0105L14.6246 20.5671C14.4559 20.4546 14.3997 20.2296 14.4934 20.0422C14.6059 19.8734 14.8308 19.8172 14.9995 19.9109L17.5303 21.3732C17.699 21.4669 17.774 21.6918 17.6615 21.8793C17.5865 21.9918 17.4741 22.0668 17.3428 22.0668Z" fill="#F7BF23"/>
<path d="M15.8243 28.2718H12.8998C12.6936 28.2718 12.5249 28.1031 12.5249 27.8969C12.5249 27.6907 12.6936 27.522 12.8998 27.522H15.8243C16.0305 27.522 16.1992 27.6907 16.1992 27.8969C16.1992 28.1031 16.0305 28.2718 15.8243 28.2718Z" fill="#F7BF23"/>
<path d="M38.2261 13.8747L36.014 14.9994C35.939 15.0369 35.8641 15.1307 35.8641 15.2244C35.8453 15.3181 35.8641 15.4119 35.939 15.4868C36.1265 15.6743 36.3327 15.8243 36.5202 15.9555C36.6702 16.068 36.8201 16.1805 36.8764 16.2554C37.0451 16.6116 36.9139 17.0428 36.5577 17.2303C36.2015 17.4177 35.7516 17.2677 35.5829 16.9116C35.5454 16.8366 35.5454 16.6304 35.5454 16.4429C35.5454 16.218 35.5454 15.9742 35.5079 15.6931C35.4891 15.5993 35.4329 15.5243 35.3392 15.4868C35.2642 15.4306 35.1517 15.4306 35.0767 15.4868L32.8459 16.6116C32.2835 16.8928 32.0586 17.5864 32.3397 18.1488L33.3146 20.061C33.1646 20.061 33.0146 20.061 32.8646 20.061C32.5835 20.061 32.3397 20.061 32.1335 20.1734C31.4774 20.4921 31.215 21.2982 31.5337 21.9543C31.8711 22.5917 32.6772 22.8542 33.3333 22.5355C33.5395 22.423 33.6895 22.2168 33.8582 21.9918C33.9332 21.8793 34.0082 21.7481 34.1207 21.6356L35.0767 23.529C35.3579 24.1102 36.0515 24.3351 36.6327 24.0352L38.526 23.0791C38.5448 23.2291 38.526 23.3791 38.526 23.5103C38.526 23.8102 38.526 24.0539 38.6385 24.2601C38.976 24.9163 39.7633 25.1787 40.4194 24.8413C41.0755 24.5226 41.338 23.7165 41.0006 23.0604C40.8881 22.8542 40.6819 22.7042 40.4569 22.5355C40.3444 22.4605 40.232 22.3668 40.1007 22.273L42.0129 21.317C42.5753 21.017 42.8002 20.3234 42.519 19.761L41.5442 17.8676C41.6942 17.8489 41.8441 17.8489 41.9941 17.8489C42.2753 17.8676 42.519 17.8676 42.744 17.7552C43.3813 17.4177 43.6438 16.6304 43.3251 15.9742C42.9877 15.3181 42.1816 15.0557 41.5255 15.3931C41.3192 15.5056 41.1693 15.6931 41.0193 15.9368C40.9256 16.0492 40.8506 16.1617 40.7381 16.2742L39.782 14.3808C39.5009 13.8184 38.8072 13.5935 38.2261 13.8747Z" fill="#F7BF23"/>
<path d="M38.2263 13.8747C33.5959 16.218 37.4764 14.2496 32.8461 16.6116C32.5649 16.7428 32.3774 16.9866 32.2837 17.2677L42.5567 20.6983C42.6692 20.3984 42.6692 20.061 42.5192 19.761L41.5444 17.8676C41.6944 17.8489 41.8443 17.8489 41.9943 17.8489C42.2755 17.8676 42.5192 17.8676 42.7441 17.7552C43.3815 17.4177 43.644 16.6304 43.3253 15.9742C42.9879 15.3181 42.1818 15.0557 41.5256 15.3931C41.3194 15.5056 41.1695 15.6931 41.0195 15.9368C40.9258 16.0492 40.8508 16.1617 40.7383 16.2742L39.7822 14.3808C39.501 13.8184 38.8074 13.5935 38.2263 13.8747Z" fill="#F7BF23"/>
</g>
<defs>
<clipPath id="clip0_214_55839">
<rect width="32" height="32" fill="white" transform="translate(12 12)"/>
</clipPath>
</defs>
</svg>
