<svg width="32" height="32" viewBox="0 0 32 32" fill="none" xmlns="http://www.w3.org/2000/svg">
<path fill-rule="evenodd" clip-rule="evenodd" d="M8.90529 2.67317L8.8531 2.66973C6.95603 2.58203 4.43789 4.71662 3.47753 6.30982C2.4239 7.73697 2.40409 9.64096 3.3064 11.801L3.44865 12.1269C5.73868 17.7373 14.283 26.2255 19.9134 28.5679L20.2291 28.7086C22.2205 29.5555 24.0501 29.5664 25.5466 28.6208L25.7174 28.5054L25.6663 28.5366C27.1664 27.6774 29.4 25.1005 29.3316 23.1609C29.263 22.3149 28.8822 21.6497 28.3002 21.0541C28.1096 20.8588 27.8557 20.6254 27.5626 20.3729L27.0965 19.9824C27.0149 19.9157 26.9316 19.8485 26.8469 19.781L26.3261 19.3748C26.2377 19.3073 26.1486 19.2402 26.0593 19.1736L25.5242 18.7842C24.6382 18.1555 23.8059 17.6486 23.4012 17.5638C22.4758 17.3719 21.8571 17.5406 20.918 18.0546L20.5757 18.2481C20.0489 18.5502 19.9232 18.5847 19.7686 18.5286C16.7899 17.312 14.6878 15.2106 13.4506 12.1832C13.4322 12.1309 13.4318 12.0732 13.4738 11.9624L13.5463 11.8009L13.6691 11.5702L13.7958 11.3476C14.4254 10.2533 14.6454 9.60902 14.4365 8.60185C14.3771 8.31771 14.1112 7.82492 13.7415 7.25107L13.4016 6.74233C13.3415 6.65523 13.2799 6.56721 13.2171 6.47866L12.8279 5.94385C12.7614 5.85463 12.6942 5.76561 12.6268 5.67718L12.2206 5.15647C12.1531 5.07183 12.0858 4.98852 12.0192 4.9069L11.6284 4.44047L11.2658 4.03254C11.1513 3.9083 11.0439 3.79679 10.9459 3.70098C10.3509 3.11971 9.68631 2.74006 8.90529 2.67317ZM8.64657 5.33843L8.70008 5.3347L8.67775 5.33011C8.74201 5.33562 8.88915 5.41968 9.08186 5.60792L9.2935 5.8299L9.55076 6.1232L9.84086 6.47043L10.3096 7.05444L10.7803 7.66212L11.3364 8.40786L11.5551 8.71401L11.7171 8.95252C11.7818 9.05197 11.8204 9.11954 11.8258 9.14546C11.8453 9.23949 11.8333 9.33519 11.7517 9.5164L11.6455 9.7292L11.4394 10.0959C10.7766 11.2509 10.5614 12.0326 10.9626 13.1413C12.4904 16.8826 15.1189 19.5103 18.81 21.0165C19.8839 21.4073 20.6356 21.25 21.6607 20.6961L22.2983 20.3397C22.6084 20.1763 22.7335 20.1487 22.8571 20.1744L22.8963 20.1905L23.0494 20.2831L23.2877 20.4451L23.7668 20.7904L24.5413 21.3745L25.3431 22.0061L25.8785 22.4494L26.1713 22.7063C26.258 22.785 26.3327 22.8561 26.3926 22.9174C26.581 23.1103 26.6653 23.2575 26.6703 23.318C26.6895 23.9008 25.2446 25.6013 24.4702 26.1401L24.2272 26.2957C23.5386 26.7889 22.5872 26.8111 21.2585 26.2482L20.9877 26.1278C18.6331 25.1477 15.6233 22.8804 12.8783 20.2335L12.1369 19.5029C9.44764 16.7944 7.1069 13.7888 6.03486 11.3934L5.89663 11.0706C5.23798 9.62072 5.18182 8.62312 5.60372 7.92303L5.69444 7.78693C5.92164 7.42059 6.52665 6.75123 7.12835 6.24117C7.76594 5.70069 8.34103 5.38232 8.64657 5.33843Z" fill="#F7BF23"/>
</svg>
