<svg width="65" height="47" viewBox="0 0 65 47" fill="none" xmlns="http://www.w3.org/2000/svg">
<path d="M44.7063 10.6984V12.1672C44.7063 12.7371 44.6674 13.2974 44.5911 13.8465C44.4099 15.1644 44.0169 16.4157 43.4486 17.5635C42.8526 18.7668 42.0646 19.8571 41.1236 20.7949C40.3842 21.5322 39.5498 22.1746 38.6414 22.7029C37.3538 23.4525 35.9154 23.9718 34.3838 24.2058C33.7781 24.2986 33.1581 24.3466 32.5263 24.3466C27.7377 24.3466 23.5947 21.5828 21.6045 17.563H26.1906C27.7169 19.3533 29.9886 20.4888 32.5258 20.4888C33.1645 20.4888 33.7861 20.4169 34.3832 20.2804C36.0477 19.9013 37.5218 19.0233 38.6408 17.812C38.716 17.7309 38.7901 17.6478 38.8615 17.563C39.754 16.5159 40.3922 15.2449 40.6785 13.846H20.4626C20.3869 13.2969 20.3474 12.7366 20.3474 12.1666C20.3474 11.6698 20.3773 11.1793 20.4354 10.6979C20.6369 9.01955 21.1796 7.4468 21.9927 6.05C22.456 5.25296 23.0072 4.51351 23.6342 3.84442C25.7385 1.5962 28.6862 0.146612 31.9724 0H34.3838V3.84442H32.5263C30.349 3.84442 28.3668 4.68091 26.8836 6.05C25.5775 7.25488 24.6583 8.87347 24.3337 10.6979L44.7063 10.6984Z" fill="white"/>
<path d="M44.7063 0.000978547V6.05044H41.1236V3.8454H38.6414V0.000978547H44.7063Z" fill="#44C1EF"/>
<path d="M3.18963 38.9208C2.87562 38.9208 2.56747 38.8915 2.26518 38.8323C1.96289 38.7737 1.6782 38.6953 1.4111 38.5967C1.144 38.4986 0.898759 38.3829 0.674843 38.2491C0.450927 38.1158 0.260599 37.9745 0.103324 37.8252C0.0404146 37.7623 0.0366826 37.6957 0.0915953 37.6248L0.986726 36.6001C1.03364 36.5372 1.09282 36.5334 1.16319 36.5884C1.43029 36.8005 1.74004 36.9909 2.09351 37.1599C2.44698 37.3289 2.83563 37.4131 3.25947 37.4131C3.68331 37.4131 4.00746 37.3246 4.23137 37.1482C4.45529 36.9717 4.56725 36.7419 4.56725 36.4593C4.56725 36.2237 4.48088 36.0312 4.30815 35.8825C4.13541 35.7332 3.80967 35.6277 3.33038 35.5642L2.90654 35.5056C2.08978 35.3957 1.46388 35.1462 1.02778 34.7576C0.592207 34.3689 0.374156 33.8171 0.374156 33.1027C0.374156 32.7338 0.440797 32.3979 0.574614 32.0957C0.707897 31.7934 0.898759 31.5364 1.14613 31.3242C1.39351 31.112 1.69153 30.9473 2.04126 30.8295C2.39047 30.7116 2.78125 30.653 3.21309 30.653C3.74676 30.653 4.2495 30.7276 4.72079 30.8769C5.19208 31.0262 5.5962 31.2304 5.9342 31.4895C6.00511 31.5364 6.01257 31.5956 5.95766 31.6659L5.239 32.7375C5.19208 32.8005 5.13664 32.8122 5.07426 32.7727C4.76824 32.5685 4.46382 32.4155 4.16153 32.3132C3.85925 32.2113 3.5431 32.1602 3.21309 32.1602C2.85962 32.1602 2.59252 32.2428 2.41232 32.4075C2.23159 32.5723 2.14149 32.7807 2.14149 33.0318C2.14149 33.2595 2.23372 33.4482 2.41819 33.5975C2.60265 33.7468 2.92626 33.8529 3.39009 33.9152L3.81393 33.9744C4.64615 34.0842 5.27418 34.3337 5.69856 34.7224C6.1224 35.111 6.33459 35.6703 6.33459 36.4007C6.33459 36.7622 6.26794 37.0975 6.13413 37.4078C6.00031 37.7181 5.80252 37.9852 5.53915 38.2086C5.27578 38.4325 4.94791 38.6073 4.55552 38.7326C4.16313 38.8579 3.70784 38.9208 3.18963 38.9208Z" fill="white"/>
<path d="M8.06568 30.7117C8.06568 30.6334 8.10513 30.5939 8.1835 30.5939H9.58511C9.67947 30.5939 9.74185 30.6334 9.77383 30.7117L11.7997 35.5995H11.8467L13.8374 30.7117C13.8688 30.6334 13.9317 30.5939 14.0256 30.5939H15.4037C15.4821 30.5939 15.5215 30.6334 15.5215 30.7117V38.8031C15.5215 38.882 15.4821 38.9209 15.4037 38.9209H14.073C13.9946 38.9209 13.9552 38.882 13.9552 38.8031V34.2923H13.9083L12.424 37.6723C12.3771 37.7747 12.3025 37.8253 12.2001 37.8253H11.3876C11.2853 37.8253 11.2112 37.7742 11.1637 37.6723L9.67947 34.2923H9.63255V38.8031C9.63255 38.882 9.5931 38.9209 9.51473 38.9209H8.18403C8.10566 38.9209 8.06621 38.882 8.06621 38.8031V30.7117H8.06568Z" fill="white"/>
<path d="M20.017 30.7117C20.0405 30.6334 20.0916 30.5939 20.17 30.5939H21.6543C21.7326 30.5939 21.7838 30.6334 21.8073 30.7117L24.5161 38.8031C24.5396 38.882 24.5118 38.9209 24.4335 38.9209H22.9023C22.8239 38.9209 22.7728 38.882 22.7493 38.8031L22.2897 37.4015H19.4865L19.0387 38.8031C19.0152 38.882 18.9641 38.9209 18.8857 38.9209H17.3428C17.2639 38.9209 17.2367 38.882 17.2602 38.8031L20.017 30.7117ZM21.819 35.929L20.9121 33.1258H20.8769L19.9701 35.929H21.819Z" fill="white"/>
<path d="M30.6839 38.9208C30.5975 38.9208 30.5383 38.8819 30.5074 38.803L29.1293 35.5701H28.0577C28.0108 35.5701 27.9868 35.5935 27.9868 35.641V38.8035C27.9868 38.8824 27.9473 38.9214 27.869 38.9214H26.373C26.2946 38.9214 26.2552 38.8824 26.2552 38.8035V30.7292C26.2552 30.6509 26.2941 30.6114 26.373 30.6114H29.5648C29.9732 30.6114 30.3443 30.6722 30.678 30.7937C31.0118 30.9153 31.2981 31.0864 31.538 31.3061C31.7774 31.5257 31.9618 31.7891 32.0914 32.0951C32.2209 32.4011 32.286 32.7354 32.286 33.0963C32.286 33.6145 32.1601 34.0661 31.909 34.451C31.6574 34.836 31.3082 35.1265 30.8609 35.3227L32.439 38.7795C32.4544 38.819 32.4544 38.852 32.439 38.8798C32.423 38.9075 32.3958 38.9208 32.3563 38.9208H30.6839ZM29.471 34.0976C29.801 34.0976 30.0639 34.0075 30.2601 33.8267C30.4562 33.646 30.5543 33.4029 30.5543 33.0963C30.5543 32.7978 30.4562 32.5584 30.2601 32.3777C30.0639 32.1969 29.8005 32.1068 29.471 32.1068H28.0577C28.0108 32.1068 27.9868 32.1303 27.9868 32.1777V34.0267C27.9868 34.0736 28.0102 34.0976 28.0577 34.0976H29.471Z" fill="white"/>
<path d="M36.5143 38.9209C36.436 38.9209 36.3965 38.8819 36.3965 38.803V32.213C36.3965 32.1661 36.3731 32.1421 36.3256 32.1421H34.2997C34.2213 32.1421 34.1819 32.1032 34.1819 32.0253V30.7277C34.1819 30.6498 34.2213 30.6109 34.2997 30.6109H40.2239C40.3022 30.6109 40.3417 30.6498 40.3417 30.7277V32.0253C40.3417 32.1032 40.3022 32.1421 40.2239 32.1421H38.198C38.1511 32.1421 38.1271 32.1655 38.1271 32.213V38.803C38.1271 38.8819 38.0876 38.9209 38.0092 38.9209H36.5143Z" fill="white"/>
<path d="M46.8383 38.9208C46.1394 38.9208 45.5289 38.7598 45.007 38.4378C44.4845 38.1158 44.1215 37.629 43.9173 36.9775C43.8704 36.8363 43.833 36.6987 43.8053 36.5654C43.7776 36.4321 43.7563 36.2829 43.7403 36.1176C43.7243 35.9529 43.7125 35.7641 43.7051 35.5525C43.6971 35.3403 43.6934 35.0241 43.6934 34.7261C43.6934 34.4276 43.6971 34.1727 43.7051 33.9605C43.7131 33.7483 43.7248 33.5602 43.7403 33.3954C43.7557 33.2307 43.7776 33.0814 43.8053 32.9476C43.8325 32.8143 43.8698 32.6768 43.9173 32.5355C44.1215 31.892 44.4845 31.4068 45.007 31.0811C45.5289 30.7553 46.1394 30.5922 46.8383 30.5922C47.5372 30.5922 48.1477 30.7553 48.6696 31.0811C49.1916 31.4068 49.5546 31.892 49.7593 32.5355C49.8063 32.6768 49.8436 32.8143 49.8713 32.9476C49.8985 33.0814 49.9204 33.2301 49.9363 33.3954C49.9518 33.5602 49.9635 33.7489 49.9715 33.9605C49.979 34.1727 49.9833 34.4276 49.9833 34.7261C49.9833 35.0247 49.979 35.3408 49.9715 35.5525C49.9635 35.7647 49.9518 35.9529 49.9363 36.1176C49.9204 36.2823 49.899 36.4316 49.8713 36.5654C49.8436 36.6992 49.8068 36.8363 49.7593 36.9775C49.5552 37.6296 49.1921 38.1163 48.6696 38.4378C48.1477 38.7598 47.5372 38.9208 46.8383 38.9208ZM46.8383 37.3896C47.1683 37.3896 47.4391 37.3113 47.6508 37.154C47.863 36.9973 48.0117 36.7813 48.0986 36.5062C48.1221 36.4353 48.1418 36.3554 48.1573 36.2647C48.1727 36.1746 48.1866 36.0643 48.1983 35.9347C48.2101 35.8052 48.2181 35.6463 48.2218 35.4576C48.2255 35.2694 48.2277 34.9842 48.2277 34.725C48.2277 34.4659 48.2255 34.242 48.2218 34.0538C48.2175 33.8651 48.2101 33.7062 48.1983 33.5767C48.1866 33.4471 48.1727 33.3373 48.1573 33.2467C48.1413 33.1566 48.1221 33.0761 48.0986 33.0052C48.0123 32.7306 47.863 32.5147 47.6508 32.3574C47.4386 32.2007 47.1678 32.1218 46.8383 32.1218C46.5088 32.1218 46.2375 32.2001 46.0258 32.3574C45.8136 32.5147 45.6643 32.7306 45.578 33.0052C45.5545 33.0761 45.5348 33.1566 45.5193 33.2467C45.5033 33.3373 45.49 33.4471 45.4783 33.5767C45.4666 33.7062 45.4586 33.8651 45.4548 34.0538C45.4511 34.242 45.449 34.4659 45.449 34.725C45.449 34.9842 45.4506 35.2688 45.4548 35.4576C45.4586 35.6463 45.4666 35.8052 45.4783 35.9347C45.49 36.0643 45.5039 36.1741 45.5193 36.2647C45.5348 36.3554 45.5545 36.4353 45.578 36.5062C45.6643 36.7813 45.8136 36.9973 46.0258 37.154C46.238 37.3113 46.5088 37.3896 46.8383 37.3896Z" fill="white"/>
<path d="M51.715 30.7095C51.715 30.6312 51.7539 30.5917 51.8328 30.5917H53.2462C53.3325 30.5917 53.3992 30.6312 53.4466 30.7095L56.2733 36.0707H56.3319V30.7095C56.3319 30.6312 56.3708 30.5917 56.4498 30.5917H57.781C57.8594 30.5917 57.8988 30.6312 57.8988 30.7095V38.803C57.8988 38.8819 57.8594 38.9208 57.781 38.9208H56.3794C56.293 38.9208 56.2264 38.8819 56.1789 38.803L53.3405 33.4536H53.2819V38.803C53.2819 38.8819 53.2424 38.9208 53.1641 38.9208H51.8334C51.755 38.9208 51.7155 38.8819 51.7155 38.803V30.7095H51.715Z" fill="white"/>
<path d="M59.6292 30.7095C59.6292 30.6312 59.6682 30.5917 59.7471 30.5917H64.8822C64.9606 30.5917 65 30.6312 65 30.7095V31.9699C65 32.0482 64.9606 32.0877 64.8822 32.0877H61.4312C61.3843 32.0877 61.3603 32.1111 61.3603 32.1586V34.0688C61.3603 34.1157 61.3838 34.1397 61.4312 34.1397H64.3054C64.3837 34.1397 64.4232 34.1792 64.4232 34.2575V35.5061C64.4232 35.5845 64.3837 35.624 64.3054 35.624H61.4312C61.3843 35.624 61.3603 35.6474 61.3603 35.6949V37.3556C61.3603 37.4025 61.3838 37.4265 61.4312 37.4265H64.8822C64.9606 37.4265 65 37.4659 65 37.5443V38.8046C65 38.8835 64.9606 38.9225 64.8822 38.9225H59.7471C59.6687 38.9225 59.6292 38.8835 59.6292 38.8046V30.7095Z" fill="white"/>
<path d="M0.099696 44.611C0.0810364 44.5513 0.0655756 44.4931 0.0522472 44.4356C0.039452 44.378 0.0287894 44.3113 0.0218587 44.2351C0.0143948 44.1589 0.00853005 44.0698 0.00533125 43.9675C0.00159932 43.8651 0 43.7377 0 43.5852C0 43.4365 0.00159932 43.3101 0.00533125 43.2062C0.00906318 43.1022 0.0143948 43.0121 0.0218587 42.9359C0.0293225 42.8596 0.039452 42.793 0.0522472 42.7354C0.0650424 42.6778 0.0810364 42.6192 0.099696 42.5595C0.196193 42.2476 0.358799 42.0141 0.58698 41.86C0.815161 41.7059 1.09079 41.6286 1.41387 41.6286C1.71829 41.6286 1.98059 41.7017 2.20184 41.8477C2.42256 41.9938 2.58676 42.1937 2.69446 42.447C2.70565 42.4806 2.69605 42.5024 2.66673 42.5136L2.19331 42.7418C2.15972 42.7605 2.13573 42.7509 2.1208 42.7141C2.05789 42.5803 1.97153 42.4656 1.8617 42.3686C1.75241 42.2721 1.6026 42.2241 1.41334 42.2241C1.23154 42.2241 1.08546 42.2684 0.976167 42.3574C0.866874 42.4464 0.785839 42.5685 0.734125 42.7242C0.722929 42.7653 0.712799 42.8058 0.703736 42.8463C0.694673 42.8868 0.687209 42.9396 0.681344 43.0046C0.676013 43.0691 0.672281 43.1481 0.670148 43.2408C0.668016 43.3336 0.667483 43.4482 0.667483 43.5852C0.667483 43.726 0.668549 43.8417 0.670148 43.9323C0.671748 44.0229 0.67548 44.1008 0.681344 44.1658C0.686675 44.2308 0.69414 44.2842 0.703736 44.3268C0.712799 44.3695 0.723462 44.4089 0.734125 44.4462C0.785839 44.6019 0.866874 44.724 0.976167 44.813C1.08546 44.9021 1.23154 44.9463 1.41334 44.9463C1.6026 44.9463 1.75188 44.8983 1.8617 44.8018C1.97099 44.7053 2.05736 44.5902 2.1208 44.4569C2.13573 44.4196 2.15972 44.4105 2.19331 44.4292L2.66673 44.6574C2.69659 44.6685 2.70565 44.6909 2.69446 44.724C2.58676 44.9772 2.42256 45.1772 2.20184 45.3232C1.98112 45.4693 1.71829 45.5424 1.41387 45.5424C1.09079 45.5424 0.815161 45.465 0.58698 45.311C0.358799 45.1564 0.196193 44.9234 0.099696 44.611Z" fill="white"/>
<path d="M4.35343 45.5423C4.07887 45.5423 3.84376 45.4773 3.64916 45.3477C3.45404 45.2176 3.31969 45.0358 3.24558 44.8023C3.21573 44.7058 3.19333 44.6082 3.17894 44.5102C3.16401 44.4121 3.15655 44.2884 3.15655 44.1396C3.15655 43.9914 3.16401 43.8677 3.17894 43.7696C3.19387 43.6715 3.21573 43.574 3.24558 43.4775C3.31969 43.2434 3.45457 43.0616 3.64916 42.9321C3.84376 42.802 4.07887 42.7369 4.35343 42.7369C4.62426 42.7369 4.85724 42.802 5.05237 42.9321C5.24696 43.0622 5.38185 43.244 5.45595 43.4775C5.48581 43.574 5.50767 43.6715 5.52259 43.7696C5.53752 43.8683 5.54498 43.9914 5.54498 44.1396C5.54498 44.2884 5.53752 44.4115 5.52259 44.5102C5.50767 44.6082 5.48527 44.7058 5.45595 44.8023C5.38185 45.0364 5.24696 45.2182 5.05237 45.3477C4.85724 45.4773 4.62426 45.5423 4.35343 45.5423ZM4.35343 44.9857C4.47979 44.9857 4.58428 44.9548 4.66798 44.894C4.75168 44.8327 4.81353 44.7463 4.85458 44.6349C4.87697 44.5645 4.8919 44.4931 4.89936 44.4206C4.90682 44.3481 4.91056 44.2542 4.91056 44.1396C4.91056 44.0245 4.90682 43.9317 4.89936 43.8613C4.8919 43.791 4.87697 43.7184 4.85458 43.6443C4.81353 43.5329 4.75168 43.4465 4.66798 43.3852C4.58428 43.3239 4.47979 43.2935 4.35343 43.2935C4.22708 43.2935 4.12152 43.3239 4.03622 43.3852C3.95092 43.4465 3.88747 43.5329 3.84696 43.6443C3.82456 43.7184 3.80964 43.791 3.80217 43.8613C3.79471 43.9317 3.79098 44.0245 3.79098 44.1396C3.79098 44.2548 3.79471 44.3486 3.80217 44.4206C3.80964 44.4931 3.82456 44.5645 3.84696 44.6349C3.88801 44.7463 3.95092 44.8327 4.03622 44.894C4.12152 44.9548 4.22708 44.9857 4.35343 44.9857Z" fill="white"/>
<path d="M7.91103 45.481C7.87371 45.481 7.85558 45.4623 7.85558 45.4255V43.8779C7.85558 43.7035 7.81293 43.5622 7.72763 43.4545C7.64233 43.3469 7.51597 43.293 7.3491 43.293C7.18597 43.293 7.05961 43.3469 6.97058 43.4545C6.88155 43.5622 6.83676 43.7035 6.83676 43.8779V45.4255C6.83676 45.4629 6.8181 45.481 6.78132 45.481H6.26898C6.23166 45.481 6.21353 45.4623 6.21353 45.4255V42.8532C6.21353 42.8159 6.23219 42.7977 6.26898 42.7977H6.78132C6.8181 42.7977 6.83676 42.8164 6.83676 42.8532V43.0483H6.84209C6.90127 42.963 6.98977 42.8894 7.10653 42.8287C7.22328 42.7673 7.37096 42.7369 7.54903 42.7369C7.69404 42.7369 7.82253 42.762 7.93608 42.8121C8.04911 42.8622 8.14667 42.9321 8.22824 43.0211C8.30981 43.1101 8.37219 43.2152 8.41484 43.3357C8.45749 43.4561 8.47881 43.5889 8.47881 43.7339V45.4266C8.47881 45.4639 8.46015 45.4821 8.42337 45.4821H7.91103V45.481Z" fill="white"/>
<path d="M10.9624 45.481C10.9251 45.481 10.9069 45.4623 10.9069 45.4255V43.8779C10.9069 43.7035 10.8643 43.5622 10.779 43.4545C10.6937 43.3469 10.5673 43.293 10.4005 43.293C10.2373 43.293 10.111 43.3469 10.0219 43.4545C9.9329 43.5622 9.88812 43.7035 9.88812 43.8779V45.4255C9.88812 45.4629 9.86946 45.481 9.83267 45.481H9.32033C9.28301 45.481 9.26489 45.4623 9.26489 45.4255V42.8532C9.26489 42.8159 9.28355 42.7977 9.32033 42.7977H9.83267C9.86946 42.7977 9.88812 42.8164 9.88812 42.8532V43.0483H9.89345C9.95263 42.963 10.0411 42.8894 10.1579 42.8287C10.2746 42.7673 10.4223 42.7369 10.6004 42.7369C10.7454 42.7369 10.8739 42.762 10.9874 42.8121C11.1005 42.8622 11.198 42.9321 11.2796 43.0211C11.3612 43.1101 11.4235 43.2152 11.4662 43.3357C11.5088 43.4561 11.5302 43.5889 11.5302 43.7339V45.4266C11.5302 45.4639 11.5115 45.4821 11.4747 45.4821H10.9624V45.481Z" fill="white"/>
<path d="M13.3783 45.5423C13.0925 45.5423 12.8537 45.4762 12.6617 45.3445C12.4698 45.2128 12.3376 45.03 12.2635 44.7959C12.2342 44.7106 12.2112 44.6152 12.1947 44.5091C12.1782 44.4035 12.1702 44.2798 12.1702 44.1386C12.1702 43.9978 12.1777 43.8731 12.1921 43.7654C12.207 43.6577 12.2288 43.5612 12.2582 43.4759C12.3317 43.2418 12.4655 43.06 12.6591 42.9305C12.8526 42.8004 13.0829 42.7354 13.3505 42.7354C13.6288 42.7354 13.8634 42.8015 14.0548 42.9331C14.2457 43.0648 14.3784 43.2461 14.4531 43.4759C14.468 43.5244 14.4808 43.5724 14.492 43.6204C14.5032 43.6689 14.5122 43.7243 14.5197 43.7872C14.5272 43.8501 14.5325 43.9216 14.5362 44.0016C14.54 44.0815 14.5416 44.1753 14.5416 44.2825C14.5416 44.3198 14.5213 44.338 14.4803 44.338H12.8265C12.8041 44.338 12.7929 44.3492 12.7929 44.3715C12.7929 44.4126 12.7966 44.4494 12.8041 44.483C12.8116 44.5166 12.8206 44.548 12.8318 44.5779C12.9246 44.8487 13.125 44.9841 13.4332 44.9841C13.5851 44.9841 13.7115 44.9601 13.8117 44.9116C13.9119 44.8636 13.9956 44.8023 14.0623 44.7277C14.0921 44.6978 14.1199 44.6941 14.146 44.7165L14.4744 45.006C14.5005 45.0284 14.5021 45.0545 14.4797 45.0838C14.3646 45.2176 14.2142 45.3269 14.0287 45.4122C13.8442 45.4997 13.6267 45.5423 13.3783 45.5423ZM13.913 43.8437C13.913 43.7574 13.9018 43.6811 13.8794 43.6134C13.8421 43.5047 13.7771 43.4199 13.6848 43.3581C13.5921 43.2962 13.4822 43.2653 13.3564 43.2653C13.2263 43.2653 13.1149 43.2962 13.0221 43.3581C12.9294 43.4199 12.8643 43.5052 12.827 43.6134C12.8046 43.6811 12.7934 43.7579 12.7934 43.8437C12.7934 43.8661 12.8046 43.8773 12.827 43.8773H13.8794C13.9018 43.8773 13.913 43.8661 13.913 43.8437Z" fill="white"/>
<path d="M16.2622 45.5425C15.9914 45.5425 15.7584 45.4796 15.5633 45.3532C15.3681 45.2269 15.2322 45.0435 15.1538 44.802C15.0984 44.6351 15.0701 44.4144 15.0701 44.1393C15.0701 43.8647 15.0978 43.644 15.1538 43.4766C15.2317 43.2351 15.3681 43.0517 15.5633 42.9254C15.7579 42.799 15.9908 42.7361 16.2622 42.7361C16.4627 42.7361 16.6407 42.7734 16.7969 42.8475C16.9526 42.9216 17.0843 43.024 17.192 43.1535C17.2144 43.1834 17.2122 43.209 17.1867 43.2314L16.8359 43.5374C16.806 43.5598 16.7804 43.5561 16.758 43.5262C16.6914 43.4521 16.6199 43.3945 16.5437 43.3535C16.4675 43.3129 16.3736 43.2922 16.2627 43.2922C16.1438 43.2922 16.041 43.3209 15.9535 43.3785C15.8661 43.4361 15.8021 43.5241 15.7616 43.643C15.7392 43.7096 15.7243 43.7832 15.7168 43.8626C15.7093 43.9426 15.7056 44.0343 15.7056 44.1382C15.7056 44.2422 15.7093 44.335 15.7168 44.4165C15.7243 44.4981 15.7392 44.5722 15.7616 44.6394C15.8026 44.7545 15.8666 44.8409 15.9535 44.8985C16.0404 44.9561 16.1438 44.9848 16.2627 44.9848C16.3742 44.9848 16.468 44.9646 16.5437 44.9235C16.6199 44.883 16.6914 44.8254 16.758 44.7508C16.7804 44.7247 16.806 44.7231 16.8359 44.7455L17.1867 45.0515C17.209 45.0702 17.2106 45.0957 17.192 45.1293C17.0843 45.2557 16.9526 45.3559 16.7969 45.43C16.6413 45.5052 16.4627 45.5425 16.2622 45.5425Z" fill="white"/>
<path d="M18.6452 45.5146C18.3744 45.5146 18.1819 45.4495 18.0689 45.3194C17.9559 45.1893 17.8988 44.9926 17.8988 44.7292V43.3148C17.8988 43.2925 17.8876 43.2813 17.8652 43.2813H17.6872C17.6498 43.2813 17.6317 43.2626 17.6317 43.2258V42.8526C17.6317 42.8153 17.6504 42.7972 17.6872 42.7972H17.8652C17.8876 42.7972 17.8988 42.786 17.8988 42.7636V42.0284C17.8988 41.9916 17.9175 41.9729 17.9543 41.9729H18.4666C18.5034 41.9729 18.522 41.9916 18.522 42.0284V42.7636C18.522 42.786 18.5332 42.7972 18.5556 42.7972H18.9118C18.9485 42.7972 18.9672 42.8158 18.9672 42.8526V43.2258C18.9672 43.2631 18.9485 43.2813 18.9118 43.2813H18.5556C18.5332 43.2813 18.522 43.2925 18.522 43.3148V44.7069C18.522 44.8034 18.5423 44.8695 18.5834 44.9046C18.6244 44.9398 18.6873 44.9574 18.7726 44.9574H18.9118C18.9485 44.9574 18.9672 44.9761 18.9672 45.0129V45.458C18.9672 45.4954 18.9485 45.5135 18.9118 45.5135H18.6452V45.5146Z" fill="white"/>
<path d="M21.0284 45.4811C20.9911 45.4811 20.973 45.4624 20.973 45.4251V41.7449C20.973 41.7076 20.9916 41.6889 21.0284 41.6889H22.4481C22.6299 41.6889 22.7979 41.7177 22.9519 41.7753C23.106 41.8329 23.2377 41.9128 23.347 42.0152C23.4563 42.1176 23.5421 42.2412 23.6029 42.3863C23.6642 42.5313 23.6946 42.6912 23.6946 42.8661C23.6946 43.0447 23.6642 43.2062 23.6029 43.3518C23.5416 43.4968 23.4563 43.6205 23.347 43.7228C23.2377 43.8252 23.1055 43.9052 22.9519 43.9627C22.7979 44.0203 22.6299 44.0491 22.4481 44.0491H21.6634C21.641 44.0491 21.6298 44.0603 21.6298 44.0827V45.4246C21.6298 45.4619 21.6111 45.48 21.5743 45.48H21.0284V45.4811ZM22.4087 43.4547C22.6054 43.4547 22.7595 43.4019 22.8709 43.2958C22.9823 43.1902 23.0378 43.0479 23.0378 42.8698C23.0378 42.6955 22.9823 42.5542 22.8709 42.4465C22.7595 42.3388 22.6054 42.285 22.4087 42.285H21.6628C21.6404 42.285 21.6292 42.2962 21.6292 42.3186V43.4211C21.6292 43.4435 21.6404 43.4547 21.6628 43.4547H22.4087Z" fill="white"/>
<path d="M25.3542 45.5423C25.0685 45.5423 24.8296 45.4762 24.6377 45.3445C24.4458 45.2128 24.3135 45.03 24.2394 44.7959C24.2101 44.7106 24.1872 44.6152 24.1707 44.5091C24.1541 44.4035 24.1461 44.2798 24.1461 44.1386C24.1461 43.9978 24.1536 43.8731 24.168 43.7654C24.1829 43.6577 24.2048 43.5612 24.2341 43.4759C24.3077 43.2418 24.4415 43.06 24.635 42.9305C24.8286 42.8004 25.0589 42.7354 25.3265 42.7354C25.6048 42.7354 25.8394 42.8015 26.0308 42.9331C26.2216 43.0648 26.3544 43.2461 26.429 43.4759C26.4439 43.5244 26.4567 43.5724 26.4679 43.6204C26.4791 43.6689 26.4882 43.7243 26.4957 43.7872C26.5031 43.8501 26.5085 43.9216 26.5122 44.0016C26.5159 44.0815 26.5175 44.1753 26.5175 44.2825C26.5175 44.3198 26.4973 44.338 26.4562 44.338H24.8024C24.78 44.338 24.7688 44.3492 24.7688 44.3715C24.7688 44.4126 24.7726 44.4494 24.78 44.483C24.7875 44.5166 24.7966 44.548 24.8078 44.5779C24.9005 44.8487 25.101 44.9841 25.4091 44.9841C25.5611 44.9841 25.6874 44.9601 25.7877 44.9116C25.8879 44.8636 25.9716 44.8023 26.0382 44.7277C26.0681 44.6978 26.0958 44.6941 26.1219 44.7165L26.4503 45.006C26.4765 45.0284 26.4781 45.0545 26.4557 45.0838C26.3405 45.2176 26.1902 45.3269 26.0046 45.4122C25.8196 45.4997 25.6027 45.5423 25.3542 45.5423ZM25.8884 43.8437C25.8884 43.7574 25.8772 43.6811 25.8548 43.6134C25.8175 43.5047 25.7525 43.4199 25.6602 43.3581C25.5675 43.2962 25.4576 43.2653 25.3318 43.2653C25.2017 43.2653 25.0903 43.2962 24.9976 43.3581C24.9048 43.4199 24.8397 43.5052 24.8024 43.6134C24.78 43.6811 24.7688 43.7579 24.7688 43.8437C24.7688 43.8661 24.78 43.8773 24.8024 43.8773H25.8554C25.8778 43.8773 25.8884 43.8661 25.8884 43.8437Z" fill="white"/>
<path d="M28.2437 45.5423C27.9691 45.5423 27.734 45.4773 27.5394 45.3477C27.3443 45.2176 27.2099 45.0358 27.1358 44.8023C27.106 44.7058 27.0836 44.6082 27.0692 44.5102C27.0543 44.4121 27.0468 44.2884 27.0468 44.1396C27.0468 43.9914 27.0543 43.8677 27.0692 43.7696C27.0841 43.6715 27.106 43.574 27.1358 43.4775C27.2099 43.2434 27.3448 43.0616 27.5394 42.9321C27.734 42.802 27.9691 42.7369 28.2437 42.7369C28.5145 42.7369 28.7475 42.802 28.9426 42.9321C29.1372 43.0622 29.2721 43.244 29.3462 43.4775C29.3761 43.574 29.3979 43.6715 29.4128 43.7696C29.4278 43.8683 29.4352 43.9914 29.4352 44.1396C29.4352 44.2884 29.4278 44.4115 29.4128 44.5102C29.3979 44.6082 29.3755 44.7058 29.3462 44.8023C29.2721 45.0364 29.1372 45.2182 28.9426 45.3477C28.7475 45.4773 28.5145 45.5423 28.2437 45.5423ZM28.2437 44.9857C28.37 44.9857 28.4745 44.9548 28.5582 44.894C28.6419 44.8327 28.7038 44.7463 28.7448 44.6349C28.7672 44.5645 28.7821 44.4931 28.7896 44.4206C28.7971 44.3481 28.8008 44.2542 28.8008 44.1396C28.8008 44.0245 28.7971 43.9317 28.7896 43.8613C28.7821 43.791 28.7672 43.7184 28.7448 43.6443C28.7038 43.5329 28.6419 43.4465 28.5582 43.3852C28.4745 43.3239 28.37 43.2935 28.2437 43.2935C28.1173 43.2935 28.0118 43.3239 27.9265 43.3852C27.8412 43.4465 27.7777 43.5329 27.7372 43.6443C27.7148 43.7184 27.6999 43.791 27.6924 43.8613C27.685 43.9317 27.6812 44.0245 27.6812 44.1396C27.6812 44.2548 27.685 44.3486 27.6924 44.4206C27.6999 44.4931 27.7148 44.5645 27.7372 44.6349C27.7783 44.7463 27.8412 44.8327 27.9265 44.894C28.0118 44.9548 28.1173 44.9857 28.2437 44.9857Z" fill="white"/>
<path d="M30.1587 46.4834C30.1214 46.4834 30.1033 46.4648 30.1033 46.428V42.8539C30.1033 42.8166 30.122 42.7984 30.1587 42.7984H30.6711C30.7079 42.7984 30.7265 42.8171 30.7265 42.8539V43.0538H30.7319C30.7948 42.961 30.8838 42.8848 30.999 42.8256C31.1141 42.7664 31.2623 42.7366 31.4441 42.7366C31.6744 42.7366 31.869 42.7904 32.029 42.8981C32.1884 43.0058 32.3035 43.1674 32.3739 43.3827C32.4075 43.4867 32.4315 43.5933 32.4464 43.7026C32.4613 43.8119 32.4688 43.958 32.4688 44.1398C32.4688 44.3216 32.4613 44.4677 32.4464 44.577C32.4315 44.6863 32.4075 44.7934 32.3739 44.8968C32.3035 45.1122 32.1884 45.2738 32.029 45.3809C31.8696 45.4886 31.6744 45.5425 31.4441 45.5425C31.2623 45.5425 31.1136 45.5126 30.999 45.4534C30.8838 45.3943 30.7948 45.318 30.7319 45.2252H30.7265V46.428C30.7265 46.4653 30.7079 46.4834 30.6711 46.4834H30.1587ZM31.2837 44.9859C31.5396 44.9859 31.7048 44.8707 31.7789 44.6409C31.7976 44.578 31.8115 44.5092 31.8205 44.4351C31.8296 44.361 31.8344 44.2624 31.8344 44.1398C31.8344 44.0172 31.8296 43.9191 31.8205 43.845C31.8115 43.7709 31.7971 43.7021 31.7789 43.6392C31.7048 43.4089 31.5396 43.2942 31.2837 43.2942C31.024 43.2942 30.8566 43.4094 30.7825 43.6392C30.7638 43.7021 30.75 43.7709 30.7409 43.845C30.7319 43.9191 30.7271 44.0177 30.7271 44.1398C30.7271 44.2624 30.7319 44.3605 30.7409 44.4351C30.75 44.5092 30.7638 44.578 30.7825 44.6409C30.8566 44.8707 31.0235 44.9859 31.2837 44.9859Z" fill="white"/>
<path d="M33.8615 45.5146C33.5981 45.5146 33.4094 45.4517 33.2963 45.3253C33.1833 45.199 33.1263 45.006 33.1263 44.7464V41.7512C33.1263 41.7139 33.1449 41.6958 33.1817 41.6958H33.6941C33.7314 41.6958 33.7495 41.7144 33.7495 41.7512V44.7133C33.7495 44.8061 33.7682 44.87 33.8049 44.9052C33.8423 44.9404 33.9014 44.958 33.983 44.958H34.1056C34.143 44.958 34.1611 44.9767 34.1611 45.0135V45.4586C34.1611 45.4959 34.1424 45.5141 34.1056 45.5141H33.8615V45.5146Z" fill="white"/>
<path d="M35.8213 45.5423C35.5355 45.5423 35.2966 45.4762 35.1047 45.3445C34.9128 45.2128 34.7806 45.03 34.7065 44.7959C34.6771 44.7106 34.6542 44.6152 34.6377 44.5091C34.6212 44.4035 34.6132 44.2798 34.6132 44.1386C34.6132 43.9978 34.6206 43.8731 34.635 43.7654C34.65 43.6577 34.6718 43.5612 34.7011 43.4759C34.7747 43.2418 34.908 43.06 35.1021 42.9305C35.2956 42.8004 35.5259 42.7354 35.7935 42.7354C36.0718 42.7354 36.3064 42.8015 36.4978 42.9331C36.6887 43.0648 36.8214 43.2461 36.896 43.4759C36.911 43.5244 36.9238 43.5724 36.935 43.6204C36.9462 43.6689 36.9552 43.7243 36.9627 43.7872C36.9702 43.8501 36.9755 43.9216 36.9792 44.0016C36.983 44.0815 36.9845 44.1753 36.9845 44.2825C36.9845 44.3198 36.9643 44.338 36.9232 44.338H35.2695C35.2471 44.338 35.2359 44.3492 35.2359 44.3715C35.2359 44.4126 35.2396 44.4494 35.2471 44.483C35.2545 44.5166 35.2636 44.548 35.2748 44.5779C35.3676 44.8487 35.568 44.9841 35.8762 44.9841C36.0281 44.9841 36.1545 44.9601 36.2547 44.9116C36.3549 44.8636 36.4386 44.8023 36.5053 44.7277C36.5351 44.6978 36.5628 44.6941 36.589 44.7165L36.9174 45.006C36.9435 45.0284 36.9451 45.0545 36.9227 45.0838C36.8075 45.2176 36.6572 45.3269 36.4717 45.4122C36.2867 45.4997 36.0697 45.5423 35.8213 45.5423ZM36.3555 43.8437C36.3555 43.7574 36.3443 43.6811 36.3219 43.6134C36.2845 43.5047 36.2195 43.4199 36.1267 43.3581C36.034 43.2962 35.9241 43.2653 35.7983 43.2653C35.6682 43.2653 35.5568 43.2962 35.4641 43.3581C35.3713 43.4199 35.3062 43.5052 35.2695 43.6134C35.2471 43.6811 35.2359 43.7579 35.2359 43.8437C35.2359 43.8661 35.2471 43.8773 35.2695 43.8773H36.3219C36.3443 43.8773 36.3555 43.8661 36.3555 43.8437Z" fill="white"/>
<path d="M40.5698 45.4812C40.5325 45.4812 40.5143 45.4625 40.5143 45.4258V45.2306H40.509C40.4461 45.3234 40.3512 45.3986 40.2248 45.4561C40.0985 45.5137 39.9407 45.5425 39.7514 45.5425C39.6288 45.5425 39.5131 45.526 39.4033 45.4924C39.294 45.4593 39.198 45.4092 39.1164 45.3426C39.0349 45.2759 38.9698 45.1917 38.9213 45.0899C38.8728 44.988 38.8488 44.867 38.8488 44.7263C38.8488 44.4341 38.9442 44.2198 39.1356 44.0828C39.3265 43.9458 39.5893 43.8775 39.9236 43.8775H40.469C40.4914 43.8775 40.5026 43.8663 40.5026 43.8439V43.7149C40.5026 43.5577 40.4599 43.4436 40.3746 43.3721C40.2893 43.3012 40.1331 43.2655 39.9071 43.2655C39.7546 43.2655 39.6304 43.2831 39.5339 43.3183C39.4374 43.3535 39.3574 43.3972 39.2945 43.4489C39.2609 43.475 39.2348 43.4713 39.2167 43.4377L39.0109 43.0704C38.9922 43.0405 38.996 43.0165 39.0221 42.9979C39.1298 42.92 39.2593 42.8571 39.4118 42.8086C39.5637 42.7606 39.7514 42.7361 39.9743 42.7361C40.3826 42.7361 40.6711 42.8102 40.8401 42.9589C41.0091 43.1077 41.0933 43.3449 41.0933 43.6717V45.4258C41.0933 45.4631 41.0746 45.4812 41.0379 45.4812H40.5698ZM39.9076 45.036C40.1006 45.036 40.2483 44.9987 40.3501 44.9246C40.4519 44.8505 40.5031 44.7353 40.5031 44.5797V44.3739C40.5031 44.3515 40.4919 44.3403 40.4695 44.3403H40.0244C39.8239 44.3403 39.6773 44.3691 39.5845 44.4267C39.4918 44.4842 39.4454 44.5759 39.4454 44.7023C39.4454 44.9246 39.5995 45.036 39.9076 45.036Z" fill="white"/>
<path d="M43.582 45.481C43.5447 45.481 43.5266 45.4623 43.5266 45.4255V43.8779C43.5266 43.7035 43.4839 43.5622 43.3986 43.4545C43.3133 43.3469 43.187 43.293 43.0201 43.293C42.857 43.293 42.7306 43.3469 42.6416 43.4545C42.5525 43.5622 42.5077 43.7035 42.5077 43.8779V45.4255C42.5077 45.4629 42.4891 45.481 42.4523 45.481H41.94C41.9026 45.481 41.8845 45.4623 41.8845 45.4255V42.8532C41.8845 42.8159 41.9032 42.7977 41.94 42.7977H42.4523C42.4896 42.7977 42.5077 42.8164 42.5077 42.8532V43.0483H42.5131C42.5723 42.963 42.6608 42.8894 42.7775 42.8287C42.8943 42.7673 43.0419 42.7369 43.22 42.7369C43.3645 42.7369 43.4935 42.762 43.6071 42.8121C43.7201 42.8622 43.8177 42.9321 43.8992 43.0211C43.9808 43.1101 44.0432 43.2152 44.0858 43.3357C44.1285 43.4561 44.1498 43.5889 44.1498 43.7339V45.4266C44.1498 45.4639 44.1311 45.4821 44.0944 45.4821H43.582V45.481Z" fill="white"/>
<path d="M46.5882 45.4811C46.5509 45.4811 46.5328 45.4624 46.5328 45.4256V45.2252H46.5275C46.4645 45.3179 46.375 45.3942 46.2604 45.4533C46.1452 45.5125 45.997 45.5424 45.8152 45.5424C45.5849 45.5424 45.3903 45.4885 45.2309 45.3808C45.0715 45.2731 44.9563 45.1116 44.8859 44.8967C44.8524 44.7928 44.8284 44.6862 44.8134 44.5769C44.7985 44.4676 44.791 44.3215 44.791 44.1397C44.791 43.9579 44.7985 43.8124 44.8134 43.7025C44.8284 43.5932 44.8524 43.4866 44.8859 43.3827C44.9563 43.1673 45.0715 43.0057 45.2309 42.898C45.3903 42.7903 45.5854 42.7365 45.8152 42.7365C45.997 42.7365 46.1457 42.7663 46.2604 42.8255C46.3755 42.8847 46.4645 42.9609 46.5275 43.0537H46.5328V41.7507C46.5328 41.7134 46.5514 41.6953 46.5882 41.6953H47.1006C47.1374 41.6953 47.156 41.7139 47.156 41.7507V45.4251C47.156 45.4624 47.1374 45.4805 47.1006 45.4805H46.5882V45.4811ZM45.9762 44.9858C46.2358 44.9858 46.4027 44.8706 46.4773 44.6408C46.496 44.5779 46.5099 44.5092 46.5189 44.4351C46.528 44.3609 46.5328 44.2623 46.5328 44.1397C46.5328 44.0171 46.528 43.919 46.5189 43.8449C46.5099 43.7708 46.4955 43.702 46.4773 43.6391C46.4032 43.4088 46.2358 43.2942 45.9762 43.2942C45.7203 43.2942 45.555 43.4093 45.4809 43.6391C45.4623 43.702 45.4484 43.7708 45.4393 43.8449C45.4303 43.919 45.4255 44.0176 45.4255 44.1397C45.4255 44.2623 45.4303 44.3604 45.4393 44.4351C45.4484 44.5092 45.4623 44.5779 45.4809 44.6408C45.5545 44.8706 45.7198 44.9858 45.9762 44.9858Z" fill="white"/>
<path d="M49.35 45.4811C49.3127 45.4811 49.2946 45.4624 49.2946 45.4251V41.7449C49.2946 41.7076 49.3132 41.6889 49.35 41.6889H50.7697C50.9515 41.6889 51.1195 41.7177 51.2736 41.7753C51.4276 41.8329 51.5593 41.9128 51.6691 42.0152C51.7784 42.1176 51.8637 42.2412 51.925 42.3863C51.9863 42.5313 52.0167 42.6912 52.0167 42.8661C52.0167 43.0447 51.9863 43.2062 51.925 43.3518C51.8637 43.4968 51.7784 43.6205 51.6691 43.7228C51.5598 43.8252 51.4276 43.9052 51.2736 43.9627C51.1195 44.0203 50.9515 44.0491 50.7697 44.0491H49.985C49.9626 44.0491 49.9514 44.0603 49.9514 44.0827V45.4246C49.9514 45.4619 49.9327 45.48 49.8959 45.48H49.35V45.4811ZM50.7308 43.4547C50.9275 43.4547 51.0816 43.4019 51.193 43.2958C51.3045 43.1902 51.3599 43.0479 51.3599 42.8698C51.3599 42.6955 51.3045 42.5542 51.193 42.4465C51.0816 42.3388 50.9275 42.285 50.7308 42.285H49.985C49.9626 42.285 49.9514 42.2962 49.9514 42.3186V43.4211C49.9514 43.4435 49.9626 43.4547 49.985 43.4547H50.7308Z" fill="white"/>
<path d="M53.3363 45.5146C53.0729 45.5146 52.8842 45.4517 52.7711 45.3253C52.6581 45.199 52.6011 45.006 52.6011 44.7464V41.7512C52.6011 41.7139 52.6197 41.6958 52.6565 41.6958H53.1689C53.2062 41.6958 53.2243 41.7144 53.2243 41.7512V44.7133C53.2243 44.8061 53.243 44.87 53.2798 44.9052C53.3171 44.9404 53.3762 44.958 53.4578 44.958H53.5804C53.6178 44.958 53.6359 44.9767 53.6359 45.0135V45.4586C53.6359 45.4959 53.6172 45.5141 53.5804 45.5141H53.3363V45.5146Z" fill="white"/>
<path d="M55.8307 45.4812C55.7934 45.4812 55.7753 45.4625 55.7753 45.4258V45.2306H55.7699C55.707 45.3234 55.6121 45.3986 55.4858 45.4561C55.3594 45.5137 55.2016 45.5425 55.0123 45.5425C54.8897 45.5425 54.774 45.526 54.6642 45.4924C54.5549 45.4593 54.459 45.4092 54.3774 45.3426C54.2958 45.2759 54.2308 45.1917 54.1823 45.0899C54.1337 44.988 54.1097 44.867 54.1097 44.7263C54.1097 44.4341 54.2052 44.2198 54.3966 44.0828C54.5874 43.9458 54.8503 43.8775 55.1845 43.8775H55.7299C55.7523 43.8775 55.7635 43.8663 55.7635 43.8439V43.7149C55.7635 43.5577 55.7209 43.4436 55.6356 43.3721C55.5503 43.3012 55.3941 43.2655 55.168 43.2655C55.0155 43.2655 54.8913 43.2831 54.7948 43.3183C54.6983 43.3535 54.6184 43.3972 54.5554 43.4489C54.5219 43.475 54.4957 43.4713 54.4776 43.4377L54.2718 43.0704C54.2532 43.0405 54.2569 43.0165 54.283 42.9979C54.3907 42.92 54.5203 42.8571 54.6727 42.8086C54.8247 42.7606 55.0123 42.7361 55.2352 42.7361C55.6436 42.7361 55.932 42.8102 56.101 42.9589C56.27 43.1077 56.3542 43.3449 56.3542 43.6717V45.4258C56.3542 45.4631 56.3356 45.4812 56.2988 45.4812H55.8307ZM55.168 45.036C55.361 45.036 55.5087 44.9987 55.6105 44.9246C55.7123 44.8505 55.7635 44.7353 55.7635 44.5797V44.3739C55.7635 44.3515 55.7523 44.3403 55.7299 44.3403H55.2848C55.0843 44.3403 54.9377 44.3691 54.8449 44.4267C54.7522 44.4842 54.7058 44.5759 54.7058 44.7023C54.7058 44.9246 54.8599 45.036 55.168 45.036Z" fill="white"/>
<path d="M58.1915 45.5425C57.9207 45.5425 57.6877 45.4796 57.4925 45.3532C57.2974 45.2269 57.1615 45.0435 57.0831 44.802C57.0277 44.6351 56.9994 44.4144 56.9994 44.1393C56.9994 43.8647 57.0271 43.644 57.0831 43.4766C57.1609 43.2351 57.2974 43.0517 57.4925 42.9254C57.6877 42.799 57.9201 42.7361 58.1915 42.7361C58.3919 42.7361 58.57 42.7734 58.7262 42.8475C58.8819 42.9216 59.0136 43.024 59.1218 43.1535C59.1442 43.1834 59.1421 43.209 59.1165 43.2314L58.7657 43.5374C58.7358 43.5598 58.7102 43.5561 58.6878 43.5262C58.6212 43.4521 58.5497 43.3945 58.4735 43.3535C58.3973 43.3129 58.3034 43.2922 58.1926 43.2922C58.0737 43.2922 57.9708 43.3209 57.8833 43.3785C57.7959 43.4361 57.7319 43.5241 57.6914 43.643C57.669 43.7096 57.6541 43.7832 57.6471 43.8626C57.6397 43.9426 57.636 44.0343 57.636 44.1382C57.636 44.2422 57.6397 44.335 57.6471 44.4165C57.6546 44.4981 57.6695 44.5722 57.6914 44.6394C57.7325 44.7545 57.7964 44.8409 57.8833 44.8985C57.9708 44.9561 58.0737 44.9848 58.1926 44.9848C58.304 44.9848 58.3978 44.9646 58.4735 44.9235C58.5497 44.883 58.6212 44.8254 58.6878 44.7508C58.7102 44.7247 58.7358 44.7231 58.7657 44.7455L59.1165 45.0515C59.1389 45.0702 59.1405 45.0957 59.1218 45.1293C59.0141 45.2557 58.8824 45.3559 58.7262 45.43C58.57 45.5052 58.3919 45.5425 58.1915 45.5425Z" fill="white"/>
<path d="M60.8522 45.5423C60.5665 45.5423 60.3276 45.4762 60.1357 45.3445C59.9438 45.2128 59.8116 45.03 59.7375 44.7959C59.7081 44.7106 59.6852 44.6152 59.6687 44.5091C59.6522 44.4035 59.6442 44.2798 59.6442 44.1386C59.6442 43.9978 59.6516 43.8731 59.666 43.7654C59.6809 43.6577 59.7028 43.5612 59.7321 43.4759C59.8057 43.2418 59.939 43.06 60.133 42.9305C60.3266 42.8004 60.5569 42.7354 60.8245 42.7354C61.1028 42.7354 61.3374 42.8015 61.5288 42.9331C61.7197 43.0648 61.8524 43.2461 61.927 43.4759C61.942 43.5244 61.9548 43.5724 61.966 43.6204C61.9772 43.6689 61.9862 43.7243 61.9937 43.7872C62.0011 43.8501 62.0065 43.9216 62.0102 44.0016C62.0139 44.0815 62.0155 44.1753 62.0155 44.2825C62.0155 44.3198 61.9953 44.338 61.9542 44.338H60.3004C60.2781 44.338 60.2669 44.3492 60.2669 44.3715C60.2669 44.4126 60.2706 44.4494 60.2781 44.483C60.2855 44.5166 60.2946 44.548 60.3058 44.5779C60.3985 44.8487 60.599 44.9841 60.9072 44.9841C61.0591 44.9841 61.1855 44.9601 61.2857 44.9116C61.3859 44.8636 61.4696 44.8023 61.5363 44.7277C61.5661 44.6978 61.5938 44.6941 61.62 44.7165L61.9484 45.006C61.9745 45.0284 61.9761 45.0545 61.9537 45.0838C61.8385 45.2176 61.6882 45.3269 61.5027 45.4122C61.3182 45.4997 61.1012 45.5423 60.8522 45.5423ZM61.387 43.8437C61.387 43.7574 61.3758 43.6811 61.3534 43.6134C61.3161 43.5047 61.251 43.4199 61.1583 43.3581C61.0655 43.2962 60.9557 43.2653 60.8299 43.2653C60.6998 43.2653 60.5883 43.2962 60.4956 43.3581C60.4028 43.4199 60.3378 43.5052 60.301 43.6134C60.2786 43.6811 60.2674 43.7579 60.2674 43.8437C60.2674 43.8661 60.2786 43.8773 60.301 43.8773H61.3534C61.3758 43.8773 61.387 43.8661 61.387 43.8437Z" fill="white"/>
<path d="M63.6806 45.5425C63.406 45.5425 63.1731 45.4983 62.9817 45.4087C62.7903 45.3197 62.6394 45.2232 62.528 45.1192C62.5018 45.0931 62.5018 45.0675 62.528 45.0414L62.8452 44.7071C62.8713 44.681 62.8969 44.681 62.923 44.7071C63.0195 44.7961 63.1389 44.8697 63.2824 44.9267C63.4252 44.9843 63.567 45.0131 63.7083 45.0131C63.8752 45.0131 63.9994 44.9833 64.0815 44.9241C64.1631 44.8649 64.2041 44.7887 64.2041 44.6959C64.2041 44.6143 64.1737 44.5493 64.1124 44.5008C64.0511 44.4528 63.9333 44.4192 63.759 44.4005L63.4695 44.3728C63.1949 44.343 62.9886 44.2614 62.8516 44.1276C62.714 43.9938 62.6458 43.812 62.6458 43.5822C62.6458 43.3225 62.7348 43.1162 62.9129 42.9643C63.091 42.8123 63.349 42.7361 63.687 42.7361C63.8987 42.7361 64.0895 42.7665 64.2606 42.8278C64.4313 42.8891 64.5763 42.968 64.6952 43.0645C64.725 43.0869 64.7287 43.113 64.7063 43.1423L64.4334 43.4708C64.411 43.4969 64.3849 43.5006 64.3555 43.4819C64.2702 43.4228 64.1652 43.3705 64.041 43.3263C63.9168 43.2815 63.7878 43.2596 63.6539 43.2596C63.5201 43.2596 63.4194 43.2858 63.3506 43.3375C63.2818 43.3897 63.2477 43.4564 63.2477 43.5379C63.2477 43.6158 63.2776 43.6781 63.3367 43.7245C63.3959 43.7709 63.5132 43.8034 63.6875 43.8221L63.977 43.8498C64.2591 43.8797 64.468 43.9623 64.6035 44.0977C64.7389 44.2331 64.8066 44.4123 64.8066 44.6351C64.8066 44.9022 64.7117 45.1203 64.5224 45.2893C64.3321 45.4583 64.0522 45.5425 63.6806 45.5425Z" fill="white"/>
</svg>
