<svg width="29" height="28" viewBox="0 0 29 28" fill="none" xmlns="http://www.w3.org/2000/svg">
<g clip-path="url(#clip0_814_2441)">
<path d="M16.121 12.48C15.9334 12.2925 15.6791 12.1872 15.414 12.1872C15.1488 12.1872 14.8945 12.2925 14.707 12.48L14 13.186C13.8155 13.377 13.5948 13.5294 13.3508 13.6342C13.1068 13.739 12.8443 13.7942 12.5788 13.7965C12.3132 13.7988 12.0498 13.7482 11.8041 13.6476C11.5583 13.5471 11.335 13.3986 11.1472 13.2108C10.9594 13.023 10.8109 12.7997 10.7103 12.5539C10.6098 12.3081 10.5592 12.0447 10.5615 11.7792C10.5638 11.5136 10.6189 11.2512 10.7238 11.0072C10.8286 10.7632 10.9809 10.5425 11.172 10.358L16.802 4.72599C18.1349 4.42281 19.5295 4.54759 20.7874 5.08256C22.0453 5.61754 23.1026 6.53549 23.8088 7.70588C24.5151 8.87627 24.8344 10.2395 24.7213 11.6018C24.6082 12.9641 24.0685 14.2561 23.179 15.294L21.071 17.429L16.121 12.479V12.48ZM5.16096 6.46799C6.19572 5.43337 7.54918 4.77797 9.00252 4.60775C10.4559 4.43754 11.9241 4.76246 13.17 5.52999L9.75696 8.94399C9.01776 9.68172 8.59639 10.6793 8.5829 11.7235C8.5694 12.7678 8.96485 13.7759 9.68474 14.5325C10.4046 15.2891 11.3919 15.7341 12.4355 15.7725C13.4792 15.8109 14.4964 15.4396 15.27 14.738L15.414 14.601L19.657 18.843L15.414 23.086C15.0389 23.4609 14.5303 23.6716 14 23.6716C13.4696 23.6716 12.961 23.4609 12.586 23.086L5.15996 15.66C3.94109 14.441 3.25635 12.7878 3.25635 11.064C3.25635 9.34018 3.94109 7.68696 5.15996 6.46799H5.16096Z" fill="#2C3862"/>
</g>
<defs>
<clipPath id="clip0_814_2441">
<rect width="24" height="24" fill="white" transform="translate(2 2)"/>
</clipPath>
</defs>
</svg>
