<svg width="48" height="48" viewBox="0 0 48 48" fill="none" xmlns="http://www.w3.org/2000/svg">
<path fill-rule="evenodd" clip-rule="evenodd" d="M24 3.99988C13.8954 3.99988 6 11.8954 6 22C6 27.3996 9.59524 33.8324 16.6558 41.4727C16.8342 41.6657 17.0201 41.8517 17.2132 42.0301C21.2693 45.7784 27.5961 45.5288 31.3444 41.4726L31.9742 40.784C38.618 33.443 42 27.2377 42.0002 22.0001C42.0002 11.8954 34.1046 3.99988 24 3.99988ZM24 7.99988C31.8955 7.99988 38.0002 14.1046 38.0002 22C38 26.0097 35.0474 31.4272 29.0155 38.0922L28.3997 38.7655C26.1577 41.1916 22.3616 41.3413 19.9279 39.0924C19.8121 38.9853 19.7005 38.8738 19.5935 38.7579C13.1545 31.7902 10 26.146 10 22C10 14.1045 16.1046 7.99988 24 7.99988Z" fill="#44C1EF"/>
<g opacity="0.5">
<path fill-rule="evenodd" clip-rule="evenodd" d="M24 14C19.5817 14 16 17.5817 16 22C16 26.4183 19.5817 30 24 30C28.4183 30 32 26.4183 32 22C32 17.5817 28.4183 14 24 14ZM24 18C26.2091 18 28 19.7909 28 22C28 24.2091 26.2091 26 24 26C21.7909 26 20 24.2091 20 22C20 19.7909 21.7909 18 24 18Z" fill="#44C1EF"/>
</g>
</svg>
