<svg width="24" height="32" viewBox="0 0 24 32" fill="none" xmlns="http://www.w3.org/2000/svg">
<path d="M20.8829 2.37466H17.8501V3.40404C17.848 5.37945 16.2469 6.98054 14.2715 6.98259H8.96585C6.99044 6.98054 5.38934 5.37945 5.38729 3.40404V2.37466H2.35451C1.05464 2.37637 0.00170765 3.42931 0 4.72917V29.6455C0.00136612 30.9454 1.05464 31.9986 2.35451 32H20.8829C22.1827 31.9986 23.236 30.9454 23.2374 29.6455V4.72917C23.236 3.42931 22.1827 2.37637 20.8829 2.37466ZM16.9843 15.7319L10.6332 21.9324C10.3955 22.1643 10.0161 22.1643 9.77835 21.9324L6.25307 18.4904C6.01127 18.2544 6.00649 17.8668 6.24283 17.625C6.47883 17.3832 6.86646 17.3784 7.10826 17.6148L10.2059 20.639L16.1291 14.8559C16.3709 14.6199 16.7585 14.6243 16.9945 14.8661C17.2309 15.1083 17.2261 15.4956 16.9843 15.7319Z" fill="#F7BF23"/>
<path d="M8.96584 5.75854H14.2715C15.5714 5.75717 16.6246 4.70389 16.626 3.40403V2.37466H14.6298C14.3425 2.37466 14.0939 2.17452 14.0321 1.89378C13.791 0.796448 12.7763 0 11.6188 0C10.4614 0 9.44637 0.796448 9.20559 1.89413C9.14411 2.17486 8.89514 2.375 8.60791 2.375H6.61133V3.40437C6.61304 4.70389 7.66631 5.75717 8.96584 5.75854Z" fill="#F7BF23"/>
</svg>
