<svg width="18" height="18" viewBox="0 0 18 18" fill="none" xmlns="http://www.w3.org/2000/svg">
<path d="M10.6976 6.7074V9.16962H12.9051C13.0749 9.16962 13.1598 9.33943 13.1598 9.50924L12.8202 11.1224C12.8202 11.2073 12.6504 11.2922 12.5655 11.2922H10.6976V17.4902H8.15046V11.3771H6.70709C6.53728 11.3771 6.45238 11.2922 6.45238 11.1224V9.50924C6.45238 9.33943 6.53728 9.25453 6.70709 9.25453H8.15046V6.45269C8.15046 5.00932 9.25421 3.90557 10.6976 3.90557H12.99C13.1598 3.90557 13.2447 3.99047 13.2447 4.16028V6.19798C13.2447 6.36779 13.1598 6.45269 12.99 6.45269H10.9523C10.7825 6.45269 10.6976 6.53759 10.6976 6.7074Z" stroke="#44C1EF" stroke-miterlimit="10" stroke-linecap="round"/>
<path d="M11.547 17.4902H6.45271C2.20751 17.4902 0.509425 15.7922 0.509425 11.547V6.45271C0.509425 2.20751 2.20751 0.509425 6.45271 0.509425H11.547C15.7922 0.509425 17.4902 2.20751 17.4902 6.45271V11.547C17.4902 15.7922 15.7922 17.4902 11.547 17.4902Z" stroke="#44C1EF" stroke-linecap="round" stroke-linejoin="round"/>
</svg>
