<svg width="24" height="24" viewBox="0 0 24 24" fill="none" xmlns="http://www.w3.org/2000/svg">
<path d="M19 2.99437H14.82C14.4 1.83655 13.3 0.99813 12 0.99813C10.7 0.99813 9.60002 1.83655 9.18002 2.99437H5.00002C3.90002 2.99437 3.00002 3.89267 3.00002 4.9906V18.9643C3.00002 20.0622 3.90002 20.9605 5.00002 20.9605H19C20.1 20.9605 21 20.0622 21 18.9643V4.9906C21 3.89267 20.1 2.99437 19 2.99437ZM12 2.99437C12.55 2.99437 13 3.44352 13 3.99248C13 4.54145 12.55 4.9906 12 4.9906C11.45 4.9906 11 4.54145 11 3.99248C11 3.44352 11.45 2.99437 12 2.99437ZM12 6.98684C13.66 6.98684 15 8.32432 15 9.98119C15 11.6381 13.66 12.9755 12 12.9755C10.34 12.9755 9.00002 11.6381 9.00002 9.98119C9.00002 8.32432 10.34 6.98684 12 6.98684ZM18 18.9643H6.00002V17.5669C6.00002 15.5707 10 14.4727 12 14.4727C14 14.4727 18 15.5707 18 17.5669V18.9643Z" fill="white"/>
</svg>
