<svg width="65" height="47" viewBox="0 0 65 47" fill="none" xmlns="http://www.w3.org/2000/svg">
<path d="M44.7063 10.6984V12.1672C44.7063 12.7371 44.6674 13.2974 44.5911 13.8465C44.4099 15.1644 44.0169 16.4157 43.4486 17.5635C42.8526 18.7668 42.0646 19.8571 41.1236 20.7949C40.3842 21.5322 39.5498 22.1746 38.6414 22.7029C37.3538 23.4525 35.9154 23.9718 34.3838 24.2058C33.7781 24.2986 33.1581 24.3466 32.5263 24.3466C27.7377 24.3466 23.5947 21.5828 21.6045 17.563H26.1906C27.7169 19.3533 29.9886 20.4888 32.5258 20.4888C33.1645 20.4888 33.7861 20.4169 34.3832 20.2804C36.0477 19.9013 37.5218 19.0233 38.6408 17.812C38.716 17.7309 38.7901 17.6478 38.8615 17.563C39.754 16.5159 40.3922 15.2449 40.6785 13.846H20.4626C20.3869 13.2969 20.3474 12.7366 20.3474 12.1666C20.3474 11.6698 20.3773 11.1793 20.4354 10.6979C20.6369 9.01955 21.1796 7.4468 21.9927 6.05C22.456 5.25296 23.0072 4.51351 23.6342 3.84442C25.7385 1.5962 28.6862 0.146612 31.9724 0H34.3838V3.84442H32.5263C30.349 3.84442 28.3668 4.68091 26.8836 6.05C25.5775 7.25488 24.6583 8.87347 24.3337 10.6979L44.7063 10.6984Z" fill="white"/>
<path d="M44.7063 0.000978547V6.05044H41.1236V3.8454H38.6414V0.000978547H44.7063Z" fill="#44C1EF"/>
<path d="M3.18963 38.9209C2.87562 38.9209 2.56747 38.8916 2.26518 38.8324C1.96289 38.7737 1.6782 38.6954 1.4111 38.5967C1.144 38.4986 0.898759 38.383 0.674843 38.2491C0.450927 38.1159 0.260599 37.9746 0.103324 37.8253C0.0404146 37.7624 0.0366826 37.6957 0.0915953 37.6248L0.986726 36.6002C1.03364 36.5372 1.09282 36.5335 1.16319 36.5884C1.43029 36.8006 1.74004 36.9909 2.09351 37.1599C2.44698 37.3289 2.83563 37.4132 3.25947 37.4132C3.68331 37.4132 4.00746 37.3247 4.23137 37.1482C4.45529 36.9717 4.56725 36.742 4.56725 36.4594C4.56725 36.2238 4.48088 36.0313 4.30815 35.8826C4.13541 35.7333 3.80967 35.6277 3.33038 35.5643L2.90654 35.5056C2.08978 35.3958 1.46388 35.1463 1.02778 34.7576C0.592207 34.369 0.374156 33.8172 0.374156 33.1028C0.374156 32.7339 0.440797 32.398 0.574614 32.0957C0.707897 31.7934 0.898759 31.5365 1.14613 31.3243C1.39351 31.1121 1.69153 30.9473 2.04126 30.8295C2.39047 30.7117 2.78125 30.6531 3.21309 30.6531C3.74676 30.6531 4.2495 30.7277 4.72079 30.877C5.19208 31.0262 5.5962 31.2304 5.9342 31.4895C6.00511 31.5365 6.01257 31.5956 5.95766 31.666L5.239 32.7376C5.19208 32.8005 5.13664 32.8122 5.07426 32.7728C4.76824 32.5686 4.46382 32.4156 4.16153 32.3132C3.85925 32.2114 3.5431 32.1602 3.21309 32.1602C2.85962 32.1602 2.59252 32.2429 2.41232 32.4076C2.23159 32.5723 2.14149 32.7808 2.14149 33.0319C2.14149 33.2595 2.23372 33.4483 2.41819 33.5975C2.60265 33.7468 2.92626 33.8529 3.39009 33.9153L3.81393 33.9745C4.64615 34.0843 5.27418 34.3338 5.69856 34.7225C6.1224 35.1111 6.33459 35.6704 6.33459 36.4008C6.33459 36.7622 6.26794 37.0976 6.13413 37.4078C6.00031 37.7181 5.80252 37.9852 5.53915 38.2086C5.27578 38.4325 4.94791 38.6074 4.55552 38.7327C4.16313 38.858 3.70784 38.9209 3.18963 38.9209Z" fill="white"/>
<path d="M8.06568 30.7117C8.06568 30.6334 8.10513 30.5939 8.1835 30.5939H9.58511C9.67947 30.5939 9.74185 30.6334 9.77383 30.7117L11.7997 35.5995H11.8467L13.8374 30.7117C13.8688 30.6334 13.9317 30.5939 14.0256 30.5939H15.4037C15.4821 30.5939 15.5215 30.6334 15.5215 30.7117V38.8031C15.5215 38.882 15.4821 38.9209 15.4037 38.9209H14.073C13.9946 38.9209 13.9552 38.882 13.9552 38.8031V34.2923H13.9083L12.424 37.6723C12.3771 37.7747 12.3025 37.8253 12.2001 37.8253H11.3876C11.2853 37.8253 11.2112 37.7742 11.1637 37.6723L9.67947 34.2923H9.63255V38.8031C9.63255 38.882 9.5931 38.9209 9.51473 38.9209H8.18403C8.10566 38.9209 8.06621 38.882 8.06621 38.8031V30.7117H8.06568Z" fill="white"/>
<path d="M20.017 30.7117C20.0405 30.6334 20.0916 30.5939 20.17 30.5939H21.6543C21.7326 30.5939 21.7838 30.6334 21.8073 30.7117L24.5161 38.8031C24.5396 38.882 24.5118 38.9209 24.4335 38.9209H22.9023C22.8239 38.9209 22.7728 38.882 22.7493 38.8031L22.2897 37.4015H19.4865L19.0387 38.8031C19.0152 38.882 18.9641 38.9209 18.8857 38.9209H17.3428C17.2639 38.9209 17.2367 38.882 17.2602 38.8031L20.017 30.7117ZM21.819 35.929L20.9121 33.1258H20.8769L19.9701 35.929H21.819Z" fill="white"/>
<path d="M30.6839 38.9209C30.5975 38.9209 30.5383 38.882 30.5074 38.8031L29.1293 35.5701H28.0577C28.0108 35.5701 27.9868 35.5936 27.9868 35.641V38.8036C27.9868 38.8825 27.9473 38.9214 27.869 38.9214H26.373C26.2946 38.9214 26.2552 38.8825 26.2552 38.8036V30.7293C26.2552 30.6509 26.2941 30.6115 26.373 30.6115H29.5648C29.9732 30.6115 30.3443 30.6722 30.678 30.7938C31.0118 30.9154 31.2981 31.0865 31.538 31.3061C31.7774 31.5258 31.9618 31.7892 32.0914 32.0952C32.2209 32.4012 32.286 32.7355 32.286 33.0964C32.286 33.6146 32.1601 34.0662 31.909 34.4511C31.6574 34.836 31.3082 35.1266 30.8609 35.3228L32.439 38.7796C32.4544 38.8191 32.4544 38.8521 32.439 38.8798C32.423 38.9076 32.3958 38.9209 32.3563 38.9209H30.6839ZM29.471 34.0976C29.801 34.0976 30.0639 34.0075 30.2601 33.8268C30.4562 33.6461 30.5543 33.4029 30.5543 33.0964C30.5543 32.7978 30.4562 32.5585 30.2601 32.3777C30.0639 32.197 29.8005 32.1069 29.471 32.1069H28.0577C28.0108 32.1069 27.9868 32.1304 27.9868 32.1778V34.0267C27.9868 34.0736 28.0102 34.0976 28.0577 34.0976H29.471Z" fill="white"/>
<path d="M36.5143 38.9209C36.436 38.9209 36.3965 38.8819 36.3965 38.803V32.213C36.3965 32.1661 36.3731 32.1421 36.3256 32.1421H34.2997C34.2213 32.1421 34.1819 32.1032 34.1819 32.0253V30.7277C34.1819 30.6498 34.2213 30.6109 34.2997 30.6109H40.2239C40.3022 30.6109 40.3417 30.6498 40.3417 30.7277V32.0253C40.3417 32.1032 40.3022 32.1421 40.2239 32.1421H38.198C38.1511 32.1421 38.1271 32.1655 38.1271 32.213V38.803C38.1271 38.8819 38.0876 38.9209 38.0092 38.9209H36.5143Z" fill="white"/>
<path d="M46.8383 38.9209C46.1394 38.9209 45.5289 38.7599 45.007 38.4378C44.4845 38.1158 44.1215 37.6291 43.9173 36.9776C43.8704 36.8363 43.833 36.6988 43.8053 36.5655C43.7776 36.4322 43.7563 36.2829 43.7403 36.1177C43.7243 35.9529 43.7125 35.7642 43.7051 35.5525C43.6971 35.3403 43.6934 35.0242 43.6934 34.7262C43.6934 34.4276 43.6971 34.1728 43.7051 33.9606C43.7131 33.7484 43.7248 33.5602 43.7403 33.3955C43.7557 33.2307 43.7776 33.0815 43.8053 32.9476C43.8325 32.8144 43.8698 32.6768 43.9173 32.5355C44.1215 31.892 44.4845 31.4069 45.007 31.0811C45.5289 30.7554 46.1394 30.5923 46.8383 30.5923C47.5372 30.5923 48.1477 30.7554 48.6696 31.0811C49.1916 31.4069 49.5546 31.892 49.7593 32.5355C49.8063 32.6768 49.8436 32.8144 49.8713 32.9476C49.8985 33.0815 49.9204 33.2302 49.9363 33.3955C49.9518 33.5602 49.9635 33.7489 49.9715 33.9606C49.979 34.1728 49.9833 34.4276 49.9833 34.7262C49.9833 35.0247 49.979 35.3409 49.9715 35.5525C49.9635 35.7647 49.9518 35.9529 49.9363 36.1177C49.9204 36.2824 49.899 36.4317 49.8713 36.5655C49.8436 36.6993 49.8068 36.8363 49.7593 36.9776C49.5552 37.6296 49.1921 38.1164 48.6696 38.4378C48.1477 38.7599 47.5372 38.9209 46.8383 38.9209ZM46.8383 37.3897C47.1683 37.3897 47.4391 37.3113 47.6508 37.1541C47.863 36.9973 48.0117 36.7814 48.0986 36.5063C48.1221 36.4354 48.1418 36.3554 48.1573 36.2648C48.1727 36.1747 48.1866 36.0643 48.1983 35.9348C48.2101 35.8052 48.2181 35.6464 48.2218 35.4576C48.2255 35.2694 48.2277 34.9842 48.2277 34.7251C48.2277 34.466 48.2255 34.2421 48.2218 34.0539C48.2175 33.8652 48.2101 33.7063 48.1983 33.5767C48.1866 33.4472 48.1727 33.3374 48.1573 33.2467C48.1413 33.1566 48.1221 33.0761 48.0986 33.0052C48.0123 32.7307 47.863 32.5147 47.6508 32.3575C47.4386 32.2007 47.1678 32.1218 46.8383 32.1218C46.5088 32.1218 46.2375 32.2002 46.0258 32.3575C45.8136 32.5147 45.6643 32.7307 45.578 33.0052C45.5545 33.0761 45.5348 33.1566 45.5193 33.2467C45.5033 33.3374 45.49 33.4472 45.4783 33.5767C45.4666 33.7063 45.4586 33.8652 45.4548 34.0539C45.4511 34.2421 45.449 34.466 45.449 34.7251C45.449 34.9842 45.4506 35.2689 45.4548 35.4576C45.4586 35.6464 45.4666 35.8052 45.4783 35.9348C45.49 36.0643 45.5039 36.1742 45.5193 36.2648C45.5348 36.3554 45.5545 36.4354 45.578 36.5063C45.6643 36.7814 45.8136 36.9973 46.0258 37.1541C46.238 37.3113 46.5088 37.3897 46.8383 37.3897Z" fill="white"/>
<path d="M51.715 30.7096C51.715 30.6312 51.7539 30.5918 51.8328 30.5918H53.2462C53.3325 30.5918 53.3992 30.6312 53.4466 30.7096L56.2733 36.0708H56.3319V30.7096C56.3319 30.6312 56.3708 30.5918 56.4498 30.5918H57.781C57.8594 30.5918 57.8988 30.6312 57.8988 30.7096V38.8031C57.8988 38.882 57.8594 38.9209 57.781 38.9209H56.3794C56.293 38.9209 56.2264 38.882 56.1789 38.8031L53.3405 33.4536H53.2819V38.8031C53.2819 38.882 53.2424 38.9209 53.1641 38.9209H51.8334C51.755 38.9209 51.7155 38.882 51.7155 38.8031V30.7096H51.715Z" fill="white"/>
<path d="M59.6292 30.7096C59.6292 30.6312 59.6682 30.5918 59.7471 30.5918H64.8822C64.9606 30.5918 65 30.6312 65 30.7096V31.9699C65 32.0483 64.9606 32.0877 64.8822 32.0877H61.4312C61.3843 32.0877 61.3603 32.1112 61.3603 32.1587V34.0689C61.3603 34.1158 61.3838 34.1398 61.4312 34.1398H64.3054C64.3837 34.1398 64.4232 34.1792 64.4232 34.2576V35.5062C64.4232 35.5846 64.3837 35.624 64.3054 35.624H61.4312C61.3843 35.624 61.3603 35.6475 61.3603 35.6949V37.3556C61.3603 37.4025 61.3838 37.4265 61.4312 37.4265H64.8822C64.9606 37.4265 65 37.466 65 37.5444V38.8047C65 38.8836 64.9606 38.9225 64.8822 38.9225H59.7471C59.6687 38.9225 59.6292 38.8836 59.6292 38.8047V30.7096Z" fill="white"/>
<path d="M0.099696 44.6111C0.0810364 44.5514 0.0655756 44.4933 0.0522472 44.4357C0.039452 44.3781 0.0287894 44.3115 0.0218587 44.2352C0.0143948 44.159 0.00853005 44.07 0.00533125 43.9676C0.00159932 43.8652 0 43.7378 0 43.5853C0 43.4366 0.00159932 43.3102 0.00533125 43.2063C0.00906318 43.1023 0.0143948 43.0122 0.0218587 42.936C0.0293225 42.8597 0.039452 42.7931 0.0522472 42.7355C0.0650424 42.678 0.0810364 42.6193 0.099696 42.5596C0.196193 42.2477 0.358799 42.0142 0.58698 41.8601C0.815161 41.706 1.09079 41.6287 1.41387 41.6287C1.71829 41.6287 1.98059 41.7018 2.20184 41.8479C2.42256 41.9939 2.58676 42.1939 2.69446 42.4471C2.70565 42.4807 2.69605 42.5025 2.66673 42.5137L2.19331 42.7419C2.15972 42.7606 2.13573 42.751 2.1208 42.7142C2.05789 42.5804 1.97153 42.4658 1.8617 42.3687C1.75241 42.2722 1.6026 42.2243 1.41334 42.2243C1.23154 42.2243 1.08546 42.2685 0.976167 42.3575C0.866874 42.4466 0.785839 42.5687 0.734125 42.7243C0.722929 42.7654 0.712799 42.8059 0.703736 42.8464C0.694673 42.8869 0.687209 42.9397 0.681344 43.0048C0.676013 43.0693 0.672281 43.1482 0.670148 43.2409C0.668016 43.3337 0.667483 43.4483 0.667483 43.5853C0.667483 43.7261 0.668549 43.8418 0.670148 43.9324C0.671748 44.023 0.67548 44.1009 0.681344 44.1659C0.686675 44.231 0.69414 44.2843 0.703736 44.3269C0.712799 44.3696 0.723462 44.409 0.734125 44.4464C0.785839 44.602 0.866874 44.7241 0.976167 44.8131C1.08546 44.9022 1.23154 44.9464 1.41334 44.9464C1.6026 44.9464 1.75188 44.8984 1.8617 44.802C1.97099 44.7055 2.05736 44.5903 2.1208 44.457C2.13573 44.4197 2.15972 44.4106 2.19331 44.4293L2.66673 44.6575C2.69659 44.6687 2.70565 44.6911 2.69446 44.7241C2.58676 44.9774 2.42256 45.1773 2.20184 45.3234C1.98112 45.4694 1.71829 45.5425 1.41387 45.5425C1.09079 45.5425 0.815161 45.4652 0.58698 45.3111C0.358799 45.1565 0.196193 44.9235 0.099696 44.6111Z" fill="white"/>
<path d="M4.35343 45.5424C4.07887 45.5424 3.84376 45.4773 3.64916 45.3478C3.45404 45.2177 3.31969 45.0359 3.24558 44.8024C3.21573 44.7059 3.19333 44.6083 3.17894 44.5102C3.16401 44.4121 3.15655 44.2884 3.15655 44.1397C3.15655 43.9915 3.16401 43.8678 3.17894 43.7697C3.19387 43.6716 3.21573 43.574 3.24558 43.4775C3.31969 43.2435 3.45457 43.0617 3.64916 42.9321C3.84376 42.8021 4.07887 42.737 4.35343 42.737C4.62426 42.737 4.85724 42.8021 5.05237 42.9321C5.24696 43.0622 5.38185 43.244 5.45595 43.4775C5.48581 43.574 5.50767 43.6716 5.52259 43.7697C5.53752 43.8683 5.54498 43.9915 5.54498 44.1397C5.54498 44.2884 5.53752 44.4116 5.52259 44.5102C5.50767 44.6083 5.48527 44.7059 5.45595 44.8024C5.38185 45.0364 5.24696 45.2182 5.05237 45.3478C4.85724 45.4773 4.62426 45.5424 4.35343 45.5424ZM4.35343 44.9858C4.47979 44.9858 4.58428 44.9548 4.66798 44.8941C4.75168 44.8328 4.81353 44.7464 4.85458 44.635C4.87697 44.5646 4.8919 44.4932 4.89936 44.4206C4.90682 44.3481 4.91056 44.2543 4.91056 44.1397C4.91056 44.0245 4.90682 43.9318 4.89936 43.8614C4.8919 43.791 4.87697 43.7185 4.85458 43.6444C4.81353 43.533 4.75168 43.4466 4.66798 43.3853C4.58428 43.324 4.47979 43.2936 4.35343 43.2936C4.22708 43.2936 4.12152 43.324 4.03622 43.3853C3.95092 43.4466 3.88747 43.533 3.84696 43.6444C3.82456 43.7185 3.80964 43.791 3.80217 43.8614C3.79471 43.9318 3.79098 44.0245 3.79098 44.1397C3.79098 44.2548 3.79471 44.3487 3.80217 44.4206C3.80964 44.4932 3.82456 44.5646 3.84696 44.635C3.88801 44.7464 3.95092 44.8328 4.03622 44.8941C4.12152 44.9548 4.22708 44.9858 4.35343 44.9858Z" fill="white"/>
<path d="M7.91103 45.481C7.87371 45.481 7.85558 45.4624 7.85558 45.4256V43.8779C7.85558 43.7036 7.81293 43.5623 7.72763 43.4546C7.64233 43.3469 7.51597 43.2931 7.3491 43.2931C7.18597 43.2931 7.05961 43.3469 6.97058 43.4546C6.88155 43.5623 6.83676 43.7036 6.83676 43.8779V45.4256C6.83676 45.4629 6.8181 45.481 6.78132 45.481H6.26898C6.23166 45.481 6.21353 45.4624 6.21353 45.4256V42.8532C6.21353 42.8159 6.23219 42.7978 6.26898 42.7978H6.78132C6.8181 42.7978 6.83676 42.8164 6.83676 42.8532V43.0484H6.84209C6.90127 42.9631 6.98977 42.8895 7.10653 42.8287C7.22328 42.7674 7.37096 42.737 7.54903 42.737C7.69404 42.737 7.82253 42.7621 7.93608 42.8122C8.04911 42.8623 8.14667 42.9321 8.22824 43.0212C8.30981 43.1102 8.37219 43.2152 8.41484 43.3357C8.45749 43.4562 8.47881 43.589 8.47881 43.734V45.4267C8.47881 45.464 8.46015 45.4821 8.42337 45.4821H7.91103V45.481Z" fill="white"/>
<path d="M10.9624 45.481C10.9251 45.481 10.9069 45.4624 10.9069 45.4256V43.8779C10.9069 43.7036 10.8643 43.5623 10.779 43.4546C10.6937 43.3469 10.5673 43.2931 10.4005 43.2931C10.2373 43.2931 10.111 43.3469 10.0219 43.4546C9.9329 43.5623 9.88812 43.7036 9.88812 43.8779V45.4256C9.88812 45.4629 9.86946 45.481 9.83267 45.481H9.32033C9.28301 45.481 9.26489 45.4624 9.26489 45.4256V42.8532C9.26489 42.8159 9.28355 42.7978 9.32033 42.7978H9.83267C9.86946 42.7978 9.88812 42.8164 9.88812 42.8532V43.0484H9.89345C9.95263 42.9631 10.0411 42.8895 10.1579 42.8287C10.2746 42.7674 10.4223 42.737 10.6004 42.737C10.7454 42.737 10.8739 42.7621 10.9874 42.8122C11.1005 42.8623 11.198 42.9321 11.2796 43.0212C11.3612 43.1102 11.4235 43.2152 11.4662 43.3357C11.5088 43.4562 11.5302 43.589 11.5302 43.734V45.4267C11.5302 45.464 11.5115 45.4821 11.4747 45.4821H10.9624V45.481Z" fill="white"/>
<path d="M13.3783 45.5424C13.0925 45.5424 12.8537 45.4763 12.6617 45.3446C12.4698 45.2129 12.3376 45.0301 12.2635 44.796C12.2342 44.7107 12.2112 44.6153 12.1947 44.5092C12.1782 44.4037 12.1702 44.28 12.1702 44.1387C12.1702 43.9979 12.1777 43.8732 12.1921 43.7655C12.207 43.6578 12.2288 43.5613 12.2582 43.476C12.3317 43.242 12.4655 43.0602 12.6591 42.9306C12.8526 42.8005 13.0829 42.7355 13.3505 42.7355C13.6288 42.7355 13.8634 42.8016 14.0548 42.9333C14.2457 43.065 14.3784 43.2462 14.4531 43.476C14.468 43.5245 14.4808 43.5725 14.492 43.6205C14.5032 43.669 14.5122 43.7244 14.5197 43.7874C14.5272 43.8503 14.5325 43.9217 14.5362 44.0017C14.54 44.0816 14.5416 44.1755 14.5416 44.2826C14.5416 44.32 14.5213 44.3381 14.4803 44.3381H12.8265C12.8041 44.3381 12.7929 44.3493 12.7929 44.3717C12.7929 44.4127 12.7966 44.4495 12.8041 44.4831C12.8116 44.5167 12.8206 44.5481 12.8318 44.578C12.9246 44.8488 13.125 44.9842 13.4332 44.9842C13.5851 44.9842 13.7115 44.9602 13.8117 44.9117C13.9119 44.8637 13.9956 44.8024 14.0623 44.7278C14.0921 44.6979 14.1199 44.6942 14.146 44.7166L14.4744 45.0061C14.5005 45.0285 14.5021 45.0546 14.4797 45.0839C14.3646 45.2177 14.2142 45.327 14.0287 45.4123C13.8442 45.4998 13.6267 45.5424 13.3783 45.5424ZM13.913 43.8439C13.913 43.7575 13.9018 43.6813 13.8794 43.6136C13.8421 43.5048 13.7771 43.42 13.6848 43.3582C13.5921 43.2963 13.4822 43.2654 13.3564 43.2654C13.2263 43.2654 13.1149 43.2963 13.0221 43.3582C12.9294 43.42 12.8643 43.5053 12.827 43.6136C12.8046 43.6813 12.7934 43.758 12.7934 43.8439C12.7934 43.8663 12.8046 43.8775 12.827 43.8775H13.8794C13.9018 43.8775 13.913 43.8663 13.913 43.8439Z" fill="white"/>
<path d="M16.2622 45.5426C15.9914 45.5426 15.7584 45.4797 15.5633 45.3533C15.3681 45.227 15.2322 45.0436 15.1538 44.802C15.0984 44.6352 15.0701 44.4145 15.0701 44.1394C15.0701 43.8648 15.0978 43.6441 15.1538 43.4767C15.2317 43.2352 15.3681 43.0518 15.5633 42.9254C15.7579 42.7991 15.9908 42.7362 16.2622 42.7362C16.4627 42.7362 16.6407 42.7735 16.7969 42.8476C16.9526 42.9217 17.0843 43.024 17.192 43.1536C17.2144 43.1835 17.2122 43.209 17.1867 43.2314L16.8359 43.5375C16.806 43.5598 16.7804 43.5561 16.758 43.5263C16.6914 43.4522 16.6199 43.3946 16.5437 43.3535C16.4675 43.313 16.3736 43.2922 16.2627 43.2922C16.1438 43.2922 16.041 43.321 15.9535 43.3786C15.8661 43.4362 15.8021 43.5241 15.7616 43.643C15.7392 43.7097 15.7243 43.7832 15.7168 43.8627C15.7093 43.9426 15.7056 44.0343 15.7056 44.1383C15.7056 44.2423 15.7093 44.335 15.7168 44.4166C15.7243 44.4982 15.7392 44.5723 15.7616 44.6394C15.8026 44.7546 15.8666 44.841 15.9535 44.8985C16.0404 44.9561 16.1438 44.9849 16.2627 44.9849C16.3742 44.9849 16.468 44.9647 16.5437 44.9236C16.6199 44.8831 16.6914 44.8255 16.758 44.7509C16.7804 44.7247 16.806 44.7231 16.8359 44.7455L17.1867 45.0516C17.209 45.0702 17.2106 45.0958 17.192 45.1294C17.0843 45.2557 16.9526 45.356 16.7969 45.4301C16.6413 45.5052 16.4627 45.5426 16.2622 45.5426Z" fill="white"/>
<path d="M18.6452 45.5147C18.3744 45.5147 18.1819 45.4496 18.0689 45.3195C17.9559 45.1895 17.8988 44.9927 17.8988 44.7294V43.315C17.8988 43.2926 17.8876 43.2814 17.8652 43.2814H17.6872C17.6498 43.2814 17.6317 43.2627 17.6317 43.2259V42.8527C17.6317 42.8154 17.6504 42.7973 17.6872 42.7973H17.8652C17.8876 42.7973 17.8988 42.7861 17.8988 42.7637V42.0285C17.8988 41.9917 17.9175 41.9731 17.9543 41.9731H18.4666C18.5034 41.9731 18.522 41.9917 18.522 42.0285V42.7637C18.522 42.7861 18.5332 42.7973 18.5556 42.7973H18.9118C18.9485 42.7973 18.9672 42.816 18.9672 42.8527V43.2259C18.9672 43.2633 18.9485 43.2814 18.9118 43.2814H18.5556C18.5332 43.2814 18.522 43.2926 18.522 43.315V44.707C18.522 44.8035 18.5423 44.8696 18.5834 44.9048C18.6244 44.94 18.6873 44.9576 18.7726 44.9576H18.9118C18.9485 44.9576 18.9672 44.9762 18.9672 45.013V45.4582C18.9672 45.4955 18.9485 45.5136 18.9118 45.5136H18.6452V45.5147Z" fill="white"/>
<path d="M21.0284 45.4812C20.9911 45.4812 20.973 45.4626 20.973 45.4252V41.745C20.973 41.7077 20.9916 41.689 21.0284 41.689H22.4481C22.6299 41.689 22.7979 41.7178 22.9519 41.7754C23.106 41.833 23.2377 41.913 23.347 42.0153C23.4563 42.1177 23.5421 42.2414 23.6029 42.3864C23.6642 42.5314 23.6946 42.6913 23.6946 42.8662C23.6946 43.0448 23.6642 43.2063 23.6029 43.3519C23.5416 43.4969 23.4563 43.6206 23.347 43.7229C23.2377 43.8253 23.1055 43.9053 22.9519 43.9629C22.7979 44.0204 22.6299 44.0492 22.4481 44.0492H21.6634C21.641 44.0492 21.6298 44.0604 21.6298 44.0828V45.4247C21.6298 45.462 21.6111 45.4802 21.5743 45.4802H21.0284V45.4812ZM22.4087 43.4548C22.6054 43.4548 22.7595 43.402 22.8709 43.2959C22.9823 43.1903 23.0378 43.048 23.0378 42.8699C23.0378 42.6956 22.9823 42.5543 22.8709 42.4466C22.7595 42.3389 22.6054 42.2851 22.4087 42.2851H21.6628C21.6404 42.2851 21.6292 42.2963 21.6292 42.3187V43.4212C21.6292 43.4436 21.6404 43.4548 21.6628 43.4548H22.4087Z" fill="white"/>
<path d="M25.3542 45.5424C25.0685 45.5424 24.8296 45.4763 24.6377 45.3446C24.4458 45.2129 24.3135 45.0301 24.2394 44.796C24.2101 44.7107 24.1872 44.6153 24.1707 44.5092C24.1541 44.4037 24.1461 44.28 24.1461 44.1387C24.1461 43.9979 24.1536 43.8732 24.168 43.7655C24.1829 43.6578 24.2048 43.5613 24.2341 43.476C24.3077 43.242 24.4415 43.0602 24.635 42.9306C24.8286 42.8005 25.0589 42.7355 25.3265 42.7355C25.6048 42.7355 25.8394 42.8016 26.0308 42.9333C26.2216 43.065 26.3544 43.2462 26.429 43.476C26.4439 43.5245 26.4567 43.5725 26.4679 43.6205C26.4791 43.669 26.4882 43.7244 26.4957 43.7874C26.5031 43.8503 26.5085 43.9217 26.5122 44.0017C26.5159 44.0816 26.5175 44.1755 26.5175 44.2826C26.5175 44.32 26.4973 44.3381 26.4562 44.3381H24.8024C24.78 44.3381 24.7688 44.3493 24.7688 44.3717C24.7688 44.4127 24.7726 44.4495 24.78 44.4831C24.7875 44.5167 24.7966 44.5481 24.8078 44.578C24.9005 44.8488 25.101 44.9842 25.4091 44.9842C25.5611 44.9842 25.6874 44.9602 25.7877 44.9117C25.8879 44.8637 25.9716 44.8024 26.0382 44.7278C26.0681 44.6979 26.0958 44.6942 26.1219 44.7166L26.4503 45.0061C26.4765 45.0285 26.4781 45.0546 26.4557 45.0839C26.3405 45.2177 26.1902 45.327 26.0046 45.4123C25.8196 45.4998 25.6027 45.5424 25.3542 45.5424ZM25.8884 43.8439C25.8884 43.7575 25.8772 43.6813 25.8548 43.6136C25.8175 43.5048 25.7525 43.42 25.6602 43.3582C25.5675 43.2963 25.4576 43.2654 25.3318 43.2654C25.2017 43.2654 25.0903 43.2963 24.9976 43.3582C24.9048 43.42 24.8397 43.5053 24.8024 43.6136C24.78 43.6813 24.7688 43.758 24.7688 43.8439C24.7688 43.8663 24.78 43.8775 24.8024 43.8775H25.8554C25.8778 43.8775 25.8884 43.8663 25.8884 43.8439Z" fill="white"/>
<path d="M28.2437 45.5424C27.9691 45.5424 27.734 45.4773 27.5394 45.3478C27.3443 45.2177 27.2099 45.0359 27.1358 44.8024C27.106 44.7059 27.0836 44.6083 27.0692 44.5102C27.0543 44.4121 27.0468 44.2884 27.0468 44.1397C27.0468 43.9915 27.0543 43.8678 27.0692 43.7697C27.0841 43.6716 27.106 43.574 27.1358 43.4775C27.2099 43.2435 27.3448 43.0617 27.5394 42.9321C27.734 42.8021 27.9691 42.737 28.2437 42.737C28.5145 42.737 28.7475 42.8021 28.9426 42.9321C29.1372 43.0622 29.2721 43.244 29.3462 43.4775C29.3761 43.574 29.3979 43.6716 29.4128 43.7697C29.4278 43.8683 29.4352 43.9915 29.4352 44.1397C29.4352 44.2884 29.4278 44.4116 29.4128 44.5102C29.3979 44.6083 29.3755 44.7059 29.3462 44.8024C29.2721 45.0364 29.1372 45.2182 28.9426 45.3478C28.7475 45.4773 28.5145 45.5424 28.2437 45.5424ZM28.2437 44.9858C28.37 44.9858 28.4745 44.9548 28.5582 44.8941C28.6419 44.8328 28.7038 44.7464 28.7448 44.635C28.7672 44.5646 28.7821 44.4932 28.7896 44.4206C28.7971 44.3481 28.8008 44.2543 28.8008 44.1397C28.8008 44.0245 28.7971 43.9318 28.7896 43.8614C28.7821 43.791 28.7672 43.7185 28.7448 43.6444C28.7038 43.533 28.6419 43.4466 28.5582 43.3853C28.4745 43.324 28.37 43.2936 28.2437 43.2936C28.1173 43.2936 28.0118 43.324 27.9265 43.3853C27.8412 43.4466 27.7777 43.533 27.7372 43.6444C27.7148 43.7185 27.6999 43.791 27.6924 43.8614C27.685 43.9318 27.6812 44.0245 27.6812 44.1397C27.6812 44.2548 27.685 44.3487 27.6924 44.4206C27.6999 44.4932 27.7148 44.5646 27.7372 44.635C27.7783 44.7464 27.8412 44.8328 27.9265 44.8941C28.0118 44.9548 28.1173 44.9858 28.2437 44.9858Z" fill="white"/>
<path d="M30.1587 46.4836C30.1214 46.4836 30.1033 46.4649 30.1033 46.4281V42.854C30.1033 42.8167 30.122 42.7986 30.1587 42.7986H30.6711C30.7079 42.7986 30.7265 42.8172 30.7265 42.854V43.0539H30.7319C30.7948 42.9612 30.8838 42.8849 30.999 42.8257C31.1141 42.7666 31.2623 42.7367 31.4441 42.7367C31.6744 42.7367 31.869 42.7906 32.029 42.8982C32.1884 43.0059 32.3035 43.1675 32.3739 43.3829C32.4075 43.4868 32.4315 43.5934 32.4464 43.7027C32.4613 43.812 32.4688 43.9581 32.4688 44.1399C32.4688 44.3217 32.4613 44.4678 32.4464 44.5771C32.4315 44.6864 32.4075 44.7935 32.3739 44.897C32.3035 45.1123 32.1884 45.2739 32.029 45.381C31.8696 45.4887 31.6744 45.5426 31.4441 45.5426C31.2623 45.5426 31.1136 45.5127 30.999 45.4536C30.8838 45.3944 30.7948 45.3181 30.7319 45.2254H30.7265V46.4281C30.7265 46.4654 30.7079 46.4836 30.6711 46.4836H30.1587ZM31.2837 44.986C31.5396 44.986 31.7048 44.8708 31.7789 44.6411C31.7976 44.5781 31.8115 44.5094 31.8205 44.4353C31.8296 44.3612 31.8344 44.2625 31.8344 44.1399C31.8344 44.0173 31.8296 43.9192 31.8205 43.8451C31.8115 43.771 31.7971 43.7022 31.7789 43.6393C31.7048 43.409 31.5396 43.2944 31.2837 43.2944C31.024 43.2944 30.8566 43.4095 30.7825 43.6393C30.7638 43.7022 30.75 43.771 30.7409 43.8451C30.7319 43.9192 30.7271 44.0178 30.7271 44.1399C30.7271 44.2625 30.7319 44.3606 30.7409 44.4353C30.75 44.5094 30.7638 44.5781 30.7825 44.6411C30.8566 44.8708 31.0235 44.986 31.2837 44.986Z" fill="white"/>
<path d="M33.8615 45.5148C33.5981 45.5148 33.4094 45.4519 33.2963 45.3255C33.1833 45.1992 33.1263 45.0062 33.1263 44.7465V41.7514C33.1263 41.7141 33.1449 41.696 33.1817 41.696H33.6941C33.7314 41.696 33.7495 41.7146 33.7495 41.7514V44.7135C33.7495 44.8063 33.7682 44.8702 33.8049 44.9054C33.8423 44.9406 33.9014 44.9582 33.983 44.9582H34.1056C34.143 44.9582 34.1611 44.9769 34.1611 45.0136V45.4588C34.1611 45.4961 34.1424 45.5143 34.1056 45.5143H33.8615V45.5148Z" fill="white"/>
<path d="M35.8213 45.5424C35.5355 45.5424 35.2966 45.4763 35.1047 45.3446C34.9128 45.2129 34.7806 45.0301 34.7065 44.796C34.6771 44.7107 34.6542 44.6153 34.6377 44.5092C34.6212 44.4037 34.6132 44.28 34.6132 44.1387C34.6132 43.9979 34.6206 43.8732 34.635 43.7655C34.65 43.6578 34.6718 43.5613 34.7011 43.476C34.7747 43.242 34.908 43.0602 35.1021 42.9306C35.2956 42.8005 35.5259 42.7355 35.7935 42.7355C36.0718 42.7355 36.3064 42.8016 36.4978 42.9333C36.6887 43.065 36.8214 43.2462 36.896 43.476C36.911 43.5245 36.9238 43.5725 36.935 43.6205C36.9462 43.669 36.9552 43.7244 36.9627 43.7874C36.9702 43.8503 36.9755 43.9217 36.9792 44.0017C36.983 44.0816 36.9845 44.1755 36.9845 44.2826C36.9845 44.32 36.9643 44.3381 36.9232 44.3381H35.2695C35.2471 44.3381 35.2359 44.3493 35.2359 44.3717C35.2359 44.4127 35.2396 44.4495 35.2471 44.4831C35.2545 44.5167 35.2636 44.5481 35.2748 44.578C35.3676 44.8488 35.568 44.9842 35.8762 44.9842C36.0281 44.9842 36.1545 44.9602 36.2547 44.9117C36.3549 44.8637 36.4386 44.8024 36.5053 44.7278C36.5351 44.6979 36.5628 44.6942 36.589 44.7166L36.9174 45.0061C36.9435 45.0285 36.9451 45.0546 36.9227 45.0839C36.8075 45.2177 36.6572 45.327 36.4717 45.4123C36.2867 45.4998 36.0697 45.5424 35.8213 45.5424ZM36.3555 43.8439C36.3555 43.7575 36.3443 43.6813 36.3219 43.6136C36.2845 43.5048 36.2195 43.42 36.1267 43.3582C36.034 43.2963 35.9241 43.2654 35.7983 43.2654C35.6682 43.2654 35.5568 43.2963 35.4641 43.3582C35.3713 43.42 35.3062 43.5053 35.2695 43.6136C35.2471 43.6813 35.2359 43.758 35.2359 43.8439C35.2359 43.8663 35.2471 43.8775 35.2695 43.8775H36.3219C36.3443 43.8775 36.3555 43.8663 36.3555 43.8439Z" fill="white"/>
<path d="M40.5698 45.4813C40.5325 45.4813 40.5143 45.4626 40.5143 45.4258V45.2307H40.509C40.4461 45.3235 40.3512 45.3986 40.2248 45.4562C40.0985 45.5138 39.9407 45.5426 39.7514 45.5426C39.6288 45.5426 39.5131 45.526 39.4033 45.4925C39.294 45.4594 39.198 45.4093 39.1164 45.3426C39.0349 45.276 38.9698 45.1918 38.9213 45.0899C38.8728 44.9881 38.8488 44.8671 38.8488 44.7263C38.8488 44.4342 38.9442 44.2199 39.1356 44.0828C39.3265 43.9458 39.5893 43.8776 39.9236 43.8776H40.469C40.4914 43.8776 40.5026 43.8664 40.5026 43.844V43.715C40.5026 43.5577 40.4599 43.4436 40.3746 43.3722C40.2893 43.3013 40.1331 43.2656 39.9071 43.2656C39.7546 43.2656 39.6304 43.2832 39.5339 43.3183C39.4374 43.3535 39.3574 43.3972 39.2945 43.449C39.2609 43.4751 39.2348 43.4713 39.2167 43.4378L39.0109 43.0704C38.9922 43.0406 38.996 43.0166 39.0221 42.9979C39.1298 42.9201 39.2593 42.8572 39.4118 42.8087C39.5637 42.7607 39.7514 42.7362 39.9743 42.7362C40.3826 42.7362 40.6711 42.8103 40.8401 42.959C41.0091 43.1077 41.0933 43.345 41.0933 43.6718V45.4258C41.0933 45.4631 41.0746 45.4813 41.0379 45.4813H40.5698ZM39.9076 45.0361C40.1006 45.0361 40.2483 44.9988 40.3501 44.9247C40.4519 44.8506 40.5031 44.7354 40.5031 44.5797V44.3739C40.5031 44.3515 40.4919 44.3404 40.4695 44.3404H40.0244C39.8239 44.3404 39.6773 44.3691 39.5845 44.4267C39.4918 44.4843 39.4454 44.576 39.4454 44.7023C39.4454 44.9247 39.5995 45.0361 39.9076 45.0361Z" fill="white"/>
<path d="M43.582 45.481C43.5447 45.481 43.5266 45.4624 43.5266 45.4256V43.8779C43.5266 43.7036 43.4839 43.5623 43.3986 43.4546C43.3133 43.3469 43.187 43.2931 43.0201 43.2931C42.857 43.2931 42.7306 43.3469 42.6416 43.4546C42.5525 43.5623 42.5077 43.7036 42.5077 43.8779V45.4256C42.5077 45.4629 42.4891 45.481 42.4523 45.481H41.94C41.9026 45.481 41.8845 45.4624 41.8845 45.4256V42.8532C41.8845 42.8159 41.9032 42.7978 41.94 42.7978H42.4523C42.4896 42.7978 42.5077 42.8164 42.5077 42.8532V43.0484H42.5131C42.5723 42.9631 42.6608 42.8895 42.7775 42.8287C42.8943 42.7674 43.0419 42.737 43.22 42.737C43.3645 42.737 43.4935 42.7621 43.6071 42.8122C43.7201 42.8623 43.8177 42.9321 43.8992 43.0212C43.9808 43.1102 44.0432 43.2152 44.0858 43.3357C44.1285 43.4562 44.1498 43.589 44.1498 43.734V45.4267C44.1498 45.464 44.1311 45.4821 44.0944 45.4821H43.582V45.481Z" fill="white"/>
<path d="M46.5882 45.4812C46.5509 45.4812 46.5328 45.4625 46.5328 45.4257V45.2253H46.5275C46.4645 45.318 46.375 45.3943 46.2604 45.4535C46.1452 45.5126 45.997 45.5425 45.8152 45.5425C45.5849 45.5425 45.3903 45.4887 45.2309 45.381C45.0715 45.2733 44.9563 45.1117 44.8859 44.8969C44.8524 44.7929 44.8284 44.6863 44.8134 44.577C44.7985 44.4677 44.791 44.3216 44.791 44.1398C44.791 43.958 44.7985 43.8125 44.8134 43.7027C44.8284 43.5934 44.8524 43.4867 44.8859 43.3828C44.9563 43.1674 45.0715 43.0058 45.2309 42.8982C45.3903 42.7905 45.5854 42.7366 45.8152 42.7366C45.997 42.7366 46.1457 42.7665 46.2604 42.8256C46.3755 42.8848 46.4645 42.9611 46.5275 43.0538H46.5328V41.7509C46.5328 41.7135 46.5514 41.6954 46.5882 41.6954H47.1006C47.1374 41.6954 47.156 41.7141 47.156 41.7509V45.4252C47.156 45.4625 47.1374 45.4807 47.1006 45.4807H46.5882V45.4812ZM45.9762 44.9859C46.2358 44.9859 46.4027 44.8707 46.4773 44.641C46.496 44.5781 46.5099 44.5093 46.5189 44.4352C46.528 44.3611 46.5328 44.2624 46.5328 44.1398C46.5328 44.0172 46.528 43.9191 46.5189 43.845C46.5099 43.7709 46.4955 43.7021 46.4773 43.6392C46.4032 43.4089 46.2358 43.2943 45.9762 43.2943C45.7203 43.2943 45.555 43.4094 45.4809 43.6392C45.4623 43.7021 45.4484 43.7709 45.4393 43.845C45.4303 43.9191 45.4255 44.0177 45.4255 44.1398C45.4255 44.2624 45.4303 44.3605 45.4393 44.4352C45.4484 44.5093 45.4623 44.5781 45.4809 44.641C45.5545 44.8707 45.7198 44.9859 45.9762 44.9859Z" fill="white"/>
<path d="M49.35 45.4812C49.3127 45.4812 49.2946 45.4626 49.2946 45.4252V41.745C49.2946 41.7077 49.3132 41.689 49.35 41.689H50.7697C50.9515 41.689 51.1195 41.7178 51.2736 41.7754C51.4276 41.833 51.5593 41.913 51.6691 42.0153C51.7784 42.1177 51.8637 42.2414 51.925 42.3864C51.9863 42.5314 52.0167 42.6913 52.0167 42.8662C52.0167 43.0448 51.9863 43.2063 51.925 43.3519C51.8637 43.4969 51.7784 43.6206 51.6691 43.7229C51.5598 43.8253 51.4276 43.9053 51.2736 43.9629C51.1195 44.0204 50.9515 44.0492 50.7697 44.0492H49.985C49.9626 44.0492 49.9514 44.0604 49.9514 44.0828V45.4247C49.9514 45.462 49.9327 45.4802 49.8959 45.4802H49.35V45.4812ZM50.7308 43.4548C50.9275 43.4548 51.0816 43.402 51.193 43.2959C51.3045 43.1903 51.3599 43.048 51.3599 42.8699C51.3599 42.6956 51.3045 42.5543 51.193 42.4466C51.0816 42.3389 50.9275 42.2851 50.7308 42.2851H49.985C49.9626 42.2851 49.9514 42.2963 49.9514 42.3187V43.4212C49.9514 43.4436 49.9626 43.4548 49.985 43.4548H50.7308Z" fill="white"/>
<path d="M53.3363 45.5148C53.0729 45.5148 52.8842 45.4519 52.7711 45.3255C52.6581 45.1992 52.6011 45.0062 52.6011 44.7465V41.7514C52.6011 41.7141 52.6197 41.696 52.6565 41.696H53.1689C53.2062 41.696 53.2243 41.7146 53.2243 41.7514V44.7135C53.2243 44.8063 53.243 44.8702 53.2798 44.9054C53.3171 44.9406 53.3762 44.9582 53.4578 44.9582H53.5804C53.6178 44.9582 53.6359 44.9769 53.6359 45.0136V45.4588C53.6359 45.4961 53.6172 45.5143 53.5804 45.5143H53.3363V45.5148Z" fill="white"/>
<path d="M55.8307 45.4813C55.7934 45.4813 55.7753 45.4626 55.7753 45.4258V45.2307H55.7699C55.707 45.3235 55.6121 45.3986 55.4858 45.4562C55.3594 45.5138 55.2016 45.5426 55.0123 45.5426C54.8897 45.5426 54.774 45.526 54.6642 45.4925C54.5549 45.4594 54.459 45.4093 54.3774 45.3426C54.2958 45.276 54.2308 45.1918 54.1823 45.0899C54.1337 44.9881 54.1097 44.8671 54.1097 44.7263C54.1097 44.4342 54.2052 44.2199 54.3966 44.0828C54.5874 43.9458 54.8503 43.8776 55.1845 43.8776H55.7299C55.7523 43.8776 55.7635 43.8664 55.7635 43.844V43.715C55.7635 43.5577 55.7209 43.4436 55.6356 43.3722C55.5503 43.3013 55.3941 43.2656 55.168 43.2656C55.0155 43.2656 54.8913 43.2832 54.7948 43.3183C54.6983 43.3535 54.6184 43.3972 54.5554 43.449C54.5219 43.4751 54.4957 43.4713 54.4776 43.4378L54.2718 43.0704C54.2532 43.0406 54.2569 43.0166 54.283 42.9979C54.3907 42.9201 54.5203 42.8572 54.6727 42.8087C54.8247 42.7607 55.0123 42.7362 55.2352 42.7362C55.6436 42.7362 55.932 42.8103 56.101 42.959C56.27 43.1077 56.3542 43.345 56.3542 43.6718V45.4258C56.3542 45.4631 56.3356 45.4813 56.2988 45.4813H55.8307ZM55.168 45.0361C55.361 45.0361 55.5087 44.9988 55.6105 44.9247C55.7123 44.8506 55.7635 44.7354 55.7635 44.5797V44.3739C55.7635 44.3515 55.7523 44.3404 55.7299 44.3404H55.2848C55.0843 44.3404 54.9377 44.3691 54.8449 44.4267C54.7522 44.4843 54.7058 44.576 54.7058 44.7023C54.7058 44.9247 54.8599 45.0361 55.168 45.0361Z" fill="white"/>
<path d="M58.1915 45.5426C57.9207 45.5426 57.6877 45.4797 57.4925 45.3533C57.2974 45.227 57.1615 45.0436 57.0831 44.802C57.0277 44.6352 56.9994 44.4145 56.9994 44.1394C56.9994 43.8648 57.0271 43.6441 57.0831 43.4767C57.1609 43.2352 57.2974 43.0518 57.4925 42.9254C57.6877 42.7991 57.9201 42.7362 58.1915 42.7362C58.3919 42.7362 58.57 42.7735 58.7262 42.8476C58.8819 42.9217 59.0136 43.024 59.1218 43.1536C59.1442 43.1835 59.1421 43.209 59.1165 43.2314L58.7657 43.5375C58.7358 43.5598 58.7102 43.5561 58.6878 43.5263C58.6212 43.4522 58.5497 43.3946 58.4735 43.3535C58.3973 43.313 58.3034 43.2922 58.1926 43.2922C58.0737 43.2922 57.9708 43.321 57.8833 43.3786C57.7959 43.4362 57.7319 43.5241 57.6914 43.643C57.669 43.7097 57.6541 43.7832 57.6471 43.8627C57.6397 43.9426 57.636 44.0343 57.636 44.1383C57.636 44.2423 57.6397 44.335 57.6471 44.4166C57.6546 44.4982 57.6695 44.5723 57.6914 44.6394C57.7325 44.7546 57.7964 44.841 57.8833 44.8985C57.9708 44.9561 58.0737 44.9849 58.1926 44.9849C58.304 44.9849 58.3978 44.9647 58.4735 44.9236C58.5497 44.8831 58.6212 44.8255 58.6878 44.7509C58.7102 44.7247 58.7358 44.7231 58.7657 44.7455L59.1165 45.0516C59.1389 45.0702 59.1405 45.0958 59.1218 45.1294C59.0141 45.2557 58.8824 45.356 58.7262 45.4301C58.57 45.5052 58.3919 45.5426 58.1915 45.5426Z" fill="white"/>
<path d="M60.8522 45.5424C60.5665 45.5424 60.3276 45.4763 60.1357 45.3446C59.9438 45.2129 59.8116 45.0301 59.7375 44.796C59.7081 44.7107 59.6852 44.6153 59.6687 44.5092C59.6522 44.4037 59.6442 44.28 59.6442 44.1387C59.6442 43.9979 59.6516 43.8732 59.666 43.7655C59.6809 43.6578 59.7028 43.5613 59.7321 43.476C59.8057 43.242 59.939 43.0602 60.133 42.9306C60.3266 42.8005 60.5569 42.7355 60.8245 42.7355C61.1028 42.7355 61.3374 42.8016 61.5288 42.9333C61.7197 43.065 61.8524 43.2462 61.927 43.476C61.942 43.5245 61.9548 43.5725 61.966 43.6205C61.9772 43.669 61.9862 43.7244 61.9937 43.7874C62.0011 43.8503 62.0065 43.9217 62.0102 44.0017C62.0139 44.0816 62.0155 44.1755 62.0155 44.2826C62.0155 44.32 61.9953 44.3381 61.9542 44.3381H60.3004C60.2781 44.3381 60.2669 44.3493 60.2669 44.3717C60.2669 44.4127 60.2706 44.4495 60.2781 44.4831C60.2855 44.5167 60.2946 44.5481 60.3058 44.578C60.3985 44.8488 60.599 44.9842 60.9072 44.9842C61.0591 44.9842 61.1855 44.9602 61.2857 44.9117C61.3859 44.8637 61.4696 44.8024 61.5363 44.7278C61.5661 44.6979 61.5938 44.6942 61.62 44.7166L61.9484 45.0061C61.9745 45.0285 61.9761 45.0546 61.9537 45.0839C61.8385 45.2177 61.6882 45.327 61.5027 45.4123C61.3182 45.4998 61.1012 45.5424 60.8522 45.5424ZM61.387 43.8439C61.387 43.7575 61.3758 43.6813 61.3534 43.6136C61.3161 43.5048 61.251 43.42 61.1583 43.3582C61.0655 43.2963 60.9557 43.2654 60.8299 43.2654C60.6998 43.2654 60.5883 43.2963 60.4956 43.3582C60.4028 43.42 60.3378 43.5053 60.301 43.6136C60.2786 43.6813 60.2674 43.758 60.2674 43.8439C60.2674 43.8663 60.2786 43.8775 60.301 43.8775H61.3534C61.3758 43.8775 61.387 43.8663 61.387 43.8439Z" fill="white"/>
<path d="M63.6806 45.5426C63.406 45.5426 63.1731 45.4983 62.9817 45.4088C62.7903 45.3197 62.6394 45.2232 62.528 45.1193C62.5018 45.0931 62.5018 45.0675 62.528 45.0414L62.8452 44.7071C62.8713 44.681 62.8969 44.681 62.923 44.7071C63.0195 44.7962 63.1389 44.8698 63.2824 44.9268C63.4252 44.9844 63.567 45.0132 63.7083 45.0132C63.8752 45.0132 63.9994 44.9833 64.0815 44.9241C64.1631 44.865 64.2041 44.7887 64.2041 44.696C64.2041 44.6144 64.1737 44.5493 64.1124 44.5008C64.0511 44.4528 63.9333 44.4193 63.759 44.4006L63.4695 44.3729C63.1949 44.343 62.9886 44.2615 62.8516 44.1276C62.714 43.9938 62.6458 43.812 62.6458 43.5822C62.6458 43.3226 62.7348 43.1163 62.9129 42.9643C63.091 42.8124 63.349 42.7362 63.687 42.7362C63.8987 42.7362 64.0895 42.7665 64.2606 42.8279C64.4313 42.8892 64.5763 42.9681 64.6952 43.0646C64.725 43.087 64.7287 43.1131 64.7063 43.1424L64.4334 43.4708C64.411 43.4969 64.3849 43.5007 64.3555 43.482C64.2702 43.4228 64.1652 43.3706 64.041 43.3263C63.9168 43.2816 63.7878 43.2597 63.6539 43.2597C63.5201 43.2597 63.4194 43.2858 63.3506 43.3375C63.2818 43.3898 63.2477 43.4564 63.2477 43.538C63.2477 43.6158 63.2776 43.6782 63.3367 43.7246C63.3959 43.771 63.5132 43.8035 63.6875 43.8221L63.977 43.8499C64.2591 43.8797 64.468 43.9624 64.6035 44.0978C64.7389 44.2332 64.8066 44.4123 64.8066 44.6352C64.8066 44.9023 64.7117 45.1203 64.5224 45.2893C64.3321 45.4583 64.0522 45.5426 63.6806 45.5426Z" fill="white"/>
</svg>
