<svg width="24" height="24" viewBox="0 0 24 24" fill="none" xmlns="http://www.w3.org/2000/svg">
<path d="M13 15.9528H11C10.45 15.9528 10 15.5041 10 14.9557H3.01V18.9439C3.01 20.0407 3.91 20.938 5.01 20.938H19C20.1 20.938 21 20.0407 21 18.9439V14.9557H14C14 15.5041 13.55 15.9528 13 15.9528ZM20 6.97934H16C16 4.77587 14.21 2.99115 12 2.99115C9.79 2.99115 8 4.77587 8 6.97934H4C2.9 6.97934 2.00001 7.87669 2.00001 8.97344V11.9646C2.00001 13.0713 2.89 13.9587 4 13.9587H10V12.9616C10 12.4133 10.45 11.9646 11 11.9646H13C13.55 11.9646 14 12.4133 14 12.9616V13.9587H20C21.1 13.9587 22 13.0613 22 11.9646V8.97344C22 7.87669 21.1 6.97934 20 6.97934ZM10 6.97934C10 5.88259 10.9 4.98525 12 4.98525C13.1 4.98525 14 5.88259 14 6.97934H9.99H10Z" fill="white"/>
</svg>
