<svg width="29" height="28" viewBox="0 0 29 28" fill="none" xmlns="http://www.w3.org/2000/svg">
<path d="M19.8982 9.38124C19.5526 9.38132 19.2147 9.2789 18.9273 9.08695C18.6398 8.895 18.4158 8.62212 18.2834 8.30283C18.1511 7.98354 18.1163 7.63217 18.1837 7.29316C18.251 6.95414 18.4173 6.6427 18.6617 6.39822C18.906 6.15373 19.2173 5.98718 19.5563 5.91963C19.8952 5.85208 20.2466 5.88655 20.566 6.0187C20.8854 6.15084 21.1584 6.37472 21.3506 6.66203C21.5427 6.94933 21.6454 7.28716 21.6455 7.6328C21.6456 7.86234 21.6005 8.08965 21.5127 8.30175C21.425 8.51385 21.2963 8.70658 21.134 8.86895C20.9718 9.03131 20.7791 9.16012 20.5671 9.24802C20.3551 9.33592 20.1278 9.38119 19.8982 9.38124Z" fill="#2C3862"/>
<path d="M15.3719 13.5008C16.5254 13.3082 17.3383 12.6887 17.8207 12.1977C18.1207 11.8926 18.2895 11.4977 18.4258 11.0918C18.5202 10.8076 18.7017 10.5604 18.9445 10.3851C19.1873 10.2099 19.4791 10.1154 19.7785 10.1152H19.848C20.0354 10.1152 20.2208 10.1522 20.3939 10.2239C20.5669 10.2956 20.7241 10.4007 20.8565 10.5333C20.9889 10.6658 21.0938 10.8231 21.1654 10.9962C21.2369 11.1694 21.2736 11.3549 21.2734 11.5422V20.6539C21.2734 20.8457 21.2357 21.0355 21.1623 21.2127C21.0889 21.3898 20.9814 21.5508 20.8458 21.6864C20.7102 21.822 20.5492 21.9295 20.3721 22.0029C20.1949 22.0763 20.005 22.1141 19.8133 22.1141C19.6215 22.1141 19.4317 22.0763 19.2545 22.0029C19.0773 21.9295 18.9164 21.822 18.7808 21.6864C18.6452 21.5508 18.5377 21.3898 18.4643 21.2127C18.3909 21.0355 18.3531 20.8457 18.3531 20.6539V14.1484C18.3531 14.1484 17.6148 15.0836 15.6691 15.3418C15.5408 15.3587 15.4103 15.348 15.2864 15.3105C15.1624 15.273 15.0479 15.2095 14.9505 15.1243C14.853 15.039 14.7748 14.934 14.7211 14.8162C14.6674 14.6984 14.6395 14.5705 14.6391 14.441V14.402C14.6391 13.9664 14.9418 13.5727 15.3719 13.5008Z" fill="#2C3862"/>
<path d="M8.10156 9.38124C7.75596 9.38116 7.41814 9.27862 7.1308 9.08657C6.84347 8.89452 6.61953 8.62159 6.48729 8.30229C6.35505 7.98299 6.32045 7.63164 6.38787 7.29268C6.45528 6.95371 6.62168 6.64235 6.86604 6.39794C7.11039 6.15353 7.42172 5.98706 7.76067 5.91957C8.09962 5.85208 8.45097 5.8866 8.7703 6.01877C9.08963 6.15094 9.36261 6.37482 9.55472 6.66211C9.74684 6.9494 9.84945 7.2872 9.84961 7.6328C9.84971 7.86241 9.80457 8.08978 9.71676 8.30193C9.62896 8.51408 9.50021 8.70685 9.33787 8.86922C9.17553 9.0316 8.98279 9.16039 8.77066 9.24824C8.55853 9.3361 8.33117 9.38129 8.10156 9.38124Z" fill="#2C3862"/>
<path d="M8.15234 10.1055H8.22187C8.52132 10.1057 8.8131 10.2001 9.05589 10.3754C9.29867 10.5507 9.48015 10.7979 9.57461 11.082C9.70977 11.4879 9.87969 11.8828 10.1797 12.1879C10.6621 12.6793 11.475 13.2984 12.6285 13.491C13.0582 13.5629 13.3613 13.9566 13.3613 14.3926V14.4316C13.3609 14.5611 13.333 14.689 13.2793 14.8068C13.2256 14.9246 13.1474 15.0297 13.0499 15.1149C12.9525 15.2001 12.8379 15.2636 12.714 15.3011C12.5901 15.3386 12.4596 15.3493 12.3312 15.3324C10.3855 15.0742 9.64726 14.1391 9.64726 14.1391V20.6426C9.64726 21.0298 9.49343 21.4012 9.2196 21.6751C8.94576 21.9489 8.57437 22.1027 8.18711 22.1027C7.79985 22.1027 7.42845 21.9489 7.15462 21.6751C6.88079 21.4012 6.72695 21.0298 6.72695 20.6426V11.5309C6.72695 11.1528 6.87713 10.7903 7.14444 10.523C7.41175 10.2556 7.77431 10.1055 8.15234 10.1055Z" fill="#2C3862"/>
</svg>
