<svg width="24" height="24" viewBox="0 0 24 24" fill="none" xmlns="http://www.w3.org/2000/svg">
<path d="M18.9764 2.99999H14.8016C14.3821 1.83999 13.2835 0.999995 11.9851 0.999995C10.6867 0.999995 9.58806 1.83999 9.16858 2.99999H4.99377C3.89514 2.99999 2.99626 3.9 2.99626 5V19C2.99626 20.1 3.89514 21 4.99377 21H18.9764C20.075 21 20.9739 20.1 20.9739 19V5C20.9739 3.9 20.075 2.99999 18.9764 2.99999ZM11.9851 2.99999C12.5344 2.99999 12.9838 3.44999 12.9838 3.99999C12.9838 4.55 12.5344 5 11.9851 5C11.4358 5 10.9863 4.55 10.9863 3.99999C10.9863 3.44999 11.4358 2.99999 11.9851 2.99999ZM11.9851 6.99999C13.643 6.99999 14.9814 8.34 14.9814 9.99999C14.9814 11.66 13.643 13 11.9851 13C10.3271 13 8.9888 11.66 8.9888 9.99999C8.9888 8.34 10.3271 6.99999 11.9851 6.99999ZM17.9776 19H5.99253V17.6C5.99253 15.6 9.98756 14.5 11.9851 14.5C13.9826 14.5 17.9776 15.6 17.9776 17.6V19Z" fill="#2C3862"/>
</svg>
