<svg width="20" height="18" viewBox="0 0 20 18" fill="none" xmlns="http://www.w3.org/2000/svg">
<path opacity="0.5" d="M18.521 0.298743C18.3335 0.107458 18.0792 0 17.814 0C17.5488 0 17.2945 0.107458 17.107 0.298743L1.48 16.2457C1.38449 16.3399 1.30831 16.4524 1.2559 16.5769C1.20349 16.7014 1.1759 16.8353 1.17475 16.9708C1.1736 17.1063 1.1989 17.2406 1.24918 17.366C1.29946 17.4914 1.37371 17.6053 1.4676 17.7011C1.5615 17.797 1.67315 17.8727 1.79605 17.924C1.91894 17.9753 2.05062 18.0011 2.1834 18C2.31618 17.9988 2.4474 17.9706 2.5694 17.9172C2.69141 17.8637 2.80175 17.786 2.894 17.6885L18.52 1.74151C18.7075 1.55017 18.8128 1.29069 18.8128 1.02013C18.8128 0.749569 18.7075 0.490087 18.52 0.298743H18.521ZM3.108 12.5633L5.668 9.95122C5.59501 9.63757 5.5571 9.31649 5.555 8.99413C5.555 6.56673 7.545 4.59746 10 4.59746C10.286 4.59746 10.564 4.63011 10.835 4.68113L12.038 3.45467C11.3644 3.3408 10.6828 3.2828 10 3.28121C3.44 3.28019 0 8.20949 0 8.99413C0 9.42574 1.057 11.1267 3.108 12.5623V12.5633ZM16.895 5.42802L14.333 8.04011C14.402 8.34825 14.444 8.66558 14.444 8.99413C14.444 11.4215 12.455 13.3888 10 13.3888C9.716 13.3888 9.44 13.3561 9.171 13.3061L7.967 14.5336C8.609 14.6397 9.283 14.707 10 14.707C16.56 14.707 20 9.77572 20 8.99413C20 8.56151 18.944 6.86161 16.895 5.42802Z" fill="#C3C5C4"/>
</svg>
