<svg width="65" height="47" viewBox="0 0 65 47" fill="none" xmlns="http://www.w3.org/2000/svg">
<path d="M44.7064 10.6983V12.1671C44.7064 12.737 44.6675 13.2973 44.5913 13.8464C44.41 15.1643 44.0171 16.4156 43.4488 17.5634C42.8527 18.7667 42.0648 19.8569 41.1238 20.7947C40.3844 21.532 39.55 22.1744 38.6416 22.7028C37.354 23.4524 35.9157 23.9716 34.384 24.2057C33.7783 24.2984 33.1583 24.3464 32.5266 24.3464C27.738 24.3464 23.595 21.5827 21.6049 17.5629H26.1909C27.7172 19.3531 29.9889 20.4887 32.526 20.4887C33.1647 20.4887 33.7863 20.4167 34.3835 20.2802C36.0479 19.9012 37.522 19.0231 38.641 17.8118C38.7162 17.7308 38.7903 17.6476 38.8617 17.5629C39.7542 16.5158 40.3923 15.2448 40.6786 13.8459H20.4629C20.3872 13.2968 20.3478 12.7365 20.3478 12.1665C20.3478 11.6697 20.3776 11.1792 20.4357 10.6978C20.6372 9.01948 21.18 7.44675 21.993 6.04995C22.4563 5.25292 23.0075 4.51347 23.6345 3.84439C25.7388 1.59619 28.6864 0.146611 31.9726 0H34.384V3.84439H32.5266C30.3493 3.84439 28.3671 4.68087 26.8839 6.04995C25.5778 7.25482 24.6586 8.8734 24.334 10.6978L44.7064 10.6983Z" fill="white"/>
<path d="M44.7064 0.00097854V6.05039H41.1238V3.84537H38.6416V0.00097854H44.7064Z" fill="#44C1EF"/>
<path d="M3.18985 38.9205C2.87584 38.9205 2.56769 38.8912 2.26541 38.832C1.96312 38.7734 1.67843 38.695 1.41133 38.5964C1.14424 38.4983 0.898997 38.3826 0.675083 38.2488C0.451168 38.1155 0.260841 37.9742 0.103568 37.8249C0.0406589 37.762 0.036927 37.6954 0.0918393 37.6245L0.986963 36.5998C1.03388 36.5369 1.09306 36.5332 1.16343 36.5881C1.43053 36.8003 1.74027 36.9906 2.09374 37.1596C2.4472 37.3286 2.83585 37.4128 3.25969 37.4128C3.68353 37.4128 4.00767 37.3243 4.23159 37.1479C4.4555 36.9714 4.56746 36.7416 4.56746 36.4591C4.56746 36.2234 4.48109 36.031 4.30836 35.8822C4.13562 35.7329 3.80988 35.6274 3.3306 35.5639L2.90676 35.5053C2.09001 35.3955 1.46411 35.146 1.02801 34.7573C0.592447 34.3687 0.374398 33.8169 0.374398 33.1025C0.374398 32.7336 0.441039 32.3977 0.574854 32.0954C0.708136 31.7931 0.898997 31.5362 1.14637 31.324C1.39374 31.1118 1.69176 30.947 2.04149 30.8292C2.39069 30.7114 2.78148 30.6528 3.21331 30.6528C3.74697 30.6528 4.24971 30.7274 4.721 30.8767C5.19229 31.0259 5.5964 31.2301 5.9344 31.4892C6.00531 31.5362 6.01277 31.5953 5.95786 31.6657L5.2392 32.7373C5.19229 32.8002 5.13684 32.8119 5.07447 32.7725C4.76845 32.5683 4.46403 32.4153 4.16175 32.3129C3.85946 32.2111 3.54332 32.1599 3.21331 32.1599C2.85985 32.1599 2.59275 32.2426 2.41255 32.4073C2.23182 32.572 2.14172 32.7805 2.14172 33.0316C2.14172 33.2592 2.23395 33.448 2.41841 33.5972C2.60288 33.7465 2.92649 33.8526 3.39031 33.915L3.81415 33.9742C4.64636 34.084 5.27439 34.3335 5.69876 34.7221C6.1226 35.1108 6.33478 35.67 6.33478 36.4004C6.33478 36.7619 6.26814 37.0972 6.13433 37.4075C6.00051 37.7178 5.80272 37.9849 5.53935 38.2083C5.27599 38.4322 4.94811 38.607 4.55573 38.7323C4.16335 38.8576 3.70805 38.9205 3.18985 38.9205Z" fill="white"/>
<path d="M8.0661 30.7115C8.0661 30.6331 8.10556 30.5937 8.18393 30.5937H9.58552C9.67989 30.5937 9.74226 30.6331 9.77425 30.7115L11.8001 35.5992H11.8471L13.8378 30.7115C13.8692 30.6331 13.9321 30.5937 14.026 30.5937H15.4041C15.4825 30.5937 15.5219 30.6331 15.5219 30.7115V38.8028C15.5219 38.8817 15.4825 38.9206 15.4041 38.9206H14.0734C13.995 38.9206 13.9556 38.8817 13.9556 38.8028V34.292H13.9087L12.4244 37.672C12.3775 37.7744 12.3029 37.825 12.2005 37.825H11.388C11.2857 37.825 11.2116 37.7739 11.1641 37.672L9.67989 34.292H9.63297V38.8028C9.63297 38.8817 9.59352 38.9206 9.51515 38.9206H8.18446C8.10609 38.9206 8.06664 38.8817 8.06664 38.8028V30.7115H8.0661Z" fill="white"/>
<path d="M20.0171 30.7115C20.0406 30.6331 20.0917 30.5937 20.1701 30.5937H21.6543C21.7327 30.5937 21.7839 30.6331 21.8073 30.7115L24.5162 38.8028C24.5396 38.8817 24.5119 38.9206 24.4335 38.9206H22.9024C22.824 38.9206 22.7728 38.8817 22.7494 38.8028L22.2898 37.4012H19.4866L19.0388 38.8028C19.0153 38.8817 18.9642 38.9206 18.8858 38.9206H17.3429C17.264 38.9206 17.2368 38.8817 17.2603 38.8028L20.0171 30.7115ZM21.8191 35.9287L20.9122 33.1255H20.877L19.9702 35.9287H21.8191Z" fill="white"/>
<path d="M30.6839 38.9205C30.5975 38.9205 30.5384 38.8816 30.5074 38.8027L29.1293 35.5698H28.0577C28.0108 35.5698 27.9868 35.5933 27.9868 35.6407V38.8032C27.9868 38.8821 27.9474 38.9211 27.869 38.9211H26.373C26.2947 38.9211 26.2552 38.8821 26.2552 38.8032V30.729C26.2552 30.6506 26.2941 30.6112 26.373 30.6112H29.5649C29.9732 30.6112 30.3443 30.6719 30.678 30.7935C31.0118 30.9151 31.2981 31.0862 31.538 31.3058C31.7774 31.5255 31.9618 31.7889 32.0914 32.0949C32.2209 32.4009 32.286 32.7352 32.286 33.0961C32.286 33.6143 32.1601 34.0659 31.909 34.4508C31.6574 34.8357 31.3082 35.1262 30.8609 35.3224L32.439 38.7792C32.4544 38.8187 32.4544 38.8518 32.439 38.8795C32.423 38.9072 32.3958 38.9205 32.3563 38.9205H30.6839ZM29.471 34.0973C29.801 34.0973 30.0639 34.0072 30.2601 33.8265C30.4563 33.6457 30.5544 33.4026 30.5544 33.0961C30.5544 32.7975 30.4563 32.5582 30.2601 32.3774C30.0639 32.1967 29.8005 32.1066 29.471 32.1066H28.0577C28.0108 32.1066 27.9868 32.1301 27.9868 32.1775V34.0264C27.9868 34.0733 28.0103 34.0973 28.0577 34.0973H29.471Z" fill="white"/>
<path d="M36.5143 38.9206C36.4359 38.9206 36.3965 38.8817 36.3965 38.8027V32.2127C36.3965 32.1658 36.373 32.1418 36.3256 32.1418H34.2997C34.2213 32.1418 34.1819 32.1029 34.1819 32.0251V30.7274C34.1819 30.6496 34.2213 30.6107 34.2997 30.6107H40.2238C40.3022 30.6107 40.3416 30.6496 40.3416 30.7274V32.0251C40.3416 32.1029 40.3022 32.1418 40.2238 32.1418H38.1979C38.151 32.1418 38.127 32.1653 38.127 32.2127V38.8027C38.127 38.8817 38.0876 38.9206 38.0092 38.9206H36.5143Z" fill="white"/>
<path d="M46.8382 38.9205C46.1393 38.9205 45.5288 38.7595 45.0069 38.4375C44.4844 38.1155 44.1214 37.6287 43.9172 36.9773C43.8703 36.836 43.833 36.6984 43.8052 36.5651C43.7775 36.4319 43.7562 36.2826 43.7402 36.1173C43.7242 35.9526 43.7125 35.7639 43.705 35.5522C43.697 35.34 43.6933 35.0239 43.6933 34.7259C43.6933 34.4273 43.697 34.1725 43.705 33.9603C43.713 33.7481 43.7247 33.5599 43.7402 33.3952C43.7556 33.2304 43.7775 33.0811 43.8052 32.9473C43.8324 32.8141 43.8697 32.6765 43.9172 32.5352C44.1214 31.8917 44.4844 31.4066 45.0069 31.0808C45.5288 30.7551 46.1393 30.592 46.8382 30.592C47.5371 30.592 48.1476 30.7551 48.6695 31.0808C49.1914 31.4066 49.5545 31.8917 49.7592 32.5352C49.8061 32.6765 49.8434 32.8141 49.8712 32.9473C49.8984 33.0811 49.9202 33.2299 49.9362 33.3952C49.9517 33.5599 49.9634 33.7486 49.9714 33.9603C49.9789 34.1725 49.9831 34.4273 49.9831 34.7259C49.9831 35.0244 49.9789 35.3406 49.9714 35.5522C49.9634 35.7644 49.9517 35.9526 49.9362 36.1173C49.9202 36.2821 49.8989 36.4313 49.8712 36.5651C49.8434 36.699 49.8067 36.836 49.7592 36.9773C49.555 37.6293 49.192 38.116 48.6695 38.4375C48.1476 38.7595 47.5371 38.9205 46.8382 38.9205ZM46.8382 37.3894C47.1682 37.3894 47.439 37.311 47.6507 37.1537C47.8629 36.997 48.0116 36.7811 48.0985 36.506C48.122 36.4351 48.1417 36.3551 48.1572 36.2645C48.1726 36.1744 48.1865 36.064 48.1982 35.9345C48.2099 35.8049 48.2179 35.646 48.2217 35.4573C48.2254 35.2691 48.2275 34.9839 48.2275 34.7248C48.2275 34.4657 48.2254 34.2418 48.2217 34.0536C48.2174 33.8648 48.2099 33.706 48.1982 33.5764C48.1865 33.4469 48.1726 33.3371 48.1572 33.2464C48.1412 33.1563 48.122 33.0758 48.0985 33.0049C48.0121 32.7304 47.8629 32.5144 47.6507 32.3572C47.4385 32.2004 47.1677 32.1215 46.8382 32.1215C46.5087 32.1215 46.2374 32.1999 46.0257 32.3572C45.8135 32.5144 45.6643 32.7304 45.5779 33.0049C45.5544 33.0758 45.5347 33.1563 45.5192 33.2464C45.5032 33.3371 45.4899 33.4469 45.4782 33.5764C45.4665 33.706 45.4585 33.8648 45.4547 34.0536C45.451 34.2418 45.4489 34.4657 45.4489 34.7248C45.4489 34.9839 45.4505 35.2686 45.4547 35.4573C45.4585 35.646 45.4665 35.8049 45.4782 35.9345C45.4899 36.064 45.5038 36.1738 45.5192 36.2645C45.5347 36.3551 45.5544 36.4351 45.5779 36.506C45.6643 36.7811 45.8135 36.997 46.0257 37.1537C46.2379 37.311 46.5087 37.3894 46.8382 37.3894Z" fill="white"/>
<path d="M51.7149 30.7093C51.7149 30.6309 51.7538 30.5915 51.8327 30.5915H53.246C53.3324 30.5915 53.399 30.6309 53.4465 30.7093L56.2731 36.0705H56.3318V30.7093C56.3318 30.6309 56.3707 30.5915 56.4496 30.5915H57.7808C57.8592 30.5915 57.8986 30.6309 57.8986 30.7093V38.8027C57.8986 38.8816 57.8592 38.9206 57.7808 38.9206H56.3792C56.2928 38.9206 56.2262 38.8816 56.1787 38.8027L53.3404 33.4533H53.2817V38.8027C53.2817 38.8816 53.2423 38.9206 53.1639 38.9206H51.8332C51.7548 38.9206 51.7154 38.8816 51.7154 38.8027V30.7093H51.7149Z" fill="white"/>
<path d="M59.6293 30.7093C59.6293 30.6309 59.6682 30.5915 59.7471 30.5915H64.8822C64.9606 30.5915 65 30.6309 65 30.7093V31.9696C65 32.048 64.9606 32.0874 64.8822 32.0874H61.4313C61.3843 32.0874 61.3604 32.1109 61.3604 32.1583V34.0685C61.3604 34.1155 61.3838 34.1395 61.4313 34.1395H64.3054C64.3837 34.1395 64.4232 34.1789 64.4232 34.2573V35.5059C64.4232 35.5842 64.3837 35.6237 64.3054 35.6237H61.4313C61.3843 35.6237 61.3604 35.6471 61.3604 35.6946V37.3553C61.3604 37.4022 61.3838 37.4262 61.4313 37.4262H64.8822C64.9606 37.4262 65 37.4656 65 37.544V38.8043C65 38.8832 64.9606 38.9222 64.8822 38.9222H59.7471C59.6687 38.9222 59.6293 38.8832 59.6293 38.8043V30.7093Z" fill="white"/>
<path d="M0.0996953 44.6106C0.0810358 44.5509 0.0655751 44.4928 0.0522468 44.4352C0.0394517 44.3777 0.0287892 44.311 0.0218585 44.2348C0.0143947 44.1585 0.00852999 44.0695 0.00533121 43.9671C0.00159931 43.8648 0 43.7374 0 43.5849C0 43.4361 0.00159931 43.3098 0.00533121 43.2058C0.00906311 43.1019 0.0143947 43.0118 0.0218585 42.9355C0.0293223 42.8593 0.0394517 42.7927 0.0522468 42.7351C0.0650419 42.6775 0.0810358 42.6189 0.0996953 42.5592C0.196192 42.2473 0.358796 42.0138 0.586975 41.8597C0.815155 41.7056 1.09078 41.6283 1.41386 41.6283C1.71828 41.6283 1.98057 41.7013 2.20182 41.8474C2.42254 41.9935 2.58674 42.1934 2.69443 42.4467C2.70563 42.4802 2.69603 42.5021 2.66671 42.5133L2.19329 42.7415C2.15971 42.7601 2.13572 42.7505 2.12079 42.7138C2.05788 42.5799 1.97151 42.4653 1.86169 42.3683C1.7524 42.2718 1.60259 42.2238 1.41333 42.2238C1.23153 42.2238 1.08545 42.2681 0.976159 42.3571C0.866868 42.4461 0.785833 42.5682 0.734119 42.7239C0.722923 42.7649 0.712794 42.8055 0.703731 42.846C0.694668 42.8865 0.687203 42.9393 0.681339 43.0043C0.676008 43.0688 0.672276 43.1477 0.670143 43.2405C0.668011 43.3333 0.667478 43.4479 0.667478 43.5849C0.667478 43.7256 0.668544 43.8413 0.670143 43.932C0.671743 44.0226 0.675475 44.1004 0.681339 44.1655C0.68667 44.2305 0.694134 44.2838 0.703731 44.3265C0.712794 44.3691 0.723456 44.4086 0.734119 44.4459C0.785833 44.6016 0.866868 44.7237 0.976159 44.8127C1.08545 44.9017 1.23153 44.946 1.41333 44.946C1.60259 44.946 1.75186 44.898 1.86169 44.8015C1.97098 44.705 2.05735 44.5898 2.12079 44.4566C2.13572 44.4192 2.15971 44.4102 2.19329 44.4288L2.66671 44.657C2.69657 44.6682 2.70563 44.6906 2.69443 44.7237C2.58674 44.9769 2.42254 45.1768 2.20182 45.3229C1.98111 45.469 1.71828 45.542 1.41386 45.542C1.09078 45.542 0.815155 45.4647 0.586975 45.3106C0.358796 45.156 0.196192 44.923 0.0996953 44.6106Z" fill="white"/>
<path d="M4.35364 45.542C4.07908 45.542 3.84397 45.4769 3.64938 45.3474C3.45426 45.2173 3.31991 45.0355 3.2458 44.802C3.21595 44.7055 3.19356 44.6079 3.17916 44.5098C3.16423 44.4117 3.15677 44.288 3.15677 44.1393C3.15677 43.9911 3.16423 43.8674 3.17916 43.7693C3.19409 43.6712 3.21595 43.5736 3.2458 43.4771C3.31991 43.2431 3.45479 43.0613 3.64938 42.9318C3.84397 42.8017 4.07908 42.7366 4.35364 42.7366C4.62447 42.7366 4.85745 42.8017 5.05258 42.9318C5.24717 43.0618 5.38205 43.2436 5.45616 43.4771C5.48601 43.5736 5.50787 43.6712 5.5228 43.7693C5.53772 43.8679 5.54519 43.9911 5.54519 44.1393C5.54519 44.288 5.53772 44.4112 5.5228 44.5098C5.50787 44.6079 5.48548 44.7055 5.45616 44.802C5.38205 45.036 5.24717 45.2178 5.05258 45.3474C4.85745 45.4769 4.62447 45.542 4.35364 45.542ZM4.35364 44.9854C4.48 44.9854 4.58449 44.9544 4.66819 44.8937C4.75189 44.8324 4.81373 44.746 4.85479 44.6346C4.87718 44.5642 4.8921 44.4928 4.89957 44.4203C4.90703 44.3477 4.91076 44.2539 4.91076 44.1393C4.91076 44.0241 4.90703 43.9314 4.89957 43.861C4.8921 43.7906 4.87718 43.7181 4.85479 43.644C4.81373 43.5326 4.75189 43.4462 4.66819 43.3849C4.58449 43.3236 4.48 43.2932 4.35364 43.2932C4.22729 43.2932 4.12173 43.3236 4.03643 43.3849C3.95113 43.4462 3.88769 43.5326 3.84717 43.644C3.82478 43.7181 3.80985 43.7906 3.80239 43.861C3.79493 43.9314 3.79119 44.0241 3.79119 44.1393C3.79119 44.2544 3.79493 44.3483 3.80239 44.4203C3.80985 44.4928 3.82478 44.5642 3.84717 44.6346C3.88822 44.746 3.95113 44.8324 4.03643 44.8937C4.12173 44.9544 4.22729 44.9854 4.35364 44.9854Z" fill="white"/>
<path d="M7.91121 45.4806C7.87389 45.4806 7.85577 45.462 7.85577 45.4252V43.8775C7.85577 43.7032 7.81312 43.5619 7.72781 43.4542C7.64251 43.3465 7.51616 43.2927 7.34929 43.2927C7.18616 43.2927 7.0598 43.3465 6.97077 43.4542C6.88174 43.5619 6.83696 43.7032 6.83696 43.8775V45.4252C6.83696 45.4625 6.8183 45.4806 6.78151 45.4806H6.26917C6.23185 45.4806 6.21373 45.462 6.21373 45.4252V42.8528C6.21373 42.8155 6.23239 42.7974 6.26917 42.7974H6.78151C6.8183 42.7974 6.83696 42.8161 6.83696 42.8528V43.048H6.84229C6.90146 42.9627 6.98996 42.8891 7.10672 42.8283C7.22347 42.767 7.37115 42.7366 7.54922 42.7366C7.69423 42.7366 7.82271 42.7617 7.93627 42.8118C8.04929 42.8619 8.14685 42.9318 8.22842 43.0208C8.30999 43.1098 8.37237 43.2148 8.41502 43.3353C8.45767 43.4558 8.47899 43.5886 8.47899 43.7336V45.4263C8.47899 45.4636 8.46033 45.4817 8.42355 45.4817H7.91121V45.4806Z" fill="white"/>
<path d="M10.9623 45.4806C10.925 45.4806 10.9069 45.462 10.9069 45.4252V43.8775C10.9069 43.7032 10.8642 43.5619 10.7789 43.4542C10.6936 43.3465 10.5672 43.2927 10.4004 43.2927C10.2372 43.2927 10.1109 43.3465 10.0219 43.4542C9.93283 43.5619 9.88804 43.7032 9.88804 43.8775V45.4252C9.88804 45.4625 9.86938 45.4806 9.8326 45.4806H9.32026C9.28294 45.4806 9.26482 45.462 9.26482 45.4252V42.8528C9.26482 42.8155 9.28348 42.7974 9.32026 42.7974H9.8326C9.86938 42.7974 9.88804 42.8161 9.88804 42.8528V43.048H9.89338C9.95255 42.9627 10.0411 42.8891 10.1578 42.8283C10.2746 42.767 10.4222 42.7366 10.6003 42.7366C10.7453 42.7366 10.8738 42.7617 10.9874 42.8118C11.1004 42.8619 11.1979 42.9318 11.2795 43.0208C11.3611 43.1098 11.4235 43.2148 11.4661 43.3353C11.5088 43.4558 11.5301 43.5886 11.5301 43.7336V45.4263C11.5301 45.4636 11.5114 45.4817 11.4746 45.4817H10.9623V45.4806Z" fill="white"/>
<path d="M13.3782 45.542C13.0924 45.542 12.8536 45.4759 12.6616 45.3442C12.4697 45.2125 12.3375 45.0296 12.2634 44.7956C12.2341 44.7103 12.2112 44.6148 12.1946 44.5088C12.1781 44.4032 12.1701 44.2795 12.1701 44.1382C12.1701 43.9975 12.1776 43.8727 12.192 43.765C12.2069 43.6573 12.2287 43.5609 12.2581 43.4756C12.3316 43.2415 12.4655 43.0597 12.659 42.9302C12.8525 42.8001 13.0828 42.735 13.3504 42.735C13.6287 42.735 13.8633 42.8011 14.0547 42.9328C14.2456 43.0645 14.3783 43.2458 14.453 43.4756C14.4679 43.5241 14.4807 43.572 14.4919 43.62C14.5031 43.6685 14.5121 43.724 14.5196 43.7869C14.5271 43.8498 14.5324 43.9213 14.5361 44.0012C14.5399 44.0812 14.5415 44.175 14.5415 44.2822C14.5415 44.3195 14.5212 44.3376 14.4802 44.3376H12.8264C12.804 44.3376 12.7928 44.3488 12.7928 44.3712C12.7928 44.4123 12.7965 44.449 12.804 44.4826C12.8115 44.5162 12.8205 44.5477 12.8317 44.5775C12.9245 44.8484 13.1249 44.9838 13.4331 44.9838C13.585 44.9838 13.7114 44.9598 13.8116 44.9113C13.9118 44.8633 13.9955 44.802 14.0622 44.7273C14.092 44.6975 14.1198 44.6938 14.1459 44.7161L14.4743 45.0056C14.5004 45.028 14.502 45.0541 14.4796 45.0835C14.3645 45.2173 14.2141 45.3266 14.0286 45.4119C13.8441 45.4993 13.6266 45.542 13.3782 45.542ZM13.9129 43.8434C13.9129 43.757 13.9017 43.6808 13.8793 43.6131C13.842 43.5043 13.777 43.4196 13.6847 43.3577C13.592 43.2959 13.4821 43.265 13.3563 43.265C13.2262 43.265 13.1148 43.2959 13.022 43.3577C12.9293 43.4196 12.8642 43.5049 12.8269 43.6131C12.8045 43.6808 12.7933 43.7576 12.7933 43.8434C12.7933 43.8658 12.8045 43.877 12.8269 43.877H13.8793C13.9017 43.877 13.9129 43.8658 13.9129 43.8434Z" fill="white"/>
<path d="M16.2621 45.5422C15.9912 45.5422 15.7583 45.4793 15.5631 45.3529C15.368 45.2266 15.2321 45.0432 15.1537 44.8016C15.0983 44.6348 15.07 44.4141 15.07 44.139C15.07 43.8644 15.0977 43.6437 15.1537 43.4763C15.2315 43.2348 15.368 43.0514 15.5631 42.925C15.7577 42.7987 15.9907 42.7358 16.2621 42.7358C16.4625 42.7358 16.6406 42.7731 16.7968 42.8472C16.9525 42.9213 17.0842 43.0237 17.1919 43.1532C17.2142 43.1831 17.2121 43.2087 17.1865 43.2311L16.8357 43.5371C16.8059 43.5595 16.7803 43.5557 16.7579 43.5259C16.6912 43.4518 16.6198 43.3942 16.5436 43.3531C16.4673 43.3126 16.3735 43.2918 16.2626 43.2918C16.1437 43.2918 16.0408 43.3206 15.9534 43.3782C15.866 43.4358 15.802 43.5237 15.7615 43.6426C15.7391 43.7093 15.7242 43.7828 15.7167 43.8623C15.7092 43.9422 15.7055 44.0339 15.7055 44.1379C15.7055 44.2419 15.7092 44.3346 15.7167 44.4162C15.7242 44.4978 15.7391 44.5719 15.7615 44.639C15.8025 44.7542 15.8665 44.8406 15.9534 44.8981C16.0403 44.9557 16.1437 44.9845 16.2626 44.9845C16.374 44.9845 16.4679 44.9643 16.5436 44.9232C16.6198 44.8827 16.6912 44.8251 16.7579 44.7505C16.7803 44.7243 16.8059 44.7227 16.8357 44.7451L17.1865 45.0512C17.2089 45.0698 17.2105 45.0954 17.1919 45.129C17.0842 45.2553 16.9525 45.3556 16.7968 45.4297C16.6411 45.5048 16.4625 45.5422 16.2621 45.5422Z" fill="white"/>
<path d="M18.6453 45.5142C18.3745 45.5142 18.182 45.4492 18.069 45.3191C17.956 45.189 17.8989 44.9923 17.8989 44.7289V43.3145C17.8989 43.2921 17.8877 43.2809 17.8653 43.2809H17.6873C17.6499 43.2809 17.6318 43.2623 17.6318 43.2255V42.8523C17.6318 42.815 17.6505 42.7969 17.6873 42.7969H17.8653C17.8877 42.7969 17.8989 42.7857 17.8989 42.7633V42.0281C17.8989 41.9913 17.9176 41.9726 17.9544 41.9726H18.4667C18.5035 41.9726 18.5221 41.9913 18.5221 42.0281V42.7633C18.5221 42.7857 18.5333 42.7969 18.5557 42.7969H18.9119C18.9487 42.7969 18.9673 42.8155 18.9673 42.8523V43.2255C18.9673 43.2628 18.9487 43.2809 18.9119 43.2809H18.5557C18.5333 43.2809 18.5221 43.2921 18.5221 43.3145V44.7065C18.5221 44.803 18.5424 44.8691 18.5835 44.9043C18.6245 44.9395 18.6874 44.9571 18.7727 44.9571H18.9119C18.9487 44.9571 18.9673 44.9758 18.9673 45.0125V45.4577C18.9673 45.495 18.9487 45.5131 18.9119 45.5131H18.6453V45.5142Z" fill="white"/>
<path d="M21.028 45.4808C20.9907 45.4808 20.9726 45.4621 20.9726 45.4248V41.7446C20.9726 41.7073 20.9912 41.6886 21.028 41.6886H22.4477C22.6295 41.6886 22.7975 41.7174 22.9515 41.775C23.1056 41.8326 23.2373 41.9125 23.3466 42.0149C23.4559 42.1172 23.5417 42.2409 23.6025 42.3859C23.6638 42.531 23.6942 42.6909 23.6942 42.8658C23.6942 43.0444 23.6638 43.2059 23.6025 43.3514C23.5412 43.4965 23.4559 43.6201 23.3466 43.7225C23.2373 43.8249 23.1051 43.9048 22.9515 43.9624C22.7975 44.02 22.6295 44.0488 22.4477 44.0488H21.663C21.6406 44.0488 21.6294 44.06 21.6294 44.0824V45.4242C21.6294 45.4616 21.6107 45.4797 21.5739 45.4797H21.028V45.4808ZM22.4083 43.4543C22.605 43.4543 22.7591 43.4016 22.8705 43.2955C22.9819 43.1899 23.0374 43.0476 23.0374 42.8695C23.0374 42.6952 22.9819 42.5539 22.8705 42.4462C22.7591 42.3385 22.605 42.2846 22.4083 42.2846H21.6624C21.64 42.2846 21.6288 42.2958 21.6288 42.3182V43.4207C21.6288 43.4431 21.64 43.4543 21.6624 43.4543H22.4083Z" fill="white"/>
<path d="M25.354 45.542C25.0683 45.542 24.8294 45.4759 24.6375 45.3442C24.4456 45.2125 24.3134 45.0296 24.2393 44.7956C24.2099 44.7103 24.187 44.6148 24.1705 44.5088C24.154 44.4032 24.146 44.2795 24.146 44.1382C24.146 43.9975 24.1534 43.8727 24.1678 43.765C24.1827 43.6573 24.2046 43.5609 24.2339 43.4756C24.3075 43.2415 24.4413 43.0597 24.6348 42.9302C24.8284 42.8001 25.0587 42.735 25.3263 42.735C25.6046 42.735 25.8392 42.8011 26.0306 42.9328C26.2214 43.0645 26.3542 43.2458 26.4288 43.4756C26.4437 43.5241 26.4565 43.572 26.4677 43.62C26.4789 43.6685 26.488 43.724 26.4955 43.7869C26.5029 43.8498 26.5083 43.9213 26.512 44.0012C26.5157 44.0812 26.5173 44.175 26.5173 44.2822C26.5173 44.3195 26.4971 44.3376 26.456 44.3376H24.8022C24.7799 44.3376 24.7687 44.3488 24.7687 44.3712C24.7687 44.4123 24.7724 44.449 24.7799 44.4826C24.7873 44.5162 24.7964 44.5477 24.8076 44.5775C24.9003 44.8484 25.1008 44.9838 25.4089 44.9838C25.5609 44.9838 25.6872 44.9598 25.7875 44.9113C25.8877 44.8633 25.9714 44.802 26.038 44.7273C26.0679 44.6975 26.0956 44.6938 26.1217 44.7161L26.4501 45.0056C26.4763 45.028 26.4779 45.0541 26.4555 45.0835C26.3403 45.2173 26.19 45.3266 26.0044 45.4119C25.8195 45.4993 25.6025 45.542 25.354 45.542ZM25.8882 43.8434C25.8882 43.757 25.877 43.6808 25.8546 43.6131C25.8173 43.5043 25.7523 43.4196 25.66 43.3577C25.5673 43.2959 25.4575 43.265 25.3316 43.265C25.2016 43.265 25.0901 43.2959 24.9974 43.3577C24.9046 43.4196 24.8396 43.5049 24.8022 43.6131C24.7799 43.6808 24.7687 43.7576 24.7687 43.8434C24.7687 43.8658 24.7799 43.877 24.8022 43.877H25.8552C25.8776 43.877 25.8882 43.8658 25.8882 43.8434Z" fill="white"/>
<path d="M28.2437 45.542C27.9692 45.542 27.734 45.4769 27.5395 45.3474C27.3443 45.2173 27.21 45.0355 27.1359 44.802C27.106 44.7055 27.0836 44.6079 27.0692 44.5098C27.0543 44.4117 27.0468 44.288 27.0468 44.1393C27.0468 43.9911 27.0543 43.8674 27.0692 43.7693C27.0842 43.6712 27.106 43.5736 27.1359 43.4771C27.21 43.2431 27.3449 43.0613 27.5395 42.9318C27.734 42.8017 27.9692 42.7366 28.2437 42.7366C28.5145 42.7366 28.7475 42.8017 28.9426 42.9318C29.1372 43.0618 29.2721 43.2436 29.3462 43.4771C29.3761 43.5736 29.3979 43.6712 29.4129 43.7693C29.4278 43.8679 29.4353 43.9911 29.4353 44.1393C29.4353 44.288 29.4278 44.4112 29.4129 44.5098C29.3979 44.6079 29.3756 44.7055 29.3462 44.802C29.2721 45.036 29.1372 45.2178 28.9426 45.3474C28.7475 45.4769 28.5145 45.542 28.2437 45.542ZM28.2437 44.9854C28.3701 44.9854 28.4746 44.9544 28.5583 44.8937C28.642 44.8324 28.7038 44.746 28.7449 44.6346C28.7673 44.5642 28.7822 44.4928 28.7896 44.4203C28.7971 44.3477 28.8008 44.2539 28.8008 44.1393C28.8008 44.0241 28.7971 43.9314 28.7896 43.861C28.7822 43.7906 28.7673 43.7181 28.7449 43.644C28.7038 43.5326 28.642 43.4462 28.5583 43.3849C28.4746 43.3236 28.3701 43.2932 28.2437 43.2932C28.1174 43.2932 28.0118 43.3236 27.9265 43.3849C27.8412 43.4462 27.7778 43.5326 27.7372 43.644C27.7149 43.7181 27.6999 43.7906 27.6925 43.861C27.685 43.9314 27.6813 44.0241 27.6813 44.1393C27.6813 44.2544 27.685 44.3483 27.6925 44.4203C27.6999 44.4928 27.7149 44.5642 27.7372 44.6346C27.7783 44.746 27.8412 44.8324 27.9265 44.8937C28.0118 44.9544 28.1174 44.9854 28.2437 44.9854Z" fill="white"/>
<path d="M30.1588 46.4831C30.1214 46.4831 30.1033 46.4644 30.1033 46.4276V42.8536C30.1033 42.8162 30.122 42.7981 30.1588 42.7981H30.6711C30.7079 42.7981 30.7265 42.8168 30.7265 42.8536V43.0535H30.7319C30.7948 42.9607 30.8838 42.8845 30.999 42.8253C31.1141 42.7661 31.2623 42.7363 31.4441 42.7363C31.6744 42.7363 31.869 42.7901 32.029 42.8978C32.1884 43.0055 32.3035 43.167 32.3739 43.3824C32.4075 43.4864 32.4315 43.593 32.4464 43.7023C32.4613 43.8116 32.4688 43.9577 32.4688 44.1395C32.4688 44.3213 32.4613 44.4673 32.4464 44.5766C32.4315 44.6859 32.4075 44.7931 32.3739 44.8965C32.3035 45.1119 32.1884 45.2734 32.029 45.3806C31.8696 45.4883 31.6744 45.5421 31.4441 45.5421C31.2623 45.5421 31.1136 45.5123 30.999 45.4531C30.8838 45.3939 30.7948 45.3177 30.7319 45.2249H30.7265V46.4276C30.7265 46.465 30.7079 46.4831 30.6711 46.4831H30.1588ZM31.2837 44.9855C31.5396 44.9855 31.7048 44.8704 31.7789 44.6406C31.7976 44.5777 31.8115 44.5089 31.8205 44.4348C31.8296 44.3607 31.8344 44.2621 31.8344 44.1395C31.8344 44.0168 31.8296 43.9187 31.8205 43.8446C31.8115 43.7705 31.7971 43.7018 31.7789 43.6388C31.7048 43.4085 31.5396 43.2939 31.2837 43.2939C31.024 43.2939 30.8566 43.4091 30.7825 43.6388C30.7639 43.7018 30.75 43.7705 30.7409 43.8446C30.7319 43.9187 30.7271 44.0174 30.7271 44.1395C30.7271 44.2621 30.7319 44.3602 30.7409 44.4348C30.75 44.5089 30.7639 44.5777 30.7825 44.6406C30.8566 44.8704 31.0235 44.9855 31.2837 44.9855Z" fill="white"/>
<path d="M33.8612 45.5143C33.5978 45.5143 33.4091 45.4514 33.2961 45.325C33.1831 45.1987 33.126 45.0057 33.126 44.746V41.7509C33.126 41.7136 33.1447 41.6955 33.1815 41.6955H33.6938C33.7311 41.6955 33.7492 41.7141 33.7492 41.7509V44.713C33.7492 44.8057 33.7679 44.8697 33.8047 44.9049C33.842 44.9401 33.9012 44.9577 33.9828 44.9577H34.1054C34.1427 44.9577 34.1608 44.9763 34.1608 45.0131V45.4583C34.1608 45.4956 34.1422 45.5137 34.1054 45.5137H33.8612V45.5143Z" fill="white"/>
<path d="M35.821 45.542C35.5352 45.542 35.2964 45.4759 35.1045 45.3442C34.9125 45.2125 34.7803 45.0296 34.7062 44.7956C34.6769 44.7103 34.654 44.6148 34.6374 44.5088C34.6209 44.4032 34.6129 44.2795 34.6129 44.1382C34.6129 43.9975 34.6204 43.8727 34.6348 43.765C34.6497 43.6573 34.6716 43.5609 34.7009 43.4756C34.7744 43.2415 34.9077 43.0597 35.1018 42.9302C35.2953 42.8001 35.5256 42.735 35.7933 42.735C36.0716 42.735 36.3061 42.8011 36.4975 42.9328C36.6884 43.0645 36.8211 43.2458 36.8958 43.4756C36.9107 43.5241 36.9235 43.572 36.9347 43.62C36.9459 43.6685 36.9549 43.724 36.9624 43.7869C36.9699 43.8498 36.9752 43.9213 36.9789 44.0012C36.9827 44.0812 36.9843 44.175 36.9843 44.2822C36.9843 44.3195 36.964 44.3376 36.923 44.3376H35.2692C35.2468 44.3376 35.2356 44.3488 35.2356 44.3712C35.2356 44.4123 35.2393 44.449 35.2468 44.4826C35.2543 44.5162 35.2633 44.5477 35.2745 44.5775C35.3673 44.8484 35.5677 44.9838 35.8759 44.9838C36.0278 44.9838 36.1542 44.9598 36.2544 44.9113C36.3546 44.8633 36.4383 44.802 36.505 44.7273C36.5348 44.6975 36.5626 44.6938 36.5887 44.7161L36.9171 45.0056C36.9432 45.028 36.9448 45.0541 36.9224 45.0835C36.8073 45.2173 36.6569 45.3266 36.4714 45.4119C36.2864 45.4993 36.0694 45.542 35.821 45.542ZM36.3552 43.8434C36.3552 43.757 36.344 43.6808 36.3216 43.6131C36.2843 43.5043 36.2192 43.4196 36.1265 43.3577C36.0337 43.2959 35.9239 43.265 35.7981 43.265C35.668 43.265 35.5565 43.2959 35.4638 43.3577C35.371 43.4196 35.306 43.5049 35.2692 43.6131C35.2468 43.6808 35.2356 43.7576 35.2356 43.8434C35.2356 43.8658 35.2468 43.877 35.2692 43.877H36.3216C36.344 43.877 36.3552 43.8658 36.3552 43.8434Z" fill="white"/>
<path d="M40.5695 45.4809C40.5321 45.4809 40.514 45.4622 40.514 45.4254V45.2303H40.5087C40.4458 45.323 40.3509 45.3982 40.2245 45.4558C40.0982 45.5134 39.9404 45.5422 39.7511 45.5422C39.6285 45.5422 39.5128 45.5256 39.403 45.4921C39.2937 45.459 39.1977 45.4089 39.1162 45.3422C39.0346 45.2756 38.9695 45.1914 38.921 45.0895C38.8725 44.9877 38.8485 44.8667 38.8485 44.7259C38.8485 44.4338 38.944 44.2195 39.1353 44.0825C39.3262 43.9454 39.589 43.8772 39.9233 43.8772H40.4687C40.4911 43.8772 40.5023 43.866 40.5023 43.8436V43.7146C40.5023 43.5573 40.4596 43.4432 40.3743 43.3718C40.289 43.3009 40.1328 43.2652 39.9068 43.2652C39.7543 43.2652 39.6301 43.2828 39.5336 43.318C39.4371 43.3531 39.3571 43.3969 39.2942 43.4486C39.2606 43.4747 39.2345 43.471 39.2164 43.4374L39.0106 43.07C38.9919 43.0402 38.9957 43.0162 39.0218 42.9975C39.1295 42.9197 39.259 42.8568 39.4115 42.8083C39.5635 42.7603 39.7511 42.7358 39.974 42.7358C40.3823 42.7358 40.6708 42.8099 40.8398 42.9586C41.0088 43.1074 41.093 43.3446 41.093 43.6714V45.4254C41.093 45.4627 41.0743 45.4809 41.0376 45.4809H40.5695ZM39.9073 45.0357C40.1003 45.0357 40.248 44.9984 40.3498 44.9243C40.4516 44.8502 40.5028 44.735 40.5028 44.5793V44.3735C40.5028 44.3512 40.4916 44.34 40.4692 44.34H40.0241C39.8236 44.34 39.677 44.3687 39.5842 44.4263C39.4915 44.4839 39.4451 44.5756 39.4451 44.702C39.4451 44.9243 39.5992 45.0357 39.9073 45.0357Z" fill="white"/>
<path d="M43.5814 45.4806C43.5441 45.4806 43.526 45.462 43.526 45.4252V43.8775C43.526 43.7032 43.4833 43.5619 43.398 43.4542C43.3127 43.3465 43.1864 43.2927 43.0195 43.2927C42.8564 43.2927 42.73 43.3465 42.641 43.4542C42.552 43.5619 42.5072 43.7032 42.5072 43.8775V45.4252C42.5072 45.4625 42.4885 45.4806 42.4517 45.4806H41.9394C41.9021 45.4806 41.884 45.462 41.884 45.4252V42.8528C41.884 42.8155 41.9026 42.7974 41.9394 42.7974H42.4517C42.4891 42.7974 42.5072 42.8161 42.5072 42.8528V43.048H42.5125C42.5717 42.9627 42.6602 42.8891 42.7769 42.8283C42.8937 42.767 43.0414 42.7366 43.2194 42.7366C43.3639 42.7366 43.4929 42.7617 43.6065 42.8118C43.7195 42.8619 43.8171 42.9318 43.8986 43.0208C43.9802 43.1098 44.0426 43.2148 44.0852 43.3353C44.1279 43.4558 44.1492 43.5886 44.1492 43.7336V45.4263C44.1492 45.4636 44.1306 45.4817 44.0938 45.4817H43.5814V45.4806Z" fill="white"/>
<path d="M46.5879 45.4807C46.5506 45.4807 46.5324 45.4621 46.5324 45.4253V45.2248H46.5271C46.4642 45.3176 46.3746 45.3938 46.26 45.453C46.1449 45.5122 45.9966 45.542 45.8148 45.542C45.5845 45.542 45.3899 45.4882 45.2305 45.3805C45.0711 45.2728 44.956 45.1113 44.8856 44.8964C44.852 44.7925 44.828 44.6858 44.8131 44.5765C44.7982 44.4672 44.7907 44.3212 44.7907 44.1394C44.7907 43.9576 44.7982 43.812 44.8131 43.7022C44.828 43.5929 44.852 43.4863 44.8856 43.3823C44.956 43.1669 45.0711 43.0054 45.2305 42.8977C45.3899 42.79 45.5851 42.7362 45.8148 42.7362C45.9966 42.7362 46.1454 42.766 46.26 42.8252C46.3752 42.8844 46.4642 42.9606 46.5271 43.0534H46.5324V41.7504C46.5324 41.7131 46.5511 41.695 46.5879 41.695H47.1002C47.137 41.695 47.1557 41.7136 47.1557 41.7504V45.4247C47.1557 45.4621 47.137 45.4802 47.1002 45.4802H46.5879V45.4807ZM45.9759 44.9854C46.2355 44.9854 46.4024 44.8703 46.477 44.6405C46.4957 44.5776 46.5095 44.5088 46.5186 44.4347C46.5276 44.3606 46.5324 44.262 46.5324 44.1394C46.5324 44.0167 46.5276 43.9187 46.5186 43.8445C46.5095 43.7704 46.4951 43.7017 46.477 43.6388C46.4029 43.4084 46.2355 43.2938 45.9759 43.2938C45.7199 43.2938 45.5547 43.409 45.4806 43.6388C45.4619 43.7017 45.4481 43.7704 45.439 43.8445C45.4299 43.9187 45.4251 44.0173 45.4251 44.1394C45.4251 44.262 45.4299 44.3601 45.439 44.4347C45.4481 44.5088 45.4619 44.5776 45.4806 44.6405C45.5541 44.8703 45.7194 44.9854 45.9759 44.9854Z" fill="white"/>
<path d="M49.3499 45.4808C49.3126 45.4808 49.2944 45.4621 49.2944 45.4248V41.7446C49.2944 41.7073 49.3131 41.6886 49.3499 41.6886H50.7696C50.9514 41.6886 51.1193 41.7174 51.2734 41.775C51.4275 41.8326 51.5592 41.9125 51.669 42.0149C51.7783 42.1172 51.8636 42.2409 51.9249 42.3859C51.9862 42.531 52.0166 42.6909 52.0166 42.8658C52.0166 43.0444 51.9862 43.2059 51.9249 43.3514C51.8636 43.4965 51.7783 43.6201 51.669 43.7225C51.5597 43.8249 51.4275 43.9048 51.2734 43.9624C51.1193 44.02 50.9514 44.0488 50.7696 44.0488H49.9848C49.9624 44.0488 49.9512 44.06 49.9512 44.0824V45.4242C49.9512 45.4616 49.9326 45.4797 49.8958 45.4797H49.3499V45.4808ZM50.7307 43.4543C50.9274 43.4543 51.0815 43.4016 51.1929 43.2955C51.3043 43.1899 51.3598 43.0476 51.3598 42.8695C51.3598 42.6952 51.3043 42.5539 51.1929 42.4462C51.0815 42.3385 50.9274 42.2846 50.7307 42.2846H49.9848C49.9624 42.2846 49.9512 42.2958 49.9512 42.3182V43.4207C49.9512 43.4431 49.9624 43.4543 49.9848 43.4543H50.7307Z" fill="white"/>
<path d="M53.3356 45.5143C53.0722 45.5143 52.8835 45.4514 52.7705 45.325C52.6575 45.1987 52.6004 45.0057 52.6004 44.746V41.7509C52.6004 41.7136 52.6191 41.6955 52.6559 41.6955H53.1682C53.2055 41.6955 53.2237 41.7141 53.2237 41.7509V44.713C53.2237 44.8057 53.2423 44.8697 53.2791 44.9049C53.3164 44.9401 53.3756 44.9577 53.4572 44.9577H53.5798C53.6171 44.9577 53.6352 44.9763 53.6352 45.0131V45.4583C53.6352 45.4956 53.6166 45.5137 53.5798 45.5137H53.3356V45.5143Z" fill="white"/>
<path d="M55.8303 45.4809C55.793 45.4809 55.7748 45.4622 55.7748 45.4254V45.2303H55.7695C55.7066 45.323 55.6117 45.3982 55.4854 45.4558C55.359 45.5134 55.2012 45.5422 55.0119 45.5422C54.8893 45.5422 54.7736 45.5256 54.6638 45.4921C54.5545 45.459 54.4585 45.4089 54.377 45.3422C54.2954 45.2756 54.2304 45.1914 54.1818 45.0895C54.1333 44.9877 54.1093 44.8667 54.1093 44.7259C54.1093 44.4338 54.2048 44.2195 54.3962 44.0825C54.587 43.9454 54.8499 43.8772 55.1841 43.8772H55.7295C55.7519 43.8772 55.7631 43.866 55.7631 43.8436V43.7146C55.7631 43.5573 55.7205 43.4432 55.6352 43.3718C55.5499 43.3009 55.3936 43.2652 55.1676 43.2652C55.0151 43.2652 54.8909 43.2828 54.7944 43.318C54.6979 43.3531 54.6179 43.3969 54.555 43.4486C54.5214 43.4747 54.4953 43.471 54.4772 43.4374L54.2714 43.07C54.2528 43.0402 54.2565 43.0162 54.2826 42.9975C54.3903 42.9197 54.5199 42.8568 54.6723 42.8083C54.8243 42.7603 55.0119 42.7358 55.2348 42.7358C55.6432 42.7358 55.9316 42.8099 56.1006 42.9586C56.2696 43.1074 56.3538 43.3446 56.3538 43.6714V45.4254C56.3538 45.4627 56.3352 45.4809 56.2984 45.4809H55.8303ZM55.1676 45.0357C55.3606 45.0357 55.5083 44.9984 55.6101 44.9243C55.7119 44.8502 55.7631 44.735 55.7631 44.5793V44.3735C55.7631 44.3512 55.7519 44.34 55.7295 44.34H55.2844C55.0839 44.34 54.9373 44.3687 54.8445 44.4263C54.7518 44.4839 54.7054 44.5756 54.7054 44.702C54.7054 44.9243 54.8595 45.0357 55.1676 45.0357Z" fill="white"/>
<path d="M58.191 45.5422C57.9202 45.5422 57.6872 45.4793 57.4921 45.3529C57.297 45.2266 57.161 45.0432 57.0827 44.8016C57.0272 44.6348 56.999 44.4141 56.999 44.139C56.999 43.8644 57.0267 43.6437 57.0827 43.4763C57.1605 43.2348 57.297 43.0514 57.4921 42.925C57.6872 42.7987 57.9197 42.7358 58.191 42.7358C58.3915 42.7358 58.5696 42.7731 58.7258 42.8472C58.8814 42.9213 59.0131 43.0237 59.1214 43.1532C59.1437 43.1831 59.1416 43.2087 59.116 43.2311L58.7652 43.5371C58.7354 43.5595 58.7098 43.5557 58.6874 43.5259C58.6207 43.4518 58.5493 43.3942 58.4731 43.3531C58.3968 43.3126 58.303 43.2918 58.1921 43.2918C58.0732 43.2918 57.9703 43.3206 57.8829 43.3782C57.7955 43.4358 57.7315 43.5237 57.691 43.6426C57.6686 43.7093 57.6536 43.7828 57.6467 43.8623C57.6393 43.9422 57.6355 44.0339 57.6355 44.1379C57.6355 44.2419 57.6393 44.3346 57.6467 44.4162C57.6542 44.4978 57.6691 44.5719 57.691 44.639C57.732 44.7542 57.796 44.8406 57.8829 44.8981C57.9703 44.9557 58.0732 44.9845 58.1921 44.9845C58.3035 44.9845 58.3974 44.9643 58.4731 44.9232C58.5493 44.8827 58.6207 44.8251 58.6874 44.7505C58.7098 44.7243 58.7354 44.7227 58.7652 44.7451L59.116 45.0512C59.1384 45.0698 59.14 45.0954 59.1214 45.129C59.0137 45.2553 58.882 45.3556 58.7258 45.4297C58.5696 45.5048 58.3915 45.5422 58.191 45.5422Z" fill="white"/>
<path d="M60.852 45.542C60.5663 45.542 60.3274 45.4759 60.1355 45.3442C59.9436 45.2125 59.8114 45.0296 59.7373 44.7956C59.7079 44.7103 59.685 44.6148 59.6685 44.5088C59.652 44.4032 59.644 44.2795 59.644 44.1382C59.644 43.9975 59.6514 43.8727 59.6658 43.765C59.6807 43.6573 59.7026 43.5609 59.7319 43.4756C59.8055 43.2415 59.9388 43.0597 60.1328 42.9302C60.3264 42.8001 60.5567 42.735 60.8243 42.735C61.1026 42.735 61.3372 42.8011 61.5286 42.9328C61.7194 43.0645 61.8522 43.2458 61.9268 43.4756C61.9417 43.5241 61.9545 43.572 61.9657 43.62C61.9769 43.6685 61.986 43.724 61.9935 43.7869C62.0009 43.8498 62.0063 43.9213 62.01 44.0012C62.0137 44.0812 62.0153 44.175 62.0153 44.2822C62.0153 44.3195 61.9951 44.3376 61.954 44.3376H60.3002C60.2778 44.3376 60.2667 44.3488 60.2667 44.3712C60.2667 44.4123 60.2704 44.449 60.2779 44.4826C60.2853 44.5162 60.2944 44.5477 60.3056 44.5775C60.3983 44.8484 60.5988 44.9838 60.9069 44.9838C61.0589 44.9838 61.1852 44.9598 61.2855 44.9113C61.3857 44.8633 61.4694 44.802 61.536 44.7273C61.5659 44.6975 61.5936 44.6938 61.6197 44.7161L61.9481 45.0056C61.9743 45.028 61.9759 45.0541 61.9535 45.0835C61.8383 45.2173 61.688 45.3266 61.5024 45.4119C61.318 45.4993 61.101 45.542 60.852 45.542ZM61.3868 43.8434C61.3868 43.757 61.3756 43.6808 61.3532 43.6131C61.3159 43.5043 61.2508 43.4196 61.1581 43.3577C61.0653 43.2959 60.9555 43.265 60.8296 43.265C60.6996 43.265 60.5881 43.2959 60.4954 43.3577C60.4026 43.4196 60.3376 43.5049 60.3008 43.6131C60.2784 43.6808 60.2672 43.7576 60.2672 43.8434C60.2672 43.8658 60.2784 43.877 60.3008 43.877H61.3532C61.3756 43.877 61.3868 43.8658 61.3868 43.8434Z" fill="white"/>
<path d="M63.6799 45.5422C63.4053 45.5422 63.1723 45.4979 62.9809 45.4083C62.7896 45.3193 62.6387 45.2228 62.5273 45.1189C62.5011 45.0927 62.5011 45.0671 62.5273 45.041L62.8445 44.7068C62.8706 44.6806 62.8962 44.6806 62.9223 44.7068C63.0188 44.7958 63.1382 44.8694 63.2816 44.9264C63.4245 44.984 63.5663 45.0128 63.7076 45.0128C63.8745 45.0128 63.9987 44.9829 64.0808 44.9237C64.1624 44.8646 64.2034 44.7883 64.2034 44.6956C64.2034 44.614 64.173 44.5489 64.1117 44.5004C64.0504 44.4524 63.9326 44.4189 63.7582 44.4002L63.4688 44.3725C63.1942 44.3426 62.9879 44.2611 62.8509 44.1272C62.7133 43.9934 62.6451 43.8116 62.6451 43.5818C62.6451 43.3222 62.7341 43.1159 62.9122 42.964C63.0902 42.812 63.3483 42.7358 63.6863 42.7358C63.8979 42.7358 64.0888 42.7662 64.2599 42.8275C64.4305 42.8888 64.5755 42.9677 64.6944 43.0642C64.7243 43.0866 64.728 43.1127 64.7056 43.142L64.4327 43.4704C64.4103 43.4965 64.3841 43.5003 64.3548 43.4816C64.2695 43.4224 64.1645 43.3702 64.0403 43.3259C63.9161 43.2812 63.787 43.2593 63.6532 43.2593C63.5194 43.2593 63.4186 43.2854 63.3499 43.3371C63.2811 43.3894 63.247 43.456 63.247 43.5376C63.247 43.6154 63.2768 43.6778 63.336 43.7242C63.3952 43.7706 63.5125 43.8031 63.6868 43.8218L63.9763 43.8495C64.2583 43.8793 64.4673 43.962 64.6027 44.0974C64.7381 44.2328 64.8058 44.4119 64.8058 44.6348C64.8058 44.9019 64.711 45.1199 64.5217 45.2889C64.3314 45.4579 64.0515 45.5422 63.6799 45.5422Z" fill="white"/>
</svg>
