<svg width="48" height="48" viewBox="0 0 48 48" fill="none" xmlns="http://www.w3.org/2000/svg">
<path fill-rule="evenodd" clip-rule="evenodd" d="M32 16H16C10.4772 16 6 20.4772 6 26V34C6 39.5228 10.4772 44 16 44H32C37.5228 44 42 39.5228 42 34V26C42 20.4772 37.5228 16 32 16ZM16 20H32C35.3137 20 38 22.6863 38 26V34C38 37.3137 35.3137 40 32 40H16C12.6863 40 10 37.3137 10 34V26C10 22.6863 12.6863 20 16 20ZM23 26C22.4477 26 22 26.4477 22 27V33C22 33.5523 22.4477 34 23 34H25C25.5523 34 26 33.5523 26 33V27C26 26.4477 25.5523 26 25 26H23Z" fill="#F7BF23"/>
<g opacity="0.5">
<path fill-rule="evenodd" clip-rule="evenodd" d="M24 4.00012C29.78 4.00012 33.7848 8.13469 33.9916 13.6993L34 14.1535V18C34 19.1046 33.1046 20 32 20C30.9743 20 30.129 19.228 30.0135 18.2333L30 18V14.1535C30 10.5097 27.6615 8.00012 24 8.00012C20.4656 8.00012 18.183 10.3039 18.0104 13.7322L18 14.1177V18C18 19.1046 17.1046 20 16 20C14.9743 20 14.129 19.228 14.0135 18.2333L14 18L14 14.1091C14.0248 8.31855 18.067 4.00012 24 4.00012Z" fill="#F7BF23"/>
</g>
</svg>
