<svg width="65" height="40" viewBox="0 0 65 40" fill="none" xmlns="http://www.w3.org/2000/svg">
<path d="M44.7058 9.15034V10.4066C44.7058 10.894 44.6669 11.3733 44.5906 11.843C44.4094 12.9702 44.0164 14.0404 43.4481 15.0221C42.8521 16.0513 42.0641 16.9838 41.1231 17.7859C40.3837 18.4165 39.5493 18.966 38.6409 19.4178C37.3533 20.059 35.915 20.5031 34.3833 20.7033C33.7776 20.7826 33.1576 20.8237 32.5258 20.8237C27.7372 20.8237 23.5942 18.4598 21.6041 15.0217H26.1901C27.7164 16.5529 29.9881 17.5241 32.5253 17.5241C33.164 17.5241 33.7856 17.4626 34.3827 17.3458C36.0472 17.0216 37.5213 16.2706 38.6403 15.2346C38.7155 15.1653 38.7896 15.0942 38.8611 15.0217C39.7535 14.1261 40.3917 13.039 40.678 11.8425H20.4621C20.3864 11.3728 20.3469 10.8936 20.3469 10.4061C20.3469 9.98115 20.3768 9.56164 20.4349 9.14988C20.6364 7.71443 21.1792 6.36926 21.9922 5.17457C22.4555 4.49286 23.0067 3.86041 23.6337 3.28814C25.738 1.36523 28.6857 0.125397 31.9719 0H34.3833V3.28814H32.5258C30.3485 3.28814 28.3663 4.00359 26.8831 5.17457C25.577 6.2051 24.6578 7.58949 24.3332 9.14988L44.7058 9.15034Z" fill="white"/>
<path d="M44.7058 0.000978547V5.17509H41.1231V3.28912H38.6409V0.000978547H44.7058Z" fill="#44C1EF"/>
<path d="M3.18939 33.289C2.87537 33.289 2.56722 33.2639 2.26493 33.2133C1.96265 33.1631 1.67796 33.0961 1.41086 33.0117C1.14376 32.9278 0.898514 32.8289 0.674599 32.7144C0.450683 32.6004 0.260354 32.4796 0.10308 32.3519C0.04017 32.2981 0.036438 32.2411 0.0913507 32.1805L0.986481 31.304C1.0334 31.2502 1.09257 31.247 1.16295 31.294C1.43005 31.4755 1.7398 31.6383 2.09327 31.7828C2.44673 31.9274 2.83539 31.9994 3.25923 31.9994C3.68307 31.9994 4.00721 31.9237 4.23113 31.7728C4.45505 31.6219 4.567 31.4253 4.567 31.1837C4.567 30.9821 4.48064 30.8175 4.3079 30.6903C4.13517 30.5626 3.80942 30.4723 3.33013 30.4181L2.90629 30.3679C2.08953 30.274 1.46364 30.0606 1.02753 29.7281C0.591963 29.3957 0.373911 28.9238 0.373911 28.3128C0.373911 27.9972 0.440553 27.7099 0.574369 27.4514C0.707653 27.1928 0.898514 26.9731 1.14589 26.7916C1.39326 26.6101 1.69128 26.4692 2.04102 26.3684C2.39022 26.2676 2.78101 26.2175 3.21285 26.2175C3.74651 26.2175 4.24926 26.2813 4.72055 26.409C5.19184 26.5367 5.59595 26.7113 5.93396 26.9329C6.00486 26.9731 6.01233 27.0237 5.95742 27.0839L5.23875 28.0004C5.19184 28.0542 5.13639 28.0642 5.07401 28.0305C4.768 27.8558 4.46358 27.725 4.16129 27.6374C3.859 27.5503 3.54285 27.5066 3.21285 27.5066C2.85938 27.5066 2.59228 27.5772 2.41208 27.7181C2.23135 27.859 2.14125 28.0373 2.14125 28.2521C2.14125 28.4468 2.23348 28.6082 2.41794 28.7359C2.60241 28.8636 2.92602 28.9543 3.38985 29.0077L3.81369 29.0583C4.64591 29.1522 5.27394 29.3656 5.69831 29.698C6.12215 30.0305 6.33434 30.5088 6.33434 31.1335C6.33434 31.4427 6.2677 31.7295 6.13388 31.9949C6.00007 32.2603 5.80227 32.4887 5.53891 32.6798C5.27554 32.8713 4.94766 33.0208 4.55527 33.128C4.16289 33.2352 3.70759 33.289 3.18939 33.289Z" fill="white"/>
<path d="M8.06519 26.2679C8.06519 26.2008 8.10464 26.1671 8.18301 26.1671H9.58462C9.67898 26.1671 9.74136 26.2008 9.77334 26.2679L11.7993 30.4484H11.8462L13.8369 26.2679C13.8683 26.2008 13.9312 26.1671 14.0251 26.1671H15.4032C15.4816 26.1671 15.5211 26.2008 15.5211 26.2679V33.1884C15.5211 33.2559 15.4816 33.2892 15.4032 33.2892H14.0725C13.9942 33.2892 13.9547 33.2559 13.9547 33.1884V29.3303H13.9078L12.4236 32.2213C12.3766 32.3088 12.302 32.3521 12.1996 32.3521H11.3871C11.2848 32.3521 11.2107 32.3084 11.1632 32.2213L9.67898 29.3303H9.63206V33.1884C9.63206 33.2559 9.59261 33.2892 9.51424 33.2892H8.18354C8.10517 33.2892 8.06572 33.2559 8.06572 33.1884V26.2679H8.06519Z" fill="white"/>
<path d="M20.0168 26.2679C20.0402 26.2008 20.0914 26.1671 20.1698 26.1671H21.654C21.7324 26.1671 21.7836 26.2008 21.807 26.2679L24.5159 33.1884C24.5393 33.2559 24.5116 33.2892 24.4332 33.2892H22.9021C22.8237 33.2892 22.7725 33.2559 22.7491 33.1884L22.2895 31.9896H19.4863L19.0385 33.1884C19.015 33.2559 18.9638 33.2892 18.8854 33.2892H17.3426C17.2637 33.2892 17.2365 33.2559 17.2599 33.1884L20.0168 26.2679ZM21.8187 30.7302L20.9119 28.3326H20.8767L19.9698 30.7302H21.8187Z" fill="white"/>
<path d="M30.6841 33.2891C30.5978 33.2891 30.5386 33.2558 30.5077 33.1883L29.1295 30.4232H28.0579C28.011 30.4232 27.987 30.4432 27.987 30.4838V33.1887C27.987 33.2562 27.9476 33.2895 27.8692 33.2895H26.3732C26.2949 33.2895 26.2554 33.2562 26.2554 33.1887V26.2828C26.2554 26.2158 26.2943 26.182 26.3732 26.182H29.5651C29.9735 26.182 30.3445 26.234 30.6783 26.338C31.012 26.4419 31.2983 26.5883 31.5382 26.7762C31.7776 26.964 31.9621 27.1893 32.0916 27.451C32.2212 27.7128 32.2862 27.9987 32.2862 28.3074C32.2862 28.7506 32.1604 29.1368 31.9093 29.466C31.6576 29.7953 31.3084 30.0438 30.8611 30.2116L32.4392 33.1682C32.4547 33.202 32.4547 33.2302 32.4392 33.2539C32.4232 33.2777 32.396 33.2891 32.3566 33.2891H30.6841ZM29.4713 29.1637C29.8013 29.1637 30.0641 29.0867 30.2603 28.9321C30.4565 28.7775 30.5546 28.5696 30.5546 28.3074C30.5546 28.052 30.4565 27.8473 30.2603 27.6927C30.0641 27.5381 29.8007 27.4611 29.4713 27.4611H28.0579C28.011 27.4611 27.987 27.4811 27.987 27.5217V29.1031C27.987 29.1432 28.0105 29.1637 28.0579 29.1637H29.4713Z" fill="white"/>
<path d="M36.5141 33.2893C36.4357 33.2893 36.3963 33.256 36.3963 33.1885V27.552C36.3963 27.5119 36.3728 27.4914 36.3254 27.4914H34.2995C34.2211 27.4914 34.1816 27.4581 34.1816 27.3915V26.2816C34.1816 26.2151 34.2211 26.1818 34.2995 26.1818H40.2236C40.302 26.1818 40.3415 26.2151 40.3415 26.2816V27.3915C40.3415 27.4581 40.302 27.4914 40.2236 27.4914H38.1977C38.1508 27.4914 38.1268 27.5114 38.1268 27.552V33.1885C38.1268 33.256 38.0874 33.2893 38.009 33.2893H36.5141Z" fill="white"/>
<path d="M46.8381 33.2891C46.1391 33.2891 45.5287 33.1514 45.0068 32.876C44.4843 32.6005 44.1212 32.1842 43.917 31.627C43.8701 31.5062 43.8328 31.3885 43.8051 31.2745C43.7773 31.1605 43.756 31.0328 43.74 30.8915C43.724 30.7506 43.7123 30.5892 43.7048 30.4081C43.6968 30.2267 43.6931 29.9563 43.6931 29.7014C43.6931 29.446 43.6968 29.228 43.7048 29.0466C43.7128 28.8651 43.7246 28.7041 43.74 28.5632C43.7555 28.4223 43.7773 28.2946 43.8051 28.1802C43.8323 28.0662 43.8696 27.9485 43.917 27.8277C44.1212 27.2773 44.4843 26.8624 45.0068 26.5838C45.5287 26.3052 46.1391 26.1656 46.8381 26.1656C47.537 26.1656 48.1474 26.3052 48.6694 26.5838C49.1913 26.8624 49.5544 27.2773 49.7591 27.8277C49.806 27.9485 49.8433 28.0662 49.8711 28.1802C49.8982 28.2946 49.9201 28.4219 49.9361 28.5632C49.9516 28.7041 49.9633 28.8655 49.9713 29.0466C49.9788 29.228 49.983 29.446 49.983 29.7014C49.983 29.9567 49.9788 30.2271 49.9713 30.4081C49.9633 30.5896 49.9516 30.7506 49.9361 30.8915C49.9201 31.0324 49.8988 31.1601 49.8711 31.2745C49.8433 31.389 49.8065 31.5062 49.7591 31.627C49.5549 32.1847 49.1918 32.601 48.6694 32.876C48.1474 33.1514 47.537 33.2891 46.8381 33.2891ZM46.8381 31.9795C47.1681 31.9795 47.4389 31.9125 47.6506 31.7779C47.8627 31.6439 48.0115 31.4592 48.0984 31.2239C48.1218 31.1633 48.1416 31.0949 48.157 31.0173C48.1725 30.9403 48.1864 30.8459 48.1981 30.7351C48.2098 30.6243 48.2178 30.4884 48.2215 30.327C48.2253 30.166 48.2274 29.9221 48.2274 29.7004C48.2274 29.4788 48.2253 29.2873 48.2215 29.1264C48.2173 28.9649 48.2098 28.8291 48.1981 28.7182C48.1864 28.6074 48.1725 28.5135 48.157 28.436C48.141 28.3589 48.1218 28.2901 48.0984 28.2294C48.012 27.9946 47.8627 27.8099 47.6506 27.6754C47.4384 27.5413 47.1675 27.4739 46.8381 27.4739C46.5086 27.4739 46.2372 27.5409 46.0256 27.6754C45.8134 27.8099 45.6641 27.9946 45.5777 28.2294C45.5543 28.2901 45.5346 28.3589 45.5191 28.436C45.5031 28.5135 45.4898 28.6074 45.478 28.7182C45.4663 28.8291 45.4583 28.9649 45.4546 29.1264C45.4509 29.2873 45.4487 29.4788 45.4487 29.7004C45.4487 29.9221 45.4503 30.1656 45.4546 30.327C45.4583 30.4884 45.4663 30.6243 45.478 30.7351C45.4898 30.8459 45.5036 30.9398 45.5191 31.0173C45.5346 31.0949 45.5543 31.1633 45.5777 31.2239C45.6641 31.4592 45.8134 31.6439 46.0256 31.7779C46.2378 31.9125 46.5086 31.9795 46.8381 31.9795Z" fill="white"/>
<path d="M51.7143 26.2659C51.7143 26.1989 51.7532 26.1651 51.8321 26.1651H53.2454C53.3318 26.1651 53.3984 26.1989 53.4459 26.2659L56.2726 30.8513H56.3312V26.2659C56.3312 26.1989 56.3701 26.1651 56.449 26.1651H57.7802C57.8586 26.1651 57.8981 26.1989 57.8981 26.2659V33.1883C57.8981 33.2558 57.8586 33.289 57.7802 33.289H56.3786C56.2923 33.289 56.2256 33.2558 56.1782 33.1883L53.3398 28.6129H53.2811V33.1883C53.2811 33.2558 53.2417 33.289 53.1633 33.289H51.8326C51.7542 33.289 51.7148 33.2558 51.7148 33.1883V26.2659H51.7143Z" fill="white"/>
<path d="M59.6288 26.2659C59.6288 26.1989 59.6677 26.1651 59.7466 26.1651H64.8817C64.9601 26.1651 64.9995 26.1989 64.9995 26.2659V27.3439C64.9995 27.4109 64.9601 27.4446 64.8817 27.4446H61.4307C61.3838 27.4446 61.3598 27.4647 61.3598 27.5053V29.1391C61.3598 29.1792 61.3833 29.1997 61.4307 29.1997H64.3049C64.3832 29.1997 64.4227 29.2335 64.4227 29.3005V30.3684C64.4227 30.4355 64.3832 30.4692 64.3049 30.4692H61.4307C61.3838 30.4692 61.3598 30.4893 61.3598 30.5299V31.9503C61.3598 31.9904 61.3833 32.0109 61.4307 32.0109H64.8817C64.9601 32.0109 64.9995 32.0447 64.9995 32.1117V33.1896C64.9995 33.2571 64.9601 33.2904 64.8817 33.2904H59.7466C59.6682 33.2904 59.6288 33.2571 59.6288 33.1896V26.2659Z" fill="white"/>
<path d="M0.099696 38.1559C0.0810364 38.1048 0.0655756 38.0551 0.0522472 38.0058C0.039452 37.9566 0.0287894 37.8996 0.0218587 37.8344C0.0143948 37.7692 0.00853005 37.693 0.00533125 37.6055C0.00159932 37.5179 0 37.4089 0 37.2785C0 37.1513 0.00159932 37.0432 0.00533125 36.9543C0.00906318 36.8654 0.0143948 36.7883 0.0218587 36.7231C0.0293225 36.6579 0.039452 36.6009 0.0522472 36.5517C0.0650424 36.5024 0.0810364 36.4523 0.099696 36.4012C0.196193 36.1345 0.358799 35.9347 0.58698 35.803C0.815161 35.6712 1.09079 35.6051 1.41387 35.6051C1.71829 35.6051 1.98059 35.6675 2.20184 35.7925C2.42256 35.9174 2.58676 36.0884 2.69446 36.305C2.70565 36.3337 2.69605 36.3524 2.66673 36.362L2.19331 36.5572C2.15972 36.5731 2.13573 36.5649 2.1208 36.5334C2.05789 36.419 1.97153 36.321 1.8617 36.238C1.75241 36.1554 1.6026 36.1144 1.41334 36.1144C1.23154 36.1144 1.08546 36.1522 0.976167 36.2284C0.866874 36.3045 0.785839 36.409 0.734125 36.5421C0.722929 36.5772 0.712799 36.6119 0.703736 36.6465C0.694673 36.6812 0.687209 36.7263 0.681344 36.782C0.676013 36.8371 0.672281 36.9046 0.670148 36.984C0.668016 37.0633 0.667483 37.1613 0.667483 37.2785C0.667483 37.3989 0.668549 37.4979 0.670148 37.5754C0.671748 37.6529 0.67548 37.7195 0.681344 37.7751C0.686675 37.8307 0.69414 37.8763 0.703736 37.9128C0.712799 37.9493 0.723462 37.983 0.734125 38.015C0.785839 38.1481 0.866874 38.2525 0.976167 38.3287C1.08546 38.4048 1.23154 38.4427 1.41334 38.4427C1.6026 38.4427 1.75188 38.4016 1.8617 38.3191C1.97099 38.2366 2.05736 38.1381 2.1208 38.0241C2.13573 37.9922 2.15972 37.9844 2.19331 38.0004L2.66673 38.1955C2.69659 38.2051 2.70565 38.2243 2.69446 38.2525C2.58676 38.4691 2.42256 38.6401 2.20184 38.7651C1.98112 38.89 1.71829 38.9525 1.41387 38.9525C1.09079 38.9525 0.815161 38.8864 0.58698 38.7546C0.358799 38.6223 0.196193 38.4231 0.099696 38.1559Z" fill="white"/>
<path d="M4.35368 38.9523C4.07911 38.9523 3.844 38.8967 3.64941 38.7859C3.45428 38.6746 3.31993 38.5191 3.24583 38.3194C3.21597 38.2369 3.19358 38.1534 3.17918 38.0695C3.16426 37.9856 3.15679 37.8798 3.15679 37.7526C3.15679 37.6258 3.16426 37.5201 3.17918 37.4361C3.19411 37.3522 3.21597 37.2688 3.24583 37.1863C3.31993 36.9861 3.45481 36.8306 3.64941 36.7198C3.844 36.6085 4.07911 36.5529 4.35368 36.5529C4.62451 36.5529 4.85749 36.6085 5.05261 36.7198C5.24721 36.8311 5.38209 36.9865 5.4562 37.1863C5.48605 37.2688 5.50791 37.3522 5.52284 37.4361C5.53777 37.5205 5.54523 37.6258 5.54523 37.7526C5.54523 37.8798 5.53777 37.9852 5.52284 38.0695C5.50791 38.1534 5.48552 38.2369 5.4562 38.3194C5.38209 38.5196 5.24721 38.6751 5.05261 38.7859C4.85749 38.8967 4.62451 38.9523 4.35368 38.9523ZM4.35368 38.4763C4.48003 38.4763 4.58452 38.4498 4.66823 38.3978C4.75193 38.3454 4.81377 38.2715 4.85482 38.1762C4.87721 38.116 4.89214 38.0549 4.8996 37.9929C4.90707 37.9309 4.9108 37.8506 4.9108 37.7526C4.9108 37.6541 4.90707 37.5748 4.8996 37.5146C4.89214 37.4544 4.87721 37.3924 4.85482 37.329C4.81377 37.2337 4.75193 37.1598 4.66823 37.1074C4.58452 37.0549 4.48003 37.029 4.35368 37.029C4.22732 37.029 4.12176 37.0549 4.03646 37.1074C3.95116 37.1598 3.88772 37.2337 3.8472 37.329C3.82481 37.3924 3.80988 37.4544 3.80242 37.5146C3.79495 37.5748 3.79122 37.6541 3.79122 37.7526C3.79122 37.8511 3.79495 37.9314 3.80242 37.9929C3.80988 38.0549 3.82481 38.116 3.8472 38.1762C3.88825 38.2715 3.95116 38.3454 4.03646 38.3978C4.12176 38.4498 4.22732 38.4763 4.35368 38.4763Z" fill="white"/>
<path d="M7.91127 38.8999C7.87395 38.8999 7.85583 38.8839 7.85583 38.8525V37.5287C7.85583 37.3796 7.81317 37.2588 7.72787 37.1667C7.64257 37.0746 7.51622 37.0285 7.34935 37.0285C7.18621 37.0285 7.05986 37.0746 6.97082 37.1667C6.88179 37.2588 6.83701 37.3796 6.83701 37.5287V38.8525C6.83701 38.8844 6.81835 38.8999 6.78156 38.8999H6.26922C6.2319 38.8999 6.21377 38.8839 6.21377 38.8525V36.6523C6.21377 36.6204 6.23243 36.6049 6.26922 36.6049H6.78156C6.81835 36.6049 6.83701 36.6208 6.83701 36.6523V36.8192H6.84234C6.90152 36.7462 6.99002 36.6833 7.10677 36.6313C7.22353 36.5789 7.37121 36.5529 7.54927 36.5529C7.69429 36.5529 7.82277 36.5743 7.93633 36.6172C8.04935 36.6601 8.14692 36.7198 8.22848 36.7959C8.31005 36.8721 8.37243 36.9619 8.41508 37.065C8.45773 37.168 8.47906 37.2816 8.47906 37.4056V38.8534C8.47906 38.8853 8.4604 38.9008 8.42361 38.9008H7.91127V38.8999Z" fill="white"/>
<path d="M10.9624 38.8999C10.9251 38.8999 10.9069 38.8839 10.9069 38.8525V37.5287C10.9069 37.3796 10.8643 37.2588 10.779 37.1667C10.6937 37.0746 10.5673 37.0285 10.4005 37.0285C10.2373 37.0285 10.111 37.0746 10.0219 37.1667C9.9329 37.2588 9.88812 37.3796 9.88812 37.5287V38.8525C9.88812 38.8844 9.86946 38.8999 9.83267 38.8999H9.32033C9.28301 38.8999 9.26489 38.8839 9.26489 38.8525V36.6523C9.26489 36.6204 9.28355 36.6049 9.32033 36.6049H9.83267C9.86946 36.6049 9.88812 36.6208 9.88812 36.6523V36.8192H9.89345C9.95263 36.7462 10.0411 36.6833 10.1579 36.6313C10.2746 36.5789 10.4223 36.5529 10.6004 36.5529C10.7454 36.5529 10.8739 36.5743 10.9874 36.6172C11.1005 36.6601 11.198 36.7198 11.2796 36.7959C11.3612 36.8721 11.4235 36.9619 11.4662 37.065C11.5088 37.168 11.5302 37.2816 11.5302 37.4056V38.8534C11.5302 38.8853 11.5115 38.9008 11.4747 38.9008H10.9624V38.8999Z" fill="white"/>
<path d="M13.3783 38.9525C13.0925 38.9525 12.8537 38.8959 12.6617 38.7833C12.4698 38.6707 12.3376 38.5143 12.2635 38.3141C12.2342 38.2411 12.2112 38.1595 12.1947 38.0687C12.1782 37.9785 12.1702 37.8727 12.1702 37.7518C12.1702 37.6315 12.1777 37.5248 12.1921 37.4326C12.207 37.3405 12.2288 37.258 12.2582 37.185C12.3317 36.9849 12.4655 36.8294 12.6591 36.7186C12.8526 36.6073 13.0829 36.5517 13.3505 36.5517C13.6288 36.5517 13.8634 36.6082 14.0548 36.7208C14.2457 36.8335 14.3784 36.9885 14.4531 37.185C14.468 37.2265 14.4808 37.2676 14.492 37.3086C14.5032 37.3501 14.5122 37.3975 14.5197 37.4513C14.5272 37.5051 14.5325 37.5663 14.5362 37.6346C14.54 37.703 14.5416 37.7833 14.5416 37.875C14.5416 37.9069 14.5213 37.9224 14.4803 37.9224H12.8265C12.8041 37.9224 12.7929 37.932 12.7929 37.9511C12.7929 37.9862 12.7966 38.0177 12.8041 38.0464C12.8116 38.0751 12.8206 38.102 12.8318 38.1276C12.9246 38.3592 13.125 38.475 13.4332 38.475C13.5851 38.475 13.7115 38.4545 13.8117 38.413C13.9119 38.372 13.9956 38.3195 14.0623 38.2557C14.0921 38.2302 14.1199 38.227 14.146 38.2461L14.4744 38.4937C14.5005 38.5129 14.5021 38.5352 14.4797 38.5603C14.3646 38.6748 14.2142 38.7682 14.0287 38.8412C13.8442 38.916 13.6267 38.9525 13.3783 38.9525ZM13.913 37.4997C13.913 37.4258 13.9018 37.3606 13.8794 37.3027C13.8421 37.2097 13.7771 37.1372 13.6848 37.0843C13.5921 37.0314 13.4822 37.0049 13.3564 37.0049C13.2263 37.0049 13.1149 37.0314 13.0221 37.0843C12.9294 37.1372 12.8643 37.2101 12.827 37.3027C12.8046 37.3606 12.7934 37.4263 12.7934 37.4997C12.7934 37.5188 12.8046 37.5284 12.827 37.5284H13.8794C13.9018 37.5284 13.913 37.5188 13.913 37.4997Z" fill="white"/>
<path d="M16.2617 38.9526C15.9909 38.9526 15.7579 38.8988 15.5628 38.7907C15.3676 38.6827 15.2317 38.5258 15.1533 38.3192C15.0979 38.1765 15.0696 37.9877 15.0696 37.7525C15.0696 37.5176 15.0973 37.3288 15.1533 37.1857C15.2312 36.9791 15.3676 36.8222 15.5628 36.7142C15.7574 36.6061 15.9903 36.5523 16.2617 36.5523C16.4622 36.5523 16.6402 36.5842 16.7964 36.6476C16.9521 36.711 17.0838 36.7985 17.1915 36.9093C17.2139 36.9349 17.2118 36.9568 17.1862 36.9759L16.8354 37.2376C16.8055 37.2568 16.7799 37.2536 16.7575 37.2281C16.6909 37.1647 16.6194 37.1154 16.5432 37.0803C16.467 37.0457 16.3731 37.0279 16.2622 37.0279C16.1434 37.0279 16.0405 37.0525 15.953 37.1018C15.8656 37.151 15.8016 37.2262 15.7611 37.3279C15.7387 37.3849 15.7238 37.4478 15.7163 37.5158C15.7089 37.5842 15.7051 37.6626 15.7051 37.7515C15.7051 37.8405 15.7089 37.9198 15.7163 37.9896C15.7238 38.0593 15.7387 38.1227 15.7611 38.1802C15.8022 38.2787 15.8661 38.3525 15.953 38.4018C16.0399 38.451 16.1434 38.4756 16.2622 38.4756C16.3737 38.4756 16.4675 38.4583 16.5432 38.4232C16.6194 38.3886 16.6909 38.3393 16.7575 38.2755C16.7799 38.2531 16.8055 38.2518 16.8354 38.2709L17.1862 38.5326C17.2086 38.5486 17.2102 38.5705 17.1915 38.5992C17.0838 38.7073 16.9521 38.793 16.7964 38.8564C16.6408 38.9207 16.4622 38.9526 16.2617 38.9526Z" fill="white"/>
<path d="M18.645 38.9286C18.3741 38.9286 18.1817 38.873 18.0686 38.7617C17.9556 38.6505 17.8986 38.4822 17.8986 38.2569V37.0472C17.8986 37.028 17.8874 37.0185 17.865 37.0185H17.6869C17.6496 37.0185 17.6315 37.0025 17.6315 36.971V36.6519C17.6315 36.6199 17.6501 36.6044 17.6869 36.6044H17.865C17.8874 36.6044 17.8986 36.5949 17.8986 36.5757V35.9469C17.8986 35.9154 17.9172 35.8995 17.954 35.8995H18.4664C18.5031 35.8995 18.5218 35.9154 18.5218 35.9469V36.5757C18.5218 36.5949 18.533 36.6044 18.5554 36.6044H18.9115C18.9483 36.6044 18.967 36.6204 18.967 36.6519V36.971C18.967 37.003 18.9483 37.0185 18.9115 37.0185H18.5554C18.533 37.0185 18.5218 37.028 18.5218 37.0472V38.2378C18.5218 38.3203 18.5421 38.3769 18.5831 38.407C18.6242 38.4371 18.6871 38.4521 18.7724 38.4521H18.9115C18.9483 38.4521 18.967 38.4681 18.967 38.4995V38.8803C18.967 38.9122 18.9483 38.9277 18.9115 38.9277H18.645V38.9286Z" fill="white"/>
<path d="M21.0286 38.9001C20.9913 38.9001 20.9732 38.8842 20.9732 38.8522V35.7045C20.9732 35.6726 20.9919 35.6567 21.0286 35.6567H22.4484C22.6302 35.6567 22.7981 35.6813 22.9522 35.7305C23.1063 35.7798 23.238 35.8482 23.3472 35.9357C23.4565 36.0233 23.5424 36.1291 23.6031 36.2531C23.6645 36.3771 23.6948 36.5139 23.6948 36.6635C23.6948 36.8162 23.6645 36.9544 23.6031 37.0789C23.5418 37.2029 23.4565 37.3087 23.3472 37.3963C23.238 37.4838 23.1057 37.5522 22.9522 37.6015C22.7981 37.6507 22.6302 37.6753 22.4484 37.6753H21.6636C21.6412 37.6753 21.63 37.6849 21.63 37.7041V38.8518C21.63 38.8837 21.6114 38.8992 21.5746 38.8992H21.0286V38.9001ZM22.4089 37.1669C22.6057 37.1669 22.7597 37.1218 22.8712 37.031C22.9826 36.9407 23.038 36.819 23.038 36.6667C23.038 36.5176 22.9826 36.3967 22.8712 36.3046C22.7597 36.2125 22.6057 36.1665 22.4089 36.1665H21.6631C21.6407 36.1665 21.6295 36.176 21.6295 36.1952V37.1382C21.6295 37.1573 21.6407 37.1669 21.6631 37.1669H22.4089Z" fill="white"/>
<path d="M25.3547 38.9525C25.069 38.9525 24.8301 38.8959 24.6382 38.7833C24.4463 38.6707 24.314 38.5143 24.2399 38.3141C24.2106 38.2411 24.1877 38.1595 24.1712 38.0687C24.1546 37.9785 24.1466 37.8727 24.1466 37.7518C24.1466 37.6315 24.1541 37.5248 24.1685 37.4326C24.1834 37.3405 24.2053 37.258 24.2346 37.185C24.3082 36.9849 24.442 36.8294 24.6355 36.7186C24.829 36.6073 25.0594 36.5517 25.327 36.5517C25.6053 36.5517 25.8399 36.6082 26.0313 36.7208C26.2221 36.8335 26.3549 36.9885 26.4295 37.185C26.4444 37.2265 26.4572 37.2676 26.4684 37.3086C26.4796 37.3501 26.4887 37.3975 26.4961 37.4513C26.5036 37.5051 26.5089 37.5663 26.5127 37.6346C26.5164 37.703 26.518 37.7833 26.518 37.875C26.518 37.9069 26.4977 37.9224 26.4567 37.9224H24.8029C24.7805 37.9224 24.7693 37.932 24.7693 37.9511C24.7693 37.9862 24.7731 38.0177 24.7805 38.0464C24.788 38.0751 24.7971 38.102 24.8082 38.1276C24.901 38.3592 25.1015 38.475 25.4096 38.475C25.5616 38.475 25.6879 38.4545 25.7881 38.413C25.8884 38.372 25.9721 38.3195 26.0387 38.2557C26.0686 38.2302 26.0963 38.227 26.1224 38.2461L26.4508 38.4937C26.477 38.5129 26.4786 38.5352 26.4562 38.5603C26.341 38.6748 26.1907 38.7682 26.0051 38.8412C25.8201 38.916 25.6032 38.9525 25.3547 38.9525ZM25.8889 37.4997C25.8889 37.4258 25.8777 37.3606 25.8553 37.3027C25.818 37.2097 25.753 37.1372 25.6607 37.0843C25.568 37.0314 25.4581 37.0049 25.3323 37.0049C25.2022 37.0049 25.0908 37.0314 24.998 37.0843C24.9053 37.1372 24.8402 37.2101 24.8029 37.3027C24.7805 37.3606 24.7693 37.4263 24.7693 37.4997C24.7693 37.5188 24.7805 37.5284 24.8029 37.5284H25.8559C25.8782 37.5284 25.8889 37.5188 25.8889 37.4997Z" fill="white"/>
<path d="M28.2439 38.9523C27.9694 38.9523 27.7343 38.8967 27.5397 38.7859C27.3445 38.6746 27.2102 38.5191 27.1361 38.3194C27.1062 38.2369 27.0838 38.1534 27.0694 38.0695C27.0545 37.9856 27.047 37.8798 27.047 37.7526C27.047 37.6258 27.0545 37.5201 27.0694 37.4361C27.0844 37.3522 27.1062 37.2688 27.1361 37.1863C27.2102 36.9861 27.3451 36.8306 27.5397 36.7198C27.7343 36.6085 27.9694 36.5529 28.2439 36.5529C28.5148 36.5529 28.7477 36.6085 28.9429 36.7198C29.1375 36.8311 29.2723 36.9865 29.3464 37.1863C29.3763 37.2688 29.3982 37.3522 29.4131 37.4361C29.428 37.5205 29.4355 37.6258 29.4355 37.7526C29.4355 37.8798 29.428 37.9852 29.4131 38.0695C29.3982 38.1534 29.3758 38.2369 29.3464 38.3194C29.2723 38.5196 29.1375 38.6751 28.9429 38.7859C28.7477 38.8967 28.5148 38.9523 28.2439 38.9523ZM28.2439 38.4763C28.3703 38.4763 28.4748 38.4498 28.5585 38.3978C28.6422 38.3454 28.704 38.2715 28.7451 38.1762C28.7675 38.116 28.7824 38.0549 28.7899 37.9929C28.7973 37.9309 28.8011 37.8506 28.8011 37.7526C28.8011 37.6541 28.7973 37.5748 28.7899 37.5146C28.7824 37.4544 28.7675 37.3924 28.7451 37.329C28.704 37.2337 28.6422 37.1598 28.5585 37.1074C28.4748 37.0549 28.3703 37.029 28.2439 37.029C28.1176 37.029 28.012 37.0549 27.9267 37.1074C27.8414 37.1598 27.778 37.2337 27.7375 37.329C27.7151 37.3924 27.7001 37.4544 27.6927 37.5146C27.6852 37.5748 27.6815 37.6541 27.6815 37.7526C27.6815 37.8511 27.6852 37.9314 27.6927 37.9929C27.7001 38.0549 27.7151 38.116 27.7375 38.1762C27.7785 38.2715 27.8414 38.3454 27.9267 38.3978C28.012 38.4498 28.1176 38.4763 28.2439 38.4763Z" fill="white"/>
<path d="M30.1585 39.7573C30.1212 39.7573 30.103 39.7414 30.103 39.7099V36.653C30.103 36.6211 30.1217 36.6055 30.1585 36.6055H30.6708C30.7076 36.6055 30.7263 36.6215 30.7263 36.653V36.824H30.7316C30.7945 36.7446 30.8836 36.6794 30.9987 36.6288C31.1139 36.5782 31.2621 36.5527 31.4439 36.5527C31.6742 36.5527 31.8688 36.5987 32.0287 36.6908C32.1881 36.7829 32.3033 36.9211 32.3737 37.1053C32.4073 37.1942 32.4312 37.2854 32.4462 37.3789C32.4611 37.4724 32.4686 37.5973 32.4686 37.7528C32.4686 37.9083 32.4611 38.0333 32.4462 38.1267C32.4312 38.2202 32.4073 38.3119 32.3737 38.4003C32.3033 38.5845 32.1881 38.7227 32.0287 38.8144C31.8693 38.9065 31.6742 38.9525 31.4439 38.9525C31.2621 38.9525 31.1133 38.927 30.9987 38.8764C30.8836 38.8258 30.7945 38.7606 30.7316 38.6812H30.7263V39.7099C30.7263 39.7418 30.7076 39.7573 30.6708 39.7573H30.1585ZM31.2834 38.4765C31.5393 38.4765 31.7046 38.378 31.7787 38.1814C31.7973 38.1276 31.8112 38.0688 31.8203 38.0054C31.8293 37.9421 31.8341 37.8577 31.8341 37.7528C31.8341 37.6479 31.8293 37.564 31.8203 37.5007C31.8112 37.4373 31.7968 37.3784 31.7787 37.3246C31.7046 37.1277 31.5393 37.0296 31.2834 37.0296C31.0238 37.0296 30.8564 37.1281 30.7823 37.3246C30.7636 37.3784 30.7497 37.4373 30.7407 37.5007C30.7316 37.564 30.7268 37.6484 30.7268 37.7528C30.7268 37.8577 30.7316 37.9416 30.7407 38.0054C30.7497 38.0688 30.7636 38.1276 30.7823 38.1814C30.8564 38.378 31.0232 38.4765 31.2834 38.4765Z" fill="white"/>
<path d="M33.861 38.9288C33.5976 38.9288 33.4089 38.875 33.2959 38.7669C33.1828 38.6588 33.1258 38.4938 33.1258 38.2717V35.71C33.1258 35.678 33.1444 35.6625 33.1812 35.6625H33.6936C33.7309 35.6625 33.749 35.6785 33.749 35.71V38.2434C33.749 38.3228 33.7677 38.3775 33.8045 38.4076C33.8418 38.4377 33.901 38.4527 33.9825 38.4527H34.1051C34.1425 38.4527 34.1606 38.4687 34.1606 38.5002V38.8809C34.1606 38.9128 34.1419 38.9283 34.1051 38.9283H33.861V38.9288Z" fill="white"/>
<path d="M35.8213 38.9525C35.5355 38.9525 35.2966 38.8959 35.1047 38.7833C34.9128 38.6707 34.7806 38.5143 34.7065 38.3141C34.6771 38.2411 34.6542 38.1595 34.6377 38.0687C34.6212 37.9785 34.6132 37.8727 34.6132 37.7518C34.6132 37.6315 34.6206 37.5248 34.635 37.4326C34.65 37.3405 34.6718 37.258 34.7011 37.185C34.7747 36.9849 34.908 36.8294 35.1021 36.7186C35.2956 36.6073 35.5259 36.5517 35.7935 36.5517C36.0718 36.5517 36.3064 36.6082 36.4978 36.7208C36.6887 36.8335 36.8214 36.9885 36.896 37.185C36.911 37.2265 36.9238 37.2676 36.935 37.3086C36.9462 37.3501 36.9552 37.3975 36.9627 37.4513C36.9702 37.5051 36.9755 37.5663 36.9792 37.6346C36.983 37.703 36.9845 37.7833 36.9845 37.875C36.9845 37.9069 36.9643 37.9224 36.9232 37.9224H35.2695C35.2471 37.9224 35.2359 37.932 35.2359 37.9511C35.2359 37.9862 35.2396 38.0177 35.2471 38.0464C35.2545 38.0751 35.2636 38.102 35.2748 38.1276C35.3676 38.3592 35.568 38.475 35.8762 38.475C36.0281 38.475 36.1545 38.4545 36.2547 38.413C36.3549 38.372 36.4386 38.3195 36.5053 38.2557C36.5351 38.2302 36.5628 38.227 36.589 38.2461L36.9174 38.4937C36.9435 38.5129 36.9451 38.5352 36.9227 38.5603C36.8075 38.6748 36.6572 38.7682 36.4717 38.8412C36.2867 38.916 36.0697 38.9525 35.8213 38.9525ZM36.3555 37.4997C36.3555 37.4258 36.3443 37.3606 36.3219 37.3027C36.2845 37.2097 36.2195 37.1372 36.1267 37.0843C36.034 37.0314 35.9241 37.0049 35.7983 37.0049C35.6682 37.0049 35.5568 37.0314 35.4641 37.0843C35.3713 37.1372 35.3062 37.2101 35.2695 37.3027C35.2471 37.3606 35.2359 37.4263 35.2359 37.4997C35.2359 37.5188 35.2471 37.5284 35.2695 37.5284H36.3219C36.3443 37.5284 36.3555 37.5188 36.3555 37.4997Z" fill="white"/>
<path d="M40.5703 38.9002C40.5329 38.9002 40.5148 38.8842 40.5148 38.8528V38.6859H40.5095C40.4466 38.7652 40.3517 38.8295 40.2253 38.8787C40.099 38.928 39.9412 38.9526 39.7519 38.9526C39.6293 38.9526 39.5136 38.9385 39.4038 38.9098C39.2945 38.8815 39.1985 38.8386 39.1169 38.7816C39.0354 38.7246 38.9703 38.6526 38.9218 38.5655C38.8733 38.4784 38.8493 38.3749 38.8493 38.2545C38.8493 38.0046 38.9447 37.8213 39.1361 37.7041C39.327 37.5869 39.5898 37.5286 39.9241 37.5286H40.4695C40.4919 37.5286 40.5031 37.519 40.5031 37.4998V37.3895C40.5031 37.255 40.4604 37.1574 40.3751 37.0963C40.2898 37.0356 40.1336 37.0051 39.9076 37.0051C39.7551 37.0051 39.6309 37.0201 39.5344 37.0502C39.4379 37.0803 39.3579 37.1177 39.295 37.1619C39.2614 37.1843 39.2353 37.1811 39.2172 37.1524L39.0114 36.8382C38.9927 36.8127 38.9964 36.7921 39.0226 36.7762C39.1303 36.7096 39.2598 36.6558 39.4123 36.6143C39.5642 36.5733 39.7519 36.5523 39.9748 36.5523C40.3831 36.5523 40.6716 36.6157 40.8406 36.7429C41.0096 36.8701 41.0938 37.073 41.0938 37.3525V38.8528C41.0938 38.8847 41.0751 38.9002 41.0384 38.9002H40.5703ZM39.9081 38.5194C40.1011 38.5194 40.2488 38.4875 40.3506 38.4241C40.4524 38.3607 40.5036 38.2622 40.5036 38.1291V37.9531C40.5036 37.9339 40.4924 37.9244 40.47 37.9244H40.0249C39.8244 37.9244 39.6778 37.949 39.585 37.9982C39.4923 38.0475 39.4459 38.1259 39.4459 38.234C39.4459 38.4241 39.6 38.5194 39.9081 38.5194Z" fill="white"/>
<path d="M43.5823 38.8999C43.5449 38.8999 43.5268 38.8839 43.5268 38.8525V37.5287C43.5268 37.3796 43.4842 37.2588 43.3989 37.1667C43.3136 37.0746 43.1872 37.0285 43.0203 37.0285C42.8572 37.0285 42.7308 37.0746 42.6418 37.1667C42.5528 37.2588 42.508 37.3796 42.508 37.5287V38.8525C42.508 38.8844 42.4893 38.8999 42.4525 38.8999H41.9402C41.9029 38.8999 41.8848 38.8839 41.8848 38.8525V36.6523C41.8848 36.6204 41.9034 36.6049 41.9402 36.6049H42.4525C42.4899 36.6049 42.508 36.6208 42.508 36.6523V36.8192H42.5133C42.5725 36.7462 42.661 36.6833 42.7778 36.6313C42.8945 36.5789 43.0422 36.5529 43.2203 36.5529C43.3647 36.5529 43.4938 36.5743 43.6073 36.6172C43.7203 36.6601 43.8179 36.7198 43.8995 36.7959C43.981 36.8721 44.0434 36.9619 44.0861 37.065C44.1287 37.168 44.15 37.2816 44.15 37.4056V38.8534C44.15 38.8853 44.1314 38.9008 44.0946 38.9008H43.5823V38.8999Z" fill="white"/>
<path d="M46.5882 38.9C46.5509 38.9 46.5328 38.8841 46.5328 38.8526V38.6812H46.5275C46.4645 38.7605 46.375 38.8257 46.2604 38.8763C46.1452 38.9269 45.997 38.9525 45.8152 38.9525C45.5849 38.9525 45.3903 38.9064 45.2309 38.8143C45.0715 38.7222 44.9563 38.584 44.8859 38.4003C44.8524 38.3114 44.8284 38.2202 44.8134 38.1267C44.7985 38.0332 44.791 37.9083 44.791 37.7528C44.791 37.5973 44.7985 37.4728 44.8134 37.3789C44.8284 37.2854 44.8524 37.1942 44.8859 37.1053C44.9563 36.921 45.0715 36.7829 45.2309 36.6908C45.3903 36.5987 45.5854 36.5526 45.8152 36.5526C45.997 36.5526 46.1457 36.5781 46.2604 36.6287C46.3755 36.6794 46.4645 36.7446 46.5275 36.8239H46.5328V35.7095C46.5328 35.6776 46.5514 35.6621 46.5882 35.6621H47.1006C47.1374 35.6621 47.156 35.678 47.156 35.7095V38.8522C47.156 38.8841 47.1374 38.8996 47.1006 38.8996H46.5882V38.9ZM45.9762 38.4764C46.2358 38.4764 46.4027 38.3779 46.4773 38.1814C46.496 38.1276 46.5099 38.0688 46.5189 38.0054C46.528 37.942 46.5328 37.8576 46.5328 37.7528C46.5328 37.6479 46.528 37.564 46.5189 37.5006C46.5099 37.4372 46.4955 37.3784 46.4773 37.3246C46.4032 37.1276 46.2358 37.0296 45.9762 37.0296C45.7203 37.0296 45.555 37.1281 45.4809 37.3246C45.4623 37.3784 45.4484 37.4372 45.4393 37.5006C45.4303 37.564 45.4255 37.6483 45.4255 37.7528C45.4255 37.8576 45.4303 37.9415 45.4393 38.0054C45.4484 38.0688 45.4623 38.1276 45.4809 38.1814C45.5545 38.3779 45.7198 38.4764 45.9762 38.4764Z" fill="white"/>
<path d="M49.3498 38.9001C49.3124 38.9001 49.2943 38.8842 49.2943 38.8522V35.7045C49.2943 35.6726 49.313 35.6567 49.3498 35.6567H50.7695C50.9513 35.6567 51.1192 35.6813 51.2733 35.7305C51.4274 35.7798 51.5591 35.8482 51.6689 35.9357C51.7782 36.0233 51.8635 36.1291 51.9248 36.2531C51.9861 36.3771 52.0165 36.5139 52.0165 36.6635C52.0165 36.8162 51.9861 36.9544 51.9248 37.0789C51.8635 37.2029 51.7782 37.3087 51.6689 37.3963C51.5596 37.4838 51.4274 37.5522 51.2733 37.6015C51.1192 37.6507 50.9513 37.6753 50.7695 37.6753H49.9847C49.9623 37.6753 49.9511 37.6849 49.9511 37.7041V38.8518C49.9511 38.8837 49.9325 38.8992 49.8957 38.8992H49.3498V38.9001ZM50.7306 37.1669C50.9273 37.1669 51.0814 37.1218 51.1928 37.031C51.3042 36.9407 51.3597 36.819 51.3597 36.6667C51.3597 36.5176 51.3042 36.3967 51.1928 36.3046C51.0814 36.2125 50.9273 36.1665 50.7306 36.1665H49.9847C49.9623 36.1665 49.9511 36.176 49.9511 36.1952V37.1382C49.9511 37.1573 49.9623 37.1669 49.9847 37.1669H50.7306Z" fill="white"/>
<path d="M53.336 38.9288C53.0726 38.9288 52.8839 38.875 52.7709 38.7669C52.6579 38.6588 52.6008 38.4938 52.6008 38.2717V35.71C52.6008 35.678 52.6195 35.6625 52.6563 35.6625H53.1686C53.2059 35.6625 53.2241 35.6785 53.2241 35.71V38.2434C53.2241 38.3228 53.2427 38.3775 53.2795 38.4076C53.3168 38.4377 53.376 38.4527 53.4576 38.4527H53.5802C53.6175 38.4527 53.6356 38.4687 53.6356 38.5002V38.8809C53.6356 38.9128 53.617 38.9283 53.5802 38.9283H53.336V38.9288Z" fill="white"/>
<path d="M55.8307 38.9002C55.7934 38.9002 55.7753 38.8842 55.7753 38.8528V38.6859H55.7699C55.707 38.7652 55.6121 38.8295 55.4858 38.8787C55.3594 38.928 55.2016 38.9526 55.0123 38.9526C54.8897 38.9526 54.774 38.9385 54.6642 38.9098C54.5549 38.8815 54.459 38.8386 54.3774 38.7816C54.2958 38.7246 54.2308 38.6526 54.1823 38.5655C54.1337 38.4784 54.1097 38.3749 54.1097 38.2545C54.1097 38.0046 54.2052 37.8213 54.3966 37.7041C54.5874 37.5869 54.8503 37.5286 55.1845 37.5286H55.7299C55.7523 37.5286 55.7635 37.519 55.7635 37.4998V37.3895C55.7635 37.255 55.7209 37.1574 55.6356 37.0963C55.5503 37.0356 55.3941 37.0051 55.168 37.0051C55.0155 37.0051 54.8913 37.0201 54.7948 37.0502C54.6983 37.0803 54.6184 37.1177 54.5554 37.1619C54.5219 37.1843 54.4957 37.1811 54.4776 37.1524L54.2718 36.8382C54.2532 36.8127 54.2569 36.7921 54.283 36.7762C54.3907 36.7096 54.5203 36.6558 54.6727 36.6143C54.8247 36.5733 55.0123 36.5523 55.2352 36.5523C55.6436 36.5523 55.932 36.6157 56.101 36.7429C56.27 36.8701 56.3542 37.073 56.3542 37.3525V38.8528C56.3542 38.8847 56.3356 38.9002 56.2988 38.9002H55.8307ZM55.168 38.5194C55.361 38.5194 55.5087 38.4875 55.6105 38.4241C55.7123 38.3607 55.7635 38.2622 55.7635 38.1291V37.9531C55.7635 37.9339 55.7523 37.9244 55.7299 37.9244H55.2848C55.0843 37.9244 54.9377 37.949 54.8449 37.9982C54.7522 38.0475 54.7058 38.1259 54.7058 38.234C54.7058 38.4241 54.8599 38.5194 55.168 38.5194Z" fill="white"/>
<path d="M58.1915 38.9526C57.9207 38.9526 57.6877 38.8988 57.4925 38.7907C57.2974 38.6827 57.1615 38.5258 57.0831 38.3192C57.0277 38.1765 56.9994 37.9877 56.9994 37.7525C56.9994 37.5176 57.0271 37.3288 57.0831 37.1857C57.1609 36.9791 57.2974 36.8222 57.4925 36.7142C57.6877 36.6061 57.9201 36.5523 58.1915 36.5523C58.3919 36.5523 58.57 36.5842 58.7262 36.6476C58.8819 36.711 59.0136 36.7985 59.1218 36.9093C59.1442 36.9349 59.1421 36.9568 59.1165 36.9759L58.7657 37.2376C58.7358 37.2568 58.7102 37.2536 58.6878 37.2281C58.6212 37.1647 58.5497 37.1154 58.4735 37.0803C58.3973 37.0457 58.3034 37.0279 58.1926 37.0279C58.0737 37.0279 57.9708 37.0525 57.8833 37.1018C57.7959 37.151 57.7319 37.2262 57.6914 37.3279C57.669 37.3849 57.6541 37.4478 57.6471 37.5158C57.6397 37.5842 57.636 37.6626 57.636 37.7515C57.636 37.8405 57.6397 37.9198 57.6471 37.9896C57.6546 38.0593 57.6695 38.1227 57.6914 38.1802C57.7325 38.2787 57.7964 38.3525 57.8833 38.4018C57.9708 38.451 58.0737 38.4756 58.1926 38.4756C58.304 38.4756 58.3978 38.4583 58.4735 38.4232C58.5497 38.3886 58.6212 38.3393 58.6878 38.2755C58.7102 38.2531 58.7358 38.2518 58.7657 38.2709L59.1165 38.5326C59.1389 38.5486 59.1405 38.5705 59.1218 38.5992C59.0141 38.7073 58.8824 38.793 58.7262 38.8564C58.57 38.9207 58.3919 38.9526 58.1915 38.9526Z" fill="white"/>
<path d="M60.8525 38.9525C60.5667 38.9525 60.3279 38.8959 60.136 38.7833C59.944 38.6707 59.8118 38.5143 59.7377 38.3141C59.7084 38.2411 59.6855 38.1595 59.6689 38.0687C59.6524 37.9785 59.6444 37.8727 59.6444 37.7518C59.6444 37.6315 59.6519 37.5248 59.6663 37.4326C59.6812 37.3405 59.7031 37.258 59.7324 37.185C59.806 36.9849 59.9392 36.8294 60.1333 36.7186C60.3268 36.6073 60.5571 36.5517 60.8248 36.5517C61.1031 36.5517 61.3376 36.6082 61.529 36.7208C61.7199 36.8335 61.8526 36.9885 61.9273 37.185C61.9422 37.2265 61.955 37.2676 61.9662 37.3086C61.9774 37.3501 61.9865 37.3975 61.9939 37.4513C62.0014 37.5051 62.0067 37.5663 62.0105 37.6346C62.0142 37.703 62.0158 37.7833 62.0158 37.875C62.0158 37.9069 61.9955 37.9224 61.9545 37.9224H60.3007C60.2783 37.9224 60.2671 37.932 60.2671 37.9511C60.2671 37.9862 60.2708 38.0177 60.2783 38.0464C60.2858 38.0751 60.2948 38.102 60.306 38.1276C60.3988 38.3592 60.5992 38.475 60.9074 38.475C61.0593 38.475 61.1857 38.4545 61.2859 38.413C61.3862 38.372 61.4699 38.3195 61.5365 38.2557C61.5664 38.2302 61.5941 38.227 61.6202 38.2461L61.9486 38.4937C61.9747 38.5129 61.9763 38.5352 61.9539 38.5603C61.8388 38.6748 61.6884 38.7682 61.5029 38.8412C61.3184 38.916 61.1015 38.9525 60.8525 38.9525ZM61.3872 37.4997C61.3872 37.4258 61.376 37.3606 61.3536 37.3027C61.3163 37.2097 61.2513 37.1372 61.1585 37.0843C61.0657 37.0314 60.9559 37.0049 60.8301 37.0049C60.7 37.0049 60.5886 37.0314 60.4958 37.0843C60.4031 37.1372 60.338 37.2101 60.3012 37.3027C60.2788 37.3606 60.2676 37.4263 60.2676 37.4997C60.2676 37.5188 60.2788 37.5284 60.3012 37.5284H61.3536C61.376 37.5284 61.3872 37.5188 61.3872 37.4997Z" fill="white"/>
<path d="M63.6808 38.9526C63.4063 38.9526 63.1733 38.9148 62.9819 38.8382C62.7905 38.762 62.6396 38.6795 62.5282 38.5906C62.5021 38.5682 62.5021 38.5463 62.5282 38.524L62.8454 38.2381C62.8715 38.2157 62.8971 38.2157 62.9233 38.2381C63.0198 38.3142 63.1392 38.3772 63.2826 38.4259C63.4255 38.4752 63.5673 38.4998 63.7086 38.4998C63.8754 38.4998 63.9997 38.4743 64.0818 38.4237C64.1633 38.3731 64.2044 38.3078 64.2044 38.2285C64.2044 38.1587 64.174 38.1031 64.1127 38.0616C64.0514 38.0206 63.9335 37.9918 63.7592 37.9759L63.4697 37.9522C63.1952 37.9266 62.9888 37.8569 62.8518 37.7424C62.7143 37.628 62.646 37.4725 62.646 37.2759C62.646 37.0539 62.7351 36.8774 62.9131 36.7475C63.0912 36.6175 63.3492 36.5523 63.6872 36.5523C63.8989 36.5523 64.0898 36.5783 64.2609 36.6307C64.4315 36.6832 64.5765 36.7506 64.6954 36.8332C64.7253 36.8523 64.729 36.8747 64.7066 36.8998L64.4336 37.1806C64.4112 37.203 64.3851 37.2062 64.3558 37.1902C64.2705 37.1396 64.1655 37.0949 64.0412 37.0571C63.917 37.0188 63.788 37.0001 63.6542 37.0001C63.5204 37.0001 63.4196 37.0224 63.3508 37.0666C63.2821 37.1113 63.2479 37.1683 63.2479 37.2381C63.2479 37.3047 63.2778 37.358 63.337 37.3977C63.3962 37.4374 63.5134 37.4652 63.6878 37.4811L63.9773 37.5048C64.2593 37.5304 64.4683 37.6011 64.6037 37.7169C64.7391 37.8327 64.8068 37.9859 64.8068 38.1765C64.8068 38.405 64.7119 38.5915 64.5227 38.736C64.3323 38.8806 64.0524 38.9526 63.6808 38.9526Z" fill="white"/>
</svg>
