<svg width="32" height="32" viewBox="0 0 32 32" fill="none" xmlns="http://www.w3.org/2000/svg">
<path fill-rule="evenodd" clip-rule="evenodd" d="M16 2.66663C9.26363 2.66663 4 7.9303 4 14.6667C4 18.2665 6.39683 22.5549 11.1039 27.6485C11.2228 27.7772 11.3468 27.9012 11.4755 28.0201C14.1796 30.5189 18.3974 30.3526 20.8962 27.6485L21.3161 27.1894C25.7454 22.2953 28 18.1585 28.0001 14.6667C28.0001 7.93032 22.7364 2.66663 16 2.66663ZM16 5.33329C21.2636 5.33329 25.3335 9.40308 25.3335 14.6667C25.3333 17.3398 23.3649 20.9515 19.3437 25.3948L18.9331 25.8437C17.4384 27.4611 14.9077 27.5609 13.2853 26.0616C13.2081 25.9903 13.1337 25.9159 13.0623 25.8387C8.76968 21.1935 6.66667 17.4307 6.66667 14.6667C6.66667 9.40305 10.7364 5.33329 16 5.33329Z" fill="#F7BF23"/>
<g opacity="0.5">
<path fill-rule="evenodd" clip-rule="evenodd" d="M16.0001 9.33337C13.0546 9.33337 10.6667 11.7212 10.6667 14.6667C10.6667 17.6122 13.0546 20 16.0001 20C18.9456 20 21.3334 17.6122 21.3334 14.6667C21.3334 11.7212 18.9456 9.33337 16.0001 9.33337ZM16.0001 12C17.4728 12 18.6667 13.1939 18.6667 14.6667C18.6667 16.1395 17.4728 17.3334 16.0001 17.3334C14.5273 17.3334 13.3334 16.1395 13.3334 14.6667C13.3334 13.1939 14.5273 12 16.0001 12Z" fill="#F7BF23"/>
</g>
</svg>
