<svg width="72" height="80" viewBox="0 0 72 80" fill="none" xmlns="http://www.w3.org/2000/svg">
<path opacity="0.1" d="M30.1803 1.56846C33.7815 -0.522818 38.2185 -0.522819 41.8197 1.56845L66.1803 15.7149C69.7815 17.8062 72 21.671 72 25.8536V54.1465C72 58.329 69.7815 62.1938 66.1803 64.2851L41.8197 78.4315C38.2185 80.5228 33.7815 80.5228 30.1803 78.4315L5.81969 64.2851C2.21845 62.1938 0 58.329 0 54.1465V25.8536C0 21.671 2.21845 17.8062 5.81969 15.7149L30.1803 1.56846Z" fill="#F7BF23"/>
<g clip-path="url(#clip0_82_358)">
<mask id="mask0_82_358" style="mask-type:alpha" maskUnits="userSpaceOnUse" x="21" y="25" width="30" height="30">
<path d="M51 25H21V55H51V25Z" fill="#D9D9D9"/>
</mask>
<g mask="url(#mask0_82_358)">
<path d="M39.2698 48.7075C38.9212 48.5523 38.9212 48.2262 38.8891 47.9195C38.8764 47.7978 38.8622 47.7081 38.723 47.6473C38.5758 47.5832 38.505 47.6619 38.4144 47.7318C38.3163 47.8068 38.2214 47.8865 38.1204 47.9568C37.9171 48.0983 37.6808 48.0889 37.5071 47.9191C37.14 47.5617 36.7783 47.2 36.4219 46.8338C36.2436 46.6508 36.237 46.4178 36.3889 46.2068C36.4606 46.1063 36.5384 46.01 36.6154 45.9138C36.6848 45.827 36.7517 45.7572 36.6923 45.6198C36.6328 45.4826 36.5507 45.4562 36.4248 45.4472C36.284 45.437 36.144 45.4176 36.0057 45.3891C35.9031 45.3714 35.8098 45.3182 35.7422 45.2388C35.6746 45.1594 35.637 45.0588 35.6359 44.9546C35.6292 44.4309 35.6292 43.9071 35.6359 43.3834C35.636 43.2791 35.6732 43.1781 35.7407 43.0985C35.8083 43.019 35.9019 42.966 36.0048 42.9489C36.1719 42.9153 36.3422 42.9017 36.5111 42.8786C36.68 42.8554 36.7725 42.6304 36.6701 42.4936C36.5785 42.3714 36.479 42.2549 36.387 42.1308C36.2308 41.9142 36.2426 41.6821 36.4304 41.4904C36.7805 41.1329 37.1342 40.7792 37.4916 40.4294C37.6831 40.2407 37.9162 40.2321 38.1323 40.3883C38.2328 40.46 38.3295 40.5374 38.4252 40.6148C38.5126 40.6856 38.5824 40.7483 38.7192 40.6893C38.856 40.6304 38.8792 40.544 38.8882 40.4194C38.8989 40.2787 38.919 40.1389 38.9485 40.0009C38.9668 39.8983 39.0205 39.8054 39.1002 39.7383C39.18 39.671 39.2807 39.634 39.3849 39.6334C39.9086 39.6271 40.4324 39.6271 40.9561 39.6334C41.0604 39.6345 41.1611 39.6723 41.2403 39.7404C41.3194 39.8084 41.372 39.9022 41.3888 40.0052C41.4204 40.1661 41.4359 40.3308 41.4572 40.494C41.4804 40.6743 41.7011 40.7743 41.8446 40.6662C41.962 40.5775 42.0753 40.4837 42.1932 40.3963C42.4174 40.2307 42.6504 40.2388 42.8482 40.4317C43.2057 40.7812 43.5594 41.1348 43.9088 41.4929C44.0919 41.6816 44.1018 41.9198 43.9465 42.135C43.8633 42.2563 43.7723 42.372 43.6738 42.4813C43.5794 42.5794 43.6181 42.67 43.6738 42.7493C43.7172 42.8099 43.7797 42.8542 43.8512 42.8753C44.0055 42.9111 44.1664 42.9149 44.323 42.9461C44.5524 42.9933 44.7005 43.1579 44.7052 43.3886C44.7121 43.9061 44.7121 44.4238 44.7052 44.9418C44.7024 45.1777 44.5491 45.3471 44.3108 45.3929C44.1667 45.4218 44.0209 45.4418 43.8744 45.4529C43.7706 45.4604 43.704 45.4845 43.6615 45.5943C43.6191 45.7043 43.6059 45.7832 43.6936 45.8775C43.788 45.9825 43.8752 46.0938 43.9545 46.2106C44.1013 46.4182 44.0904 46.6574 43.9135 46.8391C43.5599 47.2008 43.202 47.5584 42.8396 47.9119C42.6584 48.0889 42.4183 48.1007 42.2116 47.9525C42.1057 47.8791 42.0035 47.8004 41.9054 47.7167C41.8153 47.6388 41.7394 47.6001 41.6092 47.6534C41.4789 47.7067 41.4558 47.7949 41.4511 47.911C41.4477 47.9927 41.4261 48.0738 41.4219 48.1559C41.4082 48.422 41.2949 48.6159 41.0354 48.7094L39.2698 48.7075ZM40.1267 46.1158C41.1699 46.1629 42.088 45.3094 42.1083 44.2186C42.131 43.0622 41.3091 42.2912 40.2984 42.2417C39.1301 42.1846 38.2743 42.9692 38.2195 44.1341C38.1705 45.1688 39.0386 46.0685 40.1258 46.1158H40.1267Z" fill="#F7BF23"/>
<path d="M26.625 37.2646C26.7552 36.9602 26.9869 36.8493 27.3129 36.8658C27.6649 36.8834 28.0178 36.8697 28.3849 36.8697V45.3053H28.1688C27.8805 45.3053 27.5918 45.2955 27.3039 45.3081C26.9779 45.3223 26.7453 45.2053 26.625 44.8935V37.2646Z" fill="#F7BF23"/>
<path d="M39.6001 38.5162C39.2967 38.5879 39.0155 38.6158 38.7701 38.7238C38.5635 38.8154 38.3988 39.0013 38.2139 39.1432C38.1666 39.1796 38.1148 39.2376 38.0633 39.2376C37.8251 39.248 37.5863 39.2423 37.3296 39.2423C37.3296 39.2193 37.332 39.1555 37.3296 39.0923C37.3164 38.805 37.1235 38.5998 36.8475 38.5766C36.7175 38.5639 36.5874 38.6005 36.4831 38.6792C36.3787 38.7578 36.3078 38.8728 36.2841 39.0013C36.2218 39.2947 36.2742 39.8033 36.4035 40.0279C36.1718 40.2554 35.9316 40.4889 35.6958 40.7234C35.4173 40.9989 35.2239 41.3325 35.24 41.7232C35.2532 42.0289 35.1485 42.2214 34.9389 42.4257C34.6785 42.6796 34.5742 43.024 34.5728 43.3915C34.571 43.909 34.571 44.4269 34.5728 44.9452C34.5728 45.0557 34.5898 45.1666 34.5997 45.2911H29.4686C29.4653 45.2288 29.4597 45.167 29.4597 45.1047C29.4597 40.4903 29.4597 35.8758 29.4597 31.261C29.4597 30.8241 29.6607 30.625 30.0976 30.625H38.9622C39.4024 30.625 39.5987 30.8189 39.5987 31.2577C39.5987 33.6294 39.5987 36.0014 39.5987 38.3737L39.6001 38.5162ZM35.063 39.3797C35.063 39.274 35.0715 39.1673 35.063 39.0626C35.0549 38.9259 34.993 38.7979 34.8909 38.7066C34.7888 38.6153 34.6549 38.5681 34.5181 38.5752C34.2289 38.5842 34.0184 38.7974 34.01 39.0984C34.0047 39.2871 34.0052 39.4759 34.01 39.6647C34.0175 39.9765 34.2293 40.1916 34.529 40.1969C34.8286 40.202 35.048 39.9888 35.0668 39.6816C35.0673 39.5778 35.0616 39.4778 35.0616 39.3778L35.063 39.3797ZM37.3278 33.7036C37.3278 33.6093 37.3306 33.5149 37.3278 33.4205C37.3164 33.12 37.1089 32.9096 36.8173 32.8987C36.6835 32.8913 36.5523 32.9365 36.4514 33.0247C36.3506 33.1129 36.2884 33.237 36.278 33.3705C36.26 33.593 36.26 33.8166 36.278 34.0391C36.302 34.3387 36.5309 34.5237 36.83 34.5109C37.1131 34.5005 37.3164 34.2925 37.3287 33.999C37.3315 33.9013 37.3278 33.8013 37.3282 33.7036H37.3278ZM34.0052 33.714C34.0052 33.8197 33.9995 33.9254 34.0052 34.0306C34.0102 34.1552 34.0612 34.2736 34.1483 34.3628C34.2354 34.4521 34.3526 34.5058 34.477 34.5138C34.7601 34.5345 34.9988 34.3882 35.0343 34.1165C35.0677 33.8494 35.0687 33.5793 35.0371 33.312C35.0055 33.0426 34.754 32.8779 34.487 32.903C34.3594 32.9101 34.2392 32.9648 34.15 33.0562C34.0608 33.1477 34.0091 33.2693 34.0052 33.397C34.0005 33.5003 34.0052 33.6064 34.0056 33.7121L34.0052 33.714ZM34.0052 36.5449C34.0052 36.6393 34.0024 36.7337 34.0052 36.8281C34.0151 37.1333 34.2147 37.3404 34.5095 37.3532C34.7927 37.3659 35.0285 37.1795 35.0536 36.8894C35.0744 36.6615 35.0744 36.4322 35.0536 36.2042C35.0257 35.9047 34.7931 35.7268 34.4921 35.7428C34.2119 35.7574 34.0142 35.9679 34.0047 36.2647C34.0014 36.3572 34.0042 36.4511 34.0042 36.5449H34.0052ZM37.3287 36.5478C37.3287 36.4482 37.3325 36.3482 37.3287 36.2486C37.316 35.9698 37.1254 35.7646 36.8621 35.7428C36.5658 35.7179 36.3237 35.8778 36.2898 36.1675C36.2614 36.4183 36.2614 36.6716 36.2898 36.9224C36.3204 37.2027 36.5625 37.373 36.8408 37.3532C36.9715 37.3482 37.0952 37.2932 37.1863 37.1994C37.2774 37.1057 37.3289 36.9804 37.3301 36.8497C37.332 36.7473 37.3278 36.6478 37.3278 36.5478H37.3287ZM31.7442 36.5478C31.7374 36.6707 31.7374 36.7938 31.7442 36.9167C31.773 37.1687 31.9769 37.3413 32.2397 37.3532C32.5025 37.365 32.7383 37.2046 32.7643 36.9564C32.7934 36.6828 32.7934 36.407 32.7643 36.1335C32.736 35.8778 32.4954 35.7273 32.2198 35.7423C32.1014 35.7457 31.988 35.7916 31.9008 35.8716C31.8134 35.9517 31.7578 36.0606 31.7442 36.1784C31.7371 36.3011 31.7368 36.4241 31.7433 36.5468L31.7442 36.5478ZM31.7386 39.3886C31.7386 39.4943 31.7325 39.6 31.7386 39.7052C31.744 39.8359 31.7995 39.9595 31.8936 40.0504C31.9877 40.1413 32.1131 40.1926 32.2439 40.1935C32.5119 40.2025 32.7459 40.0261 32.7728 39.7552C32.7964 39.5103 32.7964 39.2636 32.7728 39.0187C32.7464 38.7384 32.5096 38.5606 32.2321 38.5743C32.1016 38.5782 31.9775 38.6319 31.8853 38.7243C31.7931 38.8168 31.7398 38.941 31.7362 39.0715C31.732 39.1768 31.7376 39.282 31.7376 39.3876L31.7386 39.3886ZM31.7386 33.7121C31.7386 33.8117 31.7339 33.9117 31.7386 34.0113C31.7555 34.3024 31.9495 34.5001 32.2265 34.5138C32.5208 34.5284 32.7497 34.3576 32.778 34.065C32.8011 33.8259 32.8011 33.5851 32.778 33.346C32.7506 33.0629 32.5133 32.885 32.2387 32.9001C32.108 32.9028 31.9834 32.9557 31.8906 33.0478C31.7979 33.14 31.7443 33.2644 31.7409 33.3951C31.7315 33.4993 31.7376 33.6055 31.7376 33.7112L31.7386 33.7121Z" fill="#F7BF23"/>
<path d="M43.0033 39.241C42.749 39.241 42.5056 39.241 42.2621 39.2386C42.2231 39.2348 42.1871 39.216 42.1616 39.1862C41.8021 38.7267 41.3251 38.5399 40.7523 38.5696C40.7231 38.5681 40.6942 38.5648 40.6655 38.5597C40.6655 38.5026 40.6584 38.4455 40.6584 38.3884C40.6584 36.8116 40.6584 35.2346 40.6584 33.6575C40.6584 33.456 40.691 33.4215 40.8839 33.4819C40.9894 33.5131 41.0862 33.5682 41.167 33.6428C41.7214 34.1873 42.2743 34.7327 42.8118 35.2942C42.9202 35.4079 42.9859 35.5556 42.9977 35.7122C43.0123 36.8829 43.0057 38.0539 43.0052 39.2249C43.0071 39.2405 42.9996 39.2575 43.0033 39.241Z" fill="#F7BF23"/>
<path d="M40.1686 45.0485C40.0506 45.0509 39.9332 45.0293 39.8237 44.985C39.7143 44.9406 39.6149 44.8746 39.5316 44.7908C39.4484 44.707 39.3831 44.6073 39.3396 44.4975C39.296 44.3877 39.2751 44.2701 39.2783 44.1521C39.2783 43.9162 39.372 43.69 39.5388 43.5232C39.7056 43.3564 39.9318 43.2627 40.1676 43.2627C40.4035 43.2627 40.6297 43.3564 40.7965 43.5232C40.9634 43.69 41.0571 43.9162 41.0571 44.1521C41.0605 44.2701 41.04 44.3876 40.9967 44.4974C40.9534 44.6072 40.8882 44.707 40.8051 44.7909C40.722 44.8747 40.6227 44.9408 40.5133 44.9851C40.4039 45.0294 40.2866 45.051 40.1686 45.0485Z" fill="#F7BF23"/>
</g>
</g>
<defs>
<clipPath id="clip0_82_358">
<rect width="30" height="30" fill="white" transform="translate(21 25)"/>
</clipPath>
</defs>
</svg>
