<svg width="72" height="80" viewBox="0 0 72 80" fill="none" xmlns="http://www.w3.org/2000/svg">
<path opacity="0.1" d="M30.1803 1.56846C33.7815 -0.522818 38.2185 -0.522819 41.8197 1.56845L66.1803 15.7149C69.7815 17.8062 72 21.671 72 25.8536V54.1465C72 58.329 69.7815 62.1938 66.1803 64.2851L41.8197 78.4315C38.2185 80.5228 33.7815 80.5228 30.1803 78.4315L5.81969 64.2851C2.21845 62.1938 0 58.329 0 54.1465V25.8536C0 21.671 2.21845 17.8062 5.81969 15.7149L30.1803 1.56846Z" fill="#F7BF23"/>
<path d="M45.1536 55V51.6667C45.1536 49.8986 44.4647 48.2029 43.2385 46.9526C42.0124 45.7024 40.3493 45 38.6152 45H25.5384C23.8043 45 22.1412 45.7024 20.9151 46.9526C19.6889 48.2029 19 49.8986 19 51.6667V55" stroke="#F7BF23" stroke-width="2" stroke-linecap="round" stroke-linejoin="round"/>
<path d="M32.0762 38.3333C35.6873 38.3333 38.6146 35.3486 38.6146 31.6667C38.6146 27.9848 35.6873 25 32.0762 25C28.4652 25 25.5378 27.9848 25.5378 31.6667C25.5378 35.3486 28.4652 38.3333 32.0762 38.3333Z" stroke="#F7BF23" stroke-width="2" stroke-linecap="round" stroke-linejoin="round"/>
<path d="M53 55.0001V51.6668C52.9989 50.1897 52.5167 48.7548 51.6292 47.5873C50.7416 46.4199 49.4989 45.5861 48.0962 45.2168" stroke="#F7BF23" stroke-width="2" stroke-linecap="round" stroke-linejoin="round"/>
<path d="M41.5574 25.2168C42.9638 25.584 44.2104 26.418 45.1006 27.5873C45.9908 28.7567 46.474 30.1948 46.474 31.6751C46.474 33.1554 45.9908 34.5936 45.1006 35.7629C44.2104 36.9323 42.9638 37.7663 41.5574 38.1335" stroke="#F7BF23" stroke-width="2" stroke-linecap="round" stroke-linejoin="round"/>
</svg>
