<svg width="65" height="31" viewBox="0 0 65 31" fill="none" xmlns="http://www.w3.org/2000/svg">
<path d="M44.7058 6.9315V7.88313C44.7058 8.25238 44.6669 8.61542 44.5906 8.9712C44.4094 9.82507 44.0164 10.6358 43.4481 11.3795C42.8521 12.1591 42.0641 12.8654 41.1231 13.473C40.3837 13.9507 39.5493 14.367 38.6409 14.7093C37.3533 15.1949 35.915 15.5314 34.3833 15.683C33.7776 15.7431 33.1576 15.7742 32.5258 15.7742C27.7372 15.7742 23.5942 13.9836 21.6041 11.3791H26.1901C27.7164 12.539 29.9881 13.2748 32.5253 13.2748C33.164 13.2748 33.7856 13.2281 34.3827 13.1397C36.0472 12.8941 37.5213 12.3252 38.6403 11.5404C38.7155 11.4879 38.7896 11.434 38.8611 11.3791C39.7535 10.7007 40.3917 9.87723 40.678 8.97085H20.4621C20.3864 8.61507 20.3469 8.25204 20.3469 7.88278C20.3469 7.56086 20.3768 7.24307 20.4349 6.93116C20.6364 5.84378 21.1792 4.8248 21.9922 3.9198C22.4555 3.4034 23.0067 2.92431 23.6337 2.49081C25.738 1.03418 28.6857 0.09499 31.9719 0H34.3833V2.49081H32.5258C30.3485 2.49081 28.3663 3.03277 26.8831 3.9198C25.577 4.70045 24.6578 5.74914 24.3332 6.93116L44.7058 6.9315Z" fill="white"/>
<path d="M44.7058 0.000978547V3.92044H41.1231V2.49179H38.6409V0.000978547H44.7058Z" fill="#44C1EF"/>
<path d="M3.18939 25.2168C2.87537 25.2168 2.56722 25.1979 2.26493 25.1595C1.96265 25.1215 1.67796 25.0707 1.41086 25.0068C1.14376 24.9433 0.898514 24.8683 0.674599 24.7816C0.450683 24.6953 0.260354 24.6037 0.10308 24.507C0.04017 24.4663 0.036438 24.4231 0.0913507 24.3771L0.986481 23.7132C1.0334 23.6725 1.09257 23.6701 1.16295 23.7056C1.43005 23.8431 1.7398 23.9664 2.09327 24.0759C2.44673 24.1854 2.83539 24.24 3.25923 24.24C3.68307 24.24 4.00721 24.1827 4.23113 24.0683C4.45505 23.954 4.567 23.8051 4.567 23.6221C4.567 23.4694 4.48064 23.3447 4.3079 23.2483C4.13517 23.1516 3.80942 23.0832 3.33013 23.0421L2.90629 23.0041C2.08953 22.9329 1.46364 22.7713 1.02753 22.5195C0.591963 22.2677 0.373911 21.9102 0.373911 21.4473C0.373911 21.2083 0.440553 20.9907 0.574369 20.7948C0.707653 20.599 0.898514 20.4325 1.14589 20.295C1.39326 20.1575 1.69128 20.0508 2.04102 19.9744C2.39022 19.8981 2.78101 19.8601 3.21285 19.8601C3.74651 19.8601 4.24926 19.9085 4.72055 20.0052C5.19184 20.1019 5.59595 20.2342 5.93396 20.4021C6.00486 20.4325 6.01233 20.4708 5.95742 20.5164L5.23875 21.2107C5.19184 21.2514 5.13639 21.259 5.07401 21.2335C4.768 21.1012 4.46358 21.0021 4.16129 20.9357C3.859 20.8698 3.54285 20.8366 3.21285 20.8366C2.85938 20.8366 2.59228 20.8901 2.41208 20.9969C2.23135 21.1036 2.14125 21.2387 2.14125 21.4014C2.14125 21.5489 2.23348 21.6711 2.41794 21.7678C2.60241 21.8646 2.92602 21.9333 3.38985 21.9737L3.81369 22.0121C4.64591 22.0832 5.27394 22.2449 5.69831 22.4967C6.12215 22.7485 6.33434 23.1108 6.33434 23.5841C6.33434 23.8183 6.2677 24.0355 6.13388 24.2366C6.00007 24.4376 5.80227 24.6106 5.53891 24.7554C5.27554 24.9004 4.94766 25.0137 4.55527 25.0949C4.16289 25.1761 3.70759 25.2168 3.18939 25.2168Z" fill="white"/>
<path d="M8.06519 19.8986C8.06519 19.8479 8.10464 19.8223 8.18301 19.8223H9.58462C9.67898 19.8223 9.74136 19.8479 9.77334 19.8986L11.7993 23.0654H11.8462L13.8369 19.8986C13.8683 19.8479 13.9312 19.8223 14.0251 19.8223H15.4032C15.4816 19.8223 15.5211 19.8479 15.5211 19.8986V25.1411C15.5211 25.1922 15.4816 25.2174 15.4032 25.2174H14.0725C13.9942 25.2174 13.9547 25.1922 13.9547 25.1411V22.2185H13.9078L12.4236 24.4084C12.3766 24.4747 12.302 24.5076 12.1996 24.5076H11.3871C11.2848 24.5076 11.2107 24.4744 11.1632 24.4084L9.67898 22.2185H9.63206V25.1411C9.63206 25.1922 9.59261 25.2174 9.51424 25.2174H8.18354C8.10517 25.2174 8.06572 25.1922 8.06572 25.1411V19.8986H8.06519Z" fill="white"/>
<path d="M20.0168 19.8986C20.0402 19.8479 20.0914 19.8223 20.1698 19.8223H21.654C21.7324 19.8223 21.7836 19.8479 21.807 19.8986L24.5159 25.1411C24.5393 25.1922 24.5116 25.2174 24.4332 25.2174H22.9021C22.8237 25.2174 22.7725 25.1922 22.7491 25.1411L22.2895 24.233H19.4863L19.0385 25.1411C19.015 25.1922 18.9638 25.2174 18.8854 25.2174H17.3426C17.2637 25.2174 17.2365 25.1922 17.2599 25.1411L20.0168 19.8986ZM21.8187 23.2789L20.9119 21.4627H20.8767L19.9698 23.2789H21.8187Z" fill="white"/>
<path d="M30.6841 25.2171C30.5978 25.2171 30.5386 25.1919 30.5077 25.1408L29.1295 23.0462H28.0579C28.011 23.0462 27.987 23.0614 27.987 23.0921V25.1411C27.987 25.1923 27.9476 25.2175 27.8692 25.2175H26.3732C26.2949 25.2175 26.2554 25.1923 26.2554 25.1411V19.9098C26.2554 19.859 26.2943 19.8334 26.3732 19.8334H29.5651C29.9735 19.8334 30.3445 19.8728 30.6783 19.9516C31.012 20.0303 31.2983 20.1412 31.5382 20.2835C31.7776 20.4258 31.9621 20.5965 32.0916 20.7947C32.2212 20.993 32.2862 21.2096 32.2862 21.4434C32.2862 21.7792 32.1604 22.0717 31.9093 22.3211C31.6576 22.5705 31.3084 22.7588 30.8611 22.8859L32.4392 25.1256C32.4547 25.1512 32.4547 25.1726 32.4392 25.1905C32.4232 25.2085 32.396 25.2171 32.3566 25.2171H30.6841ZM29.4713 22.0921C29.8013 22.0921 30.0641 22.0338 30.2603 21.9167C30.4565 21.7996 30.5546 21.642 30.5546 21.4434C30.5546 21.25 30.4565 21.0949 30.2603 20.9778C30.0641 20.8607 29.8007 20.8023 29.4713 20.8023H28.0579C28.011 20.8023 27.987 20.8175 27.987 20.8483V22.0462C27.987 22.0766 28.0105 22.0921 28.0579 22.0921H29.4713Z" fill="white"/>
<path d="M36.5141 25.2173C36.4357 25.2173 36.3963 25.1921 36.3963 25.141V20.8713C36.3963 20.8409 36.3728 20.8254 36.3254 20.8254H34.2995C34.2211 20.8254 34.1816 20.8001 34.1816 20.7497V19.909C34.1816 19.8585 34.2211 19.8333 34.2995 19.8333H40.2236C40.302 19.8333 40.3415 19.8585 40.3415 19.909V20.7497C40.3415 20.8001 40.302 20.8254 40.2236 20.8254H38.1977C38.1508 20.8254 38.1268 20.8406 38.1268 20.8713V25.141C38.1268 25.1921 38.0874 25.2173 38.009 25.2173H36.5141Z" fill="white"/>
<path d="M46.8381 25.217C46.1391 25.217 45.5287 25.1126 45.0068 24.904C44.4843 24.6954 44.1212 24.38 43.917 23.9579C43.8701 23.8664 43.8328 23.7773 43.8051 23.6909C43.7773 23.6045 43.756 23.5078 43.74 23.4008C43.724 23.294 43.7123 23.1717 43.7048 23.0346C43.6968 22.8971 43.6931 22.6923 43.6931 22.4992C43.6931 22.3058 43.6968 22.1407 43.7048 22.0032C43.7128 21.8657 43.7246 21.7438 43.74 21.637C43.7555 21.5303 43.7773 21.4336 43.8051 21.3469C43.8323 21.2605 43.8696 21.1714 43.917 21.0799C44.1212 20.663 44.4843 20.3486 45.0068 20.1376C45.5287 19.9265 46.1391 19.8208 46.8381 19.8208C47.537 19.8208 48.1474 19.9265 48.6694 20.1376C49.1913 20.3486 49.5544 20.663 49.7591 21.0799C49.806 21.1714 49.8433 21.2605 49.8711 21.3469C49.8982 21.4336 49.9201 21.53 49.9361 21.637C49.9516 21.7438 49.9633 21.8661 49.9713 22.0032C49.9788 22.1407 49.983 22.3058 49.983 22.4992C49.983 22.6926 49.9788 22.8975 49.9713 23.0346C49.9633 23.1721 49.9516 23.294 49.9361 23.4008C49.9201 23.5075 49.8988 23.6042 49.8711 23.6909C49.8433 23.7776 49.8065 23.8664 49.7591 23.9579C49.5549 24.3804 49.1918 24.6957 48.6694 24.904C48.1474 25.1126 47.537 25.217 46.8381 25.217ZM46.8381 24.2249C47.1681 24.2249 47.4389 24.1741 47.6506 24.0722C47.8627 23.9707 48.0115 23.8308 48.0984 23.6526C48.1218 23.6066 48.1416 23.5548 48.157 23.4961C48.1725 23.4377 48.1864 23.3662 48.1981 23.2823C48.2098 23.1983 48.2178 23.0954 48.2215 22.9731C48.2253 22.8512 48.2274 22.6664 48.2274 22.4985C48.2274 22.3306 48.2253 22.1856 48.2215 22.0636C48.2173 21.9414 48.2098 21.8384 48.1981 21.7545C48.1864 21.6706 48.1725 21.5994 48.157 21.5407C48.141 21.4823 48.1218 21.4301 48.0984 21.3842C48.012 21.2063 47.8627 21.0664 47.6506 20.9645C47.4384 20.863 47.1675 20.8118 46.8381 20.8118C46.5086 20.8118 46.2372 20.8626 46.0256 20.9645C45.8134 21.0664 45.6641 21.2063 45.5777 21.3842C45.5543 21.4301 45.5346 21.4823 45.5191 21.5407C45.5031 21.5994 45.4898 21.6706 45.478 21.7545C45.4663 21.8384 45.4583 21.9414 45.4546 22.0636C45.4509 22.1856 45.4487 22.3306 45.4487 22.4985C45.4487 22.6664 45.4503 22.8508 45.4546 22.9731C45.4583 23.0954 45.4663 23.1983 45.478 23.2823C45.4898 23.3662 45.5036 23.4374 45.5191 23.4961C45.5346 23.5548 45.5543 23.6066 45.5777 23.6526C45.6641 23.8308 45.8134 23.9707 46.0256 24.0722C46.2378 24.1741 46.5086 24.2249 46.8381 24.2249Z" fill="white"/>
<path d="M51.7143 19.8967C51.7143 19.8459 51.7532 19.8204 51.8321 19.8204H53.2454C53.3318 19.8204 53.3984 19.8459 53.4459 19.8967L56.2726 23.3702H56.3312V19.8967C56.3312 19.8459 56.3701 19.8204 56.449 19.8204H57.7802C57.8586 19.8204 57.8981 19.8459 57.8981 19.8967V25.1405C57.8981 25.1916 57.8586 25.2168 57.7802 25.2168H56.3786C56.2923 25.2168 56.2256 25.1916 56.1782 25.1405L53.3398 21.6746H53.2811V25.1405C53.2811 25.1916 53.2417 25.2168 53.1633 25.2168H51.8326C51.7542 25.2168 51.7148 25.1916 51.7148 25.1405V19.8967H51.7143Z" fill="white"/>
<path d="M59.6288 19.8967C59.6288 19.8459 59.6677 19.8204 59.7466 19.8204H64.8817C64.9601 19.8204 64.9995 19.8459 64.9995 19.8967V20.7133C64.9995 20.764 64.9601 20.7896 64.8817 20.7896H61.4307C61.3838 20.7896 61.3598 20.8048 61.3598 20.8355V22.0732C61.3598 22.1036 61.3833 22.1191 61.4307 22.1191H64.3049C64.3832 22.1191 64.4227 22.1447 64.4227 22.1954V23.0044C64.4227 23.0552 64.3832 23.0808 64.3049 23.0808H61.4307C61.3838 23.0808 61.3598 23.0959 61.3598 23.1267V24.2027C61.3598 24.2331 61.3833 24.2486 61.4307 24.2486H64.8817C64.9601 24.2486 64.9995 24.2742 64.9995 24.3249V25.1415C64.9995 25.1926 64.9601 25.2179 64.8817 25.2179H59.7466C59.6682 25.2179 59.6288 25.1926 59.6288 25.1415V19.8967Z" fill="white"/>
<path d="M0.099696 28.9036C0.0810364 28.8649 0.0655756 28.8273 0.0522472 28.79C0.039452 28.7526 0.0287894 28.7095 0.0218587 28.6601C0.0143948 28.6107 0.00853005 28.553 0.00533125 28.4867C0.00159932 28.4204 0 28.3378 0 28.239C0 28.1426 0.00159932 28.0608 0.00533125 27.9934C0.00906318 27.9261 0.0143948 27.8677 0.0218587 27.8183C0.0293225 27.7689 0.039452 27.7257 0.0522472 27.6884C0.0650424 27.6511 0.0810364 27.6131 0.099696 27.5744C0.196193 27.3724 0.358799 27.2211 0.58698 27.1212C0.815161 27.0214 1.09079 26.9713 1.41387 26.9713C1.71829 26.9713 1.98059 27.0187 2.20184 27.1133C2.42256 27.2079 2.58676 27.3375 2.69446 27.5015C2.70565 27.5233 2.69605 27.5375 2.66673 27.5447L2.19331 27.6926C2.15972 27.7047 2.13573 27.6984 2.1208 27.6746C2.05789 27.5879 1.97153 27.5136 1.8617 27.4508C1.75241 27.3883 1.6026 27.3572 1.41334 27.3572C1.23154 27.3572 1.08546 27.3858 0.976167 27.4435C0.866874 27.5012 0.785839 27.5803 0.734125 27.6812C0.722929 27.7078 0.712799 27.734 0.703736 27.7603C0.694673 27.7865 0.687209 27.8207 0.681344 27.8629C0.676013 27.9046 0.672281 27.9558 0.670148 28.0159C0.668016 28.076 0.667483 28.1502 0.667483 28.239C0.667483 28.3302 0.668549 28.4052 0.670148 28.4639C0.671748 28.5226 0.67548 28.573 0.681344 28.6152C0.686675 28.6573 0.69414 28.6919 0.703736 28.7195C0.712799 28.7471 0.723462 28.7727 0.734125 28.7969C0.785839 28.8977 0.866874 28.9768 0.976167 29.0345C1.08546 29.0922 1.23154 29.1209 1.41334 29.1209C1.6026 29.1209 1.75188 29.0898 1.8617 29.0273C1.97099 28.9647 2.05736 28.8901 2.1208 28.8038C2.13573 28.7796 2.15972 28.7737 2.19331 28.7858L2.66673 28.9337C2.69659 28.9409 2.70565 28.9554 2.69446 28.9768C2.58676 29.1409 2.42256 29.2704 2.20184 29.3651C1.98112 29.4597 1.71829 29.507 1.41387 29.507C1.09079 29.507 0.815161 29.457 0.58698 29.3571C0.358799 29.257 0.196193 29.106 0.099696 28.9036Z" fill="white"/>
<path d="M4.35368 29.5069C4.07911 29.5069 3.844 29.4648 3.64941 29.3809C3.45428 29.2966 3.31993 29.1788 3.24583 29.0275C3.21597 28.965 3.19358 28.9018 3.17918 28.8382C3.16426 28.7746 3.15679 28.6945 3.15679 28.5981C3.15679 28.5021 3.16426 28.422 3.17918 28.3584C3.19411 28.2949 3.21597 28.2316 3.24583 28.1691C3.31993 28.0175 3.45481 27.8997 3.64941 27.8158C3.844 27.7315 4.07911 27.6893 4.35368 27.6893C4.62451 27.6893 4.85749 27.7315 5.05261 27.8158C5.24721 27.9 5.38209 28.0178 5.4562 28.1691C5.48605 28.2316 5.50791 28.2949 5.52284 28.3584C5.53777 28.4223 5.54523 28.5021 5.54523 28.5981C5.54523 28.6945 5.53777 28.7743 5.52284 28.8382C5.50791 28.9018 5.48552 28.965 5.4562 29.0275C5.38209 29.1791 5.24721 29.2969 5.05261 29.3809C4.85749 29.4648 4.62451 29.5069 4.35368 29.5069ZM4.35368 29.1463C4.48003 29.1463 4.58452 29.1263 4.66823 29.0869C4.75193 29.0472 4.81377 28.9912 4.85482 28.919C4.87721 28.8734 4.89214 28.8271 4.8996 28.7802C4.90707 28.7332 4.9108 28.6724 4.9108 28.5981C4.9108 28.5235 4.90707 28.4634 4.8996 28.4178C4.89214 28.3722 4.87721 28.3253 4.85482 28.2772C4.81377 28.205 4.75193 28.1491 4.66823 28.1094C4.58452 28.0696 4.48003 28.05 4.35368 28.05C4.22732 28.05 4.12176 28.0696 4.03646 28.1094C3.95116 28.1491 3.88772 28.205 3.8472 28.2772C3.82481 28.3253 3.80988 28.3722 3.80242 28.4178C3.79495 28.4634 3.79122 28.5235 3.79122 28.5981C3.79122 28.6727 3.79495 28.7335 3.80242 28.7802C3.80988 28.8271 3.82481 28.8734 3.8472 28.919C3.88825 28.9912 3.95116 29.0472 4.03646 29.0869C4.12176 29.1263 4.22732 29.1463 4.35368 29.1463Z" fill="white"/>
<path d="M7.91127 29.4672C7.87395 29.4672 7.85583 29.4551 7.85583 29.4313V28.4285C7.85583 28.3156 7.81317 28.224 7.72787 28.1543C7.64257 28.0845 7.51622 28.0496 7.34935 28.0496C7.18621 28.0496 7.05986 28.0845 6.97082 28.1543C6.88179 28.224 6.83701 28.3156 6.83701 28.4285V29.4313C6.83701 29.4555 6.81835 29.4672 6.78156 29.4672H6.26922C6.2319 29.4672 6.21377 29.4551 6.21377 29.4313V27.7646C6.21377 27.7405 6.23243 27.7287 6.26922 27.7287H6.78156C6.81835 27.7287 6.83701 27.7408 6.83701 27.7646V27.8911H6.84234C6.90152 27.8358 6.99002 27.7881 7.10677 27.7488C7.22353 27.709 7.37121 27.6893 7.54927 27.6893C7.69429 27.6893 7.82277 27.7056 7.93633 27.738C8.04935 27.7705 8.14692 27.8158 8.22848 27.8734C8.31005 27.9311 8.37243 27.9992 8.41508 28.0772C8.45773 28.1553 8.47906 28.2413 8.47906 28.3353V29.432C8.47906 29.4562 8.4604 29.4679 8.42361 29.4679H7.91127V29.4672Z" fill="white"/>
<path d="M10.9624 29.4672C10.9251 29.4672 10.9069 29.4551 10.9069 29.4313V28.4285C10.9069 28.3156 10.8643 28.224 10.779 28.1543C10.6937 28.0845 10.5673 28.0496 10.4005 28.0496C10.2373 28.0496 10.111 28.0845 10.0219 28.1543C9.9329 28.224 9.88812 28.3156 9.88812 28.4285V29.4313C9.88812 29.4555 9.86946 29.4672 9.83267 29.4672H9.32033C9.28301 29.4672 9.26489 29.4551 9.26489 29.4313V27.7646C9.26489 27.7405 9.28355 27.7287 9.32033 27.7287H9.83267C9.86946 27.7287 9.88812 27.7408 9.88812 27.7646V27.8911H9.89345C9.95263 27.8358 10.0411 27.7881 10.1579 27.7488C10.2746 27.709 10.4223 27.6893 10.6004 27.6893C10.7454 27.6893 10.8739 27.7056 10.9874 27.738C11.1005 27.7705 11.198 27.8158 11.2796 27.8734C11.3612 27.9311 11.4235 27.9992 11.4662 28.0772C11.5088 28.1553 11.5302 28.2413 11.5302 28.3353V29.432C11.5302 29.4562 11.5115 29.4679 11.4747 29.4679H10.9624V29.4672Z" fill="white"/>
<path d="M13.3783 29.507C13.0925 29.507 12.8537 29.4642 12.6617 29.3788C12.4698 29.2935 12.3376 29.175 12.2635 29.0234C12.2342 28.9681 12.2112 28.9063 12.1947 28.8376C12.1782 28.7692 12.1702 28.689 12.1702 28.5975C12.1702 28.5063 12.1777 28.4255 12.1921 28.3557C12.207 28.2859 12.2288 28.2234 12.2582 28.1681C12.3317 28.0165 12.4655 27.8987 12.6591 27.8148C12.8526 27.7305 13.0829 27.6884 13.3505 27.6884C13.6288 27.6884 13.8634 27.7312 14.0548 27.8165C14.2457 27.9018 14.3784 28.0193 14.4531 28.1681C14.468 28.1996 14.4808 28.2307 14.492 28.2618C14.5032 28.2932 14.5122 28.3291 14.5197 28.3699C14.5272 28.4106 14.5325 28.4569 14.5362 28.5087C14.54 28.5605 14.5416 28.6213 14.5416 28.6908C14.5416 28.7149 14.5213 28.7267 14.4803 28.7267H12.8265C12.8041 28.7267 12.7929 28.7339 12.7929 28.7484C12.7929 28.775 12.7966 28.7989 12.8041 28.8206C12.8116 28.8424 12.8206 28.8628 12.8318 28.8821C12.9246 29.0576 13.125 29.1453 13.4332 29.1453C13.5851 29.1453 13.7115 29.1298 13.8117 29.0984C13.9119 29.0673 13.9956 29.0275 14.0623 28.9792C14.0921 28.9598 14.1199 28.9574 14.146 28.9719L14.4744 29.1595C14.5005 29.174 14.5021 29.1909 14.4797 29.2099C14.3646 29.2966 14.2142 29.3674 14.0287 29.4227C13.8442 29.4794 13.6267 29.507 13.3783 29.507ZM13.913 28.4065C13.913 28.3505 13.9018 28.3011 13.8794 28.2573C13.8421 28.1868 13.7771 28.1319 13.6848 28.0918C13.5921 28.0517 13.4822 28.0317 13.3564 28.0317C13.2263 28.0317 13.1149 28.0517 13.0221 28.0918C12.9294 28.1319 12.8643 28.1871 12.827 28.2573C12.8046 28.3011 12.7934 28.3509 12.7934 28.4065C12.7934 28.421 12.8046 28.4282 12.827 28.4282H13.8794C13.9018 28.4282 13.913 28.421 13.913 28.4065Z" fill="white"/>
<path d="M16.2617 29.5071C15.9909 29.5071 15.7579 29.4664 15.5628 29.3845C15.3676 29.3026 15.2317 29.1838 15.1533 29.0273C15.0979 28.9192 15.0696 28.7762 15.0696 28.598C15.0696 28.4201 15.0973 28.2771 15.1533 28.1686C15.2312 28.0122 15.3676 27.8933 15.5628 27.8115C15.7574 27.7296 15.9903 27.6889 16.2617 27.6889C16.4622 27.6889 16.6402 27.713 16.7964 27.761C16.9521 27.8091 17.0838 27.8754 17.1915 27.9593C17.2139 27.9787 17.2118 27.9952 17.1862 28.0097L16.8354 28.208C16.8055 28.2225 16.7799 28.2201 16.7575 28.2008C16.6909 28.1527 16.6194 28.1154 16.5432 28.0888C16.467 28.0626 16.3731 28.0491 16.2622 28.0491C16.1434 28.0491 16.0405 28.0678 15.953 28.1051C15.8656 28.1424 15.8016 28.1994 15.7611 28.2764C15.7387 28.3196 15.7238 28.3673 15.7163 28.4187C15.7089 28.4705 15.7051 28.5299 15.7051 28.5973C15.7051 28.6647 15.7089 28.7248 15.7163 28.7776C15.7238 28.8305 15.7387 28.8785 15.7611 28.922C15.8022 28.9966 15.8661 29.0526 15.953 29.0899C16.0399 29.1272 16.1434 29.1458 16.2622 29.1458C16.3737 29.1458 16.4675 29.1327 16.5432 29.1061C16.6194 29.0798 16.6909 29.0425 16.7575 28.9942C16.7799 28.9773 16.8055 28.9762 16.8354 28.9907L17.1862 29.189C17.2086 29.2011 17.2102 29.2177 17.1915 29.2394C17.0838 29.3213 16.9521 29.3862 16.7964 29.4342C16.6408 29.483 16.4622 29.5071 16.2617 29.5071Z" fill="white"/>
<path d="M18.645 29.4891C18.3741 29.4891 18.1817 29.4469 18.0686 29.3626C17.9556 29.2783 17.8986 29.1509 17.8986 28.9803V28.0639C17.8986 28.0494 17.8874 28.0421 17.865 28.0421H17.6869C17.6496 28.0421 17.6315 28.03 17.6315 28.0062V27.7644C17.6315 27.7402 17.6501 27.7285 17.6869 27.7285H17.865C17.8874 27.7285 17.8986 27.7212 17.8986 27.7067V27.2304C17.8986 27.2065 17.9172 27.1944 17.954 27.1944H18.4664C18.5031 27.1944 18.5218 27.2065 18.5218 27.2304V27.7067C18.5218 27.7212 18.533 27.7285 18.5554 27.7285H18.9115C18.9483 27.7285 18.967 27.7405 18.967 27.7644V28.0062C18.967 28.0304 18.9483 28.0421 18.9115 28.0421H18.5554C18.533 28.0421 18.5218 28.0494 18.5218 28.0639V28.9657C18.5218 29.0283 18.5421 29.0711 18.5831 29.0939C18.6242 29.1167 18.6871 29.1281 18.7724 29.1281H18.9115C18.9483 29.1281 18.967 29.1402 18.967 29.164V29.4524C18.967 29.4766 18.9483 29.4884 18.9115 29.4884H18.645V29.4891Z" fill="white"/>
<path d="M21.0286 29.4674C20.9913 29.4674 20.9732 29.4553 20.9732 29.4312V27.0467C20.9732 27.0226 20.9919 27.0105 21.0286 27.0105H22.4484C22.6302 27.0105 22.7981 27.0291 22.9522 27.0664C23.1063 27.1037 23.238 27.1555 23.3472 27.2219C23.4565 27.2882 23.5424 27.3683 23.6031 27.4623C23.6645 27.5562 23.6948 27.6599 23.6948 27.7732C23.6948 27.8889 23.6645 27.9935 23.6031 28.0878C23.5418 28.1818 23.4565 28.2619 23.3472 28.3282C23.238 28.3946 23.1057 28.4464 22.9522 28.4837C22.7981 28.521 22.6302 28.5396 22.4484 28.5396H21.6636C21.6412 28.5396 21.63 28.5469 21.63 28.5614V29.4308C21.63 29.455 21.6114 29.4667 21.5746 29.4667H21.0286V29.4674ZM22.4089 28.1545C22.6057 28.1545 22.7597 28.1203 22.8712 28.0516C22.9826 27.9832 23.038 27.8909 23.038 27.7756C23.038 27.6626 22.9826 27.5711 22.8712 27.5013C22.7597 27.4315 22.6057 27.3966 22.4089 27.3966H21.6631C21.6407 27.3966 21.6295 27.4039 21.6295 27.4184V28.1327C21.6295 28.1472 21.6407 28.1545 21.6631 28.1545H22.4089Z" fill="white"/>
<path d="M25.3547 29.507C25.069 29.507 24.8301 29.4642 24.6382 29.3788C24.4463 29.2935 24.314 29.175 24.2399 29.0234C24.2106 28.9681 24.1877 28.9063 24.1712 28.8376C24.1546 28.7692 24.1466 28.689 24.1466 28.5975C24.1466 28.5063 24.1541 28.4255 24.1685 28.3557C24.1834 28.2859 24.2053 28.2234 24.2346 28.1681C24.3082 28.0165 24.442 27.8987 24.6355 27.8148C24.829 27.7305 25.0594 27.6884 25.327 27.6884C25.6053 27.6884 25.8399 27.7312 26.0313 27.8165C26.2221 27.9018 26.3549 28.0193 26.4295 28.1681C26.4444 28.1996 26.4572 28.2307 26.4684 28.2618C26.4796 28.2932 26.4887 28.3291 26.4961 28.3699C26.5036 28.4106 26.5089 28.4569 26.5127 28.5087C26.5164 28.5605 26.518 28.6213 26.518 28.6908C26.518 28.7149 26.4977 28.7267 26.4567 28.7267H24.8029C24.7805 28.7267 24.7693 28.7339 24.7693 28.7484C24.7693 28.775 24.7731 28.7989 24.7805 28.8206C24.788 28.8424 24.7971 28.8628 24.8082 28.8821C24.901 29.0576 25.1015 29.1453 25.4096 29.1453C25.5616 29.1453 25.6879 29.1298 25.7881 29.0984C25.8884 29.0673 25.9721 29.0275 26.0387 28.9792C26.0686 28.9598 26.0963 28.9574 26.1224 28.9719L26.4508 29.1595C26.477 29.174 26.4786 29.1909 26.4562 29.2099C26.341 29.2966 26.1907 29.3674 26.0051 29.4227C25.8201 29.4794 25.6032 29.507 25.3547 29.507ZM25.8889 28.4065C25.8889 28.3505 25.8777 28.3011 25.8553 28.2573C25.818 28.1868 25.753 28.1319 25.6607 28.0918C25.568 28.0517 25.4581 28.0317 25.3323 28.0317C25.2022 28.0317 25.0908 28.0517 24.998 28.0918C24.9053 28.1319 24.8402 28.1871 24.8029 28.2573C24.7805 28.3011 24.7693 28.3509 24.7693 28.4065C24.7693 28.421 24.7805 28.4282 24.8029 28.4282H25.8559C25.8782 28.4282 25.8889 28.421 25.8889 28.4065Z" fill="white"/>
<path d="M28.2439 29.5069C27.9694 29.5069 27.7343 29.4648 27.5397 29.3809C27.3445 29.2966 27.2102 29.1788 27.1361 29.0275C27.1062 28.965 27.0838 28.9018 27.0694 28.8382C27.0545 28.7746 27.047 28.6945 27.047 28.5981C27.047 28.5021 27.0545 28.422 27.0694 28.3584C27.0844 28.2949 27.1062 28.2316 27.1361 28.1691C27.2102 28.0175 27.3451 27.8997 27.5397 27.8158C27.7343 27.7315 27.9694 27.6893 28.2439 27.6893C28.5148 27.6893 28.7477 27.7315 28.9429 27.8158C29.1375 27.9 29.2723 28.0178 29.3464 28.1691C29.3763 28.2316 29.3982 28.2949 29.4131 28.3584C29.428 28.4223 29.4355 28.5021 29.4355 28.5981C29.4355 28.6945 29.428 28.7743 29.4131 28.8382C29.3982 28.9018 29.3758 28.965 29.3464 29.0275C29.2723 29.1791 29.1375 29.2969 28.9429 29.3809C28.7477 29.4648 28.5148 29.5069 28.2439 29.5069ZM28.2439 29.1463C28.3703 29.1463 28.4748 29.1263 28.5585 29.0869C28.6422 29.0472 28.704 28.9912 28.7451 28.919C28.7675 28.8734 28.7824 28.8271 28.7899 28.7802C28.7973 28.7332 28.8011 28.6724 28.8011 28.5981C28.8011 28.5235 28.7973 28.4634 28.7899 28.4178C28.7824 28.3722 28.7675 28.3253 28.7451 28.2772C28.704 28.205 28.6422 28.1491 28.5585 28.1094C28.4748 28.0696 28.3703 28.05 28.2439 28.05C28.1176 28.05 28.012 28.0696 27.9267 28.1094C27.8414 28.1491 27.778 28.205 27.7375 28.2772C27.7151 28.3253 27.7001 28.3722 27.6927 28.4178C27.6852 28.4634 27.6815 28.5235 27.6815 28.5981C27.6815 28.6727 27.6852 28.7335 27.6927 28.7802C27.7001 28.8271 27.7151 28.8734 27.7375 28.919C27.7785 28.9912 27.8414 29.0472 27.9267 29.0869C28.012 29.1263 28.1176 29.1463 28.2439 29.1463Z" fill="white"/>
<path d="M30.1585 30.1168C30.1212 30.1168 30.103 30.1047 30.103 30.0809V27.7652C30.103 27.741 30.1217 27.7293 30.1585 27.7293H30.6708C30.7076 27.7293 30.7263 27.7414 30.7263 27.7652V27.8947H30.7316C30.7945 27.8346 30.8836 27.7852 30.9987 27.7469C31.1139 27.7086 31.2621 27.6892 31.4439 27.6892C31.6742 27.6892 31.8688 27.7241 32.0287 27.7939C32.1881 27.8637 32.3033 27.9683 32.3737 28.1079C32.4073 28.1752 32.4312 28.2443 32.4462 28.3151C32.4611 28.3859 32.4686 28.4806 32.4686 28.5984C32.4686 28.7161 32.4611 28.8108 32.4462 28.8816C32.4312 28.9524 32.4073 29.0218 32.3737 29.0889C32.3033 29.2284 32.1881 29.3331 32.0287 29.4025C31.8693 29.4723 31.6742 29.5072 31.4439 29.5072C31.2621 29.5072 31.1133 29.4878 30.9987 29.4495C30.8836 29.4111 30.7945 29.3617 30.7316 29.3016H30.7263V30.0809C30.7263 30.1051 30.7076 30.1168 30.6708 30.1168H30.1585ZM31.2834 29.1465C31.5393 29.1465 31.7046 29.0719 31.7787 28.9231C31.7973 28.8823 31.8112 28.8377 31.8203 28.7897C31.8293 28.7417 31.8341 28.6778 31.8341 28.5984C31.8341 28.5189 31.8293 28.4554 31.8203 28.4073C31.8112 28.3593 31.7968 28.3148 31.7787 28.274C31.7046 28.1248 31.5393 28.0505 31.2834 28.0505C31.0238 28.0505 30.8564 28.1251 30.7823 28.274C30.7636 28.3148 30.7497 28.3593 30.7407 28.4073C30.7316 28.4554 30.7268 28.5193 30.7268 28.5984C30.7268 28.6778 30.7316 28.7414 30.7407 28.7897C30.7497 28.8377 30.7636 28.8823 30.7823 28.9231C30.8564 29.0719 31.0232 29.1465 31.2834 29.1465Z" fill="white"/>
<path d="M33.861 29.4893C33.5976 29.4893 33.4089 29.4486 33.2959 29.3667C33.1828 29.2849 33.1258 29.1598 33.1258 28.9916V27.051C33.1258 27.0269 33.1444 27.0151 33.1812 27.0151H33.6936C33.7309 27.0151 33.749 27.0272 33.749 27.051V28.9702C33.749 29.0303 33.7677 29.0717 33.8045 29.0945C33.8418 29.1173 33.901 29.1287 33.9825 29.1287H34.1051C34.1425 29.1287 34.1606 29.1408 34.1606 29.1647V29.4531C34.1606 29.4773 34.1419 29.489 34.1051 29.489H33.861V29.4893Z" fill="white"/>
<path d="M35.8213 29.507C35.5355 29.507 35.2966 29.4642 35.1047 29.3788C34.9128 29.2935 34.7806 29.175 34.7065 29.0234C34.6771 28.9681 34.6542 28.9063 34.6377 28.8376C34.6212 28.7692 34.6132 28.689 34.6132 28.5975C34.6132 28.5063 34.6206 28.4255 34.635 28.3557C34.65 28.2859 34.6718 28.2234 34.7011 28.1681C34.7747 28.0165 34.908 27.8987 35.1021 27.8148C35.2956 27.7305 35.5259 27.6884 35.7935 27.6884C36.0718 27.6884 36.3064 27.7312 36.4978 27.8165C36.6887 27.9018 36.8214 28.0193 36.896 28.1681C36.911 28.1996 36.9238 28.2307 36.935 28.2618C36.9462 28.2932 36.9552 28.3291 36.9627 28.3699C36.9702 28.4106 36.9755 28.4569 36.9792 28.5087C36.983 28.5605 36.9845 28.6213 36.9845 28.6908C36.9845 28.7149 36.9643 28.7267 36.9232 28.7267H35.2695C35.2471 28.7267 35.2359 28.7339 35.2359 28.7484C35.2359 28.775 35.2396 28.7989 35.2471 28.8206C35.2545 28.8424 35.2636 28.8628 35.2748 28.8821C35.3676 29.0576 35.568 29.1453 35.8762 29.1453C36.0281 29.1453 36.1545 29.1298 36.2547 29.0984C36.3549 29.0673 36.4386 29.0275 36.5053 28.9792C36.5351 28.9598 36.5628 28.9574 36.589 28.9719L36.9174 29.1595C36.9435 29.174 36.9451 29.1909 36.9227 29.2099C36.8075 29.2966 36.6572 29.3674 36.4717 29.4227C36.2867 29.4794 36.0697 29.507 35.8213 29.507ZM36.3555 28.4065C36.3555 28.3505 36.3443 28.3011 36.3219 28.2573C36.2845 28.1868 36.2195 28.1319 36.1267 28.0918C36.034 28.0517 35.9241 28.0317 35.7983 28.0317C35.6682 28.0317 35.5568 28.0517 35.4641 28.0918C35.3713 28.1319 35.3062 28.1871 35.2695 28.2573C35.2471 28.3011 35.2359 28.3509 35.2359 28.4065C35.2359 28.421 35.2471 28.4282 35.2695 28.4282H36.3219C36.3443 28.4282 36.3555 28.421 36.3555 28.4065Z" fill="white"/>
<path d="M40.5703 29.4674C40.5329 29.4674 40.5148 29.4553 40.5148 29.4315V29.3051H40.5095C40.4466 29.3652 40.3517 29.4139 40.2253 29.4512C40.099 29.4885 39.9412 29.5071 39.7519 29.5071C39.6293 29.5071 39.5136 29.4964 39.4038 29.4747C39.2945 29.4532 39.1985 29.4208 39.1169 29.3776C39.0354 29.3344 38.9703 29.2798 38.9218 29.2139C38.8733 29.1479 38.8493 29.0695 38.8493 28.9783C38.8493 28.789 38.9447 28.6501 39.1361 28.5614C39.327 28.4726 39.5898 28.4284 39.9241 28.4284H40.4695C40.4919 28.4284 40.5031 28.4211 40.5031 28.4066V28.323C40.5031 28.2211 40.4604 28.1472 40.3751 28.1009C40.2898 28.055 40.1336 28.0319 39.9076 28.0319C39.7551 28.0319 39.6309 28.0433 39.5344 28.066C39.4379 28.0888 39.3579 28.1172 39.295 28.1507C39.2614 28.1676 39.2353 28.1652 39.2172 28.1434L39.0114 27.9054C38.9927 27.8861 38.9964 27.8705 39.0226 27.8585C39.1303 27.808 39.2598 27.7673 39.4123 27.7358C39.5642 27.7047 39.7519 27.6889 39.9748 27.6889C40.3831 27.6889 40.6716 27.7369 40.8406 27.8332C41.0096 27.9296 41.0938 28.0833 41.0938 28.2951V29.4315C41.0938 29.4557 41.0751 29.4674 41.0384 29.4674H40.5703ZM39.9081 29.179C40.1011 29.179 40.2488 29.1548 40.3506 29.1068C40.4524 29.0588 40.5036 28.9842 40.5036 28.8833V28.75C40.5036 28.7355 40.4924 28.7282 40.47 28.7282H40.0249C39.8244 28.7282 39.6778 28.7469 39.585 28.7842C39.4923 28.8215 39.4459 28.8809 39.4459 28.9628C39.4459 29.1068 39.6 29.179 39.9081 29.179Z" fill="white"/>
<path d="M43.5823 29.4672C43.5449 29.4672 43.5268 29.4551 43.5268 29.4313V28.4285C43.5268 28.3156 43.4842 28.224 43.3989 28.1543C43.3136 28.0845 43.1872 28.0496 43.0203 28.0496C42.8572 28.0496 42.7308 28.0845 42.6418 28.1543C42.5528 28.224 42.508 28.3156 42.508 28.4285V29.4313C42.508 29.4555 42.4893 29.4672 42.4525 29.4672H41.9402C41.9029 29.4672 41.8848 29.4551 41.8848 29.4313V27.7646C41.8848 27.7405 41.9034 27.7287 41.9402 27.7287H42.4525C42.4899 27.7287 42.508 27.7408 42.508 27.7646V27.8911H42.5133C42.5725 27.8358 42.661 27.7881 42.7778 27.7488C42.8945 27.709 43.0422 27.6893 43.2203 27.6893C43.3647 27.6893 43.4938 27.7056 43.6073 27.738C43.7203 27.7705 43.8179 27.8158 43.8995 27.8734C43.981 27.9311 44.0434 27.9992 44.0861 28.0772C44.1287 28.1553 44.15 28.2413 44.15 28.3353V29.432C44.15 29.4562 44.1314 29.4679 44.0946 29.4679H43.5823V29.4672Z" fill="white"/>
<path d="M46.5882 29.4676C46.5509 29.4676 46.5328 29.4555 46.5328 29.4316V29.3018H46.5275C46.4645 29.3619 46.375 29.4113 46.2604 29.4496C46.1452 29.4879 45.997 29.5073 45.8152 29.5073C45.5849 29.5073 45.3903 29.4724 45.2309 29.4026C45.0715 29.3329 44.9563 29.2282 44.8859 29.089C44.8524 29.0216 44.8284 28.9525 44.8134 28.8817C44.7985 28.8109 44.791 28.7163 44.791 28.5985C44.791 28.4807 44.7985 28.3864 44.8134 28.3153C44.8284 28.2444 44.8524 28.1754 44.8859 28.108C44.9563 27.9685 45.0715 27.8638 45.2309 27.794C45.3903 27.7242 45.5854 27.6894 45.8152 27.6894C45.997 27.6894 46.1457 27.7087 46.2604 27.747C46.3755 27.7854 46.4645 27.8348 46.5275 27.8949H46.5328V27.0507C46.5328 27.0265 46.5514 27.0148 46.5882 27.0148H47.1006C47.1374 27.0148 47.156 27.0268 47.156 27.0507V29.4313C47.156 29.4555 47.1374 29.4672 47.1006 29.4672H46.5882V29.4676ZM45.9762 29.1467C46.2358 29.1467 46.4027 29.0721 46.4773 28.9232C46.496 28.8824 46.5099 28.8379 46.5189 28.7899C46.528 28.7418 46.5328 28.6779 46.5328 28.5985C46.5328 28.519 46.528 28.4555 46.5189 28.4075C46.5099 28.3595 46.4955 28.3149 46.4773 28.2741C46.4032 28.1249 46.2358 28.0507 45.9762 28.0507C45.7203 28.0507 45.555 28.1253 45.4809 28.2741C45.4623 28.3149 45.4484 28.3595 45.4393 28.4075C45.4303 28.4555 45.4255 28.5194 45.4255 28.5985C45.4255 28.6779 45.4303 28.7415 45.4393 28.7899C45.4484 28.8379 45.4623 28.8824 45.4809 28.9232C45.5545 29.0721 45.7198 29.1467 45.9762 29.1467Z" fill="white"/>
<path d="M49.3498 29.4674C49.3124 29.4674 49.2943 29.4553 49.2943 29.4312V27.0467C49.2943 27.0226 49.313 27.0105 49.3498 27.0105H50.7695C50.9513 27.0105 51.1192 27.0291 51.2733 27.0664C51.4274 27.1037 51.5591 27.1555 51.6689 27.2219C51.7782 27.2882 51.8635 27.3683 51.9248 27.4623C51.9861 27.5562 52.0165 27.6599 52.0165 27.7732C52.0165 27.8889 51.9861 27.9935 51.9248 28.0878C51.8635 28.1818 51.7782 28.2619 51.6689 28.3282C51.5596 28.3946 51.4274 28.4464 51.2733 28.4837C51.1192 28.521 50.9513 28.5396 50.7695 28.5396H49.9847C49.9623 28.5396 49.9511 28.5469 49.9511 28.5614V29.4308C49.9511 29.455 49.9325 29.4667 49.8957 29.4667H49.3498V29.4674ZM50.7306 28.1545C50.9273 28.1545 51.0814 28.1203 51.1928 28.0516C51.3042 27.9832 51.3597 27.8909 51.3597 27.7756C51.3597 27.6626 51.3042 27.5711 51.1928 27.5013C51.0814 27.4315 50.9273 27.3966 50.7306 27.3966H49.9847C49.9623 27.3966 49.9511 27.4039 49.9511 27.4184V28.1327C49.9511 28.1472 49.9623 28.1545 49.9847 28.1545H50.7306Z" fill="white"/>
<path d="M53.336 29.4893C53.0726 29.4893 52.8839 29.4486 52.7709 29.3667C52.6579 29.2849 52.6008 29.1598 52.6008 28.9916V27.051C52.6008 27.0269 52.6195 27.0151 52.6563 27.0151H53.1686C53.2059 27.0151 53.2241 27.0272 53.2241 27.051V28.9702C53.2241 29.0303 53.2427 29.0717 53.2795 29.0945C53.3168 29.1173 53.376 29.1287 53.4576 29.1287H53.5802C53.6175 29.1287 53.6356 29.1408 53.6356 29.1647V29.4531C53.6356 29.4773 53.617 29.489 53.5802 29.489H53.336V29.4893Z" fill="white"/>
<path d="M55.8307 29.4674C55.7934 29.4674 55.7753 29.4553 55.7753 29.4315V29.3051H55.7699C55.707 29.3652 55.6121 29.4139 55.4858 29.4512C55.3594 29.4885 55.2016 29.5071 55.0123 29.5071C54.8897 29.5071 54.774 29.4964 54.6642 29.4747C54.5549 29.4532 54.459 29.4208 54.3774 29.3776C54.2958 29.3344 54.2308 29.2798 54.1823 29.2139C54.1337 29.1479 54.1097 29.0695 54.1097 28.9783C54.1097 28.789 54.2052 28.6501 54.3966 28.5614C54.5874 28.4726 54.8503 28.4284 55.1845 28.4284H55.7299C55.7523 28.4284 55.7635 28.4211 55.7635 28.4066V28.323C55.7635 28.2211 55.7209 28.1472 55.6356 28.1009C55.5503 28.055 55.3941 28.0319 55.168 28.0319C55.0155 28.0319 54.8913 28.0433 54.7948 28.066C54.6983 28.0888 54.6184 28.1172 54.5554 28.1507C54.5219 28.1676 54.4957 28.1652 54.4776 28.1434L54.2718 27.9054C54.2532 27.8861 54.2569 27.8705 54.283 27.8585C54.3907 27.808 54.5203 27.7673 54.6727 27.7358C54.8247 27.7047 55.0123 27.6889 55.2352 27.6889C55.6436 27.6889 55.932 27.7369 56.101 27.8332C56.27 27.9296 56.3542 28.0833 56.3542 28.2951V29.4315C56.3542 29.4557 56.3356 29.4674 56.2988 29.4674H55.8307ZM55.168 29.179C55.361 29.179 55.5087 29.1548 55.6105 29.1068C55.7123 29.0588 55.7635 28.9842 55.7635 28.8833V28.75C55.7635 28.7355 55.7523 28.7282 55.7299 28.7282H55.2848C55.0843 28.7282 54.9377 28.7469 54.8449 28.7842C54.7522 28.8215 54.7058 28.8809 54.7058 28.9628C54.7058 29.1068 54.8599 29.179 55.168 29.179Z" fill="white"/>
<path d="M58.1915 29.5071C57.9207 29.5071 57.6877 29.4664 57.4925 29.3845C57.2974 29.3026 57.1615 29.1838 57.0831 29.0273C57.0277 28.9192 56.9994 28.7762 56.9994 28.598C56.9994 28.4201 57.0271 28.2771 57.0831 28.1686C57.1609 28.0122 57.2974 27.8933 57.4925 27.8115C57.6877 27.7296 57.9201 27.6889 58.1915 27.6889C58.3919 27.6889 58.57 27.713 58.7262 27.761C58.8819 27.8091 59.0136 27.8754 59.1218 27.9593C59.1442 27.9787 59.1421 27.9952 59.1165 28.0097L58.7657 28.208C58.7358 28.2225 58.7102 28.2201 58.6878 28.2008C58.6212 28.1527 58.5497 28.1154 58.4735 28.0888C58.3973 28.0626 58.3034 28.0491 58.1926 28.0491C58.0737 28.0491 57.9708 28.0678 57.8833 28.1051C57.7959 28.1424 57.7319 28.1994 57.6914 28.2764C57.669 28.3196 57.6541 28.3673 57.6471 28.4187C57.6397 28.4705 57.636 28.5299 57.636 28.5973C57.636 28.6647 57.6397 28.7248 57.6471 28.7776C57.6546 28.8305 57.6695 28.8785 57.6914 28.922C57.7325 28.9966 57.7964 29.0526 57.8833 29.0899C57.9708 29.1272 58.0737 29.1458 58.1926 29.1458C58.304 29.1458 58.3978 29.1327 58.4735 29.1061C58.5497 29.0798 58.6212 29.0425 58.6878 28.9942C58.7102 28.9773 58.7358 28.9762 58.7657 28.9907L59.1165 29.189C59.1389 29.2011 59.1405 29.2177 59.1218 29.2394C59.0141 29.3213 58.8824 29.3862 58.7262 29.4342C58.57 29.483 58.3919 29.5071 58.1915 29.5071Z" fill="white"/>
<path d="M60.8525 29.507C60.5667 29.507 60.3279 29.4642 60.136 29.3788C59.944 29.2935 59.8118 29.175 59.7377 29.0234C59.7084 28.9681 59.6855 28.9063 59.6689 28.8376C59.6524 28.7692 59.6444 28.689 59.6444 28.5975C59.6444 28.5063 59.6519 28.4255 59.6663 28.3557C59.6812 28.2859 59.7031 28.2234 59.7324 28.1681C59.806 28.0165 59.9392 27.8987 60.1333 27.8148C60.3268 27.7305 60.5571 27.6884 60.8248 27.6884C61.1031 27.6884 61.3376 27.7312 61.529 27.8165C61.7199 27.9018 61.8526 28.0193 61.9273 28.1681C61.9422 28.1996 61.955 28.2307 61.9662 28.2618C61.9774 28.2932 61.9865 28.3291 61.9939 28.3699C62.0014 28.4106 62.0067 28.4569 62.0105 28.5087C62.0142 28.5605 62.0158 28.6213 62.0158 28.6908C62.0158 28.7149 61.9955 28.7267 61.9545 28.7267H60.3007C60.2783 28.7267 60.2671 28.7339 60.2671 28.7484C60.2671 28.775 60.2708 28.7989 60.2783 28.8206C60.2858 28.8424 60.2948 28.8628 60.306 28.8821C60.3988 29.0576 60.5992 29.1453 60.9074 29.1453C61.0593 29.1453 61.1857 29.1298 61.2859 29.0984C61.3862 29.0673 61.4699 29.0275 61.5365 28.9792C61.5664 28.9598 61.5941 28.9574 61.6202 28.9719L61.9486 29.1595C61.9747 29.174 61.9763 29.1909 61.9539 29.2099C61.8388 29.2966 61.6884 29.3674 61.5029 29.4227C61.3184 29.4794 61.1015 29.507 60.8525 29.507ZM61.3872 28.4065C61.3872 28.3505 61.376 28.3011 61.3536 28.2573C61.3163 28.1868 61.2513 28.1319 61.1585 28.0918C61.0657 28.0517 60.9559 28.0317 60.8301 28.0317C60.7 28.0317 60.5886 28.0517 60.4958 28.0918C60.4031 28.1319 60.338 28.1871 60.3012 28.2573C60.2788 28.3011 60.2676 28.3509 60.2676 28.4065C60.2676 28.421 60.2788 28.4282 60.3012 28.4282H61.3536C61.376 28.4282 61.3872 28.421 61.3872 28.4065Z" fill="white"/>
<path d="M63.6808 29.5071C63.4063 29.5071 63.1733 29.4785 62.9819 29.4204C62.7905 29.3627 62.6396 29.3002 62.5282 29.2329C62.5021 29.2159 62.5021 29.1994 62.5282 29.1824L62.8454 28.9659C62.8715 28.9489 62.8971 28.9489 62.9233 28.9659C63.0198 29.0235 63.1392 29.0712 63.2826 29.1082C63.4255 29.1455 63.5673 29.1641 63.7086 29.1641C63.8754 29.1641 63.9997 29.1448 64.0818 29.1064C64.1633 29.0681 64.2044 29.0187 64.2044 28.9586C64.2044 28.9058 64.174 28.8636 64.1127 28.8322C64.0514 28.8011 63.9335 28.7793 63.7592 28.7672L63.4697 28.7493C63.1952 28.7299 62.9888 28.6771 62.8518 28.5904C62.7143 28.5037 62.646 28.3859 62.646 28.237C62.646 28.0688 62.7351 27.9351 62.9131 27.8367C63.0912 27.7382 63.3492 27.6889 63.6872 27.6889C63.8989 27.6889 64.0898 27.7085 64.2609 27.7483C64.4315 27.788 64.5765 27.8391 64.6954 27.9016C64.7253 27.9161 64.729 27.9331 64.7066 27.9521L64.4336 28.1648C64.4112 28.1818 64.3851 28.1842 64.3558 28.1721C64.2705 28.1338 64.1655 28.0999 64.0412 28.0712C63.917 28.0422 63.788 28.0281 63.6542 28.0281C63.5204 28.0281 63.4196 28.045 63.3508 28.0785C63.2821 28.1123 63.2479 28.1555 63.2479 28.2084C63.2479 28.2588 63.2778 28.2992 63.337 28.3293C63.3962 28.3593 63.5134 28.3804 63.6878 28.3925L63.9773 28.4104C64.2593 28.4298 64.4683 28.4833 64.6037 28.571C64.7391 28.6588 64.8068 28.7748 64.8068 28.9192C64.8068 29.0923 64.7119 29.2336 64.5227 29.3431C64.3323 29.4526 64.0524 29.5071 63.6808 29.5071Z" fill="white"/>
</svg>
