<svg width="65" height="47" viewBox="0 0 65 47" fill="none" xmlns="http://www.w3.org/2000/svg">
<path d="M44.7063 10.6984V12.1671C44.7063 12.7371 44.6674 13.2974 44.5912 13.8465C44.4099 15.1644 44.017 16.4157 43.4487 17.5635C42.8526 18.7668 42.0647 19.857 41.1237 20.7948C40.3842 21.5321 39.5499 22.1745 38.6414 22.7029C37.3539 23.4525 35.9155 23.9717 34.3838 24.2058C33.7782 24.2985 33.1582 24.3465 32.5264 24.3465C27.7378 24.3465 23.5949 21.5828 21.6047 17.563H26.1907C27.717 19.3532 29.9887 20.4888 32.5259 20.4888C33.1646 20.4888 33.7862 20.4168 34.3833 20.2803C36.0477 19.9013 37.5219 19.0232 38.6409 17.8119C38.7161 17.7309 38.7902 17.6477 38.8616 17.563C39.7541 16.5159 40.3922 15.2449 40.6785 13.846H20.4627C20.387 13.2968 20.3475 12.7365 20.3475 12.1666C20.3475 11.6697 20.3774 11.1792 20.4355 10.6978C20.637 9.01952 21.1798 7.44678 21.9928 6.04998C22.4561 5.25295 23.0073 4.51349 23.6343 3.84441C25.7386 1.5962 28.6863 0.146611 31.9725 0H34.3838V3.84441H32.5264C30.3491 3.84441 28.3669 4.6809 26.8837 6.04998C25.5776 7.25486 24.6585 8.87344 24.3338 10.6978L44.7063 10.6984Z" fill="white"/>
<path d="M44.7063 0.000978544V6.05042H41.1236V3.84539H38.6414V0.000978544H44.7063Z" fill="#44C1EF"/>
<path d="M3.18975 38.9207C2.87573 38.9207 2.56758 38.8914 2.26529 38.8322C1.96301 38.7736 1.67832 38.6952 1.41122 38.5966C1.14412 38.4985 0.898879 38.3828 0.674964 38.249C0.451048 38.1157 0.26072 37.9744 0.103446 37.8251C0.0405368 37.7622 0.0368048 37.6956 0.0917174 37.6247L0.986845 36.6C1.03376 36.5371 1.09294 36.5333 1.16331 36.5883C1.43041 36.8004 1.74016 36.9908 2.09363 37.1598C2.44709 37.3288 2.83575 37.413 3.25959 37.413C3.68343 37.413 4.00757 37.3245 4.23148 37.148C4.4554 36.9716 4.56736 36.7418 4.56736 36.4592C4.56736 36.2236 4.48099 36.0311 4.30826 35.8824C4.13552 35.7331 3.80978 35.6276 3.33049 35.5641L2.90665 35.5055C2.0899 35.3956 1.464 35.1461 1.0279 34.7575C0.592328 34.3688 0.374277 33.817 0.374277 33.1026C0.374277 32.7337 0.440918 32.3978 0.574735 32.0956C0.708017 31.7933 0.898879 31.5363 1.14625 31.3241C1.39362 31.1119 1.69165 30.9472 2.04138 30.8294C2.39058 30.7115 2.78137 30.6529 3.2132 30.6529C3.74687 30.6529 4.24961 30.7275 4.7209 30.8768C5.19219 31.0261 5.5963 31.2303 5.93431 31.4894C6.00521 31.5363 6.01268 31.5955 5.95777 31.6659L5.2391 32.7374C5.19219 32.8004 5.13674 32.8121 5.07437 32.7726C4.76835 32.5684 4.46393 32.4154 4.16164 32.3131C3.85936 32.2112 3.54321 32.1601 3.2132 32.1601C2.85974 32.1601 2.59264 32.2427 2.41244 32.4074C2.23171 32.5722 2.14161 32.7806 2.14161 33.0317C2.14161 33.2594 2.23384 33.4481 2.4183 33.5974C2.60277 33.7467 2.92638 33.8528 3.3902 33.9151L3.81404 33.9743C4.64626 34.0841 5.27429 34.3336 5.69866 34.7223C6.1225 35.111 6.33469 35.6702 6.33469 36.4006C6.33469 36.7621 6.26805 37.0974 6.13423 37.4077C6.00042 37.718 5.80262 37.9851 5.53926 38.2084C5.27589 38.4324 4.94801 38.6072 4.55563 38.7325C4.16324 38.8578 3.70795 38.9207 3.18975 38.9207Z" fill="white"/>
<path d="M8.06584 30.7116C8.06584 30.6333 8.10529 30.5938 8.18366 30.5938H9.58526C9.67963 30.5938 9.742 30.6333 9.77399 30.7116L11.7999 35.5994H11.8468L13.8375 30.7116C13.869 30.6333 13.9319 30.5938 14.0257 30.5938H15.4039C15.4822 30.5938 15.5217 30.6333 15.5217 30.7116V38.803C15.5217 38.8819 15.4822 38.9208 15.4039 38.9208H14.0732C13.9948 38.9208 13.9553 38.8819 13.9553 38.803V34.2922H13.9084L12.4242 37.6722C12.3773 37.7746 12.3026 37.8252 12.2003 37.8252H11.3878C11.2854 37.8252 11.2113 37.774 11.1639 37.6722L9.67963 34.2922H9.63271V38.803C9.63271 38.8819 9.59326 38.9208 9.51489 38.9208H8.18419C8.10582 38.9208 8.06637 38.8819 8.06637 38.803V30.7116H8.06584Z" fill="white"/>
<path d="M20.0171 30.7116C20.0405 30.6333 20.0917 30.5938 20.1701 30.5938H21.6543C21.7327 30.5938 21.7839 30.6333 21.8073 30.7116L24.5162 38.803C24.5396 38.8819 24.5119 38.9208 24.4335 38.9208H22.9024C22.824 38.9208 22.7728 38.8819 22.7494 38.803L22.2898 37.4014H19.4866L19.0388 38.803C19.0153 38.8819 18.9641 38.9208 18.8858 38.9208H17.3429C17.264 38.9208 17.2368 38.8819 17.2602 38.803L20.0171 30.7116ZM21.8191 35.9289L20.9122 33.1257H20.877L19.9701 35.9289H21.8191Z" fill="white"/>
<path d="M30.684 38.9207C30.5976 38.9207 30.5384 38.8818 30.5075 38.8029L29.1294 35.57H28.0578C28.0109 35.57 27.9869 35.5934 27.9869 35.6409V38.8034C27.9869 38.8823 27.9474 38.9212 27.8691 38.9212H26.3731C26.2947 38.9212 26.2553 38.8823 26.2553 38.8034V30.7291C26.2553 30.6508 26.2942 30.6113 26.3731 30.6113H29.5649C29.9733 30.6113 30.3444 30.6721 30.6781 30.7936C31.0119 30.9152 31.2982 31.0863 31.5381 31.306C31.7774 31.5256 31.9619 31.789 32.0915 32.095C32.221 32.401 32.2861 32.7353 32.2861 33.0962C32.2861 33.6144 32.1602 34.066 31.9091 34.4509C31.6575 34.8359 31.3083 35.1264 30.861 35.3226L32.4391 38.7794C32.4545 38.8189 32.4545 38.8519 32.4391 38.8797C32.4231 38.9074 32.3959 38.9207 32.3564 38.9207H30.684ZM29.4711 34.0975C29.8011 34.0975 30.064 34.0074 30.2602 33.8266C30.4563 33.6459 30.5544 33.4028 30.5544 33.0962C30.5544 32.7977 30.4563 32.5583 30.2602 32.3776C30.064 32.1969 29.8006 32.1068 29.4711 32.1068H28.0578C28.0109 32.1068 27.9869 32.1302 27.9869 32.1777V34.0266C27.9869 34.0735 28.0103 34.0975 28.0578 34.0975H29.4711Z" fill="white"/>
<path d="M36.5143 38.9208C36.4359 38.9208 36.3965 38.8818 36.3965 38.8029V32.2129C36.3965 32.166 36.373 32.142 36.3256 32.142H34.2997C34.2213 32.142 34.1818 32.1031 34.1818 32.0252V30.7276C34.1818 30.6497 34.2213 30.6108 34.2997 30.6108H40.2238C40.3022 30.6108 40.3416 30.6497 40.3416 30.7276V32.0252C40.3416 32.1031 40.3022 32.142 40.2238 32.142H38.1979C38.151 32.142 38.127 32.1654 38.127 32.2129V38.8029C38.127 38.8818 38.0876 38.9208 38.0092 38.9208H36.5143Z" fill="white"/>
<path d="M46.8384 38.9207C46.1395 38.9207 45.529 38.7597 45.0071 38.4377C44.4846 38.1157 44.1216 37.6289 43.9174 36.9774C43.8705 36.8362 43.8332 36.6986 43.8054 36.5653C43.7777 36.432 43.7564 36.2828 43.7404 36.1175C43.7244 35.9528 43.7127 35.764 43.7052 35.5524C43.6972 35.3402 43.6935 35.024 43.6935 34.726C43.6935 34.4275 43.6972 34.1726 43.7052 33.9604C43.7132 33.7483 43.7249 33.5601 43.7404 33.3953C43.7559 33.2306 43.7777 33.0813 43.8054 32.9475C43.8326 32.8142 43.8699 32.6767 43.9174 32.5354C44.1216 31.8919 44.4846 31.4067 45.0071 31.081C45.529 30.7553 46.1395 30.5921 46.8384 30.5921C47.5374 30.5921 48.1478 30.7553 48.6697 31.081C49.1917 31.4067 49.5547 31.8919 49.7594 32.5354C49.8064 32.6767 49.8437 32.8142 49.8714 32.9475C49.8986 33.0813 49.9205 33.2301 49.9364 33.3953C49.9519 33.5601 49.9636 33.7488 49.9716 33.9604C49.9791 34.1726 49.9834 34.4275 49.9834 34.726C49.9834 35.0246 49.9791 35.3407 49.9716 35.5524C49.9636 35.7646 49.9519 35.9528 49.9364 36.1175C49.9205 36.2822 49.8991 36.4315 49.8714 36.5653C49.8437 36.6991 49.8069 36.8362 49.7594 36.9774C49.5553 37.6295 49.1922 38.1162 48.6697 38.4377C48.1478 38.7597 47.5374 38.9207 46.8384 38.9207ZM46.8384 37.3895C47.1684 37.3895 47.4393 37.3112 47.6509 37.1539C47.8631 36.9972 48.0118 36.7812 48.0987 36.5061C48.1222 36.4352 48.1419 36.3553 48.1574 36.2646C48.1728 36.1745 48.1867 36.0642 48.1984 35.9346C48.2102 35.8051 48.2182 35.6462 48.2219 35.4575C48.2256 35.2693 48.2278 34.9841 48.2278 34.725C48.2278 34.4658 48.2256 34.2419 48.2219 34.0537C48.2176 33.865 48.2102 33.7061 48.1984 33.5766C48.1867 33.447 48.1728 33.3372 48.1574 33.2466C48.1414 33.1565 48.1222 33.076 48.0987 33.0051C48.0124 32.7305 47.8631 32.5146 47.6509 32.3573C47.4387 32.2006 47.1679 32.1217 46.8384 32.1217C46.5089 32.1217 46.2376 32.2 46.0259 32.3573C45.8137 32.5146 45.6645 32.7305 45.5781 33.0051C45.5546 33.076 45.5349 33.1565 45.5195 33.2466C45.5035 33.3372 45.4901 33.447 45.4784 33.5766C45.4667 33.7061 45.4587 33.865 45.4549 34.0537C45.4512 34.2419 45.4491 34.4658 45.4491 34.725C45.4491 34.9841 45.4507 35.2687 45.4549 35.4575C45.4587 35.6462 45.4667 35.8051 45.4784 35.9346C45.4901 36.0642 45.504 36.174 45.5195 36.2646C45.5349 36.3553 45.5546 36.4352 45.5781 36.5061C45.6645 36.7812 45.8137 36.9972 46.0259 37.1539C46.2381 37.3112 46.5089 37.3895 46.8384 37.3895Z" fill="white"/>
<path d="M51.7149 30.7094C51.7149 30.6311 51.7538 30.5916 51.8327 30.5916H53.2461C53.3324 30.5916 53.3991 30.6311 53.4465 30.7094L56.2732 36.0706H56.3318V30.7094C56.3318 30.6311 56.3707 30.5916 56.4497 30.5916H57.7809C57.8593 30.5916 57.8987 30.6311 57.8987 30.7094V38.8029C57.8987 38.8818 57.8593 38.9207 57.7809 38.9207H56.3793C56.2929 38.9207 56.2263 38.8818 56.1788 38.8029L53.3404 33.4535H53.2818V38.8029C53.2818 38.8818 53.2423 38.9207 53.164 38.9207H51.8333C51.7549 38.9207 51.7154 38.8818 51.7154 38.8029V30.7094H51.7149Z" fill="white"/>
<path d="M59.6293 30.7094C59.6293 30.6311 59.6682 30.5916 59.7471 30.5916H64.8822C64.9606 30.5916 65 30.6311 65 30.7094V31.9698C65 32.0481 64.9606 32.0876 64.8822 32.0876H61.4312C61.3843 32.0876 61.3603 32.1111 61.3603 32.1585V34.0687C61.3603 34.1156 61.3838 34.1396 61.4312 34.1396H64.3054C64.3837 34.1396 64.4232 34.1791 64.4232 34.2574V35.506C64.4232 35.5844 64.3837 35.6239 64.3054 35.6239H61.4312C61.3843 35.6239 61.3603 35.6473 61.3603 35.6948V37.3555C61.3603 37.4024 61.3838 37.4264 61.4312 37.4264H64.8822C64.9606 37.4264 65 37.4658 65 37.5442V38.8045C65 38.8834 64.9606 38.9223 64.8822 38.9223H59.7471C59.6687 38.9223 59.6293 38.8834 59.6293 38.8045V30.7094Z" fill="white"/>
<path d="M0.0996958 44.6108C0.0810362 44.5511 0.0655754 44.493 0.0522471 44.4354C0.0394519 44.3779 0.0287893 44.3112 0.0218586 44.235C0.0143948 44.1587 0.00853003 44.0697 0.00533124 43.9674C0.00159931 43.865 0 43.7376 0 43.5851C0 43.4364 0.00159931 43.31 0.00533124 43.206C0.00906316 43.1021 0.0143948 43.012 0.0218586 42.9357C0.0293224 42.8595 0.0394519 42.7929 0.0522471 42.7353C0.0650422 42.6777 0.0810362 42.6191 0.0996958 42.5594C0.196193 42.2475 0.358798 42.014 0.586978 41.8599C0.815158 41.7058 1.09079 41.6285 1.41387 41.6285C1.71828 41.6285 1.98058 41.7015 2.20183 41.8476C2.42255 41.9937 2.58675 42.1936 2.69445 42.4469C2.70564 42.4804 2.69605 42.5023 2.66672 42.5135L2.1933 42.7417C2.15972 42.7603 2.13573 42.7507 2.1208 42.714C2.05789 42.5801 1.97152 42.4655 1.8617 42.3685C1.7524 42.272 1.60259 42.224 1.41333 42.224C1.23153 42.224 1.08546 42.2683 0.976164 42.3573C0.866872 42.4463 0.785836 42.5684 0.734123 42.7241C0.722927 42.7651 0.712797 42.8057 0.703734 42.8462C0.694671 42.8867 0.687207 42.9395 0.681342 43.0045C0.676011 43.069 0.672279 43.1479 0.670146 43.2407C0.668014 43.3335 0.667481 43.4481 0.667481 43.5851C0.667481 43.7258 0.668547 43.8415 0.670146 43.9322C0.671746 44.0228 0.675478 44.1006 0.681342 44.1657C0.686674 44.2307 0.694138 44.284 0.703734 44.3267C0.712797 44.3693 0.72346 44.4088 0.734123 44.4461C0.785836 44.6018 0.866872 44.7239 0.976164 44.8129C1.08546 44.9019 1.23153 44.9462 1.41333 44.9462C1.60259 44.9462 1.75187 44.8982 1.8617 44.8017C1.97099 44.7052 2.05736 44.5901 2.1208 44.4568C2.13573 44.4194 2.15972 44.4104 2.1933 44.429L2.66672 44.6572C2.69658 44.6684 2.70564 44.6908 2.69445 44.7239C2.58675 44.9771 2.42255 45.177 2.20183 45.3231C1.98112 45.4692 1.71828 45.5422 1.41387 45.5422C1.09079 45.5422 0.815158 45.4649 0.586978 45.3108C0.358798 45.1562 0.196193 44.9233 0.0996958 44.6108Z" fill="white"/>
<path d="M4.35354 45.5422C4.07898 45.5422 3.84387 45.4771 3.64928 45.3476C3.45415 45.2175 3.3198 45.0357 3.2457 44.8022C3.21584 44.7057 3.19345 44.6081 3.17905 44.51C3.16413 44.4119 3.15666 44.2882 3.15666 44.1395C3.15666 43.9913 3.16413 43.8676 3.17905 43.7695C3.19398 43.6714 3.21584 43.5738 3.2457 43.4773C3.3198 43.2433 3.45468 43.0615 3.64928 42.932C3.84387 42.8019 4.07898 42.7368 4.35354 42.7368C4.62437 42.7368 4.85735 42.8019 5.05248 42.932C5.24707 43.062 5.38195 43.2438 5.45606 43.4773C5.48591 43.5738 5.50777 43.6714 5.5227 43.7695C5.53763 43.8681 5.54509 43.9913 5.54509 44.1395C5.54509 44.2882 5.53763 44.4114 5.5227 44.51C5.50777 44.6081 5.48538 44.7057 5.45606 44.8022C5.38195 45.0362 5.24707 45.218 5.05248 45.3476C4.85735 45.4771 4.62437 45.5422 4.35354 45.5422ZM4.35354 44.9856C4.47989 44.9856 4.58439 44.9547 4.66809 44.8939C4.75179 44.8326 4.81363 44.7462 4.85469 44.6348C4.87708 44.5644 4.89201 44.493 4.89947 44.4205C4.90693 44.348 4.91067 44.2541 4.91067 44.1395C4.91067 44.0243 4.90693 43.9316 4.89947 43.8612C4.89201 43.7908 4.87708 43.7183 4.85469 43.6442C4.81363 43.5328 4.75179 43.4464 4.66809 43.3851C4.58439 43.3238 4.47989 43.2934 4.35354 43.2934C4.22719 43.2934 4.12163 43.3238 4.03633 43.3851C3.95103 43.4464 3.88759 43.5328 3.84707 43.6442C3.82468 43.7183 3.80975 43.7908 3.80228 43.8612C3.79482 43.9316 3.79109 44.0243 3.79109 44.1395C3.79109 44.2547 3.79482 44.3485 3.80228 44.4205C3.80975 44.493 3.82468 44.5644 3.84707 44.6348C3.88812 44.7462 3.95103 44.8326 4.03633 44.8939C4.12163 44.9547 4.22719 44.9856 4.35354 44.9856Z" fill="white"/>
<path d="M7.91107 45.4809C7.87375 45.4809 7.85562 45.4622 7.85562 45.4254V43.8777C7.85562 43.7034 7.81297 43.5621 7.72767 43.4544C7.64237 43.3467 7.51601 43.2929 7.34914 43.2929C7.18601 43.2929 7.05965 43.3467 6.97062 43.4544C6.88159 43.5621 6.83681 43.7034 6.83681 43.8777V45.4254C6.83681 45.4627 6.81814 45.4809 6.78136 45.4809H6.26902C6.2317 45.4809 6.21357 45.4622 6.21357 45.4254V42.8531C6.21357 42.8157 6.23223 42.7976 6.26902 42.7976H6.78136C6.81814 42.7976 6.83681 42.8163 6.83681 42.8531V43.0482H6.84214C6.90131 42.9629 6.98981 42.8893 7.10657 42.8285C7.22333 42.7672 7.371 42.7368 7.54907 42.7368C7.69408 42.7368 7.82257 42.7619 7.93612 42.812C8.04915 42.8621 8.14671 42.932 8.22828 43.021C8.30985 43.11 8.37222 43.215 8.41487 43.3355C8.45752 43.456 8.47885 43.5888 8.47885 43.7338V45.4265C8.47885 45.4638 8.46019 45.4819 8.4234 45.4819H7.91107V45.4809Z" fill="white"/>
<path d="M10.9622 45.4809C10.9249 45.4809 10.9068 45.4622 10.9068 45.4254V43.8777C10.9068 43.7034 10.8641 43.5621 10.7788 43.4544C10.6935 43.3467 10.5672 43.2929 10.4003 43.2929C10.2372 43.2929 10.1108 43.3467 10.0218 43.4544C9.93275 43.5621 9.88797 43.7034 9.88797 43.8777V45.4254C9.88797 45.4627 9.86931 45.4809 9.83252 45.4809H9.32018C9.28286 45.4809 9.26474 45.4622 9.26474 45.4254V42.8531C9.26474 42.8157 9.2834 42.7976 9.32018 42.7976H9.83252C9.86931 42.7976 9.88797 42.8163 9.88797 42.8531V43.0482H9.8933C9.95248 42.9629 10.041 42.8893 10.1577 42.8285C10.2745 42.7672 10.4222 42.7368 10.6002 42.7368C10.7452 42.7368 10.8737 42.7619 10.9873 42.812C11.1003 42.8621 11.1979 42.932 11.2794 43.021C11.361 43.11 11.4234 43.215 11.466 43.3355C11.5087 43.456 11.53 43.5888 11.53 43.7338V45.4265C11.53 45.4638 11.5114 45.4819 11.4746 45.4819H10.9622V45.4809Z" fill="white"/>
<path d="M13.3784 45.5422C13.0926 45.5422 12.8538 45.4761 12.6618 45.3444C12.4699 45.2127 12.3377 45.0298 12.2636 44.7958C12.2343 44.7105 12.2113 44.6151 12.1948 44.509C12.1783 44.4034 12.1703 44.2797 12.1703 44.1384C12.1703 43.9977 12.1777 43.8729 12.1921 43.7652C12.2071 43.6576 12.2289 43.5611 12.2582 43.4758C12.3318 43.2417 12.4656 43.0599 12.6592 42.9304C12.8527 42.8003 13.083 42.7352 13.3506 42.7352C13.6289 42.7352 13.8635 42.8013 14.0549 42.933C14.2458 43.0647 14.3785 43.246 14.4532 43.4758C14.4681 43.5243 14.4809 43.5723 14.4921 43.6202C14.5033 43.6688 14.5123 43.7242 14.5198 43.7871C14.5273 43.85 14.5326 43.9215 14.5363 44.0014C14.5401 44.0814 14.5417 44.1752 14.5417 44.2824C14.5417 44.3197 14.5214 44.3378 14.4803 44.3378H12.8266C12.8042 44.3378 12.793 44.349 12.793 44.3714C12.793 44.4125 12.7967 44.4493 12.8042 44.4828C12.8116 44.5164 12.8207 44.5479 12.8319 44.5777C12.9247 44.8486 13.1251 44.984 13.4333 44.984C13.5852 44.984 13.7116 44.96 13.8118 44.9115C13.912 44.8635 13.9957 44.8022 14.0624 44.7276C14.0922 44.6977 14.1199 44.694 14.1461 44.7164L14.4745 45.0058C14.5006 45.0282 14.5022 45.0544 14.4798 45.0837C14.3647 45.2175 14.2143 45.3268 14.0288 45.4121C13.8443 45.4995 13.6268 45.5422 13.3784 45.5422ZM13.9131 43.8436C13.9131 43.7573 13.9019 43.681 13.8795 43.6133C13.8422 43.5045 13.7771 43.4198 13.6849 43.3579C13.5921 43.2961 13.4823 43.2652 13.3565 43.2652C13.2264 43.2652 13.115 43.2961 13.0222 43.3579C12.9295 43.4198 12.8644 43.5051 12.8271 43.6133C12.8047 43.681 12.7935 43.7578 12.7935 43.8436C12.7935 43.866 12.8047 43.8772 12.8271 43.8772H13.8795C13.9019 43.8772 13.9131 43.866 13.9131 43.8436Z" fill="white"/>
<path d="M16.2621 45.5424C15.9913 45.5424 15.7583 45.4795 15.5632 45.3531C15.368 45.2268 15.2321 45.0434 15.1537 44.8019C15.0983 44.635 15.07 44.4143 15.07 44.1392C15.07 43.8646 15.0977 43.6439 15.1537 43.4765C15.2316 43.235 15.368 43.0516 15.5632 42.9252C15.7578 42.7989 15.9907 42.736 16.2621 42.736C16.4626 42.736 16.6406 42.7733 16.7968 42.8474C16.9525 42.9215 17.0842 43.0239 17.1919 43.1534C17.2143 43.1833 17.2121 43.2089 17.1865 43.2313L16.8357 43.5373C16.8059 43.5597 16.7803 43.5559 16.7579 43.5261C16.6913 43.452 16.6198 43.3944 16.5436 43.3533C16.4674 43.3128 16.3735 43.292 16.2626 43.292C16.1437 43.292 16.0408 43.3208 15.9534 43.3784C15.866 43.436 15.802 43.5239 15.7615 43.6428C15.7391 43.7095 15.7242 43.783 15.7167 43.8625C15.7092 43.9424 15.7055 44.0342 15.7055 44.1381C15.7055 44.2421 15.7092 44.3348 15.7167 44.4164C15.7242 44.498 15.7391 44.5721 15.7615 44.6393C15.8025 44.7544 15.8665 44.8408 15.9534 44.8984C16.0403 44.9559 16.1437 44.9847 16.2626 44.9847C16.3741 44.9847 16.4679 44.9645 16.5436 44.9234C16.6198 44.8829 16.6913 44.8253 16.7579 44.7507C16.7803 44.7246 16.8059 44.723 16.8357 44.7453L17.1865 45.0514C17.2089 45.07 17.2105 45.0956 17.1919 45.1292C17.0842 45.2556 16.9525 45.3558 16.7968 45.4299C16.6412 45.5051 16.4626 45.5424 16.2621 45.5424Z" fill="white"/>
<path d="M18.6453 45.5144C18.3744 45.5144 18.182 45.4494 18.0689 45.3193C17.9559 45.1892 17.8989 44.9925 17.8989 44.7291V43.3147C17.8989 43.2923 17.8877 43.2811 17.8653 43.2811H17.6872C17.6499 43.2811 17.6318 43.2625 17.6318 43.2257V42.8525C17.6318 42.8152 17.6504 42.7971 17.6872 42.7971H17.8653C17.8877 42.7971 17.8989 42.7859 17.8989 42.7635V42.0283C17.8989 41.9915 17.9175 41.9728 17.9543 41.9728H18.4667C18.5035 41.9728 18.5221 41.9915 18.5221 42.0283V42.7635C18.5221 42.7859 18.5333 42.7971 18.5557 42.7971H18.9118C18.9486 42.7971 18.9673 42.8157 18.9673 42.8525V43.2257C18.9673 43.263 18.9486 43.2811 18.9118 43.2811H18.5557C18.5333 43.2811 18.5221 43.2923 18.5221 43.3147V44.7067C18.5221 44.8032 18.5424 44.8693 18.5834 44.9045C18.6245 44.9397 18.6874 44.9573 18.7727 44.9573H18.9118C18.9486 44.9573 18.9673 44.976 18.9673 45.0127V45.4579C18.9673 45.4952 18.9486 45.5134 18.9118 45.5134H18.6453V45.5144Z" fill="white"/>
<path d="M21.0283 45.481C20.991 45.481 20.9729 45.4623 20.9729 45.425V41.7448C20.9729 41.7075 20.9916 41.6888 21.0283 41.6888H22.4481C22.6299 41.6888 22.7978 41.7176 22.9519 41.7752C23.106 41.8328 23.2376 41.9127 23.3469 42.0151C23.4562 42.1174 23.5421 42.2411 23.6028 42.3861C23.6641 42.5312 23.6945 42.6911 23.6945 42.866C23.6945 43.0446 23.6641 43.2061 23.6028 43.3516C23.5415 43.4967 23.4562 43.6203 23.3469 43.7227C23.2376 43.8251 23.1054 43.905 22.9519 43.9626C22.7978 44.0202 22.6299 44.049 22.4481 44.049H21.6633C21.6409 44.049 21.6297 44.0602 21.6297 44.0826V45.4245C21.6297 45.4618 21.6111 45.4799 21.5743 45.4799H21.0283V45.481ZM22.4086 43.4545C22.6053 43.4545 22.7594 43.4018 22.8708 43.2957C22.9823 43.1901 23.0377 43.0478 23.0377 42.8697C23.0377 42.6954 22.9823 42.5541 22.8708 42.4464C22.7594 42.3387 22.6053 42.2848 22.4086 42.2848H21.6628C21.6404 42.2848 21.6292 42.296 21.6292 42.3184V43.421C21.6292 43.4433 21.6404 43.4545 21.6628 43.4545H22.4086Z" fill="white"/>
<path d="M25.3541 45.5422C25.0684 45.5422 24.8295 45.4761 24.6376 45.3444C24.4457 45.2127 24.3135 45.0298 24.2394 44.7958C24.21 44.7105 24.1871 44.6151 24.1706 44.509C24.1541 44.4034 24.1461 44.2797 24.1461 44.1384C24.1461 43.9977 24.1535 43.8729 24.1679 43.7652C24.1829 43.6576 24.2047 43.5611 24.234 43.4758C24.3076 43.2417 24.4414 43.0599 24.635 42.9304C24.8285 42.8003 25.0588 42.7352 25.3264 42.7352C25.6047 42.7352 25.8393 42.8013 26.0307 42.933C26.2216 43.0647 26.3543 43.246 26.4289 43.4758C26.4439 43.5243 26.4567 43.5723 26.4679 43.6202C26.4791 43.6688 26.4881 43.7242 26.4956 43.7871C26.503 43.85 26.5084 43.9215 26.5121 44.0014C26.5158 44.0814 26.5174 44.1752 26.5174 44.2824C26.5174 44.3197 26.4972 44.3378 26.4561 44.3378H24.8024C24.78 44.3378 24.7688 44.349 24.7688 44.3714C24.7688 44.4125 24.7725 44.4493 24.78 44.4828C24.7874 44.5164 24.7965 44.5479 24.8077 44.5777C24.9005 44.8486 25.1009 44.984 25.4091 44.984C25.561 44.984 25.6874 44.96 25.7876 44.9115C25.8878 44.8635 25.9715 44.8022 26.0382 44.7276C26.068 44.6977 26.0957 44.694 26.1219 44.7164L26.4503 45.0058C26.4764 45.0282 26.478 45.0544 26.4556 45.0837C26.3404 45.2175 26.1901 45.3268 26.0046 45.4121C25.8196 45.4995 25.6026 45.5422 25.3541 45.5422ZM25.8883 43.8436C25.8883 43.7573 25.8772 43.681 25.8548 43.6133C25.8174 43.5045 25.7524 43.4198 25.6602 43.3579C25.5674 43.2961 25.4576 43.2652 25.3318 43.2652C25.2017 43.2652 25.0902 43.2961 24.9975 43.3579C24.9047 43.4198 24.8397 43.5051 24.8024 43.6133C24.78 43.681 24.7688 43.7578 24.7688 43.8436C24.7688 43.866 24.78 43.8772 24.8024 43.8772H25.8553C25.8777 43.8772 25.8883 43.866 25.8883 43.8436Z" fill="white"/>
<path d="M28.2437 45.5422C27.9692 45.5422 27.7341 45.4771 27.5395 45.3476C27.3443 45.2175 27.21 45.0357 27.1359 44.8022C27.106 44.7057 27.0836 44.6081 27.0692 44.51C27.0543 44.4119 27.0468 44.2882 27.0468 44.1395C27.0468 43.9913 27.0543 43.8676 27.0692 43.7695C27.0842 43.6714 27.106 43.5738 27.1359 43.4773C27.21 43.2433 27.3449 43.0615 27.5395 42.932C27.7341 42.8019 27.9692 42.7368 28.2437 42.7368C28.5146 42.7368 28.7475 42.8019 28.9427 42.932C29.1373 43.062 29.2721 43.2438 29.3462 43.4773C29.3761 43.5738 29.398 43.6714 29.4129 43.7695C29.4278 43.8681 29.4353 43.9913 29.4353 44.1395C29.4353 44.2882 29.4278 44.4114 29.4129 44.51C29.398 44.6081 29.3756 44.7057 29.3462 44.8022C29.2721 45.0362 29.1373 45.218 28.9427 45.3476C28.7475 45.4771 28.5146 45.5422 28.2437 45.5422ZM28.2437 44.9856C28.3701 44.9856 28.4746 44.9547 28.5583 44.8939C28.642 44.8326 28.7038 44.7462 28.7449 44.6348C28.7673 44.5644 28.7822 44.493 28.7897 44.4205C28.7971 44.348 28.8009 44.2541 28.8009 44.1395C28.8009 44.0243 28.7971 43.9316 28.7897 43.8612C28.7822 43.7908 28.7673 43.7183 28.7449 43.6442C28.7038 43.5328 28.642 43.4464 28.5583 43.3851C28.4746 43.3238 28.3701 43.2934 28.2437 43.2934C28.1174 43.2934 28.0118 43.3238 27.9265 43.3851C27.8412 43.4464 27.7778 43.5328 27.7373 43.6442C27.7149 43.7183 27.6999 43.7908 27.6925 43.8612C27.685 43.9316 27.6813 44.0243 27.6813 44.1395C27.6813 44.2547 27.685 44.3485 27.6925 44.4205C27.6999 44.493 27.7149 44.5644 27.7373 44.6348C27.7783 44.7462 27.8412 44.8326 27.9265 44.8939C28.0118 44.9547 28.1174 44.9856 28.2437 44.9856Z" fill="white"/>
<path d="M30.1587 46.4833C30.1214 46.4833 30.1033 46.4647 30.1033 46.4279V42.8538C30.1033 42.8164 30.1219 42.7983 30.1587 42.7983H30.6711C30.7078 42.7983 30.7265 42.817 30.7265 42.8538V43.0537H30.7318C30.7947 42.9609 30.8838 42.8847 30.9989 42.8255C31.1141 42.7663 31.2623 42.7365 31.4441 42.7365C31.6744 42.7365 31.869 42.7903 32.0289 42.898C32.1883 43.0057 32.3035 43.1672 32.3739 43.3826C32.4075 43.4866 32.4315 43.5932 32.4464 43.7025C32.4613 43.8118 32.4688 43.9579 32.4688 44.1397C32.4688 44.3215 32.4613 44.4675 32.4464 44.5768C32.4315 44.6861 32.4075 44.7933 32.3739 44.8967C32.3035 45.1121 32.1883 45.2736 32.0289 45.3808C31.8695 45.4885 31.6744 45.5423 31.4441 45.5423C31.2623 45.5423 31.1136 45.5125 30.9989 45.4533C30.8838 45.3941 30.7947 45.3179 30.7318 45.2251H30.7265V46.4279C30.7265 46.4652 30.7078 46.4833 30.6711 46.4833H30.1587ZM31.2836 44.9857C31.5395 44.9857 31.7048 44.8706 31.7789 44.6408C31.7976 44.5779 31.8114 44.5091 31.8205 44.435C31.8296 44.3609 31.8343 44.2623 31.8343 44.1397C31.8343 44.017 31.8296 43.919 31.8205 43.8448C31.8114 43.7707 31.797 43.702 31.7789 43.6391C31.7048 43.4087 31.5395 43.2941 31.2836 43.2941C31.024 43.2941 30.8566 43.4093 30.7825 43.6391C30.7638 43.702 30.75 43.7707 30.7409 43.8448C30.7318 43.919 30.727 44.0176 30.727 44.1397C30.727 44.2623 30.7318 44.3604 30.7409 44.435C30.75 44.5091 30.7638 44.5779 30.7825 44.6408C30.8566 44.8706 31.0235 44.9857 31.2836 44.9857Z" fill="white"/>
<path d="M33.8613 45.5145C33.5979 45.5145 33.4092 45.4516 33.2962 45.3252C33.1832 45.1989 33.1261 45.0059 33.1261 44.7462V41.7511C33.1261 41.7138 33.1448 41.6957 33.1816 41.6957H33.6939C33.7312 41.6957 33.7493 41.7143 33.7493 41.7511V44.7132C33.7493 44.8059 33.768 44.8699 33.8048 44.9051C33.8421 44.9403 33.9013 44.9579 33.9829 44.9579H34.1055C34.1428 44.9579 34.1609 44.9765 34.1609 45.0133V45.4585C34.1609 45.4958 34.1423 45.5139 34.1055 45.5139H33.8613V45.5145Z" fill="white"/>
<path d="M35.8212 45.5422C35.5354 45.5422 35.2965 45.4761 35.1046 45.3444C34.9127 45.2127 34.7805 45.0298 34.7064 44.7958C34.6771 44.7105 34.6541 44.6151 34.6376 44.509C34.6211 44.4034 34.6131 44.2797 34.6131 44.1384C34.6131 43.9977 34.6205 43.8729 34.6349 43.7652C34.6499 43.6576 34.6717 43.5611 34.701 43.4758C34.7746 43.2417 34.9079 43.0599 35.102 42.9304C35.2955 42.8003 35.5258 42.7352 35.7934 42.7352C36.0717 42.7352 36.3063 42.8013 36.4977 42.933C36.6886 43.0647 36.8213 43.246 36.8959 43.4758C36.9109 43.5243 36.9237 43.5723 36.9349 43.6202C36.9461 43.6688 36.9551 43.7242 36.9626 43.7871C36.9701 43.85 36.9754 43.9215 36.9791 44.0014C36.9828 44.0814 36.9844 44.1752 36.9844 44.2824C36.9844 44.3197 36.9642 44.3378 36.9231 44.3378H35.2694C35.247 44.3378 35.2358 44.349 35.2358 44.3714C35.2358 44.4125 35.2395 44.4493 35.247 44.4828C35.2544 44.5164 35.2635 44.5479 35.2747 44.5777C35.3675 44.8486 35.5679 44.984 35.8761 44.984C36.028 44.984 36.1544 44.96 36.2546 44.9115C36.3548 44.8635 36.4385 44.8022 36.5052 44.7276C36.535 44.6977 36.5627 44.694 36.5889 44.7164L36.9173 45.0058C36.9434 45.0282 36.945 45.0544 36.9226 45.0837C36.8074 45.2175 36.6571 45.3268 36.4716 45.4121C36.2866 45.4995 36.0696 45.5422 35.8212 45.5422ZM36.3553 43.8436C36.3553 43.7573 36.3442 43.681 36.3218 43.6133C36.2844 43.5045 36.2194 43.4198 36.1266 43.3579C36.0339 43.2961 35.924 43.2652 35.7982 43.2652C35.6681 43.2652 35.5567 43.2961 35.464 43.3579C35.3712 43.4198 35.3061 43.5051 35.2694 43.6133C35.247 43.681 35.2358 43.7578 35.2358 43.8436C35.2358 43.866 35.247 43.8772 35.2694 43.8772H36.3218C36.3442 43.8772 36.3553 43.866 36.3553 43.8436Z" fill="white"/>
<path d="M40.5697 45.4811C40.5323 45.4811 40.5142 45.4624 40.5142 45.4256V45.2305H40.5089C40.446 45.3233 40.3511 45.3984 40.2247 45.456C40.0984 45.5136 39.9406 45.5424 39.7513 45.5424C39.6287 45.5424 39.513 45.5259 39.4032 45.4923C39.2939 45.4592 39.1979 45.4091 39.1163 45.3425C39.0348 45.2758 38.9697 45.1916 38.9212 45.0898C38.8727 44.9879 38.8487 44.8669 38.8487 44.7262C38.8487 44.434 38.9441 44.2197 39.1355 44.0827C39.3264 43.9456 39.5892 43.8774 39.9235 43.8774H40.4689C40.4913 43.8774 40.5025 43.8662 40.5025 43.8438V43.7148C40.5025 43.5575 40.4598 43.4434 40.3745 43.372C40.2892 43.3011 40.133 43.2654 39.907 43.2654C39.7545 43.2654 39.6303 43.283 39.5338 43.3182C39.4373 43.3533 39.3573 43.3971 39.2944 43.4488C39.2608 43.4749 39.2347 43.4712 39.2166 43.4376L39.0108 43.0702C38.9921 43.0404 38.9958 43.0164 39.022 42.9977C39.1297 42.9199 39.2592 42.857 39.4117 42.8085C39.5636 42.7605 39.7513 42.736 39.9741 42.736C40.3825 42.736 40.671 42.8101 40.84 42.9588C41.009 43.1076 41.0932 43.3448 41.0932 43.6716V45.4256C41.0932 45.4629 41.0745 45.4811 41.0377 45.4811H40.5697ZM39.9075 45.0359C40.1005 45.0359 40.2482 44.9986 40.35 44.9245C40.4518 44.8504 40.503 44.7352 40.503 44.5795V44.3738C40.503 44.3514 40.4918 44.3402 40.4694 44.3402H40.0243C39.8238 44.3402 39.6772 44.369 39.5844 44.4265C39.4917 44.4841 39.4453 44.5758 39.4453 44.7022C39.4453 44.9245 39.5994 45.0359 39.9075 45.0359Z" fill="white"/>
<path d="M43.5819 45.4809C43.5446 45.4809 43.5264 45.4622 43.5264 45.4254V43.8777C43.5264 43.7034 43.4838 43.5621 43.3985 43.4544C43.3132 43.3467 43.1868 43.2929 43.02 43.2929C42.8568 43.2929 42.7305 43.3467 42.6414 43.4544C42.5524 43.5621 42.5076 43.7034 42.5076 43.8777V45.4254C42.5076 45.4627 42.489 45.4809 42.4522 45.4809H41.9398C41.9025 45.4809 41.8844 45.4622 41.8844 45.4254V42.8531C41.8844 42.8157 41.9031 42.7976 41.9398 42.7976H42.4522C42.4895 42.7976 42.5076 42.8163 42.5076 42.8531V43.0482H42.513C42.5721 42.9629 42.6606 42.8893 42.7774 42.8285C42.8941 42.7672 43.0418 42.7368 43.2199 42.7368C43.3644 42.7368 43.4934 42.7619 43.6069 42.812C43.72 42.8621 43.8175 42.932 43.8991 43.021C43.9807 43.11 44.043 43.215 44.0857 43.3355C44.1283 43.456 44.1497 43.5888 44.1497 43.7338V45.4265C44.1497 45.4638 44.131 45.4819 44.0942 45.4819H43.5819V45.4809Z" fill="white"/>
<path d="M46.5882 45.4809C46.5509 45.4809 46.5328 45.4623 46.5328 45.4255V45.225H46.5274C46.4645 45.3178 46.375 45.394 46.2603 45.4532C46.1452 45.5124 45.997 45.5422 45.8152 45.5422C45.5849 45.5422 45.3903 45.4884 45.2309 45.3807C45.0715 45.273 44.9563 45.1115 44.8859 44.8966C44.8524 44.7927 44.8284 44.686 44.8134 44.5767C44.7985 44.4675 44.791 44.3214 44.791 44.1396C44.791 43.9578 44.7985 43.8122 44.8134 43.7024C44.8284 43.5931 44.8524 43.4865 44.8859 43.3825C44.9563 43.1671 45.0715 43.0056 45.2309 42.8979C45.3903 42.7902 45.5854 42.7364 45.8152 42.7364C45.997 42.7364 46.1457 42.7662 46.2603 42.8254C46.3755 42.8846 46.4645 42.9608 46.5274 43.0536H46.5328V41.7506C46.5328 41.7133 46.5514 41.6952 46.5882 41.6952H47.1006C47.1374 41.6952 47.156 41.7138 47.156 41.7506V45.425C47.156 45.4623 47.1374 45.4804 47.1006 45.4804H46.5882V45.4809ZM45.9762 44.9857C46.2358 44.9857 46.4027 44.8705 46.4773 44.6407C46.496 44.5778 46.5099 44.509 46.5189 44.4349C46.528 44.3608 46.5328 44.2622 46.5328 44.1396C46.5328 44.017 46.528 43.9189 46.5189 43.8448C46.5099 43.7707 46.4955 43.7019 46.4773 43.639C46.4032 43.4087 46.2358 43.294 45.9762 43.294C45.7203 43.294 45.555 43.4092 45.4809 43.639C45.4623 43.7019 45.4484 43.7707 45.4393 43.8448C45.4303 43.9189 45.4255 44.0175 45.4255 44.1396C45.4255 44.2622 45.4303 44.3603 45.4393 44.4349C45.4484 44.509 45.4623 44.5778 45.4809 44.6407C45.5545 44.8705 45.7198 44.9857 45.9762 44.9857Z" fill="white"/>
<path d="M49.3499 45.481C49.3126 45.481 49.2945 45.4623 49.2945 45.425V41.7448C49.2945 41.7075 49.3131 41.6888 49.3499 41.6888H50.7697C50.9515 41.6888 51.1194 41.7176 51.2735 41.7752C51.4275 41.8328 51.5592 41.9127 51.669 42.0151C51.7783 42.1174 51.8636 42.2411 51.925 42.3861C51.9863 42.5312 52.0167 42.6911 52.0167 42.866C52.0167 43.0446 51.9863 43.2061 51.925 43.3516C51.8636 43.4967 51.7783 43.6203 51.669 43.7227C51.5598 43.8251 51.4275 43.905 51.2735 43.9626C51.1194 44.0202 50.9515 44.049 50.7697 44.049H49.9849C49.9625 44.049 49.9513 44.0602 49.9513 44.0826V45.4245C49.9513 45.4618 49.9326 45.4799 49.8959 45.4799H49.3499V45.481ZM50.7307 43.4545C50.9275 43.4545 51.0815 43.4018 51.193 43.2957C51.3044 43.1901 51.3598 43.0478 51.3598 42.8697C51.3598 42.6954 51.3044 42.5541 51.193 42.4464C51.0815 42.3387 50.9275 42.2848 50.7307 42.2848H49.9849C49.9625 42.2848 49.9513 42.296 49.9513 42.3184V43.421C49.9513 43.4433 49.9625 43.4545 49.9849 43.4545H50.7307Z" fill="white"/>
<path d="M53.336 45.5145C53.0727 45.5145 52.884 45.4516 52.7709 45.3252C52.6579 45.1989 52.6009 45.0059 52.6009 44.7462V41.7511C52.6009 41.7138 52.6195 41.6957 52.6563 41.6957H53.1686C53.206 41.6957 53.2241 41.7143 53.2241 41.7511V44.7132C53.2241 44.8059 53.2428 44.8699 53.2795 44.9051C53.3169 44.9403 53.376 44.9579 53.4576 44.9579H53.5802C53.6175 44.9579 53.6357 44.9765 53.6357 45.0133V45.4585C53.6357 45.4958 53.617 45.5139 53.5802 45.5139H53.336V45.5145Z" fill="white"/>
<path d="M55.8307 45.4811C55.7933 45.4811 55.7752 45.4624 55.7752 45.4256V45.2305H55.7699C55.707 45.3233 55.6121 45.3984 55.4857 45.456C55.3594 45.5136 55.2016 45.5424 55.0123 45.5424C54.8897 45.5424 54.774 45.5259 54.6642 45.4923C54.5549 45.4592 54.4589 45.4091 54.3774 45.3425C54.2958 45.2758 54.2307 45.1916 54.1822 45.0898C54.1337 44.9879 54.1097 44.8669 54.1097 44.7262C54.1097 44.434 54.2051 44.2197 54.3965 44.0827C54.5874 43.9456 54.8502 43.8774 55.1845 43.8774H55.7299C55.7523 43.8774 55.7635 43.8662 55.7635 43.8438V43.7148C55.7635 43.5575 55.7208 43.4434 55.6355 43.372C55.5502 43.3011 55.394 43.2654 55.168 43.2654C55.0155 43.2654 54.8913 43.283 54.7948 43.3182C54.6983 43.3533 54.6183 43.3971 54.5554 43.4488C54.5218 43.4749 54.4957 43.4712 54.4776 43.4376L54.2718 43.0702C54.2531 43.0404 54.2569 43.0164 54.283 42.9977C54.3907 42.9199 54.5202 42.857 54.6727 42.8085C54.8247 42.7605 55.0123 42.736 55.2352 42.736C55.6435 42.736 55.932 42.8101 56.101 42.9588C56.27 43.1076 56.3542 43.3448 56.3542 43.6716V45.4256C56.3542 45.4629 56.3355 45.4811 56.2988 45.4811H55.8307ZM55.168 45.0359C55.361 45.0359 55.5087 44.9986 55.6105 44.9245C55.7123 44.8504 55.7635 44.7352 55.7635 44.5795V44.3738C55.7635 44.3514 55.7523 44.3402 55.7299 44.3402H55.2847C55.0843 44.3402 54.9377 44.369 54.8449 44.4265C54.7521 44.4841 54.7058 44.5758 54.7058 44.7022C54.7058 44.9245 54.8598 45.0359 55.168 45.0359Z" fill="white"/>
<path d="M58.1913 45.5424C57.9205 45.5424 57.6875 45.4795 57.4924 45.3531C57.2973 45.2268 57.1613 45.0434 57.0829 44.8019C57.0275 44.635 56.9992 44.4143 56.9992 44.1392C56.9992 43.8646 57.027 43.6439 57.0829 43.4765C57.1608 43.235 57.2973 43.0516 57.4924 42.9252C57.6875 42.7989 57.92 42.736 58.1913 42.736C58.3918 42.736 58.5698 42.7733 58.7261 42.8474C58.8817 42.9215 59.0134 43.0239 59.1216 43.1534C59.144 43.1833 59.1419 43.2089 59.1163 43.2313L58.7655 43.5373C58.7356 43.5597 58.7101 43.5559 58.6877 43.5261C58.621 43.452 58.5496 43.3944 58.4733 43.3533C58.3971 43.3128 58.3033 43.292 58.1924 43.292C58.0735 43.292 57.9706 43.3208 57.8832 43.3784C57.7957 43.436 57.7318 43.5239 57.6912 43.6428C57.6688 43.7095 57.6539 43.783 57.647 43.8625C57.6395 43.9424 57.6358 44.0342 57.6358 44.1381C57.6358 44.2421 57.6395 44.3348 57.647 44.4164C57.6545 44.498 57.6694 44.5721 57.6912 44.6393C57.7323 44.7544 57.7963 44.8408 57.8832 44.8984C57.9706 44.9559 58.0735 44.9847 58.1924 44.9847C58.3038 44.9847 58.3976 44.9645 58.4733 44.9234C58.5496 44.8829 58.621 44.8253 58.6877 44.7507C58.7101 44.7246 58.7356 44.723 58.7655 44.7453L59.1163 45.0514C59.1387 45.07 59.1403 45.0956 59.1216 45.1292C59.0139 45.2556 58.8823 45.3558 58.7261 45.4299C58.5698 45.5051 58.3918 45.5424 58.1913 45.5424Z" fill="white"/>
<path d="M60.8521 45.5422C60.5664 45.5422 60.3275 45.4761 60.1356 45.3444C59.9437 45.2127 59.8115 45.0298 59.7374 44.7958C59.708 44.7105 59.6851 44.6151 59.6686 44.509C59.6521 44.4034 59.6441 44.2797 59.6441 44.1384C59.6441 43.9977 59.6515 43.8729 59.6659 43.7652C59.6808 43.6576 59.7027 43.5611 59.732 43.4758C59.8056 43.2417 59.9389 43.0599 60.1329 42.9304C60.3265 42.8003 60.5568 42.7352 60.8244 42.7352C61.1027 42.7352 61.3373 42.8013 61.5287 42.933C61.7195 43.0647 61.8523 43.246 61.9269 43.4758C61.9419 43.5243 61.9546 43.5723 61.9658 43.6202C61.977 43.6688 61.9861 43.7242 61.9936 43.7871C62.001 43.85 62.0064 43.9215 62.0101 44.0014C62.0138 44.0814 62.0154 44.1752 62.0154 44.2824C62.0154 44.3197 61.9952 44.3378 61.9541 44.3378H60.3003C60.2779 44.3378 60.2668 44.349 60.2668 44.3714C60.2668 44.4125 60.2705 44.4493 60.278 44.4828C60.2854 44.5164 60.2945 44.5479 60.3057 44.5777C60.3984 44.8486 60.5989 44.984 60.907 44.984C61.059 44.984 61.1853 44.96 61.2856 44.9115C61.3858 44.8635 61.4695 44.8022 61.5361 44.7276C61.566 44.6977 61.5937 44.694 61.6198 44.7164L61.9483 45.0058C61.9744 45.0282 61.976 45.0544 61.9536 45.0837C61.8384 45.2175 61.6881 45.3268 61.5026 45.4121C61.3181 45.4995 61.1011 45.5422 60.8521 45.5422ZM61.3869 43.8436C61.3869 43.7573 61.3757 43.681 61.3533 43.6133C61.316 43.5045 61.2509 43.4198 61.1582 43.3579C61.0654 43.2961 60.9556 43.2652 60.8297 43.2652C60.6997 43.2652 60.5882 43.2961 60.4955 43.3579C60.4027 43.4198 60.3377 43.5051 60.3009 43.6133C60.2785 43.681 60.2673 43.7578 60.2673 43.8436C60.2673 43.866 60.2785 43.8772 60.3009 43.8772H61.3533C61.3757 43.8772 61.3869 43.866 61.3869 43.8436Z" fill="white"/>
<path d="M63.6804 45.5424C63.4059 45.5424 63.1729 45.4981 62.9815 45.4086C62.7901 45.3195 62.6392 45.223 62.5278 45.1191C62.5017 45.0929 62.5017 45.0674 62.5278 45.0412L62.845 44.707C62.8711 44.6808 62.8967 44.6808 62.9228 44.707C63.0193 44.796 63.1388 44.8696 63.2822 44.9266C63.4251 44.9842 63.5669 45.013 63.7081 45.013C63.875 45.013 63.9992 44.9831 64.0813 44.9239C64.1629 44.8648 64.204 44.7885 64.204 44.6958C64.204 44.6142 64.1736 44.5492 64.1123 44.5006C64.0509 44.4527 63.9331 44.4191 63.7588 44.4004L63.4693 44.3727C63.1947 44.3428 62.9884 44.2613 62.8514 44.1274C62.7139 43.9936 62.6456 43.8118 62.6456 43.5821C62.6456 43.3224 62.7346 43.1161 62.9127 42.9642C63.0908 42.8122 63.3488 42.736 63.6868 42.736C63.8985 42.736 64.0893 42.7664 64.2605 42.8277C64.4311 42.889 64.5761 42.9679 64.695 43.0644C64.7248 43.0868 64.7286 43.1129 64.7062 43.1422L64.4332 43.4706C64.4108 43.4968 64.3847 43.5005 64.3554 43.4818C64.2701 43.4226 64.165 43.3704 64.0408 43.3261C63.9166 43.2814 63.7876 43.2595 63.6538 43.2595C63.5199 43.2595 63.4192 43.2856 63.3504 43.3373C63.2816 43.3896 63.2475 43.4562 63.2475 43.5378C63.2475 43.6156 63.2774 43.678 63.3366 43.7244C63.3957 43.7708 63.513 43.8033 63.6874 43.822L63.9768 43.8497C64.2589 43.8795 64.4679 43.9622 64.6033 44.0976C64.7387 44.233 64.8064 44.4121 64.8064 44.635C64.8064 44.9021 64.7115 45.1201 64.5222 45.2891C64.3319 45.4581 64.052 45.5424 63.6804 45.5424Z" fill="white"/>
</svg>
