<svg width="24" height="24" viewBox="0 0 24 24" fill="none" xmlns="http://www.w3.org/2000/svg">
<path d="M12.0001 22C10.8182 22 9.64787 21.7672 8.55592 21.3149C7.46397 20.8627 6.47182 20.1997 5.63612 19.364C4.80039 18.5283 4.13745 17.5361 3.68516 16.4442C3.23287 15.3522 3.00007 14.1819 3.00007 13C3.00007 11.8181 3.23287 10.6478 3.68516 9.55586C4.13745 8.46391 4.80039 7.47176 5.63612 6.63606C6.47182 5.80031 7.46397 5.13741 8.55592 4.68509C9.64787 4.2328 10.8182 4.00001 12.0001 4.00001C14.387 4.00001 16.6762 4.94822 18.364 6.63606C20.0519 8.32386 21.0001 10.6131 21.0001 13C21.0001 15.387 20.0519 17.6762 18.364 19.364C16.6762 21.0518 14.387 22 12.0001 22ZM13.0001 13V8.00001H11.0001V15H16.0001V13H13.0001ZM1.74707 6.28201L5.28207 2.74701L6.69707 4.16101L3.16007 7.69701L1.74707 6.28201ZM18.7171 2.74701L22.2531 6.28201L20.8391 7.69701L17.3031 4.16101L18.7181 2.74701H18.7171Z" fill="white"/>
</svg>
