<svg width="48" height="48" viewBox="0 0 48 48" fill="none" xmlns="http://www.w3.org/2000/svg">
<path fill-rule="evenodd" clip-rule="evenodd" d="M34 4H14C8.47715 4 4 8.47715 4 14V34C4 39.5228 8.47715 44 14 44H34C39.5228 44 44 39.5228 44 34V14C44 8.47715 39.5228 4 34 4ZM14 8H34C37.3137 8 40 10.6863 40 14V34C40 37.3137 37.3137 40 34 40H14C10.6863 40 8 37.3137 8 34V14C8 10.6863 10.6863 8 14 8Z" fill="#44C1EF"/>
<g opacity="0.5">
<path fill-rule="evenodd" clip-rule="evenodd" d="M17.9989 12C14.6864 12 12.0001 14.6877 12.0001 18.0001C12.0001 21.3123 14.6864 24 17.9989 24C21.3115 24 24.0001 21.3122 24.0001 18.0001C24.0001 14.6878 21.3115 12 17.9989 12ZM17.9989 16C19.1026 16 20.0001 16.8972 20.0001 18.0001C20.0001 19.1028 19.1026 20 17.9989 20C16.896 20 16.0001 19.1036 16.0001 18.0001C16.0001 16.8964 16.896 16 17.9989 16ZM38.828 23.3797C36.4412 20.4522 32.1332 20.0137 29.2057 22.4004C28.268 23.1649 27.5499 24.1643 27.1246 25.2969L26.0132 28.2567L25.896 28.5306C25.1694 30.0379 23.3991 30.768 21.8023 30.1684L21.0911 29.8966C17.5233 28.6608 13.5442 29.5395 10.8262 32.199C10.5166 32.5019 10.2218 32.7921 9.94162 33.0695L9.14504 33.8641L8.36242 34.6586L7.68685 35.3614L7.11748 35.9733L6.65346 36.4954L6.46069 36.7231C5.7555 37.5733 5.87303 38.8342 6.72319 39.5394C7.57336 40.2446 8.83422 40.127 9.53941 39.2769L9.8343 38.9339L10.4222 38.2908L11.1834 37.4953L12.1161 36.5494L13.6237 35.058C15.3225 33.3958 17.8422 32.893 20.0488 33.7759L20.2512 33.8569L20.7733 34.0432C24.4313 35.1957 28.3934 33.2964 29.7578 29.6629L30.8693 26.7031L30.9896 26.428C31.1687 26.0709 31.4218 25.7546 31.7332 25.5007C32.9485 24.5099 34.7369 24.6919 35.7278 25.9072L36.5454 26.9038L37.6508 28.2264L38.3086 28.9945L39.1791 29.9789L39.6837 30.5245L40.1287 30.9829L40.5154 31.3548L40.6871 31.5087C41.5204 32.2338 42.7837 32.1462 43.5088 31.3129C44.2339 30.4797 44.1462 29.2164 43.313 28.4913C43.231 28.4199 43.1374 28.3329 43.0325 28.2304L42.6839 27.8767L42.0353 27.1741L40.9417 25.9211L39.9545 24.7484L38.828 23.3797Z" fill="#44C1EF"/>
</g>
</svg>
