<svg width="117" height="120" viewBox="0 0 117 120" fill="none" xmlns="http://www.w3.org/2000/svg">
<g filter="url(#filter0_d_211_44922)">
<path fill-rule="evenodd" clip-rule="evenodd" d="M58.2961 83C72.819 83 84.5921 70.464 84.5921 55C84.5921 39.536 72.819 27 58.2961 27C43.7731 27 32 39.536 32 55C32 70.464 43.7731 83 58.2961 83Z" fill="#2C3862"/>
</g>
<path fill-rule="evenodd" clip-rule="evenodd" d="M65.8856 55.4164L60.4491 61.2286C60.2744 61.4146 60.0561 61.5076 59.8377 61.5076C59.6194 61.5076 59.4011 61.4146 59.2264 61.2286C58.8771 60.8566 58.8771 60.2754 59.2264 59.9034L63.1783 55.6954H51.6565C51.1762 55.6954 50.7832 55.2769 50.7832 54.7654C50.7832 54.2539 51.1762 53.8355 51.6565 53.8355H63.1783L59.2046 49.6042C58.8552 49.2322 58.8552 48.651 59.2046 48.279C59.5539 47.907 60.0997 47.907 60.4491 48.279L65.8856 54.0912C66.2349 54.4632 66.2349 55.0676 65.8856 55.4164Z" fill="#44C1EF"/>
<defs>
<filter id="filter0_d_211_44922" x="0" y="0" width="116.592" height="120" filterUnits="userSpaceOnUse" color-interpolation-filters="sRGB">
<feFlood flood-opacity="0" result="BackgroundImageFix"/>
<feColorMatrix in="SourceAlpha" type="matrix" values="0 0 0 0 0 0 0 0 0 0 0 0 0 0 0 0 0 0 127 0" result="hardAlpha"/>
<feOffset dy="5"/>
<feGaussianBlur stdDeviation="16"/>
<feColorMatrix type="matrix" values="0 0 0 0 0 0 0 0 0 0 0 0 0 0 0 0 0 0 0.1 0"/>
<feBlend mode="normal" in2="BackgroundImageFix" result="effect1_dropShadow_211_44922"/>
<feBlend mode="normal" in="SourceGraphic" in2="effect1_dropShadow_211_44922" result="shape"/>
</filter>
</defs>
</svg>
