<svg width="116" height="83" viewBox="0 0 116 83" fill="none" xmlns="http://www.w3.org/2000/svg">
<path d="M79.7836 19.0924V21.7136C79.7836 22.7307 79.7141 23.7307 79.5781 24.7107C79.2546 27.0626 78.5534 29.2956 77.5392 31.3441C76.4755 33.4915 75.0692 35.4371 73.39 37.1107C72.0703 38.4265 70.5813 39.573 68.9601 40.5159C66.6624 41.8536 64.0954 42.7803 61.3619 43.198C60.2811 43.3635 59.1746 43.4492 58.0471 43.4492C49.5013 43.4492 42.1077 38.5169 38.556 31.3431H46.7403C49.4642 34.538 53.5183 36.5646 58.0462 36.5646C59.186 36.5646 60.2954 36.4361 61.361 36.1926C64.3313 35.5161 66.9621 33.9491 68.9591 31.7874C69.0933 31.6428 69.2255 31.4944 69.353 31.3431C70.9457 29.4745 72.0846 27.2063 72.5955 24.7097H36.5181C36.383 23.7297 36.3126 22.7298 36.3126 21.7127C36.3126 20.826 36.3658 19.9506 36.4695 19.0915C36.8292 16.0964 37.7977 13.2896 39.2487 10.7969C40.0755 9.37449 41.0593 8.05485 42.1781 6.8608C45.9335 2.8486 51.1939 0.261645 57.0586 0H61.3619V6.8608H58.0471C54.1615 6.8608 50.624 8.3536 47.9771 10.7969C45.6461 12.9471 44.0059 15.8357 43.4264 19.0915L79.7836 19.0924Z" fill="white"/>
<path d="M79.7835 0.00172187V10.7976H73.3899V6.86252H68.96V0.00172187H79.7835Z" fill="#44C1EF"/>
<path d="M5.69246 69.458C5.13206 69.458 4.58213 69.4056 4.04267 69.3C3.50321 69.1954 2.99514 69.0555 2.51847 68.8795C2.0418 68.7044 1.60415 68.498 1.20454 68.2592C0.80494 68.0213 0.465278 67.7692 0.184604 67.5028C0.0723351 67.3905 0.0656749 67.2716 0.163673 67.145L1.76113 65.3164C1.84486 65.2041 1.95047 65.1974 2.07606 65.2954C2.55272 65.6741 3.10551 66.0138 3.73631 66.3154C4.36711 66.617 5.06071 66.7673 5.8171 66.7673C6.57349 66.7673 7.15196 66.6094 7.55156 66.2944C7.95116 65.9795 8.15097 65.5695 8.15097 65.0652C8.15097 64.6447 7.99683 64.3012 7.68857 64.0357C7.3803 63.7693 6.79898 63.581 5.94364 63.4677L5.18725 63.3631C3.72965 63.1671 2.61267 62.7218 1.83439 62.0282C1.05707 61.3346 0.667933 60.3499 0.667933 59.075C0.667933 58.4166 0.786862 57.8172 1.02567 57.2777C1.26353 56.7382 1.60414 56.2796 2.04561 55.901C2.48708 55.5223 3.01893 55.2283 3.64307 55.018C4.26626 54.8078 4.96366 54.7031 5.73432 54.7031C6.68671 54.7031 7.58391 54.8363 8.42498 55.1027C9.26605 55.3691 9.98724 55.7335 10.5904 56.1959C10.717 56.2797 10.7303 56.3853 10.6323 56.5108L9.34978 58.4232C9.26605 58.5355 9.1671 58.5564 9.05578 58.486C8.50966 58.1216 7.96639 57.8486 7.42692 57.6659C6.88746 57.4842 6.32326 57.3928 5.73432 57.3928C5.10352 57.3928 4.62685 57.5403 4.30527 57.8343C3.98273 58.1283 3.82194 58.5003 3.82194 58.9484C3.82194 59.3547 3.98654 59.6915 4.31573 59.9579C4.64493 60.2243 5.22245 60.4136 6.0502 60.525L6.80659 60.6306C8.29178 60.8266 9.41257 61.2718 10.1699 61.9654C10.9263 62.659 11.305 63.6571 11.305 64.9605C11.305 65.6056 11.186 66.2041 10.9472 66.7578C10.7084 67.3115 10.3554 67.7882 9.88543 68.1869C9.41542 68.5865 8.83029 68.8985 8.13003 69.1221C7.42978 69.3457 6.61725 69.458 5.69246 69.458Z" fill="white"/>
<path d="M14.3944 54.8084C14.3944 54.6685 14.4648 54.5981 14.6047 54.5981H17.106C17.2744 54.5981 17.3857 54.6685 17.4428 54.8084L21.0583 63.5311H21.142L24.6946 54.8084C24.7508 54.6685 24.863 54.5981 25.0305 54.5981H27.49C27.6298 54.5981 27.7002 54.6685 27.7002 54.8084V69.2483C27.7002 69.3891 27.6298 69.4585 27.49 69.4585H25.1152C24.9753 69.4585 24.9049 69.3891 24.9049 69.2483V61.1982H24.8212L22.1724 67.2303C22.0887 67.413 21.9555 67.5034 21.7728 67.5034H20.3228C20.1401 67.5034 20.0079 67.412 19.9232 67.2303L17.2744 61.1982H17.1907V69.2483C17.1907 69.3891 17.1203 69.4585 16.9804 69.4585H14.6056C14.4658 69.4585 14.3954 69.3891 14.3954 69.2483V54.8084H14.3944Z" fill="white"/>
<path d="M35.7227 54.8084C35.7646 54.6685 35.8559 54.5981 35.9958 54.5981H38.6446C38.7845 54.5981 38.8758 54.6685 38.9177 54.8084L43.7519 69.2483C43.7938 69.3891 43.7443 69.4585 43.6044 69.4585H40.8719C40.732 69.4585 40.6407 69.3891 40.5988 69.2483L39.7787 66.747H34.7761L33.9769 69.2483C33.935 69.3891 33.8437 69.4585 33.7038 69.4585H30.9503C30.8095 69.4585 30.761 69.3891 30.8029 69.2483L35.7227 54.8084ZM38.9386 64.1191L37.3202 59.1165H37.2574L35.639 64.1191H38.9386Z" fill="white"/>
<path d="M54.7591 69.4581C54.605 69.4581 54.4994 69.3887 54.4442 69.2479L51.9848 63.4784H50.0724C49.9886 63.4784 49.9458 63.5202 49.9458 63.6049V69.2488C49.9458 69.3896 49.8754 69.4591 49.7356 69.4591H47.0658C46.926 69.4591 46.8556 69.3896 46.8556 69.2488V54.8394C46.8556 54.6995 46.925 54.6291 47.0658 54.6291H52.7621C53.4909 54.6291 54.1531 54.7375 54.7487 54.9545C55.3443 55.1714 55.8552 55.4768 56.2833 55.8688C56.7105 56.2608 57.0397 56.7308 57.2709 57.2769C57.5021 57.8231 57.6182 58.4196 57.6182 59.0637C57.6182 59.9885 57.3937 60.7944 56.9455 61.4813C56.4965 62.1683 55.8733 62.6868 55.075 63.0369L57.8913 69.206C57.9189 69.2764 57.9189 69.3354 57.8913 69.3849C57.8627 69.4344 57.8142 69.4581 57.7438 69.4581H54.7591ZM52.5946 60.8505C53.1836 60.8505 53.6526 60.6897 54.0027 60.3672C54.3529 60.0446 54.5279 59.6108 54.5279 59.0637C54.5279 58.5309 54.3529 58.1037 54.0027 57.7812C53.6526 57.4587 53.1826 57.2979 52.5946 57.2979H50.0724C49.9886 57.2979 49.9458 57.3397 49.9458 57.4244V60.724C49.9458 60.8077 49.9877 60.8505 50.0724 60.8505H52.5946Z" fill="white"/>
<path d="M65.164 69.4581C65.0241 69.4581 64.9537 69.3887 64.9537 69.2478V57.4872C64.9537 57.4034 64.9119 57.3606 64.8272 57.3606H61.2117C61.0719 57.3606 61.0015 57.2912 61.0015 57.1523V54.8365C61.0015 54.6976 61.0719 54.6281 61.2117 54.6281H71.7841C71.9239 54.6281 71.9943 54.6976 71.9943 54.8365V57.1523C71.9943 57.2912 71.9239 57.3606 71.7841 57.3606H68.1686C68.0849 57.3606 68.0421 57.4025 68.0421 57.4872V69.2478C68.0421 69.3887 67.9717 69.4581 67.8318 69.4581H65.164Z" fill="white"/>
<path d="M83.5886 69.4582C82.3412 69.4582 81.2518 69.1709 80.3204 68.5962C79.388 68.0215 78.7401 67.1529 78.3757 65.9902C78.2919 65.7381 78.2253 65.4926 78.1759 65.2548C78.1264 65.0169 78.0883 64.7505 78.0598 64.4556C78.0312 64.1616 78.0103 63.8248 77.997 63.447C77.9827 63.0684 77.9761 62.5042 77.9761 61.9723C77.9761 61.4395 77.9827 60.9847 77.997 60.6061C78.0113 60.2274 78.0322 59.8915 78.0598 59.5975C78.0874 59.3035 78.1264 59.0371 78.1759 58.7983C78.2244 58.5605 78.291 58.315 78.3757 58.0629C78.7401 56.9145 79.388 56.0487 80.3204 55.4674C81.2518 54.886 82.3412 54.5949 83.5886 54.5949C84.8359 54.5949 85.9253 54.886 86.8568 55.4674C87.7882 56.0487 88.4361 56.9145 88.8015 58.0629C88.8852 58.315 88.9518 58.5605 89.0013 58.7983C89.0498 59.0371 89.0888 59.3026 89.1174 59.5975C89.145 59.8915 89.1659 60.2283 89.1802 60.6061C89.1935 60.9847 89.2011 61.4395 89.2011 61.9723C89.2011 62.5051 89.1935 63.0693 89.1802 63.447C89.1659 63.8257 89.145 64.1616 89.1174 64.4556C89.0888 64.7496 89.0508 65.016 89.0013 65.2548C88.9518 65.4936 88.8862 65.7381 88.8015 65.9902C88.4371 67.1538 87.7892 68.0225 86.8568 68.5962C85.9253 69.1709 84.8359 69.4582 83.5886 69.4582ZM83.5886 66.7257C84.1775 66.7257 84.6608 66.5858 85.0386 66.3052C85.4172 66.0254 85.6827 65.6401 85.8378 65.1492C85.8796 65.0226 85.9148 64.8799 85.9424 64.7182C85.97 64.5574 85.9948 64.3604 86.0157 64.1292C86.0366 63.898 86.0509 63.6145 86.0575 63.2777C86.0642 62.9418 86.068 62.4328 86.068 61.9704C86.068 61.508 86.0642 61.1084 86.0575 60.7726C86.0499 60.4357 86.0366 60.1522 86.0157 59.921C85.9948 59.6898 85.97 59.4938 85.9424 59.3321C85.9139 59.1713 85.8796 59.0276 85.8378 58.9011C85.6836 58.4111 85.4172 58.0258 85.0386 57.7451C84.6599 57.4654 84.1766 57.3246 83.5886 57.3246C83.0006 57.3246 82.5163 57.4644 82.1386 57.7451C81.7599 58.0258 81.4935 58.4111 81.3394 58.9011C81.2975 59.0276 81.2623 59.1713 81.2347 59.3321C81.2062 59.4938 81.1824 59.6898 81.1615 59.921C81.1405 60.1522 81.1263 60.4357 81.1196 60.7726C81.1129 61.1084 81.1091 61.508 81.1091 61.9704C81.1091 62.4328 81.112 62.9409 81.1196 63.2777C81.1263 63.6145 81.1405 63.898 81.1615 64.1292C81.1824 64.3604 81.2071 64.5564 81.2347 64.7182C81.2623 64.8799 81.2975 65.0226 81.3394 65.1492C81.4935 65.6401 81.7599 66.0254 82.1386 66.3052C82.5173 66.5858 83.0006 66.7257 83.5886 66.7257Z" fill="white"/>
<path d="M92.2912 54.8044C92.2912 54.6646 92.3607 54.5942 92.5015 54.5942H95.0237C95.1779 54.5942 95.2968 54.6646 95.3815 54.8044L100.426 64.372H100.531V54.8044C100.531 54.6646 100.6 54.5942 100.741 54.5942H103.117C103.256 54.5942 103.327 54.6646 103.327 54.8044V69.2482C103.327 69.389 103.256 69.4584 103.117 69.4584H100.615C100.461 69.4584 100.342 69.389 100.258 69.2482L95.1921 59.7015H95.0875V69.2482C95.0875 69.389 95.0171 69.4584 94.8772 69.4584H92.5024C92.3626 69.4584 92.2922 69.389 92.2922 69.2482V54.8044H92.2912Z" fill="white"/>
<path d="M106.415 54.8044C106.415 54.6646 106.485 54.5942 106.626 54.5942H115.79C115.93 54.5942 116 54.6646 116 54.8044V57.0536C116 57.1935 115.93 57.2639 115.79 57.2639H109.631C109.547 57.2639 109.505 57.3057 109.505 57.3904V60.7994C109.505 60.8831 109.546 60.9259 109.631 60.9259H114.76C114.9 60.9259 114.971 60.9964 114.971 61.1362V63.3645C114.971 63.5043 114.9 63.5747 114.76 63.5747H109.631C109.547 63.5747 109.505 63.6166 109.505 63.7013V66.665C109.505 66.7487 109.546 66.7915 109.631 66.7915H115.79C115.93 66.7915 116 66.8619 116 67.0018V69.251C116 69.3918 115.93 69.4613 115.79 69.4613H106.626C106.486 69.4613 106.415 69.3918 106.415 69.251V54.8044Z" fill="white"/>
<path d="M0.177919 79.6132C0.144618 79.5067 0.117027 79.4029 0.0932409 79.3002C0.0704065 79.1974 0.0513778 79.0785 0.0390092 78.9424C0.0256891 78.8064 0.0152228 78.6475 0.0095142 78.4648C0.00285416 78.2822 0 78.0548 0 77.7826C0 77.5172 0.00285416 77.2917 0.0095142 77.1062C0.0161742 76.9207 0.0256891 76.7599 0.0390092 76.6238C0.0523292 76.4877 0.0704065 76.3688 0.0932409 76.2661C0.116075 76.1633 0.144618 76.0587 0.177919 75.9521C0.350128 75.3955 0.640316 74.9788 1.04753 74.7038C1.45474 74.4288 1.94664 74.2909 2.5232 74.2909C3.06647 74.2909 3.53458 74.4212 3.92943 74.6819C4.32332 74.9426 4.61636 75.2994 4.80855 75.7513C4.82853 75.8113 4.81141 75.8503 4.75908 75.8703L3.9142 76.2775C3.85426 76.3108 3.81145 76.2937 3.78481 76.228C3.67254 75.9892 3.5184 75.7846 3.32241 75.6115C3.12737 75.4393 2.86001 75.3536 2.52225 75.3536C2.19781 75.3536 1.93712 75.4326 1.74208 75.5915C1.54703 75.7504 1.40241 75.9683 1.31013 76.2461C1.29015 76.3193 1.27207 76.3917 1.25589 76.464C1.23972 76.5363 1.2264 76.6305 1.21593 76.7465C1.20642 76.8617 1.19976 77.0025 1.19595 77.168C1.19215 77.3336 1.1912 77.5381 1.1912 77.7826C1.1912 78.0338 1.1931 78.2403 1.19595 78.402C1.19881 78.5638 1.20547 78.7027 1.21593 78.8188C1.22545 78.9348 1.23877 79.03 1.25589 79.1061C1.27207 79.1822 1.2911 79.2526 1.31013 79.3192C1.40241 79.597 1.54703 79.8149 1.74208 79.9738C1.93712 80.1327 2.19781 80.2117 2.52225 80.2117C2.86001 80.2117 3.12641 80.126 3.32241 79.9538C3.51745 79.7816 3.67159 79.5761 3.78481 79.3382C3.81145 79.2716 3.85426 79.2555 3.9142 79.2888L4.75908 79.696C4.81236 79.716 4.82853 79.7559 4.80855 79.8149C4.61636 80.2668 4.32332 80.6236 3.92943 80.8843C3.53553 81.145 3.06647 81.2754 2.5232 81.2754C1.94664 81.2754 1.45474 81.1374 1.04753 80.8624C0.640316 80.5865 0.350128 80.1708 0.177919 79.6132Z" fill="white"/>
<path d="M7.76944 81.275C7.27945 81.275 6.85987 81.159 6.5126 80.9278C6.16437 80.6956 5.92461 80.3712 5.79236 79.9544C5.73908 79.7822 5.69912 79.6081 5.67343 79.4331C5.64679 79.258 5.63347 79.0373 5.63347 78.7718C5.63347 78.5073 5.64679 78.2866 5.67343 78.1115C5.70007 77.9364 5.73908 77.7623 5.79236 77.5901C5.92461 77.1724 6.16532 76.848 6.5126 76.6168C6.85987 76.3847 7.27945 76.2686 7.76944 76.2686C8.25277 76.2686 8.66855 76.3847 9.01677 76.6168C9.36405 76.849 9.60476 77.1734 9.73701 77.5901C9.79029 77.7623 9.8293 77.9364 9.85594 78.1115C9.88258 78.2875 9.8959 78.5073 9.8959 78.7718C9.8959 79.0373 9.88258 79.257 9.85594 79.4331C9.8293 79.6081 9.78934 79.7822 9.73701 79.9544C9.60476 80.3721 9.36405 80.6966 9.01677 80.9278C8.66855 81.159 8.25277 81.275 7.76944 81.275ZM7.76944 80.2817C7.99493 80.2817 8.18141 80.2266 8.33079 80.1181C8.48016 80.0087 8.59053 79.8545 8.66379 79.6557C8.70375 79.5301 8.73039 79.4026 8.74371 79.2732C8.75703 79.1438 8.76369 78.9764 8.76369 78.7718C8.76369 78.5663 8.75703 78.4007 8.74371 78.2752C8.73039 78.1496 8.70375 78.0202 8.66379 77.8879C8.59053 77.6891 8.48016 77.5349 8.33079 77.4255C8.18141 77.3161 7.99493 77.2619 7.76944 77.2619C7.54395 77.2619 7.35557 77.3161 7.20334 77.4255C7.05111 77.5349 6.93789 77.6891 6.86558 77.8879C6.82562 78.0202 6.79898 78.1496 6.78566 78.2752C6.77234 78.4007 6.76568 78.5663 6.76568 78.7718C6.76568 78.9773 6.77234 79.1448 6.78566 79.2732C6.79898 79.4026 6.82562 79.5301 6.86558 79.6557C6.93884 79.8545 7.05111 80.0087 7.20334 80.1181C7.35557 80.2266 7.54395 80.2817 7.76944 80.2817Z" fill="white"/>
<path d="M14.1182 81.1656C14.0516 81.1656 14.0193 81.1323 14.0193 81.0667V78.3047C14.0193 77.9935 13.9432 77.7414 13.7909 77.5492C13.6387 77.357 13.4132 77.2609 13.1154 77.2609C12.8243 77.2609 12.5988 77.357 12.4399 77.5492C12.281 77.7414 12.2011 77.9935 12.2011 78.3047V81.0667C12.2011 81.1333 12.1678 81.1656 12.1021 81.1656H11.1878C11.1212 81.1656 11.0889 81.1323 11.0889 81.0667V76.476C11.0889 76.4094 11.1222 76.377 11.1878 76.377H12.1021C12.1678 76.377 12.2011 76.4103 12.2011 76.476V76.8242H12.2106C12.3162 76.672 12.4741 76.5407 12.6825 76.4322C12.8909 76.3228 13.1544 76.2686 13.4722 76.2686C13.731 76.2686 13.9603 76.3133 14.1629 76.4027C14.3646 76.4922 14.5388 76.6168 14.6843 76.7757C14.8299 76.9346 14.9412 77.122 15.0173 77.337C15.0934 77.5521 15.1315 77.789 15.1315 78.0478V81.0686C15.1315 81.1352 15.0982 81.1675 15.0325 81.1675H14.1182V81.1656Z" fill="white"/>
<path d="M19.5634 81.1656C19.4968 81.1656 19.4644 81.1323 19.4644 81.0667V78.3047C19.4644 77.9935 19.3883 77.7414 19.2361 77.5492C19.0839 77.357 18.8584 77.2609 18.5606 77.2609C18.2694 77.2609 18.044 77.357 17.8851 77.5492C17.7262 77.7414 17.6463 77.9935 17.6463 78.3047V81.0667C17.6463 81.1333 17.613 81.1656 17.5473 81.1656H16.633C16.5664 81.1656 16.534 81.1323 16.534 81.0667V76.476C16.534 76.4094 16.5673 76.377 16.633 76.377H17.5473C17.613 76.377 17.6463 76.4103 17.6463 76.476V76.8242H17.6558C17.7614 76.672 17.9193 76.5407 18.1277 76.4322C18.336 76.3228 18.5996 76.2686 18.9174 76.2686C19.1762 76.2686 19.4055 76.3133 19.6081 76.4027C19.8098 76.4922 19.9839 76.6168 20.1295 76.7757C20.2751 76.9346 20.3864 77.122 20.4625 77.337C20.5386 77.5521 20.5767 77.789 20.5767 78.0478V81.0686C20.5767 81.1352 20.5434 81.1675 20.4777 81.1675H19.5634V81.1656Z" fill="white"/>
<path d="M23.8752 81.2752C23.3652 81.2752 22.939 81.1572 22.5965 80.9222C22.254 80.6872 22.018 80.3608 21.8858 79.9432C21.8334 79.7909 21.7925 79.6206 21.763 79.4313C21.7335 79.2429 21.7193 79.0222 21.7193 78.77C21.7193 78.5189 21.7326 78.2962 21.7583 78.104C21.7849 77.9119 21.8239 77.7396 21.8762 77.5874C22.0075 77.1697 22.2464 76.8453 22.5917 76.6141C22.9371 76.3819 23.3481 76.2659 23.8257 76.2659C24.3224 76.2659 24.741 76.3838 25.0826 76.6189C25.4232 76.8539 25.6601 77.1773 25.7933 77.5874C25.8199 77.674 25.8428 77.7596 25.8628 77.8453C25.8827 77.9318 25.8989 78.0308 25.9122 78.1431C25.9256 78.2553 25.9351 78.3828 25.9417 78.5255C25.9484 78.6682 25.9512 78.8357 25.9512 79.0269C25.9512 79.0935 25.9151 79.1259 25.8418 79.1259H22.8905C22.8505 79.1259 22.8305 79.1459 22.8305 79.1858C22.8305 79.2591 22.8372 79.3247 22.8505 79.3847C22.8638 79.4446 22.88 79.5008 22.9 79.554C23.0655 80.0374 23.4233 80.279 23.9732 80.279C24.2444 80.279 24.4699 80.2362 24.6487 80.1496C24.8276 80.064 24.977 79.9546 25.0959 79.8214C25.1492 79.7681 25.1987 79.7614 25.2453 79.8014L25.8314 80.318C25.878 80.358 25.8808 80.4046 25.8409 80.4569C25.6354 80.6958 25.3671 80.8908 25.036 81.043C24.7068 81.1991 24.3186 81.2752 23.8752 81.2752ZM24.8295 78.2439C24.8295 78.0898 24.8095 77.9537 24.7696 77.8329C24.703 77.6388 24.5869 77.4875 24.4223 77.3772C24.2567 77.2668 24.0607 77.2116 23.8362 77.2116C23.6041 77.2116 23.4052 77.2668 23.2397 77.3772C23.0741 77.4875 22.958 77.6397 22.8914 77.8329C22.8515 77.9537 22.8315 78.0907 22.8315 78.2439C22.8315 78.2839 22.8515 78.3038 22.8914 78.3038H24.7696C24.8095 78.3038 24.8295 78.2839 24.8295 78.2439Z" fill="white"/>
<path d="M29.0216 81.2757C28.5382 81.2757 28.1225 81.1634 27.7742 80.9379C27.426 80.7125 27.1834 80.3852 27.0435 79.9542C26.9446 79.6564 26.8942 79.2625 26.8942 78.7715C26.8942 78.2815 26.9436 77.8876 27.0435 77.5889C27.1824 77.1579 27.426 76.8306 27.7742 76.6051C28.1215 76.3796 28.5373 76.2674 29.0216 76.2674C29.3793 76.2674 29.6971 76.334 29.9759 76.4662C30.2537 76.5985 30.4887 76.7811 30.6809 77.0123C30.7208 77.0656 30.717 77.1113 30.6714 77.1512L30.0453 77.6974C29.992 77.7373 29.9464 77.7307 29.9064 77.6774C29.7875 77.5451 29.66 77.4424 29.5239 77.3691C29.3879 77.2968 29.2204 77.2597 29.0225 77.2597C28.8103 77.2597 28.6267 77.3111 28.4707 77.4138C28.3146 77.5166 28.2005 77.6736 28.1282 77.8857C28.0882 78.0047 28.0616 78.136 28.0482 78.2777C28.0349 78.4204 28.0283 78.5841 28.0283 78.7696C28.0283 78.9552 28.0349 79.1207 28.0482 79.2663C28.0616 79.4118 28.0882 79.5441 28.1282 79.664C28.2014 79.8695 28.3156 80.0236 28.4707 80.1264C28.6258 80.2291 28.8103 80.2805 29.0225 80.2805C29.2214 80.2805 29.3888 80.2444 29.5239 80.1711C29.66 80.0988 29.7875 79.996 29.9064 79.8628C29.9464 79.8162 29.992 79.8133 30.0453 79.8533L30.6714 80.3994C30.7113 80.4327 30.7142 80.4784 30.6809 80.5383C30.4887 80.7638 30.2537 80.9427 29.9759 81.075C29.698 81.2091 29.3793 81.2757 29.0216 81.2757Z" fill="white"/>
<path d="M33.2747 81.2255C32.7913 81.2255 32.4479 81.1094 32.2462 80.8773C32.0444 80.6451 31.9426 80.294 31.9426 79.824V77.2999C31.9426 77.2599 31.9227 77.2399 31.8827 77.2399H31.5649C31.4983 77.2399 31.466 77.2066 31.466 77.141V76.475C31.466 76.4084 31.4993 76.376 31.5649 76.376H31.8827C31.9227 76.376 31.9426 76.356 31.9426 76.3161V75.0041C31.9426 74.9384 31.9759 74.9051 32.0416 74.9051H32.9559C33.0216 74.9051 33.0549 74.9384 33.0549 75.0041V76.3161C33.0549 76.356 33.0748 76.376 33.1148 76.376H33.7504C33.816 76.376 33.8493 76.4093 33.8493 76.475V77.141C33.8493 77.2076 33.816 77.2399 33.7504 77.2399H33.1148C33.0748 77.2399 33.0549 77.2599 33.0549 77.2999V79.7841C33.0549 79.9563 33.091 80.0742 33.1643 80.137C33.2375 80.1998 33.3498 80.2312 33.502 80.2312H33.7504C33.816 80.2312 33.8493 80.2645 33.8493 80.3302V81.1246C33.8493 81.1912 33.816 81.2236 33.7504 81.2236H33.2747V81.2255Z" fill="white"/>
<path d="M37.5275 81.1659C37.4609 81.1659 37.4286 81.1326 37.4286 81.066V74.4983C37.4286 74.4317 37.4619 74.3984 37.5275 74.3984H40.0612C40.3856 74.3984 40.6853 74.4498 40.9603 74.5525C41.2353 74.6553 41.4703 74.798 41.6653 74.9807C41.8604 75.1633 42.0135 75.3841 42.122 75.6429C42.2314 75.9016 42.2856 76.1871 42.2856 76.4991C42.2856 76.8179 42.2314 77.1062 42.122 77.3659C42.0126 77.6247 41.8604 77.8454 41.6653 78.0281C41.4703 78.2108 41.2343 78.3535 40.9603 78.4562C40.6853 78.559 40.3856 78.6104 40.0612 78.6104H38.6607C38.6207 78.6104 38.6007 78.6304 38.6007 78.6703V81.0651C38.6007 81.1317 38.5674 81.164 38.5018 81.164H37.5275V81.1659ZM39.9908 77.5495C40.3419 77.5495 40.6168 77.4553 40.8157 77.266C41.0145 77.0776 41.1135 76.8236 41.1135 76.5058C41.1135 76.1947 41.0145 75.9426 40.8157 75.7504C40.6168 75.5582 40.3419 75.4621 39.9908 75.4621H38.6597C38.6198 75.4621 38.5998 75.4821 38.5998 75.522V77.4896C38.5998 77.5296 38.6198 77.5495 38.6597 77.5495H39.9908Z" fill="white"/>
<path d="M45.2474 81.2752C44.7374 81.2752 44.3112 81.1572 43.9687 80.9222C43.6261 80.6872 43.3902 80.3608 43.2579 79.9432C43.2056 79.7909 43.1647 79.6206 43.1352 79.4313C43.1057 79.2429 43.0914 79.0222 43.0914 78.77C43.0914 78.5189 43.1048 78.2962 43.1304 78.104C43.1571 77.9119 43.1961 77.7396 43.2484 77.5874C43.3797 77.1697 43.6185 76.8453 43.9639 76.6141C44.3093 76.3819 44.7203 76.2659 45.1979 76.2659C45.6946 76.2659 46.1132 76.3838 46.4548 76.6189C46.7954 76.8539 47.0323 77.1773 47.1655 77.5874C47.1921 77.674 47.215 77.7596 47.2349 77.8453C47.2549 77.9318 47.2711 78.0308 47.2844 78.1431C47.2977 78.2553 47.3072 78.3828 47.3139 78.5255C47.3206 78.6682 47.3234 78.8357 47.3234 79.0269C47.3234 79.0935 47.2873 79.1259 47.214 79.1259H44.2627C44.2227 79.1259 44.2027 79.1459 44.2027 79.1858C44.2027 79.2591 44.2094 79.3247 44.2227 79.3847C44.236 79.4446 44.2522 79.5008 44.2722 79.554C44.4377 80.0374 44.7955 80.279 45.3454 80.279C45.6165 80.279 45.842 80.2362 46.0209 80.1496C46.1998 80.064 46.3491 79.9546 46.4681 79.8214C46.5214 79.7681 46.5708 79.7614 46.6175 79.8014L47.2035 80.318C47.2502 80.358 47.253 80.4046 47.2131 80.4569C47.0075 80.6958 46.7392 80.8908 46.4081 81.043C46.078 81.1991 45.6908 81.2752 45.2474 81.2752ZM46.2007 78.2439C46.2007 78.0898 46.1807 77.9537 46.1408 77.8329C46.0742 77.6388 45.9581 77.4875 45.7935 77.3772C45.628 77.2668 45.432 77.2116 45.2074 77.2116C44.9753 77.2116 44.7764 77.2668 44.6109 77.3772C44.4453 77.4875 44.3293 77.6397 44.2627 77.8329C44.2227 77.9537 44.2027 78.0907 44.2027 78.2439C44.2027 78.2839 44.2227 78.3038 44.2627 78.3038H46.1417C46.1817 78.3038 46.2007 78.2839 46.2007 78.2439Z" fill="white"/>
<path d="M50.4042 81.275C49.9142 81.275 49.4946 81.159 49.1473 80.9278C48.7991 80.6956 48.5594 80.3712 48.4271 79.9544C48.3738 79.7822 48.3339 79.6081 48.3082 79.4331C48.2815 79.258 48.2682 79.0373 48.2682 78.7718C48.2682 78.5073 48.2815 78.2866 48.3082 78.1115C48.3348 77.9364 48.3738 77.7623 48.4271 77.5901C48.5594 77.1724 48.8001 76.848 49.1473 76.6168C49.4946 76.3847 49.9142 76.2686 50.4042 76.2686C50.8875 76.2686 51.3033 76.3847 51.6515 76.6168C51.9988 76.849 52.2395 77.1734 52.3717 77.5901C52.425 77.7623 52.464 77.9364 52.4907 78.1115C52.5173 78.2875 52.5306 78.5073 52.5306 78.7718C52.5306 79.0373 52.5173 79.257 52.4907 79.4331C52.464 79.6081 52.4241 79.7822 52.3717 79.9544C52.2395 80.3721 51.9988 80.6966 51.6515 80.9278C51.3033 81.159 50.8875 81.275 50.4042 81.275ZM50.4042 80.2817C50.6297 80.2817 50.8162 80.2266 50.9655 80.1181C51.1149 80.0087 51.2253 79.8545 51.2985 79.6557C51.3385 79.5301 51.3651 79.4026 51.3785 79.2732C51.3918 79.1438 51.3984 78.9764 51.3984 78.7718C51.3984 78.5663 51.3918 78.4007 51.3785 78.2752C51.3651 78.1496 51.3385 78.0202 51.2985 77.8879C51.2253 77.6891 51.1149 77.5349 50.9655 77.4255C50.8162 77.3161 50.6297 77.2619 50.4042 77.2619C50.1787 77.2619 49.9903 77.3161 49.8381 77.4255C49.6858 77.5349 49.5726 77.6891 49.5003 77.8879C49.4604 78.0202 49.4337 78.1496 49.4204 78.2752C49.4071 78.4007 49.4004 78.5663 49.4004 78.7718C49.4004 78.9773 49.4071 79.1448 49.4204 79.2732C49.4337 79.4026 49.4604 79.5301 49.5003 79.6557C49.5736 79.8545 49.6858 80.0087 49.8381 80.1181C49.9903 80.2266 50.1787 80.2817 50.4042 80.2817Z" fill="white"/>
<path d="M53.8217 82.9548C53.7551 82.9548 53.7228 82.9215 53.7228 82.8558V76.4774C53.7228 76.4108 53.7561 76.3785 53.8217 76.3785H54.736C54.8017 76.3785 54.835 76.4118 54.835 76.4774V76.8342H54.8445C54.9568 76.6686 55.1157 76.5326 55.3212 76.427C55.5267 76.3214 55.7912 76.2681 56.1156 76.2681C56.5266 76.2681 56.8739 76.3642 57.1593 76.5564C57.4438 76.7486 57.6493 77.0368 57.7749 77.4212C57.8349 77.6068 57.8777 77.797 57.9043 77.9921C57.931 78.1871 57.9443 78.4478 57.9443 78.7723C57.9443 79.0967 57.931 79.3574 57.9043 79.5524C57.8777 79.7475 57.8349 79.9387 57.7749 80.1233C57.6493 80.5077 57.4438 80.796 57.1593 80.9872C56.8749 81.1794 56.5266 81.2755 56.1156 81.2755C55.7912 81.2755 55.5257 81.2222 55.3212 81.1166C55.1157 81.011 54.9568 80.8749 54.8445 80.7094H54.835V82.8558C54.835 82.9224 54.8017 82.9548 54.736 82.9548H53.8217ZM55.8292 80.2822C56.2859 80.2822 56.5809 80.0767 56.7131 79.6666C56.7464 79.5543 56.7712 79.4316 56.7873 79.2994C56.8035 79.1671 56.8121 78.9911 56.8121 78.7723C56.8121 78.5534 56.8035 78.3784 56.7873 78.2461C56.7712 78.1139 56.7455 77.9911 56.7131 77.8789C56.5809 77.4678 56.2859 77.2633 55.8292 77.2633C55.3659 77.2633 55.0671 77.4688 54.9349 77.8789C54.9016 77.9911 54.8769 78.1139 54.8607 78.2461C54.8445 78.3784 54.8359 78.5544 54.8359 78.7723C54.8359 78.9911 54.8445 79.1662 54.8607 79.2994C54.8769 79.4316 54.9016 79.5543 54.9349 79.6666C55.0671 80.0767 55.3649 80.2822 55.8292 80.2822Z" fill="white"/>
<path d="M60.4294 81.226C59.9594 81.226 59.6226 81.1138 59.4209 80.8883C59.2192 80.6628 59.1174 80.3184 59.1174 79.855V74.5099C59.1174 74.4433 59.1507 74.4109 59.2163 74.4109H60.1307C60.1973 74.4109 60.2296 74.4442 60.2296 74.5099V79.796C60.2296 79.9616 60.2629 80.0758 60.3286 80.1386C60.3952 80.2014 60.5008 80.2328 60.6463 80.2328H60.8652C60.9318 80.2328 60.9641 80.2661 60.9641 80.3317V81.1261C60.9641 81.1927 60.9308 81.2251 60.8652 81.2251H60.4294V81.226Z" fill="white"/>
<path d="M63.927 81.2752C63.417 81.2752 62.9908 81.1572 62.6483 80.9222C62.3057 80.6872 62.0698 80.3608 61.9375 79.9432C61.8852 79.7909 61.8443 79.6206 61.8148 79.4313C61.7853 79.2429 61.771 79.0222 61.771 78.77C61.771 78.5189 61.7844 78.2962 61.81 78.104C61.8367 77.9119 61.8757 77.7396 61.928 77.5874C62.0593 77.1697 62.2972 76.8453 62.6435 76.6141C62.9889 76.3819 63.3999 76.2659 63.8775 76.2659C64.3742 76.2659 64.7928 76.3838 65.1344 76.6189C65.475 76.8539 65.7119 77.1773 65.8451 77.5874C65.8717 77.674 65.8946 77.7596 65.9145 77.8453C65.9345 77.9318 65.9507 78.0308 65.964 78.1431C65.9773 78.2553 65.9868 78.3828 65.9935 78.5255C66.0002 78.6682 66.003 78.8357 66.003 79.0269C66.003 79.0935 65.9669 79.1259 65.8936 79.1259H62.9423C62.9023 79.1259 62.8823 79.1459 62.8823 79.1858C62.8823 79.2591 62.889 79.3247 62.9023 79.3847C62.9156 79.4446 62.9318 79.5008 62.9518 79.554C63.1173 80.0374 63.4751 80.279 64.025 80.279C64.2961 80.279 64.5216 80.2362 64.7005 80.1496C64.8794 80.064 65.0287 79.9546 65.1477 79.8214C65.201 79.7681 65.2504 79.7614 65.2971 79.8014L65.8831 80.318C65.9298 80.358 65.9326 80.4046 65.8927 80.4569C65.6871 80.6958 65.4188 80.8908 65.0877 81.043C64.7576 81.1991 64.3704 81.2752 63.927 81.2752ZM64.8803 78.2439C64.8803 78.0898 64.8603 77.9537 64.8204 77.8329C64.7538 77.6388 64.6377 77.4875 64.4722 77.3772C64.3066 77.2668 64.1106 77.2116 63.8861 77.2116C63.6539 77.2116 63.4551 77.2668 63.2895 77.3772C63.124 77.4875 63.0079 77.6397 62.9423 77.8329C62.9023 77.9537 62.8823 78.0907 62.8823 78.2439C62.8823 78.2839 62.9023 78.3038 62.9423 78.3038H64.8204C64.8603 78.3038 64.8803 78.2839 64.8803 78.2439Z" fill="white"/>
<path d="M72.4012 81.1663C72.3346 81.1663 72.3023 81.133 72.3023 81.0673V80.7191H72.2928C72.1805 80.8847 72.0111 81.0188 71.7857 81.1216C71.5602 81.2243 71.2785 81.2757 70.9408 81.2757C70.7219 81.2757 70.5155 81.2462 70.3195 81.1863C70.1244 81.1273 69.9532 81.0378 69.8076 80.9189C69.662 80.8 69.546 80.6497 69.4594 80.4679C69.3728 80.2862 69.33 80.0702 69.33 79.8191C69.33 79.2977 69.5003 78.9152 69.8419 78.6707C70.1825 78.4262 70.6515 78.3044 71.2481 78.3044H72.2214C72.2614 78.3044 72.2813 78.2844 72.2813 78.2444V78.0142C72.2813 77.7335 72.2052 77.5299 72.053 77.4024C71.9008 77.2759 71.622 77.2121 71.2186 77.2121C70.9465 77.2121 70.7248 77.2435 70.5526 77.3063C70.3804 77.3691 70.2377 77.4471 70.1254 77.5394C70.0655 77.586 70.0188 77.5794 69.9865 77.5194L69.6192 76.8639C69.5859 76.8106 69.5926 76.7678 69.6392 76.7345C69.8314 76.5956 70.0626 76.4833 70.3347 76.3968C70.6059 76.3111 70.9408 76.2674 71.3385 76.2674C72.0673 76.2674 72.582 76.3996 72.8836 76.6651C73.1852 76.9305 73.3355 77.3539 73.3355 77.9371V81.0673C73.3355 81.1339 73.3022 81.1663 73.2366 81.1663H72.4012ZM71.2195 80.3718C71.564 80.3718 71.8275 80.3052 72.0092 80.173C72.191 80.0407 72.2823 79.8352 72.2823 79.5574V79.1902C72.2823 79.1502 72.2623 79.1302 72.2224 79.1302H71.4279C71.0702 79.1302 70.8085 79.1816 70.643 79.2844C70.4774 79.3871 70.3946 79.5508 70.3946 79.7762C70.3946 80.173 70.6696 80.3718 71.2195 80.3718Z" fill="white"/>
<path d="M77.7769 81.1656C77.7103 81.1656 77.6779 81.1323 77.6779 81.0667V78.3047C77.6779 77.9935 77.6018 77.7414 77.4496 77.5492C77.2974 77.357 77.0719 77.2609 76.7741 77.2609C76.4829 77.2609 76.2575 77.357 76.0986 77.5492C75.9397 77.7414 75.8598 77.9935 75.8598 78.3047V81.0667C75.8598 81.1333 75.8265 81.1656 75.7608 81.1656H74.8465C74.7799 81.1656 74.7475 81.1323 74.7475 81.0667V76.476C74.7475 76.4094 74.7808 76.377 74.8465 76.377H75.7608C75.8274 76.377 75.8598 76.4103 75.8598 76.476V76.8242H75.8693C75.9749 76.672 76.1328 76.5407 76.3412 76.4322C76.5495 76.3228 76.8131 76.2686 77.1309 76.2686C77.3887 76.2686 77.619 76.3133 77.8216 76.4027C78.0233 76.4922 78.1974 76.6168 78.343 76.7757C78.4886 76.9346 78.5999 77.122 78.676 77.337C78.7521 77.5521 78.7902 77.789 78.7902 78.0478V81.0686C78.7902 81.1352 78.7569 81.1675 78.6912 81.1675H77.7769V81.1656Z" fill="white"/>
<path d="M83.142 81.1663C83.0754 81.1663 83.0431 81.133 83.0431 81.0674V80.7096H83.0336C82.9213 80.8752 82.7615 81.0112 82.5569 81.1169C82.3514 81.2225 82.0869 81.2757 81.7625 81.2757C81.3514 81.2757 81.0042 81.1796 80.7197 80.9875C80.4352 80.7953 80.2297 80.507 80.1041 80.1236C80.0442 79.938 80.0014 79.7477 79.9747 79.5527C79.9481 79.3576 79.9348 79.097 79.9348 78.7725C79.9348 78.4481 79.9481 78.1883 79.9747 77.9923C80.0014 77.7973 80.0442 77.607 80.1041 77.4215C80.2297 77.0371 80.4352 76.7488 80.7197 76.5566C81.0042 76.3644 81.3524 76.2683 81.7625 76.2683C82.0869 76.2683 82.3523 76.3216 82.5569 76.4272C82.7624 76.5328 82.9213 76.6689 83.0336 76.8344H83.0431V74.5091C83.0431 74.4425 83.0764 74.4102 83.142 74.4102H84.0564C84.122 74.4102 84.1553 74.4435 84.1553 74.5091V81.0664C84.1553 81.133 84.122 81.1654 84.0564 81.1654H83.142V81.1663ZM82.0498 80.2824C82.5131 80.2824 82.8109 80.0769 82.9441 79.6669C82.9774 79.5546 83.0022 79.4319 83.0184 79.2996C83.0345 79.1674 83.0431 78.9913 83.0431 78.7725C83.0431 78.5537 83.0345 78.3786 83.0184 78.2464C83.0022 78.1141 82.9765 77.9914 82.9441 77.8791C82.8119 77.4681 82.5131 77.2635 82.0498 77.2635C81.5931 77.2635 81.2982 77.469 81.1659 77.8791C81.1326 77.9914 81.1079 78.1141 81.0917 78.2464C81.0755 78.3786 81.067 78.5546 81.067 78.7725C81.067 78.9913 81.0755 79.1664 81.0917 79.2996C81.1079 79.4319 81.1326 79.5546 81.1659 79.6669C81.2972 80.0769 81.5922 80.2824 82.0498 80.2824Z" fill="white"/>
<path d="M88.0706 81.1659C88.004 81.1659 87.9717 81.1326 87.9717 81.066V74.4983C87.9717 74.4317 88.005 74.3984 88.0706 74.3984H90.6043C90.9287 74.3984 91.2284 74.4498 91.5034 74.5525C91.7784 74.6553 92.0134 74.798 92.2094 74.9807C92.4044 75.1633 92.5566 75.3841 92.6661 75.6429C92.7755 75.9016 92.8297 76.1871 92.8297 76.4991C92.8297 76.8179 92.7755 77.1062 92.6661 77.3659C92.5566 77.6247 92.4044 77.8454 92.2094 78.0281C92.0143 78.2108 91.7784 78.3535 91.5034 78.4562C91.2284 78.559 90.9287 78.6104 90.6043 78.6104H89.2038C89.1638 78.6104 89.1438 78.6304 89.1438 78.6703V81.0651C89.1438 81.1317 89.1105 81.164 89.0449 81.164H88.0706V81.1659ZM90.5348 77.5495C90.8859 77.5495 91.1609 77.4553 91.3597 77.266C91.5586 77.0776 91.6575 76.8236 91.6575 76.5058C91.6575 76.1947 91.5586 75.9426 91.3597 75.7504C91.1609 75.5582 90.8859 75.4621 90.5348 75.4621H89.2038C89.1638 75.4621 89.1438 75.4821 89.1438 75.522V77.4896C89.1438 77.5296 89.1638 77.5495 89.2038 77.5495H90.5348Z" fill="white"/>
<path d="M95.1843 81.226C94.7143 81.226 94.3775 81.1138 94.1758 80.8883C93.9741 80.6628 93.8723 80.3184 93.8723 79.855V74.5099C93.8723 74.4433 93.9056 74.4109 93.9712 74.4109H94.8856C94.9522 74.4109 94.9845 74.4442 94.9845 74.5099V79.796C94.9845 79.9616 95.0178 80.0758 95.0835 80.1386C95.1501 80.2014 95.2557 80.2328 95.4012 80.2328H95.6201C95.6867 80.2328 95.719 80.2661 95.719 80.3317V81.1261C95.719 81.1927 95.6857 81.2251 95.6201 81.2251H95.1843V81.226Z" fill="white"/>
<path d="M99.6363 81.1663C99.5697 81.1663 99.5373 81.133 99.5373 81.0673V80.7191H99.5278C99.4155 80.8847 99.2462 81.0188 99.0207 81.1216C98.7952 81.2243 98.5136 81.2757 98.1758 81.2757C97.957 81.2757 97.7505 81.2462 97.5545 81.1863C97.3595 81.1273 97.1882 81.0378 97.0426 80.9189C96.8971 80.8 96.781 80.6497 96.6944 80.4679C96.6078 80.2862 96.565 80.0702 96.565 79.8191C96.565 79.2977 96.7353 78.9152 97.0769 78.6707C97.4175 78.4262 97.8866 78.3044 98.4831 78.3044H99.4564C99.4964 78.3044 99.5164 78.2844 99.5164 78.2444V78.0142C99.5164 77.7335 99.4403 77.5299 99.288 77.4024C99.1358 77.2759 98.857 77.2121 98.4536 77.2121C98.1815 77.2121 97.9598 77.2435 97.7876 77.3063C97.6154 77.3691 97.4727 77.4471 97.3604 77.5394C97.3005 77.586 97.2539 77.5794 97.2215 77.5194L96.8543 76.8639C96.821 76.8106 96.8276 76.7678 96.8742 76.7345C97.0664 76.5956 97.2976 76.4833 97.5697 76.3968C97.8409 76.3111 98.1758 76.2674 98.5735 76.2674C99.3023 76.2674 99.817 76.3996 100.119 76.6651C100.42 76.9305 100.571 77.3539 100.571 77.9371V81.0673C100.571 81.1339 100.537 81.1663 100.472 81.1663H99.6363ZM98.4536 80.3718C98.798 80.3718 99.0616 80.3052 99.2433 80.173C99.425 80.0407 99.5164 79.8352 99.5164 79.5574V79.1902C99.5164 79.1502 99.4964 79.1302 99.4564 79.1302H98.662C98.3042 79.1302 98.0426 79.1816 97.8771 79.2844C97.7115 79.3871 97.6287 79.5508 97.6287 79.7762C97.6287 80.173 97.9037 80.3718 98.4536 80.3718Z" fill="white"/>
<path d="M103.849 81.2757C103.366 81.2757 102.95 81.1634 102.602 80.9379C102.254 80.7125 102.011 80.3852 101.871 79.9542C101.772 79.6564 101.722 79.2625 101.722 78.7715C101.722 78.2815 101.771 77.8876 101.871 77.5889C102.01 77.1579 102.254 76.8306 102.602 76.6051C102.95 76.3796 103.365 76.2674 103.849 76.2674C104.207 76.2674 104.525 76.334 104.803 76.4662C105.081 76.5985 105.316 76.7811 105.509 77.0123C105.549 77.0656 105.545 77.1113 105.5 77.1512L104.874 77.6974C104.821 77.7373 104.775 77.7307 104.735 77.6774C104.616 77.5451 104.488 77.4424 104.352 77.3691C104.216 77.2968 104.049 77.2597 103.851 77.2597C103.639 77.2597 103.455 77.3111 103.299 77.4138C103.143 77.5166 103.029 77.6736 102.957 77.8857C102.917 78.0047 102.89 78.136 102.878 78.2777C102.864 78.4204 102.858 78.5841 102.858 78.7696C102.858 78.9552 102.864 79.1207 102.878 79.2663C102.891 79.4118 102.918 79.5441 102.957 79.664C103.03 79.8695 103.144 80.0236 103.299 80.1264C103.455 80.2291 103.639 80.2805 103.851 80.2805C104.05 80.2805 104.217 80.2444 104.352 80.1711C104.488 80.0988 104.616 79.996 104.735 79.8628C104.775 79.8162 104.821 79.8133 104.874 79.8533L105.5 80.3994C105.54 80.4327 105.543 80.4784 105.509 80.5383C105.317 80.7638 105.082 80.9427 104.803 81.075C104.525 81.2091 104.207 81.2757 103.849 81.2757Z" fill="white"/>
<path d="M108.598 81.2752C108.088 81.2752 107.661 81.1572 107.319 80.9222C106.976 80.6872 106.74 80.3608 106.608 79.9432C106.556 79.7909 106.515 79.6206 106.485 79.4313C106.456 79.2429 106.442 79.0222 106.442 78.77C106.442 78.5189 106.455 78.2962 106.481 78.104C106.507 77.9119 106.546 77.7396 106.599 77.5874C106.73 77.1697 106.968 76.8453 107.314 76.6141C107.66 76.3819 108.071 76.2659 108.548 76.2659C109.045 76.2659 109.463 76.3838 109.805 76.6189C110.146 76.8539 110.383 77.1773 110.516 77.5874C110.542 77.674 110.565 77.7596 110.585 77.8453C110.605 77.9318 110.621 78.0308 110.635 78.1431C110.648 78.2553 110.657 78.3828 110.664 78.5255C110.671 78.6682 110.674 78.8357 110.674 79.0269C110.674 79.0935 110.637 79.1259 110.564 79.1259H107.613C107.573 79.1259 107.553 79.1459 107.553 79.1858C107.553 79.2591 107.56 79.3247 107.573 79.3847C107.586 79.4446 107.602 79.5008 107.622 79.554C107.788 80.0374 108.146 80.279 108.696 80.279C108.967 80.279 109.192 80.2362 109.371 80.1496C109.55 80.064 109.699 79.9546 109.818 79.8214C109.872 79.7681 109.921 79.7614 109.968 79.8014L110.554 80.318C110.6 80.358 110.603 80.4046 110.563 80.4569C110.358 80.6958 110.089 80.8908 109.758 81.043C109.429 81.1991 109.042 81.2752 108.598 81.2752ZM109.552 78.2439C109.552 78.0898 109.532 77.9537 109.492 77.8329C109.425 77.6388 109.309 77.4875 109.144 77.3772C108.978 77.2668 108.782 77.2116 108.558 77.2116C108.326 77.2116 108.127 77.2668 107.961 77.3772C107.796 77.4875 107.679 77.6397 107.614 77.8329C107.574 77.9537 107.554 78.0907 107.554 78.2439C107.554 78.2839 107.574 78.3038 107.614 78.3038H109.492C109.532 78.3038 109.552 78.2839 109.552 78.2439Z" fill="white"/>
<path d="M113.645 81.2757C113.155 81.2757 112.739 81.1967 112.398 81.0369C112.056 80.878 111.787 80.7058 111.588 80.5203C111.541 80.4736 111.541 80.428 111.588 80.3814L112.154 79.7848C112.201 79.7382 112.246 79.7382 112.293 79.7848C112.465 79.9437 112.678 80.075 112.934 80.1768C113.189 80.2796 113.442 80.3309 113.694 80.3309C113.992 80.3309 114.214 80.2777 114.36 80.172C114.506 80.0664 114.579 79.9304 114.579 79.7648C114.579 79.6193 114.525 79.5032 114.416 79.4166C114.306 79.331 114.096 79.271 113.785 79.2377L113.268 79.1883C112.778 79.135 112.41 78.9894 112.166 78.7506C111.92 78.5118 111.798 78.1873 111.798 77.7773C111.798 77.3139 111.957 76.9457 112.275 76.6746C112.593 76.4034 113.053 76.2674 113.656 76.2674C114.034 76.2674 114.375 76.3216 114.68 76.431C114.985 76.5404 115.243 76.6812 115.456 76.8534C115.509 76.8934 115.516 76.94 115.476 76.9923L114.988 77.5784C114.948 77.6251 114.902 77.6317 114.85 77.5984C114.697 77.4928 114.51 77.3996 114.288 77.3206C114.067 77.2407 113.836 77.2017 113.597 77.2017C113.359 77.2017 113.179 77.2483 113.056 77.3406C112.933 77.4338 112.872 77.5527 112.872 77.6983C112.872 77.8372 112.926 77.9485 113.031 78.0313C113.137 78.1141 113.346 78.1721 113.657 78.2054L114.174 78.2549C114.677 78.3082 115.05 78.4557 115.292 78.6973C115.534 78.939 115.654 79.2587 115.654 79.6564C115.654 80.133 115.485 80.5222 115.147 80.8238C114.808 81.1254 114.308 81.2757 113.645 81.2757Z" fill="white"/>
</svg>
