<svg width="24" height="24" viewBox="0 0 24 24" fill="none" xmlns="http://www.w3.org/2000/svg">
<path d="M2.06495 7.52067C2.11418 6.44488 2.28262 5.75106 2.51042 5.16213L2.51348 5.15399C2.73922 4.55468 3.09285 4.01178 3.54976 3.56304L3.55617 3.55675L3.56246 3.55034C4.01157 3.09284 4.55467 2.73956 5.15345 2.51442L5.16378 2.51047C5.75138 2.28196 6.44384 2.11414 7.52053 2.06492M2.06495 7.52067C2.01319 8.67009 2 9.0264 2 12.0066C2 14.9875 2.01246 15.3429 2.06492 16.4926M2.06495 7.52067V7.81061M2.51442 18.8598C2.73956 19.4585 3.09284 20.0016 3.55034 20.4507L3.55674 20.4571L3.56302 20.4634C4.01178 20.9203 4.55471 21.274 5.15401 21.4997L5.16296 21.5031C5.75109 21.7312 6.4439 21.8991 7.52053 21.9483M2.51442 18.8598L2.51047 18.8494C2.28196 18.2618 2.11414 17.5694 2.06492 16.4926M2.51442 18.8598L2.50093 18.7886M2.06492 16.4926L2.08255 16.5855M2.06492 16.4926V16.202M2.50093 18.7886L2.08255 16.5855M2.50093 18.7886C2.32323 18.3193 2.14026 17.6642 2.08255 16.5855M2.50093 18.7886C2.50716 18.8052 2.51338 18.8214 2.5196 18.8374C2.74494 19.4448 3.10199 19.9949 3.56507 20.448C4.01802 20.9111 4.56786 21.268 5.17515 21.4934C5.66251 21.6832 6.34922 21.8816 7.52036 21.9353C8.70224 21.9891 9.06739 22 12.0066 22C14.9458 22 15.3113 21.9891 16.4932 21.9353C17.6658 21.8815 18.3517 21.682 18.8373 21.4937C19.4449 21.2684 19.9951 20.9113 20.4481 20.448C20.9111 19.9951 21.268 19.4453 21.4934 18.838C21.6832 18.3506 21.8816 17.664 21.9353 16.4928C21.9891 15.3109 22 14.9451 22 12.0066C22 9.06813 21.9891 8.70194 21.9353 7.52005C21.8812 6.34134 21.6799 5.6544 21.4907 5.16834C21.2433 4.52971 20.9296 4.04671 20.4474 3.56449C19.9661 3.0842 19.4844 2.77031 18.8454 2.52267C18.3575 2.33197 17.6701 2.13191 16.4932 2.07796C16.3907 2.07331 16.2945 2.06897 16.2022 2.06493M2.08255 16.5855C2.08092 16.5551 2.07939 16.5243 2.07796 16.4932C2.07331 16.3907 2.06896 16.2944 2.06492 16.202M7.52053 2.06492C8.67022 2.01246 9.0264 2 12.0066 2C14.9867 2 15.3428 2.01318 16.4922 2.06493M7.52053 2.06492H7.81121M16.4922 2.06493H16.2022M16.4922 2.06493C17.5682 2.11415 18.2621 2.28257 18.8511 2.51039L18.8592 2.51348C19.4585 2.73922 20.0014 3.09285 20.4501 3.54976L20.4564 3.55611L20.4627 3.56234C20.9197 4.01111 21.2733 4.55417 21.4988 5.15364L21.5027 5.16378C21.7313 5.75138 21.8991 6.44384 21.9483 7.52053M7.81121 2.06492L16.2022 2.06493M7.81121 2.06492C8.78475 2.02235 9.32283 2.01319 12.0066 2.01319C14.6906 2.01319 15.2285 2.02236 16.2022 2.06493M7.81121 2.06492C7.71881 2.06896 7.62249 2.07331 7.52005 2.07796C6.34744 2.13171 5.66154 2.3312 5.17591 2.51956C4.566 2.74565 4.01401 3.10459 3.55995 3.57038C3.08224 4.05006 2.76956 4.53076 2.52272 5.16779C2.33199 5.65558 2.13189 6.34331 2.07795 7.52036C2.07331 7.62247 2.06897 7.7185 2.06495 7.81061M21.9483 16.4926C21.8991 17.5693 21.7313 18.2621 21.5032 18.8502L21.4997 18.8592C21.274 19.4585 20.9203 20.0014 20.4635 20.4501L20.4571 20.4564L20.4507 20.4628C20.0016 20.9203 19.4585 21.2736 18.8598 21.4987L18.8494 21.5027C18.2618 21.7313 17.5694 21.8991 16.4926 21.9483M2.06492 16.202C2.02235 15.2284 2.01319 14.6903 2.01319 12.0066C2.01319 9.32201 2.02235 8.78467 2.06495 7.81061M2.06492 16.202L2.06495 7.81061M10.2268 16.3033C10.7912 16.5369 11.3959 16.6573 12.0066 16.6573C13.24 16.6573 14.4229 16.1673 15.2952 15.2952C16.1673 14.4229 16.6573 13.24 16.6573 12.0066C16.6573 10.7732 16.1673 9.59023 15.2952 8.71805C14.4229 7.84588 13.24 7.35589 12.0066 7.35589C11.3959 7.35589 10.7911 7.47619 10.2268 7.70992C9.66263 7.94363 9.14992 8.2862 8.71806 8.71805C8.28621 9.14992 7.94364 9.6626 7.70992 10.2269C7.4762 10.7911 7.35591 11.3959 7.35591 12.0066C7.35591 12.6174 7.4762 13.2221 7.70992 13.7863C7.94364 14.3506 8.28621 14.8633 8.71806 15.2952C9.14992 15.7269 9.66263 16.0696 10.2268 16.3033ZM8.70771 8.70769C9.58263 7.83277 10.7693 7.34124 12.0066 7.34124C13.2439 7.34124 14.4305 7.83277 15.3055 8.70769C16.1804 9.58262 16.6719 10.7693 16.6719 12.0066C16.6719 13.2439 16.1804 14.4305 15.3055 15.3055C14.4305 16.1804 13.2439 16.6719 12.0066 16.6719C10.7693 16.6719 9.58263 16.1804 8.70771 15.3055C7.83278 14.4305 7.34125 13.2439 7.34125 12.0066C7.34125 10.7693 7.83278 9.58262 8.70771 8.70769ZM19.2989 6.25504C19.2989 6.60919 19.1583 6.94883 18.9079 7.19925C18.6575 7.44967 18.3178 7.59036 17.9637 7.59036C17.6095 7.59036 17.2699 7.44967 17.0195 7.19925C16.7691 6.94883 16.6283 6.60919 16.6283 6.25504C16.6283 5.9009 16.7691 5.56125 17.0195 5.31084C17.2699 5.06042 17.6095 4.91974 17.9637 4.91974C18.3178 4.91974 18.6575 5.06042 18.9079 5.31084C19.1583 5.56125 19.2989 5.9009 19.2989 6.25504Z" stroke="#F7BF23" stroke-linejoin="round"/>
</svg>
