<svg width="32" height="32" viewBox="0 0 32 32" fill="none" xmlns="http://www.w3.org/2000/svg">
<path fill-rule="evenodd" clip-rule="evenodd" d="M19.7887 6.93108L6.76592 12.719C5.94781 13.0826 5.29731 13.7419 4.94474 14.5648C4.17269 16.3669 5.00765 18.4535 6.80967 19.2256L9.51624 20.3852C10.4606 20.7898 11.2131 21.5423 11.6178 22.4867L12.7758 25.1898C13.1282 26.0123 13.7784 26.6713 14.5961 27.0347C16.3867 27.8307 18.4837 27.0244 19.2796 25.2337L25.0684 12.2111C25.5282 11.1768 25.5282 9.99611 25.0685 8.96177C24.1713 6.94303 21.8075 6.03386 19.7887 6.93108ZM22.6317 10.0448C22.7849 10.3896 22.7849 10.7831 22.6317 11.1279L16.8429 24.1505C16.6451 24.5954 16.1241 24.7957 15.6792 24.598C15.4761 24.5077 15.3146 24.344 15.227 24.1396L14.0689 21.4365C13.3946 19.8625 12.1404 18.6084 10.5664 17.934L7.85984 16.7744C7.41157 16.5824 7.20386 16.0633 7.39592 15.615C7.48362 15.4103 7.64544 15.2463 7.84896 15.1558L20.8718 9.36791C21.4966 9.0902 22.2206 9.33167 22.5604 9.90636L22.6317 10.0448Z" fill="#F7BF23"/>
<g opacity="0.5">
<path fill-rule="evenodd" clip-rule="evenodd" d="M16.3906 13.7239C16.9113 13.2032 17.7555 13.2032 18.2762 13.7239C18.7569 14.2045 18.7938 14.9609 18.3871 15.4839L18.2762 15.6095L12.9429 20.9429C12.4222 21.4635 11.578 21.4635 11.0573 20.9429C10.5766 20.4622 10.5397 19.7059 10.9464 19.1828L11.0573 19.0572L16.3906 13.7239Z" fill="#F7BF23"/>
</g>
</svg>
