<svg width="18" height="18" viewBox="0 0 18 18" fill="none" xmlns="http://www.w3.org/2000/svg">
<path d="M4.66973 16.3016C5.94329 17.0657 7.47156 17.4902 8.99983 17.4902C13.6696 17.4902 17.4902 13.6696 17.4902 8.99983C17.4902 4.33011 13.6696 0.509425 8.99983 0.509425C4.33011 0.509425 0.509425 4.33011 0.509425 8.99983C0.509425 10.5281 0.933945 11.9715 1.61318 13.245L0.958169 15.7643C0.759776 16.5274 1.46605 17.2169 2.22413 17.0003L4.66973 16.3016Z" stroke="#44C1EF" stroke-miterlimit="10" stroke-linecap="round" stroke-linejoin="round"/>
<path d="M12.8202 11.4183C12.8202 11.5559 12.7896 11.6972 12.7245 11.8348C12.6595 11.9723 12.5753 12.1022 12.4643 12.2245C12.2768 12.4308 12.0702 12.5798 11.8368 12.6753C11.6072 12.7708 11.3585 12.8205 11.0906 12.8205C10.7003 12.8205 10.2833 12.7288 9.84323 12.5416C9.40319 12.3544 8.96315 12.1022 8.52694 11.7851C8.0869 11.4642 7.66982 11.1088 7.27187 10.7153C6.87775 10.3179 6.52189 9.9015 6.2043 9.46594C5.89053 9.03038 5.63799 8.59482 5.45432 8.16308C5.27065 7.72753 5.17882 7.31107 5.17882 6.91372C5.17882 6.65391 5.22474 6.40557 5.31657 6.17633C5.4084 5.94327 5.55381 5.72931 5.75661 5.53827C6.0015 5.29757 6.26935 5.17913 6.5525 5.17913C6.65964 5.17913 6.76678 5.20205 6.86244 5.2479C6.96193 5.29375 7.04994 5.36252 7.11882 5.46186L8.00655 6.71122C8.07542 6.80674 8.12516 6.89462 8.1596 6.97867C8.19404 7.05891 8.21317 7.13914 8.21317 7.21173C8.21317 7.30343 8.18639 7.39513 8.13282 7.483C8.08307 7.57088 8.01037 7.66257 7.91854 7.75427L7.62773 8.0561C7.58564 8.09813 7.56651 8.1478 7.56651 8.20893C7.56651 8.2395 7.57033 8.26624 7.57799 8.29681C7.58947 8.32737 7.60094 8.3503 7.6086 8.37322C7.67747 8.4993 7.79609 8.66359 7.96445 8.86227C8.13664 9.06094 8.32031 9.26344 8.51929 9.46594C8.72591 9.66843 8.92489 9.85565 9.12769 10.0276C9.32666 10.1957 9.4912 10.3103 9.6213 10.3791C9.64043 10.3867 9.66339 10.3982 9.69017 10.4096C9.72078 10.4211 9.75139 10.4249 9.78583 10.4249C9.85088 10.4249 9.90063 10.402 9.94272 10.36L10.2335 10.0734C10.3292 9.97791 10.421 9.90532 10.509 9.85947C10.597 9.80598 10.685 9.77923 10.7807 9.77923C10.8534 9.77923 10.9299 9.79452 11.0141 9.8289C11.0983 9.86329 11.1863 9.91296 11.282 9.97791L12.5485 10.8758C12.648 10.9445 12.7169 11.0248 12.759 11.1203C12.7972 11.2158 12.8202 11.3113 12.8202 11.4183Z" stroke="#44C1EF" stroke-miterlimit="10"/>
</svg>
