<svg width="102" height="102" viewBox="0 0 102 102" fill="none" xmlns="http://www.w3.org/2000/svg">
<g filter="url(#filter0_d_1222_2940)">
<path d="M51 76C68.1208 76 82 62.1208 82 45C82 27.8792 68.1208 14 51 14C33.8792 14 20 27.8792 20 45C20 62.1208 33.8792 76 51 76Z" fill="white"/>
<path d="M48.9436 31.1247C48.9436 30.5783 49.1606 30.0544 49.547 29.6681C49.9333 29.2817 50.4572 29.0647 51.0036 29.0647C51.5499 29.0647 52.0739 29.2817 52.4602 29.6681C52.8465 30.0544 53.0636 30.5783 53.0636 31.1247H48.9436Z" fill="#2C3862"/>
<path d="M52.064 23.1464H49.9396V30.0966H52.064V23.1464Z" fill="#2C3862"/>
<path d="M51.0001 25.6755C52.397 25.6755 53.5294 24.5431 53.5294 23.1462C53.5294 21.7493 52.397 20.6169 51.0001 20.6169C49.6032 20.6169 48.4708 21.7493 48.4708 23.1462C48.4708 24.5431 49.6032 25.6755 51.0001 25.6755Z" fill="#2C3862"/>
<path d="M51.0036 63.8586C46.3714 63.8586 41.9541 63.1708 38.5685 61.924C30.8947 59.0974 29.7482 54.0674 29.7482 51.3196C29.7482 45.6823 31.9876 40.2759 35.9738 36.2898C39.96 32.3036 45.3664 30.0642 51.0036 30.0642C56.6409 30.0642 62.0473 32.3036 66.0335 36.2898C70.0196 40.2759 72.259 45.6823 72.259 51.3196C72.259 54.0674 71.1126 59.0974 63.4352 61.924C60.0496 63.1708 55.6359 63.8586 51.0036 63.8586ZM51.0036 32.1887C45.9312 32.1934 41.068 34.2105 37.4813 37.7972C33.8945 41.384 31.8774 46.2472 31.8727 51.3196C31.8727 53.5122 32.8364 57.5497 39.303 59.9178C42.4592 61.0785 46.615 61.7091 51.0036 61.7091C55.3923 61.7091 59.5445 61.0678 62.7007 59.9178C69.1673 57.5354 70.1346 53.4978 70.1346 51.3196C70.1289 46.2475 68.1115 41.3848 64.525 37.7983C60.9385 34.2118 56.0757 32.1944 51.0036 32.1887Z" fill="#2C3862"/>
<path d="M51.0036 36.4412C49.0494 36.4407 47.1143 36.8252 45.3088 37.5727C43.5032 38.3202 41.8626 39.4161 40.4806 40.7977C39.0987 42.1793 38.0024 43.8197 37.2545 45.625C36.5065 47.4304 36.1216 49.3654 36.1216 51.3196C36.1216 59.538 65.882 59.538 65.882 51.3196C65.882 47.3736 64.3145 43.5892 61.5242 40.799C58.734 38.0087 54.9496 36.4412 51.0036 36.4412ZM43.4802 45.1611C43.4802 43.1083 44.4941 41.4424 45.748 41.4424C47.0019 41.4424 48.0121 43.1083 48.0121 45.1611C48.0121 47.214 46.9983 48.8799 45.748 48.8799C44.4976 48.8799 43.4945 47.2175 43.4945 45.1611H43.4802ZM55.3027 52.8708C54.8066 53.5448 54.1591 54.0927 53.4123 54.4703C52.6655 54.8479 51.8404 55.0446 51.0036 55.0446C50.1668 55.0446 49.3417 54.8479 48.5949 54.4703C47.8481 54.0927 47.2005 53.5448 46.7045 52.8708C46.5959 52.7612 46.5121 52.6294 46.459 52.4845C46.4059 52.3396 46.3846 52.1849 46.3965 52.031C46.4085 51.8772 46.4535 51.7277 46.5284 51.5927C46.6034 51.4578 46.7065 51.3406 46.8308 51.249C46.955 51.1575 47.0976 51.0938 47.2487 51.0623C47.3998 51.0308 47.5559 51.0322 47.7064 51.0665C47.8569 51.1007 47.9983 51.1669 48.1209 51.2607C48.2435 51.3544 48.3445 51.4735 48.417 51.6098C48.717 52.013 49.1072 52.3404 49.5563 52.566C50.0054 52.7916 50.501 52.9091 51.0036 52.9091C51.5062 52.9091 52.0018 52.7916 52.4509 52.566C52.9 52.3404 53.2901 52.013 53.5902 51.6098C53.662 51.4722 53.7627 51.3518 53.8854 51.2569C54.0081 51.1619 54.1499 51.0947 54.3011 51.0597C54.4523 51.0248 54.6092 51.023 54.7612 51.0545C54.9131 51.086 55.0564 51.15 55.1813 51.2421C55.3061 51.3342 55.4095 51.4523 55.4844 51.5882C55.5593 51.7241 55.6039 51.8746 55.6151 52.0294C55.6263 52.1841 55.6038 52.3395 55.5493 52.4847C55.4947 52.63 55.4094 52.7617 55.2991 52.8708H55.3027ZM56.2485 48.8799C54.9982 48.8799 53.9843 47.2175 53.9843 45.1611C53.9843 43.1048 54.9982 41.4424 56.2485 41.4424C57.4988 41.4424 58.5127 43.1083 58.5127 45.1611C58.5127 47.214 57.4988 48.8799 56.2449 48.8799H56.2485Z" fill="#2C3862"/>
<path d="M30.6224 53.3582H28.6018C28.5007 53.3582 28.4005 53.3382 28.307 53.2995C28.2136 53.2608 28.1287 53.2041 28.0572 53.1326C27.9856 53.061 27.9289 52.9761 27.8902 52.8827C27.8515 52.7892 27.8316 52.6891 27.8316 52.5879V47.5544C27.8316 47.3501 27.9127 47.1542 28.0572 47.0097C28.2016 46.8653 28.3975 46.7841 28.6018 46.7841H30.6224V53.3582Z" fill="#2C3862"/>
<path d="M71.3777 46.7841H73.3803C73.5846 46.7841 73.7805 46.8652 73.925 47.0097C74.0694 47.1541 74.1506 47.35 74.1506 47.5543V52.5878C74.1506 52.689 74.1306 52.7891 74.0919 52.8826C74.0532 52.976 73.9965 53.0609 73.925 53.1325C73.8534 53.204 73.7685 53.2607 73.6751 53.2994C73.5816 53.3382 73.4815 53.3581 73.3803 53.3581H71.3597V46.7841H71.3777Z" fill="#2C3862"/>
</g>
<defs>
<filter id="filter0_d_1222_2940" x="0" y="0" width="102" height="102" filterUnits="userSpaceOnUse" color-interpolation-filters="sRGB">
<feFlood flood-opacity="0" result="BackgroundImageFix"/>
<feColorMatrix in="SourceAlpha" type="matrix" values="0 0 0 0 0 0 0 0 0 0 0 0 0 0 0 0 0 0 127 0" result="hardAlpha"/>
<feOffset dy="6"/>
<feGaussianBlur stdDeviation="10"/>
<feComposite in2="hardAlpha" operator="out"/>
<feColorMatrix type="matrix" values="0 0 0 0 0.266667 0 0 0 0 0.756863 0 0 0 0 0.937255 0 0 0 0.16 0"/>
<feBlend mode="normal" in2="BackgroundImageFix" result="effect1_dropShadow_1222_2940"/>
<feBlend mode="normal" in="SourceGraphic" in2="effect1_dropShadow_1222_2940" result="shape"/>
</filter>
</defs>
</svg>
