<svg width="24" height="24" viewBox="0 0 24 24" fill="none" xmlns="http://www.w3.org/2000/svg">
<path d="M13 15.9527H11C10.45 15.9527 9.99997 15.5041 9.99997 14.9557H3.01V18.9439C3.01 20.0406 3.90999 20.938 5.00999 20.938H18.9999C20.0999 20.938 20.9999 20.0406 20.9999 18.9439V14.9557H14C14 15.5041 13.55 15.9527 13 15.9527ZM19.9999 6.97933H16C16 4.77585 14.21 2.99114 12 2.99114C9.78997 2.99114 7.99998 4.77585 7.99998 6.97933H3.99999C2.9 6.97933 2 7.87667 2 8.97342V11.9646C2 13.0713 2.89 13.9586 3.99999 13.9586H9.99997V12.9616C9.99997 12.4132 10.45 11.9646 11 11.9646H13C13.55 11.9646 14 12.4132 14 12.9616V13.9586H19.9999C21.0999 13.9586 21.9999 13.0613 21.9999 11.9646V8.97342C21.9999 7.87667 21.0999 6.97933 19.9999 6.97933ZM9.99997 6.97933C9.99997 5.88258 10.9 4.98523 12 4.98523C13.1 4.98523 14 5.88258 14 6.97933H9.98997H9.99997Z" fill="#2C3862"/>
</svg>
