<svg width="48" height="48" viewBox="0 0 48 48" fill="none" xmlns="http://www.w3.org/2000/svg">
<path fill-rule="evenodd" clip-rule="evenodd" d="M17.8606 6.10648L12.8912 9.97159C12.2359 10.4812 11.6467 11.0705 11.1371 11.7257C7.74635 16.0852 8.5317 22.3679 12.8912 25.7586L17.8606 29.6237C21.4717 32.4324 26.5283 32.4324 30.1394 29.6237L35.1088 25.7586C35.7641 25.249 36.3533 24.6598 36.8629 24.0045C40.2536 19.645 39.4683 13.3623 35.1088 9.97159L30.1394 6.10648C26.5283 3.29784 21.4717 3.29784 17.8606 6.10648ZM27.6836 9.26389L32.6531 13.129C35.2688 15.1634 35.74 18.9331 33.7055 21.5488C33.3998 21.9419 33.0462 22.2954 32.6531 22.6012L27.6836 26.4663C25.517 28.1515 22.483 28.1515 20.3164 26.4663L15.3469 22.6012C12.7313 20.5668 12.26 16.7971 14.2945 14.1815C14.6002 13.7883 14.9538 13.4348 15.3469 13.129L20.3164 9.26389C22.483 7.5787 25.517 7.5787 27.6836 9.26389Z" fill="#44C1EF"/>
<g opacity="0.5">
<path fill-rule="evenodd" clip-rule="evenodd" d="M17.8606 18.1065L12.8912 21.9716C12.2359 22.4812 11.6467 23.0705 11.1371 23.7257C7.74635 28.0852 8.5317 34.3679 12.8912 37.7586L17.8606 41.6237C21.4717 44.4324 26.5283 44.4324 30.1394 41.6237L35.1088 37.7586C35.7641 37.249 36.3533 36.6598 36.8629 36.0045C40.2536 31.645 39.4683 25.3623 35.1088 21.9716L30.1394 18.1065C26.5283 15.2978 21.4717 15.2978 17.8606 18.1065ZM27.6836 21.2639L32.6531 25.129C35.2688 27.1634 35.74 30.9331 33.7055 33.5488C33.3998 33.9419 33.0462 34.2954 32.6531 34.6012L27.6836 38.4663C25.517 40.1515 22.483 40.1515 20.3164 38.4663L15.3469 34.6012C12.7313 32.5668 12.26 28.7971 14.2945 26.1815C14.6002 25.7883 14.9538 25.4348 15.3469 25.129L20.3164 21.2639C22.483 19.5787 25.517 19.5787 27.6836 21.2639Z" fill="#44C1EF"/>
</g>
</svg>
