<svg width="48" height="48" viewBox="0 0 48 48" fill="none" xmlns="http://www.w3.org/2000/svg">
<path fill-rule="evenodd" clip-rule="evenodd" d="M7.82154 26.0079C8.9217 25.9093 9.8935 26.7212 9.99212 27.8214C10.0907 28.9215 9.27885 29.8933 8.17869 29.9919C7.60897 30.043 7.04772 30.1344 6.46813 30.2742L5.88142 30.4305C4.88578 30.6838 4.28564 31.0731 4.12339 31.5166C3.95895 31.9638 3.95895 32.5141 4.12517 32.9673C4.2167 33.2182 4.81491 33.6652 6.06929 34.1194C7.10784 34.4956 7.64484 35.6424 7.26871 36.681C6.89258 37.7195 5.74576 38.2565 4.7072 37.8804C2.44992 37.0629 0.953483 35.9449 0.368591 34.3414C-0.122771 33.0018 -0.122771 31.474 0.368034 30.1392C1.03698 28.3109 2.53264 27.2477 4.41718 26.6856L4.8268 26.5727C5.80335 26.2871 6.80439 26.0991 7.82154 26.0079ZM39.9451 26.0005L40.1786 26.0079C40.9923 26.0809 41.7956 26.2157 42.5494 26.4035L43.1048 26.554C45.2484 27.0994 46.9141 28.1796 47.6335 30.1395C48.1221 31.4753 48.1221 33.0005 47.6334 34.34C46.9193 36.291 45.2829 37.3558 43.1283 37.932C42.0612 38.2174 40.9649 37.5837 40.6795 36.5166C40.3942 35.4495 41.0279 34.3532 42.0949 34.0678C43.1177 33.7943 43.7161 33.4049 43.8764 32.9672C44.0412 32.5154 44.0412 31.9625 43.8777 31.5156C43.7155 31.0737 43.1145 30.6839 42.0501 30.4118C41.3254 30.1998 40.581 30.06 39.8215 29.9919C38.7213 29.8933 37.9094 28.9215 38.008 27.8213C38.0996 26.7998 38.9441 26.0268 39.9451 26.0005ZM24 27.9999C15.0372 27.9999 10.0001 30.5185 10.0001 35.9999C10.0001 41.4813 15.0372 43.9999 24 43.9999C32.9629 43.9999 38 41.4813 38 35.9999C38 30.5185 32.9629 27.9999 24 27.9999ZM24 31.9999C31.0372 31.9999 34.0001 33.4813 34.0001 35.9999C34.0001 38.5185 31.0372 39.9999 24 39.9999C16.9629 39.9999 14.0001 38.5185 14.0001 35.9999C14.0001 33.4813 16.9629 31.9999 24 31.9999Z" fill="#44C1EF"/>
<g opacity="0.5">
<path fill-rule="evenodd" clip-rule="evenodd" d="M24 3.99999C18.4555 3.99999 14.0001 8.45494 14.0001 13.999C14.0001 19.5447 18.4551 23.9999 24 23.9999C29.545 23.9999 34 19.5447 34 13.999C34 8.45491 29.5446 3.99999 24 3.99999ZM24 7.99998C27.3356 7.99998 30 10.6641 30 13.999C30 17.3356 27.3358 19.9999 24 19.9999C20.6643 19.9999 18.0001 17.3356 18.0001 13.999C18.0001 10.6642 20.6646 7.99998 24 7.99998ZM10.0001 7.99998C11.1047 7.99998 12.0001 8.89541 12.0001 9.99997C12.0001 11.1045 11.1047 12 10.0001 12C7.79156 12 6.00011 13.7912 6.00011 16C6.00011 18.1083 7.6324 19.8362 9.70165 19.989L10.0001 19.9999C11.1047 19.9999 12.0001 20.8954 12.0001 21.9999C12.0001 23.1045 11.1047 23.9999 10.0001 23.9999C5.58253 23.9999 2.00012 20.418 2.00012 16C2.00012 11.582 5.58253 7.99998 10.0001 7.99998ZM38 7.99998C42.4177 7.99998 46 11.5819 46 16C46 20.418 42.4177 23.9999 38 23.9999C36.8955 23.9999 36 23.1045 36 21.9999C36 20.9743 36.7721 20.1289 37.7668 20.0134L38 19.9999C40.2086 19.9999 42 18.2088 42 16C42 13.7912 40.2086 12 38 12C36.8955 12 36 11.1045 36 9.99997C36 8.89541 36.8955 7.99998 38 7.99998Z" fill="#44C1EF"/>
</g>
</svg>
